<?xml version='1.0' encoding='utf-8'?>
<svg xmlns="http://www.w3.org/2000/svg" version="1.1" width="456" height="118" viewBox="0 0 456.0 118.0">
<path d="M 2.878906 39.319336 L 2.878906 25.300781 L 3.738281 25.300781 L 3.738281 32.412109 L 6.729980 32.412109 L 6.729980 33.335938 L 3.738281 33.335938 L 3.738281 39.319336 Z " fill="black" fill-opacity="1.000000"/>
<path d="M 2.878906 52.319336 L 2.878906 38.300781 L 3.738281 38.300781 L 3.738281 52.319336 Z " fill="black" fill-opacity="1.000000"/>
<path d="M 2.878906 65.319336 L 2.878906 51.300781 L 3.738281 51.300781 L 3.738281 58.412109 L 6.729980 58.412109 L 6.729980 59.335938 L 3.738281 59.335938 L 3.738281 65.319336 Z " fill="black" fill-opacity="1.000000"/>
<path d="M 2.878906 78.319336 L 2.878906 64.300781 L 3.738281 64.300781 L 3.738281 78.319336 Z " fill="black" fill-opacity="1.000000"/>
<path d="M 2.878906 91.319336 L 2.878906 77.300781 L 3.738281 77.300781 L 3.738281 84.412109 L 6.729980 84.412109 L 6.729980 85.335938 L 3.738281 85.335938 L 3.738281 91.319336 Z " fill="black" fill-opacity="1.000000"/>
<path d="M 2.878906 104.319336 L 2.878906 90.300781 L 3.738281 90.300781 L 3.738281 104.319336 Z " fill="black" fill-opacity="1.000000"/>
<path d="M 2.878906 111.335938 L 2.878906 103.300781 L 3.738281 103.300781 L 3.738281 110.412109 L 6.729980 110.412109 L 6.729980 111.335938 Z " fill="black" fill-opacity="1.000000"/>
<path d="M 6.892578 111.335938 L 6.892578 110.412109 L 13.729980 110.412109 L 13.729980 111.335938 Z " fill="black" fill-opacity="1.000000"/>
<path d="M 13.892578 111.335938 L 13.892578 110.412109 L 20.729980 110.412109 L 20.729980 111.335938 Z " fill="black" fill-opacity="1.000000"/>
<path d="M 20.892578 111.335938 L 20.892578 110.412109 L 27.729980 110.412109 L 27.729980 111.335938 Z " fill="black" fill-opacity="1.000000"/>
<path d="M 27.892578 111.335938 L 27.892578 110.412109 L 34.729980 110.412109 L 34.729980 111.335938 Z " fill="black" fill-opacity="1.000000"/>
<path d="M 34.892578 111.335938 L 34.892578 110.412109 L 41.729980 110.412109 L 41.729980 111.335938 Z " fill="black" fill-opacity="1.000000"/>
<path d="M 41.892578 111.335938 L 41.892578 110.412109 L 48.729980 110.412109 L 48.729980 111.335938 Z " fill="black" fill-opacity="1.000000"/>
<path d="M 48.892578 111.335938 L 48.892578 110.412109 L 55.729980 110.412109 L 55.729980 111.335938 Z " fill="black" fill-opacity="1.000000"/>
<path d="M 55.892578 111.335938 L 55.892578 110.412109 L 62.729980 110.412109 L 62.729980 111.335938 Z " fill="black" fill-opacity="1.000000"/>
<path d="M 62.892578 111.335938 L 62.892578 110.412109 L 69.729980 110.412109 L 69.729980 111.335938 Z " fill="black" fill-opacity="1.000000"/>
<path d="M 69.892578 111.335938 L 69.892578 110.412109 L 76.729980 110.412109 L 76.729980 111.335938 Z " fill="black" fill-opacity="1.000000"/>
<path d="M 76.892578 111.335938 L 76.892578 110.412109 L 83.729980 110.412109 L 83.729980 111.335938 Z " fill="black" fill-opacity="1.000000"/>
<path d="M 83.892578 111.335938 L 83.892578 110.412109 L 90.729980 110.412109 L 90.729980 111.335938 Z " fill="black" fill-opacity="1.000000"/>
<path d="M 90.892578 111.335938 L 90.892578 110.412109 L 97.729980 110.412109 L 97.729980 111.335938 Z " fill="black" fill-opacity="1.000000"/>
<path d="M 97.892578 111.335938 L 97.892578 110.412109 L 104.729980 110.412109 L 104.729980 111.335938 Z " fill="black" fill-opacity="1.000000"/>
<path d="M 104.892578 111.335938 L 104.892578 110.412109 L 111.729980 110.412109 L 111.729980 111.335938 Z " fill="black" fill-opacity="1.000000"/>
<path d="M 111.892578 111.335938 L 111.892578 110.412109 L 118.729980 110.412109 L 118.729980 111.335938 Z " fill="black" fill-opacity="1.000000"/>
<path d="M 118.892578 111.335938 L 118.892578 110.412109 L 125.729980 110.412109 L 125.729980 111.335938 Z " fill="black" fill-opacity="1.000000"/>
<path d="M 125.892578 111.335938 L 125.892578 110.412109 L 132.729980 110.412109 L 132.729980 111.335938 Z " fill="black" fill-opacity="1.000000"/>
<path d="M 132.892578 111.335938 L 132.892578 110.412109 L 139.729980 110.412109 L 139.729980 111.335938 Z " fill="black" fill-opacity="1.000000"/>
<path d="M 139.892578 111.335938 L 139.892578 110.412109 L 146.729980 110.412109 L 146.729980 111.335938 Z " fill="black" fill-opacity="1.000000"/>
<path d="M 146.892578 111.335938 L 146.892578 110.412109 L 153.729980 110.412109 L 153.729980 111.335938 Z " fill="black" fill-opacity="1.000000"/>
<path d="M 153.892578 111.335938 L 153.892578 110.412109 L 160.729980 110.412109 L 160.729980 111.335938 Z " fill="black" fill-opacity="1.000000"/>
<path d="M 160.892578 111.335938 L 160.892578 110.412109 L 167.729980 110.412109 L 167.729980 111.335938 Z " fill="black" fill-opacity="1.000000"/>
<path d="M 167.892578 111.335938 L 167.892578 110.412109 L 174.729980 110.412109 L 174.729980 111.335938 Z " fill="black" fill-opacity="1.000000"/>
<path d="M 174.892578 111.335938 L 174.892578 110.412109 L 181.729980 110.412109 L 181.729980 111.335938 Z " fill="black" fill-opacity="1.000000"/>
<path d="M 181.892578 111.335938 L 181.892578 110.412109 L 188.729980 110.412109 L 188.729980 111.335938 Z " fill="black" fill-opacity="1.000000"/>
<path d="M 188.892578 111.335938 L 188.892578 110.412109 L 195.729980 110.412109 L 195.729980 111.335938 Z " fill="black" fill-opacity="1.000000"/>
<path d="M 195.892578 111.335938 L 195.892578 110.412109 L 202.729980 110.412109 L 202.729980 111.335938 Z " fill="black" fill-opacity="1.000000"/>
<path d="M 202.892578 111.335938 L 202.892578 110.412109 L 209.729980 110.412109 L 209.729980 111.335938 Z " fill="black" fill-opacity="1.000000"/>
<path d="M 209.892578 111.335938 L 209.892578 110.412109 L 216.729980 110.412109 L 216.729980 111.335938 Z " fill="black" fill-opacity="1.000000"/>
<path d="M 216.892578 111.335938 L 216.892578 110.412109 L 223.729980 110.412109 L 223.729980 111.335938 Z " fill="black" fill-opacity="1.000000"/>
<path d="M 223.892578 111.335938 L 223.892578 110.412109 L 230.729980 110.412109 L 230.729980 111.335938 Z " fill="black" fill-opacity="1.000000"/>
<path d="M 230.892578 111.335938 L 230.892578 110.412109 L 237.729980 110.412109 L 237.729980 111.335938 Z " fill="black" fill-opacity="1.000000"/>
<path d="M 237.892578 111.335938 L 237.892578 110.412109 L 244.729980 110.412109 L 244.729980 111.335938 Z " fill="black" fill-opacity="1.000000"/>
<path d="M 244.892578 111.335938 L 244.892578 110.412109 L 251.729980 110.412109 L 251.729980 111.335938 Z " fill="black" fill-opacity="1.000000"/>
<path d="M 251.892578 111.335938 L 251.892578 110.412109 L 258.729980 110.412109 L 258.729980 111.335938 Z " fill="black" fill-opacity="1.000000"/>
<path d="M 258.892578 111.335938 L 258.892578 110.412109 L 265.729980 110.412109 L 265.729980 111.335938 Z " fill="black" fill-opacity="1.000000"/>
<path d="M 265.892578 111.335938 L 265.892578 110.412109 L 272.729980 110.412109 L 272.729980 111.335938 Z " fill="black" fill-opacity="1.000000"/>
<path d="M 272.892578 111.335938 L 272.892578 110.412109 L 279.729980 110.412109 L 279.729980 111.335938 Z " fill="black" fill-opacity="1.000000"/>
<path d="M 279.892578 111.335938 L 279.892578 110.412109 L 286.729980 110.412109 L 286.729980 111.335938 Z " fill="black" fill-opacity="1.000000"/>
<path d="M 286.892578 111.335938 L 286.892578 110.412109 L 293.729980 110.412109 L 293.729980 111.335938 Z " fill="black" fill-opacity="1.000000"/>
<path d="M 293.892578 111.335938 L 293.892578 110.412109 L 300.729980 110.412109 L 300.729980 111.335938 Z " fill="black" fill-opacity="1.000000"/>
<path d="M 300.892578 111.335938 L 300.892578 110.412109 L 307.729980 110.412109 L 307.729980 111.335938 Z " fill="black" fill-opacity="1.000000"/>
<path d="M 307.892578 111.335938 L 307.892578 110.412109 L 314.729980 110.412109 L 314.729980 111.335938 Z " fill="black" fill-opacity="1.000000"/>
<path d="M 314.892578 111.335938 L 314.892578 110.412109 L 321.729980 110.412109 L 321.729980 111.335938 Z " fill="black" fill-opacity="1.000000"/>
<path d="M 321.892578 111.335938 L 321.892578 110.412109 L 328.729980 110.412109 L 328.729980 111.335938 Z " fill="black" fill-opacity="1.000000"/>
<path d="M 328.892578 111.335938 L 328.892578 110.412109 L 335.729980 110.412109 L 335.729980 111.335938 Z " fill="black" fill-opacity="1.000000"/>
<path d="M 335.892578 111.335938 L 335.892578 110.412109 L 342.729980 110.412109 L 342.729980 111.335938 Z " fill="black" fill-opacity="1.000000"/>
<path d="M 342.892578 111.335938 L 342.892578 110.412109 L 349.729980 110.412109 L 349.729980 111.335938 Z " fill="black" fill-opacity="1.000000"/>
<path d="M 349.892578 111.335938 L 349.892578 110.412109 L 356.729980 110.412109 L 356.729980 111.335938 Z " fill="black" fill-opacity="1.000000"/>
<path d="M 356.892578 111.335938 L 356.892578 110.412109 L 363.729980 110.412109 L 363.729980 111.335938 Z " fill="black" fill-opacity="1.000000"/>
<path d="M 363.892578 111.335938 L 363.892578 110.412109 L 370.729980 110.412109 L 370.729980 111.335938 Z " fill="black" fill-opacity="1.000000"/>
<path d="M 370.892578 111.335938 L 370.892578 110.412109 L 377.729980 110.412109 L 377.729980 111.335938 Z " fill="black" fill-opacity="1.000000"/>
<path d="M 377.892578 111.335938 L 377.892578 110.412109 L 384.729980 110.412109 L 384.729980 111.335938 Z " fill="black" fill-opacity="1.000000"/>
<path d="M 384.892578 111.335938 L 384.892578 110.412109 L 391.729980 110.412109 L 391.729980 111.335938 Z " fill="black" fill-opacity="1.000000"/>
<path d="M 391.892578 111.335938 L 391.892578 110.412109 L 398.729980 110.412109 L 398.729980 111.335938 Z " fill="black" fill-opacity="1.000000"/>
<path d="M 398.892578 111.335938 L 398.892578 110.412109 L 405.729980 110.412109 L 405.729980 111.335938 Z " fill="black" fill-opacity="1.000000"/>
<path d="M 405.892578 111.335938 L 405.892578 110.412109 L 412.729980 110.412109 L 412.729980 111.335938 Z " fill="black" fill-opacity="1.000000"/>
<path d="M 412.892578 111.335938 L 412.892578 110.412109 L 419.729980 110.412109 L 419.729980 111.335938 Z " fill="black" fill-opacity="1.000000"/>
<path d="M 419.892578 111.335938 L 419.892578 110.412109 L 426.729980 110.412109 L 426.729980 111.335938 Z " fill="black" fill-opacity="1.000000"/>
<path d="M 426.892578 111.335938 L 426.892578 110.412109 L 433.729980 110.412109 L 433.729980 111.335938 Z " fill="black" fill-opacity="1.000000"/>
<path d="M 433.892578 111.335938 L 433.892578 110.412109 L 440.729980 110.412109 L 440.729980 111.335938 Z " fill="black" fill-opacity="1.000000"/>
<path d="M 440.892578 111.335938 L 440.892578 110.412109 L 447.729980 110.412109 L 447.729980 111.335938 Z " fill="black" fill-opacity="1.000000"/>
<path d="M 447.892578 111.335938 L 447.892578 110.412109 L 450.878906 110.412109 L 450.878906 103.300781 L 451.738281 103.300781 L 451.738281 111.335938 Z " fill="black" fill-opacity="1.000000"/>
<path d="M 217.193359 93.007812 L 218.643555 93.007812 L 220.029297 97.079102 L 221.425781 93.007812 L 222.881348 93.007812 L 222.881348 101.000000 L 221.876953 101.000000 L 221.876953 93.937012 L 220.448242 98.147949 L 219.626465 98.147949 L 218.192383 93.937012 L 218.192383 101.000000 L 217.193359 101.000000 Z " fill="black" fill-opacity="1.000000"/>
<path d="M 227.308594 93.937012 L 226.164551 98.040527 L 228.452637 98.040527 Z M 226.653320 92.980957 L 227.969238 92.980957 L 230.423828 101.000000 L 229.301270 101.000000 L 228.710449 98.910645 L 225.901367 98.910645 L 225.321289 101.000000 L 224.198730 101.000000 Z " fill="black" fill-opacity="1.000000"/>
<path d="M 236.763184 100.715332 Q 236.349609 100.935547 235.914551 101.045654 Q 235.479492 101.155762 234.990723 101.155762 Q 233.449219 101.155762 232.597900 100.065430 Q 231.746582 98.975098 231.746582 96.998535 Q 231.746582 95.032715 232.603271 93.934326 Q 233.459961 92.835938 234.990723 92.835938 Q 235.479492 92.835938 235.914551 92.946045 Q 236.349609 93.056152 236.763184 93.276367 L 236.763184 94.388184 Q 236.365723 94.060547 235.909180 93.888672 Q 235.452637 93.716797 234.990723 93.716797 Q 233.932617 93.716797 233.406250 94.533203 Q 232.879883 95.349609 232.879883 96.998535 Q 232.879883 98.642090 233.406250 99.458496 Q 233.932617 100.274902 234.990723 100.274902 Q 235.463379 100.274902 235.917236 100.103027 Q 236.371094 99.931152 236.763184 99.603516 Z " fill="black" fill-opacity="1.000000"/>
<path d="M 450.878906 104.319336 L 450.878906 90.300781 L 451.738281 90.300781 L 451.738281 104.319336 Z " fill="black" fill-opacity="1.000000"/>
<path d="M 6.892578 85.335938 L 6.892578 84.412109 L 13.729980 84.412109 L 13.729980 85.335938 Z " fill="black" fill-opacity="1.000000"/>
<path d="M 13.892578 85.335938 L 13.892578 84.412109 L 20.729980 84.412109 L 20.729980 85.335938 Z " fill="black" fill-opacity="1.000000"/>
<path d="M 20.892578 85.335938 L 20.892578 84.412109 L 27.729980 84.412109 L 27.729980 85.335938 Z " fill="black" fill-opacity="1.000000"/>
<path d="M 27.892578 85.335938 L 27.892578 84.412109 L 34.729980 84.412109 L 34.729980 85.335938 Z " fill="black" fill-opacity="1.000000"/>
<path d="M 34.892578 85.335938 L 34.892578 84.412109 L 41.729980 84.412109 L 41.729980 85.335938 Z " fill="black" fill-opacity="1.000000"/>
<path d="M 41.892578 85.335938 L 41.892578 84.412109 L 48.729980 84.412109 L 48.729980 85.335938 Z " fill="black" fill-opacity="1.000000"/>
<path d="M 48.892578 85.335938 L 48.892578 84.412109 L 55.729980 84.412109 L 55.729980 85.335938 Z " fill="black" fill-opacity="1.000000"/>
<path d="M 55.892578 85.335938 L 55.892578 84.412109 L 62.729980 84.412109 L 62.729980 85.335938 Z " fill="black" fill-opacity="1.000000"/>
<path d="M 62.892578 85.335938 L 62.892578 84.412109 L 69.729980 84.412109 L 69.729980 85.335938 Z " fill="black" fill-opacity="1.000000"/>
<path d="M 69.892578 85.335938 L 69.892578 84.412109 L 76.729980 84.412109 L 76.729980 85.335938 Z " fill="black" fill-opacity="1.000000"/>
<path d="M 76.892578 85.335938 L 76.892578 84.412109 L 83.729980 84.412109 L 83.729980 85.335938 Z " fill="black" fill-opacity="1.000000"/>
<path d="M 83.892578 85.335938 L 83.892578 84.412109 L 90.729980 84.412109 L 90.729980 85.335938 Z " fill="black" fill-opacity="1.000000"/>
<path d="M 90.892578 85.335938 L 90.892578 84.412109 L 97.729980 84.412109 L 97.729980 85.335938 Z " fill="black" fill-opacity="1.000000"/>
<path d="M 97.892578 85.335938 L 97.892578 84.412109 L 104.729980 84.412109 L 104.729980 85.335938 Z " fill="black" fill-opacity="1.000000"/>
<path d="M 104.892578 85.335938 L 104.892578 84.412109 L 111.729980 84.412109 L 111.729980 85.335938 Z " fill="black" fill-opacity="1.000000"/>
<path d="M 111.892578 85.335938 L 111.892578 84.412109 L 118.729980 84.412109 L 118.729980 85.335938 Z " fill="black" fill-opacity="1.000000"/>
<path d="M 118.892578 85.335938 L 118.892578 84.412109 L 125.729980 84.412109 L 125.729980 85.335938 Z " fill="black" fill-opacity="1.000000"/>
<path d="M 125.892578 85.335938 L 125.892578 84.412109 L 132.729980 84.412109 L 132.729980 85.335938 Z " fill="black" fill-opacity="1.000000"/>
<path d="M 132.892578 85.335938 L 132.892578 84.412109 L 139.729980 84.412109 L 139.729980 85.335938 Z " fill="black" fill-opacity="1.000000"/>
<path d="M 139.892578 85.335938 L 139.892578 84.412109 L 146.729980 84.412109 L 146.729980 85.335938 Z " fill="black" fill-opacity="1.000000"/>
<path d="M 146.892578 85.335938 L 146.892578 84.412109 L 153.729980 84.412109 L 153.729980 85.335938 Z " fill="black" fill-opacity="1.000000"/>
<path d="M 153.892578 85.335938 L 153.892578 84.412109 L 160.729980 84.412109 L 160.729980 85.335938 Z " fill="black" fill-opacity="1.000000"/>
<path d="M 160.892578 85.335938 L 160.892578 84.412109 L 167.729980 84.412109 L 167.729980 85.335938 Z " fill="black" fill-opacity="1.000000"/>
<path d="M 167.892578 85.335938 L 167.892578 84.412109 L 174.729980 84.412109 L 174.729980 85.335938 Z " fill="black" fill-opacity="1.000000"/>
<path d="M 174.892578 85.335938 L 174.892578 84.412109 L 181.729980 84.412109 L 181.729980 85.335938 Z " fill="black" fill-opacity="1.000000"/>
<path d="M 181.892578 85.335938 L 181.892578 84.412109 L 188.729980 84.412109 L 188.729980 85.335938 Z " fill="black" fill-opacity="1.000000"/>
<path d="M 188.892578 85.335938 L 188.892578 84.412109 L 195.729980 84.412109 L 195.729980 85.335938 Z " fill="black" fill-opacity="1.000000"/>
<path d="M 195.892578 85.335938 L 195.892578 84.412109 L 202.729980 84.412109 L 202.729980 85.335938 Z " fill="black" fill-opacity="1.000000"/>
<path d="M 202.892578 85.335938 L 202.892578 84.412109 L 209.729980 84.412109 L 209.729980 85.335938 Z " fill="black" fill-opacity="1.000000"/>
<path d="M 209.892578 85.335938 L 209.892578 84.412109 L 216.729980 84.412109 L 216.729980 85.335938 Z " fill="black" fill-opacity="1.000000"/>
<path d="M 216.892578 85.335938 L 216.892578 84.412109 L 223.729980 84.412109 L 223.729980 85.335938 Z " fill="black" fill-opacity="1.000000"/>
<path d="M 223.892578 85.335938 L 223.892578 84.412109 L 226.878906 84.412109 L 226.878906 77.300781 L 227.738281 77.300781 L 227.738281 85.335938 Z " fill="black" fill-opacity="1.000000"/>
<path d="M 450.878906 91.319336 L 450.878906 85.335938 L 447.892578 85.335938 L 447.892578 84.412109 L 450.878906 84.412109 L 450.878906 77.300781 L 451.738281 77.300781 L 451.738281 91.319336 Z " fill="black" fill-opacity="1.000000"/>
<path d="M 82.763184 74.715332 Q 82.349609 74.935547 81.914551 75.045654 Q 81.479492 75.155762 80.990723 75.155762 Q 79.449219 75.155762 78.597900 74.065430 Q 77.746582 72.975098 77.746582 70.998535 Q 77.746582 69.032715 78.603271 67.934326 Q 79.459961 66.835938 80.990723 66.835938 Q 81.479492 66.835938 81.914551 66.946045 Q 82.349609 67.056152 82.763184 67.276367 L 82.763184 68.388184 Q 82.365723 68.060547 81.909180 67.888672 Q 81.452637 67.716797 80.990723 67.716797 Q 79.932617 67.716797 79.406250 68.533203 Q 78.879883 69.349609 78.879883 70.998535 Q 78.879883 72.642090 79.406250 73.458496 Q 79.932617 74.274902 80.990723 74.274902 Q 81.463379 74.274902 81.917236 74.103027 Q 82.371094 73.931152 82.763184 73.603516 Z " fill="black" fill-opacity="1.000000"/>
<path d="M 87.308594 69.677246 Q 86.556641 69.677246 86.169922 70.262695 Q 85.783203 70.848145 85.783203 71.997559 Q 85.783203 73.141602 86.169922 73.729736 Q 86.556641 74.317871 87.308594 74.317871 Q 88.065918 74.317871 88.452637 73.729736 Q 88.839355 73.141602 88.839355 71.997559 Q 88.839355 70.848145 88.452637 70.262695 Q 88.065918 69.677246 87.308594 69.677246 Z M 87.308594 68.839355 Q 88.560059 68.839355 89.223389 69.650391 Q 89.886719 70.461426 89.886719 71.997559 Q 89.886719 73.539062 89.226074 74.347412 Q 88.565430 75.155762 87.308594 75.155762 Q 86.057129 75.155762 85.396484 74.347412 Q 84.735840 73.539062 84.735840 71.997559 Q 84.735840 70.461426 85.396484 69.650391 Q 86.057129 68.839355 87.308594 68.839355 Z " fill="black" fill-opacity="1.000000"/>
<path d="M 96.645020 71.272461 L 96.645020 75.000000 L 95.651367 75.000000 L 95.651367 71.272461 Q 95.651367 70.461426 95.366699 70.080078 Q 95.082031 69.698730 94.475098 69.698730 Q 93.782227 69.698730 93.408936 70.190186 Q 93.035645 70.681641 93.035645 71.600098 L 93.035645 75.000000 L 92.047363 75.000000 L 92.047363 68.984375 L 93.035645 68.984375 L 93.035645 69.886719 Q 93.298828 69.371094 93.750000 69.105225 Q 94.201172 68.839355 94.818848 68.839355 Q 95.737305 68.839355 96.191162 69.443604 Q 96.645020 70.047852 96.645020 71.272461 Z " fill="black" fill-opacity="1.000000"/>
<path d="M 103.226074 69.193848 L 103.226074 70.160645 Q 102.801758 69.913574 102.372070 69.790039 Q 101.942383 69.666504 101.496582 69.666504 Q 100.825195 69.666504 100.494873 69.884033 Q 100.164551 70.101562 100.164551 70.547363 Q 100.164551 70.950195 100.411621 71.148926 Q 100.658691 71.347656 101.641602 71.535645 L 102.039062 71.610840 Q 102.774902 71.750488 103.153564 72.169434 Q 103.532227 72.588379 103.532227 73.259766 Q 103.532227 74.151367 102.898438 74.653564 Q 102.264648 75.155762 101.136719 75.155762 Q 100.690918 75.155762 100.202148 75.061768 Q 99.713379 74.967773 99.144043 74.779785 L 99.144043 73.759277 Q 99.697266 74.043945 100.202148 74.186279 Q 100.707031 74.328613 101.158203 74.328613 Q 101.813477 74.328613 102.173340 74.062744 Q 102.533203 73.796875 102.533203 73.318848 Q 102.533203 72.631348 101.217285 72.368164 L 101.174316 72.357422 L 100.803711 72.282227 Q 99.949707 72.115723 99.557617 71.720947 Q 99.165527 71.326172 99.165527 70.644043 Q 99.165527 69.779297 99.750977 69.309326 Q 100.336426 68.839355 101.421387 68.839355 Q 101.904785 68.839355 102.350586 68.927979 Q 102.796387 69.016602 103.226074 69.193848 Z " fill="black" fill-opacity="1.000000"/>
<path d="M 106.058105 66.980957 L 110.816895 66.980957 L 110.816895 67.894043 L 107.143066 67.894043 L 107.143066 70.053223 L 110.655762 70.053223 L 110.655762 70.966309 L 107.143066 70.966309 L 107.143066 74.086914 L 110.918945 74.086914 L 110.918945 75.000000 L 106.058105 75.000000 Z " fill="black" fill-opacity="1.000000"/>
<path d="M 116.608398 71.943848 Q 116.608398 70.832031 116.245850 70.254639 Q 115.883301 69.677246 115.190430 69.677246 Q 114.465332 69.677246 114.083984 70.254639 Q 113.702637 70.832031 113.702637 71.943848 Q 113.702637 73.055664 114.086670 73.638428 Q 114.470703 74.221191 115.201172 74.221191 Q 115.883301 74.221191 116.245850 73.635742 Q 116.608398 73.050293 116.608398 71.943848 Z M 117.596680 74.613281 Q 117.596680 75.966797 116.957520 76.665039 Q 116.318359 77.363281 115.077637 77.363281 Q 114.669434 77.363281 114.223633 77.288086 Q 113.777832 77.212891 113.332031 77.067871 L 113.332031 76.090332 Q 113.858398 76.337402 114.288086 76.455566 Q 114.717773 76.573730 115.077637 76.573730 Q 115.877930 76.573730 116.243164 76.138672 Q 116.608398 75.703613 116.608398 74.758301 L 116.608398 74.715332 L 116.608398 74.043945 Q 116.372070 74.548828 115.963867 74.795898 Q 115.555664 75.042969 114.970215 75.042969 Q 113.917480 75.042969 113.289062 74.199707 Q 112.660645 73.356445 112.660645 71.943848 Q 112.660645 70.525879 113.289062 69.682617 Q 113.917480 68.839355 114.970215 68.839355 Q 115.550293 68.839355 115.953125 69.070312 Q 116.355957 69.301270 116.608398 69.784668 L 116.608398 69.005859 L 117.596680 69.005859 Z " fill="black" fill-opacity="1.000000"/>
<path d="M 125.203613 70.225098 Q 124.886719 69.978027 124.559082 69.865234 Q 124.231445 69.752441 123.839355 69.752441 Q 122.915527 69.752441 122.426758 70.332520 Q 121.937988 70.912598 121.937988 72.008301 L 121.937988 75.000000 L 120.944336 75.000000 L 120.944336 68.984375 L 121.937988 68.984375 L 121.937988 70.160645 Q 122.185059 69.521484 122.697998 69.180420 Q 123.210938 68.839355 123.914551 68.839355 Q 124.279785 68.839355 124.596680 68.930664 Q 124.913574 69.021973 125.203613 69.215332 Z " fill="black" fill-opacity="1.000000"/>
<path d="M 132.015625 71.498047 L 132.015625 71.981445 L 127.734863 71.981445 L 127.734863 72.013672 Q 127.691895 73.243652 128.204834 73.780762 Q 128.717773 74.317871 129.652344 74.317871 Q 130.125000 74.317871 130.640625 74.167480 Q 131.156250 74.017090 131.741699 73.710938 L 131.741699 74.693848 Q 131.177734 74.924805 130.654053 75.040283 Q 130.130371 75.155762 129.641602 75.155762 Q 128.239746 75.155762 127.450195 74.315186 Q 126.660645 73.474609 126.660645 71.997559 Q 126.660645 70.558105 127.434082 69.698730 Q 128.207520 68.839355 129.496582 68.839355 Q 130.645996 68.839355 131.309326 69.618164 Q 131.972656 70.396973 132.015625 71.498047 Z M 131.027344 71.208008 Q 130.962891 70.584961 130.573486 70.131104 Q 130.184082 69.677246 129.453613 69.677246 Q 128.739258 69.677246 128.277344 70.149902 Q 127.815430 70.622559 127.772461 71.213379 Z " fill="black" fill-opacity="1.000000"/>
<path d="M 138.226074 69.193848 L 138.226074 70.160645 Q 137.801758 69.913574 137.372070 69.790039 Q 136.942383 69.666504 136.496582 69.666504 Q 135.825195 69.666504 135.494873 69.884033 Q 135.164551 70.101562 135.164551 70.547363 Q 135.164551 70.950195 135.411621 71.148926 Q 135.658691 71.347656 136.641602 71.535645 L 137.039062 71.610840 Q 137.774902 71.750488 138.153564 72.169434 Q 138.532227 72.588379 138.532227 73.259766 Q 138.532227 74.151367 137.898438 74.653564 Q 137.264648 75.155762 136.136719 75.155762 Q 135.690918 75.155762 135.202148 75.061768 Q 134.713379 74.967773 134.144043 74.779785 L 134.144043 73.759277 Q 134.697266 74.043945 135.202148 74.186279 Q 135.707031 74.328613 136.158203 74.328613 Q 136.813477 74.328613 137.173340 74.062744 Q 137.533203 73.796875 137.533203 73.318848 Q 137.533203 72.631348 136.217285 72.368164 L 136.174316 72.357422 L 135.803711 72.282227 Q 134.949707 72.115723 134.557617 71.720947 Q 134.165527 71.326172 134.165527 70.644043 Q 134.165527 69.779297 134.750977 69.309326 Q 135.336426 68.839355 136.421387 68.839355 Q 136.904785 68.839355 137.350586 68.927979 Q 137.796387 69.016602 138.226074 69.193848 Z " fill="black" fill-opacity="1.000000"/>
<path d="M 145.226074 69.193848 L 145.226074 70.160645 Q 144.801758 69.913574 144.372070 69.790039 Q 143.942383 69.666504 143.496582 69.666504 Q 142.825195 69.666504 142.494873 69.884033 Q 142.164551 70.101562 142.164551 70.547363 Q 142.164551 70.950195 142.411621 71.148926 Q 142.658691 71.347656 143.641602 71.535645 L 144.039062 71.610840 Q 144.774902 71.750488 145.153564 72.169434 Q 145.532227 72.588379 145.532227 73.259766 Q 145.532227 74.151367 144.898438 74.653564 Q 144.264648 75.155762 143.136719 75.155762 Q 142.690918 75.155762 142.202148 75.061768 Q 141.713379 74.967773 141.144043 74.779785 L 141.144043 73.759277 Q 141.697266 74.043945 142.202148 74.186279 Q 142.707031 74.328613 143.158203 74.328613 Q 143.813477 74.328613 144.173340 74.062744 Q 144.533203 73.796875 144.533203 73.318848 Q 144.533203 72.631348 143.217285 72.368164 L 143.174316 72.357422 L 142.803711 72.282227 Q 141.949707 72.115723 141.557617 71.720947 Q 141.165527 71.326172 141.165527 70.644043 Q 141.165527 69.779297 141.750977 69.309326 Q 142.336426 68.839355 143.421387 68.839355 Q 143.904785 68.839355 144.350586 68.927979 Q 144.796387 69.016602 145.226074 69.193848 Z " fill="black" fill-opacity="1.000000"/>
<path d="M 226.878906 78.319336 L 226.878906 64.300781 L 227.738281 64.300781 L 227.738281 78.319336 Z " fill="black" fill-opacity="1.000000"/>
<path d="M 450.878906 78.319336 L 450.878906 64.300781 L 451.738281 64.300781 L 451.738281 78.319336 Z " fill="black" fill-opacity="1.000000"/>
<path d="M 6.892578 59.335938 L 6.892578 58.412109 L 13.729980 58.412109 L 13.729980 59.335938 Z " fill="black" fill-opacity="1.000000"/>
<path d="M 13.892578 59.335938 L 13.892578 58.412109 L 20.729980 58.412109 L 20.729980 59.335938 Z " fill="black" fill-opacity="1.000000"/>
<path d="M 20.892578 59.335938 L 20.892578 58.412109 L 27.729980 58.412109 L 27.729980 59.335938 Z " fill="black" fill-opacity="1.000000"/>
<path d="M 27.892578 59.335938 L 27.892578 58.412109 L 34.729980 58.412109 L 34.729980 59.335938 Z " fill="black" fill-opacity="1.000000"/>
<path d="M 34.892578 59.335938 L 34.892578 58.412109 L 41.729980 58.412109 L 41.729980 59.335938 Z " fill="black" fill-opacity="1.000000"/>
<path d="M 41.892578 59.335938 L 41.892578 58.412109 L 48.729980 58.412109 L 48.729980 59.335938 Z " fill="black" fill-opacity="1.000000"/>
<path d="M 48.892578 59.335938 L 48.892578 58.412109 L 55.729980 58.412109 L 55.729980 59.335938 Z " fill="black" fill-opacity="1.000000"/>
<path d="M 55.892578 59.335938 L 55.892578 58.412109 L 62.729980 58.412109 L 62.729980 59.335938 Z " fill="black" fill-opacity="1.000000"/>
<path d="M 62.892578 59.335938 L 62.892578 58.412109 L 69.729980 58.412109 L 69.729980 59.335938 Z " fill="black" fill-opacity="1.000000"/>
<path d="M 69.892578 59.335938 L 69.892578 58.412109 L 76.729980 58.412109 L 76.729980 59.335938 Z " fill="black" fill-opacity="1.000000"/>
<path d="M 76.892578 59.335938 L 76.892578 58.412109 L 83.729980 58.412109 L 83.729980 59.335938 Z " fill="black" fill-opacity="1.000000"/>
<path d="M 83.892578 59.335938 L 83.892578 58.412109 L 86.878906 58.412109 L 86.878906 51.300781 L 87.738281 51.300781 L 87.738281 58.412109 L 90.729980 58.412109 L 90.729980 59.335938 Z " fill="black" fill-opacity="1.000000"/>
<path d="M 90.892578 59.335938 L 90.892578 58.412109 L 97.729980 58.412109 L 97.729980 59.335938 Z " fill="black" fill-opacity="1.000000"/>
<path d="M 97.892578 59.335938 L 97.892578 58.412109 L 100.878906 58.412109 L 100.878906 51.300781 L 101.738281 51.300781 L 101.738281 58.412109 L 104.729980 58.412109 L 104.729980 59.335938 Z " fill="black" fill-opacity="1.000000"/>
<path d="M 104.892578 59.335938 L 104.892578 58.412109 L 111.729980 58.412109 L 111.729980 59.335938 Z " fill="black" fill-opacity="1.000000"/>
<path d="M 111.892578 59.335938 L 111.892578 58.412109 L 114.878906 58.412109 L 114.878906 51.300781 L 115.738281 51.300781 L 115.738281 58.412109 L 118.729980 58.412109 L 118.729980 59.335938 Z " fill="black" fill-opacity="1.000000"/>
<path d="M 118.892578 59.335938 L 118.892578 58.412109 L 125.729980 58.412109 L 125.729980 59.335938 Z " fill="black" fill-opacity="1.000000"/>
<path d="M 125.892578 59.335938 L 125.892578 58.412109 L 132.729980 58.412109 L 132.729980 59.335938 Z " fill="black" fill-opacity="1.000000"/>
<path d="M 132.892578 59.335938 L 132.892578 58.412109 L 139.729980 58.412109 L 139.729980 59.335938 Z " fill="black" fill-opacity="1.000000"/>
<path d="M 139.892578 59.335938 L 139.892578 58.412109 L 146.729980 58.412109 L 146.729980 59.335938 Z " fill="black" fill-opacity="1.000000"/>
<path d="M 146.892578 59.335938 L 146.892578 58.412109 L 153.729980 58.412109 L 153.729980 59.335938 Z " fill="black" fill-opacity="1.000000"/>
<path d="M 153.892578 59.335938 L 153.892578 58.412109 L 160.729980 58.412109 L 160.729980 59.335938 Z " fill="black" fill-opacity="1.000000"/>
<path d="M 160.892578 59.335938 L 160.892578 58.412109 L 167.729980 58.412109 L 167.729980 59.335938 Z " fill="black" fill-opacity="1.000000"/>
<path d="M 167.892578 59.335938 L 167.892578 58.412109 L 174.729980 58.412109 L 174.729980 59.335938 Z " fill="black" fill-opacity="1.000000"/>
<path d="M 174.892578 59.335938 L 174.892578 58.412109 L 181.729980 58.412109 L 181.729980 59.335938 Z " fill="black" fill-opacity="1.000000"/>
<path d="M 181.892578 59.335938 L 181.892578 58.412109 L 188.729980 58.412109 L 188.729980 59.335938 Z " fill="black" fill-opacity="1.000000"/>
<path d="M 188.892578 59.335938 L 188.892578 58.412109 L 195.729980 58.412109 L 195.729980 59.335938 Z " fill="black" fill-opacity="1.000000"/>
<path d="M 195.892578 59.335938 L 195.892578 58.412109 L 202.729980 58.412109 L 202.729980 59.335938 Z " fill="black" fill-opacity="1.000000"/>
<path d="M 202.892578 59.335938 L 202.892578 58.412109 L 209.729980 58.412109 L 209.729980 59.335938 Z " fill="black" fill-opacity="1.000000"/>
<path d="M 209.892578 59.335938 L 209.892578 58.412109 L 216.729980 58.412109 L 216.729980 59.335938 Z " fill="black" fill-opacity="1.000000"/>
<path d="M 216.892578 59.335938 L 216.892578 58.412109 L 223.729980 58.412109 L 223.729980 59.335938 Z " fill="black" fill-opacity="1.000000"/>
<path d="M 227.738281 59.335938 L 227.738281 65.319336 L 226.878906 65.319336 L 226.878906 59.335938 L 223.892578 59.335938 L 223.892578 58.412109 L 226.878906 58.412109 L 226.878906 51.300781 L 227.738281 51.300781 L 227.738281 58.412109 L 230.729980 58.412109 L 230.729980 59.335938 Z " fill="black" fill-opacity="1.000000"/>
<path d="M 230.892578 59.335938 L 230.892578 58.412109 L 237.729980 58.412109 L 237.729980 59.335938 Z " fill="black" fill-opacity="1.000000"/>
<path d="M 237.892578 59.335938 L 237.892578 58.412109 L 244.729980 58.412109 L 244.729980 59.335938 Z " fill="black" fill-opacity="1.000000"/>
<path d="M 244.892578 59.335938 L 244.892578 58.412109 L 251.729980 58.412109 L 251.729980 59.335938 Z " fill="black" fill-opacity="1.000000"/>
<path d="M 251.892578 59.335938 L 251.892578 58.412109 L 258.729980 58.412109 L 258.729980 59.335938 Z " fill="black" fill-opacity="1.000000"/>
<path d="M 258.892578 59.335938 L 258.892578 58.412109 L 265.729980 58.412109 L 265.729980 59.335938 Z " fill="black" fill-opacity="1.000000"/>
<path d="M 265.892578 59.335938 L 265.892578 58.412109 L 272.729980 58.412109 L 272.729980 59.335938 Z " fill="black" fill-opacity="1.000000"/>
<path d="M 272.892578 59.335938 L 272.892578 58.412109 L 279.729980 58.412109 L 279.729980 59.335938 Z " fill="black" fill-opacity="1.000000"/>
<path d="M 279.892578 59.335938 L 279.892578 58.412109 L 286.729980 58.412109 L 286.729980 59.335938 Z " fill="black" fill-opacity="1.000000"/>
<path d="M 286.892578 59.335938 L 286.892578 58.412109 L 293.729980 58.412109 L 293.729980 59.335938 Z " fill="black" fill-opacity="1.000000"/>
<path d="M 293.892578 59.335938 L 293.892578 58.412109 L 300.729980 58.412109 L 300.729980 59.335938 Z " fill="black" fill-opacity="1.000000"/>
<path d="M 300.892578 59.335938 L 300.892578 58.412109 L 307.729980 58.412109 L 307.729980 59.335938 Z " fill="black" fill-opacity="1.000000"/>
<path d="M 307.892578 59.335938 L 307.892578 58.412109 L 314.729980 58.412109 L 314.729980 59.335938 Z " fill="black" fill-opacity="1.000000"/>
<path d="M 314.892578 59.335938 L 314.892578 58.412109 L 321.729980 58.412109 L 321.729980 59.335938 Z " fill="black" fill-opacity="1.000000"/>
<path d="M 321.892578 59.335938 L 321.892578 58.412109 L 328.729980 58.412109 L 328.729980 59.335938 Z " fill="black" fill-opacity="1.000000"/>
<path d="M 328.892578 59.335938 L 328.892578 58.412109 L 335.729980 58.412109 L 335.729980 59.335938 Z " fill="black" fill-opacity="1.000000"/>
<path d="M 335.892578 59.335938 L 335.892578 58.412109 L 342.729980 58.412109 L 342.729980 59.335938 Z " fill="black" fill-opacity="1.000000"/>
<path d="M 342.892578 59.335938 L 342.892578 58.412109 L 349.729980 58.412109 L 349.729980 59.335938 Z " fill="black" fill-opacity="1.000000"/>
<path d="M 349.892578 59.335938 L 349.892578 58.412109 L 356.729980 58.412109 L 356.729980 59.335938 Z " fill="black" fill-opacity="1.000000"/>
<path d="M 356.892578 59.335938 L 356.892578 58.412109 L 363.729980 58.412109 L 363.729980 59.335938 Z " fill="black" fill-opacity="1.000000"/>
<path d="M 363.892578 59.335938 L 363.892578 58.412109 L 370.729980 58.412109 L 370.729980 59.335938 Z " fill="black" fill-opacity="1.000000"/>
<path d="M 370.892578 59.335938 L 370.892578 58.412109 L 377.729980 58.412109 L 377.729980 59.335938 Z " fill="black" fill-opacity="1.000000"/>
<path d="M 377.892578 59.335938 L 377.892578 58.412109 L 384.729980 58.412109 L 384.729980 59.335938 Z " fill="black" fill-opacity="1.000000"/>
<path d="M 384.892578 59.335938 L 384.892578 58.412109 L 391.729980 58.412109 L 391.729980 59.335938 Z " fill="black" fill-opacity="1.000000"/>
<path d="M 391.892578 59.335938 L 391.892578 58.412109 L 398.729980 58.412109 L 398.729980 59.335938 Z " fill="black" fill-opacity="1.000000"/>
<path d="M 398.892578 59.335938 L 398.892578 58.412109 L 405.729980 58.412109 L 405.729980 59.335938 Z " fill="black" fill-opacity="1.000000"/>
<path d="M 405.892578 59.335938 L 405.892578 58.412109 L 412.729980 58.412109 L 412.729980 59.335938 Z " fill="black" fill-opacity="1.000000"/>
<path d="M 412.892578 59.335938 L 412.892578 58.412109 L 419.729980 58.412109 L 419.729980 59.335938 Z " fill="black" fill-opacity="1.000000"/>
<path d="M 419.892578 59.335938 L 419.892578 58.412109 L 426.729980 58.412109 L 426.729980 59.335938 Z " fill="black" fill-opacity="1.000000"/>
<path d="M 426.892578 59.335938 L 426.892578 58.412109 L 433.729980 58.412109 L 433.729980 59.335938 Z " fill="black" fill-opacity="1.000000"/>
<path d="M 433.892578 59.335938 L 433.892578 58.412109 L 440.729980 58.412109 L 440.729980 59.335938 Z " fill="black" fill-opacity="1.000000"/>
<path d="M 440.892578 59.335938 L 440.892578 58.412109 L 447.729980 58.412109 L 447.729980 59.335938 Z " fill="black" fill-opacity="1.000000"/>
<path d="M 450.878906 65.319336 L 450.878906 59.335938 L 447.892578 59.335938 L 447.892578 58.412109 L 450.878906 58.412109 L 450.878906 51.300781 L 451.738281 51.300781 L 451.738281 65.319336 Z " fill="black" fill-opacity="1.000000"/>
<path d="M 39.082031 45.213379 Q 39.500977 45.320801 39.796387 45.618896 Q 40.091797 45.916992 40.532227 46.808594 L 41.622559 49.000000 L 40.457031 49.000000 L 39.500977 46.975098 Q 39.087402 46.110352 38.757080 45.860596 Q 38.426758 45.610840 37.895020 45.610840 L 36.858398 45.610840 L 36.858398 49.000000 L 35.768066 49.000000 L 35.768066 40.980957 L 38.002441 40.980957 Q 39.323730 40.980957 40.027344 41.577148 Q 40.730957 42.173340 40.730957 43.301270 Q 40.730957 44.096191 40.298584 44.598389 Q 39.866211 45.100586 39.082031 45.213379 Z M 36.858398 41.872559 L 36.858398 44.719238 L 38.045410 44.719238 Q 38.824219 44.719238 39.205566 44.370117 Q 39.586914 44.020996 39.586914 43.301270 Q 39.586914 42.608398 39.181396 42.240479 Q 38.775879 41.872559 38.002441 41.872559 Z " fill="black" fill-opacity="1.000000"/>
<path d="M 47.435547 41.254883 L 47.435547 42.355957 Q 46.941406 42.039062 46.444580 41.877930 Q 45.947754 41.716797 45.442871 41.716797 Q 44.674805 41.716797 44.229004 42.073975 Q 43.783203 42.431152 43.783203 43.038086 Q 43.783203 43.569824 44.075928 43.849121 Q 44.368652 44.128418 45.168945 44.316406 L 45.738281 44.445312 Q 46.866211 44.708496 47.381836 45.272461 Q 47.897461 45.836426 47.897461 46.808594 Q 47.897461 47.952637 47.188477 48.554199 Q 46.479492 49.155762 45.125977 49.155762 Q 44.562012 49.155762 43.992676 49.034912 Q 43.423340 48.914062 42.848633 48.672363 L 42.848633 47.517578 Q 43.466309 47.909668 44.016846 48.092285 Q 44.567383 48.274902 45.125977 48.274902 Q 45.947754 48.274902 46.404297 47.906982 Q 46.860840 47.539062 46.860840 46.878418 Q 46.860840 46.276855 46.546631 45.959961 Q 46.232422 45.643066 45.453613 45.471191 L 44.873535 45.336914 Q 43.756348 45.084473 43.251465 44.574219 Q 42.746582 44.063965 42.746582 43.204590 Q 42.746582 42.130371 43.468994 41.483154 Q 44.191406 40.835938 45.389160 40.835938 Q 45.851074 40.835938 46.361328 40.940674 Q 46.871582 41.045410 47.435547 41.254883 Z " fill="black" fill-opacity="1.000000"/>
<path d="M 52.308594 48.086914 L 54.193848 40.980957 L 55.316406 40.980957 L 52.969238 49.000000 L 51.653320 49.000000 L 49.306152 40.980957 L 50.428711 40.980957 Z " fill="black" fill-opacity="1.000000"/>
<path d="M 86.878906 52.319336 L 86.878906 38.300781 L 87.738281 38.300781 L 87.738281 52.319336 Z " fill="black" fill-opacity="1.000000"/>
<path d="M 92.079590 40.980957 L 96.532227 40.980957 L 96.532227 41.894043 L 94.851074 41.894043 L 94.851074 48.086914 L 96.532227 48.086914 L 96.532227 49.000000 L 92.079590 49.000000 L 92.079590 48.086914 L 93.760742 48.086914 L 93.760742 41.894043 L 92.079590 41.894043 Z " fill="black" fill-opacity="1.000000"/>
<path d="M 100.878906 52.319336 L 100.878906 38.300781 L 101.738281 38.300781 L 101.738281 52.319336 Z " fill="black" fill-opacity="1.000000"/>
<path d="M 106.058105 40.980957 L 110.816895 40.980957 L 110.816895 41.894043 L 107.143066 41.894043 L 107.143066 44.053223 L 110.655762 44.053223 L 110.655762 44.966309 L 107.143066 44.966309 L 107.143066 48.086914 L 110.918945 48.086914 L 110.918945 49.000000 L 106.058105 49.000000 Z " fill="black" fill-opacity="1.000000"/>
<path d="M 114.878906 52.319336 L 114.878906 38.300781 L 115.738281 38.300781 L 115.738281 52.319336 Z " fill="black" fill-opacity="1.000000"/>
<path d="M 148.058105 40.980957 L 152.816895 40.980957 L 152.816895 41.894043 L 149.143066 41.894043 L 149.143066 44.053223 L 152.655762 44.053223 L 152.655762 44.966309 L 149.143066 44.966309 L 149.143066 48.086914 L 152.918945 48.086914 L 152.918945 49.000000 L 148.058105 49.000000 Z " fill="black" fill-opacity="1.000000"/>
<path d="M 160.004883 42.984375 L 157.851074 45.863281 L 160.214355 49.000000 L 159.070312 49.000000 L 157.308594 46.588379 L 155.552246 49.000000 L 154.408203 49.000000 L 156.771484 45.863281 L 154.617676 42.984375 L 155.713379 42.984375 L 157.308594 45.159668 L 158.893066 42.984375 Z " fill="black" fill-opacity="1.000000"/>
<path d="M 163.014160 48.242676 L 163.014160 51.288086 L 162.020508 51.288086 L 162.020508 42.984375 L 163.014160 42.984375 L 163.014160 43.752441 Q 163.261230 43.306641 163.672119 43.072998 Q 164.083008 42.839355 164.620117 42.839355 Q 165.710449 42.839355 166.330811 43.682617 Q 166.951172 44.525879 166.951172 46.019043 Q 166.951172 47.485352 166.328125 48.320557 Q 165.705078 49.155762 164.620117 49.155762 Q 164.072266 49.155762 163.661377 48.922119 Q 163.250488 48.688477 163.014160 48.242676 Z M 165.914551 45.997559 Q 165.914551 44.848145 165.552002 44.262695 Q 165.189453 43.677246 164.475098 43.677246 Q 163.755371 43.677246 163.384766 44.265381 Q 163.014160 44.853516 163.014160 45.997559 Q 163.014160 47.136230 163.384766 47.727051 Q 163.755371 48.317871 164.475098 48.317871 Q 165.189453 48.317871 165.552002 47.732422 Q 165.914551 47.146973 165.914551 45.997559 Z " fill="black" fill-opacity="1.000000"/>
<path d="M 168.252441 40.980957 L 174.370117 40.980957 L 174.370117 41.894043 L 171.861816 41.894043 L 171.861816 49.000000 L 170.771484 49.000000 L 170.771484 41.894043 L 168.252441 41.894043 Z " fill="black" fill-opacity="1.000000"/>
<path d="M 176.697266 43.005859 L 179.227051 43.005859 L 179.227051 48.231934 L 181.187500 48.231934 L 181.187500 49.000000 L 176.278320 49.000000 L 176.278320 48.231934 L 178.238770 48.231934 L 178.238770 43.773926 L 176.697266 43.773926 Z M 178.238770 40.669434 L 179.227051 40.669434 L 179.227051 41.915527 L 178.238770 41.915527 Z " fill="black" fill-opacity="1.000000"/>
<path d="M 185.630859 43.596680 Q 185.813477 43.209961 186.095459 43.024658 Q 186.377441 42.839355 186.774902 42.839355 Q 187.500000 42.839355 187.798096 43.400635 Q 188.096191 43.961914 188.096191 45.514160 L 188.096191 49.000000 L 187.193848 49.000000 L 187.193848 45.557129 Q 187.193848 44.284180 187.051514 43.975342 Q 186.909180 43.666504 186.533203 43.666504 Q 186.103516 43.666504 185.945068 43.996826 Q 185.786621 44.327148 185.786621 45.557129 L 185.786621 49.000000 L 184.884277 49.000000 L 184.884277 45.557129 Q 184.884277 44.268066 184.731201 43.967285 Q 184.578125 43.666504 184.180664 43.666504 Q 183.788574 43.666504 183.635498 43.996826 Q 183.482422 44.327148 183.482422 45.557129 L 183.482422 49.000000 L 182.585449 49.000000 L 182.585449 42.984375 L 183.482422 42.984375 L 183.482422 43.500000 Q 183.659668 43.177734 183.925537 43.008545 Q 184.191406 42.839355 184.529785 42.839355 Q 184.937988 42.839355 185.209229 43.027344 Q 185.480469 43.215332 185.630859 43.596680 Z " fill="black" fill-opacity="1.000000"/>
<path d="M 195.015625 45.498047 L 195.015625 45.981445 L 190.734863 45.981445 L 190.734863 46.013672 Q 190.691895 47.243652 191.204834 47.780762 Q 191.717773 48.317871 192.652344 48.317871 Q 193.125000 48.317871 193.640625 48.167480 Q 194.156250 48.017090 194.741699 47.710938 L 194.741699 48.693848 Q 194.177734 48.924805 193.654053 49.040283 Q 193.130371 49.155762 192.641602 49.155762 Q 191.239746 49.155762 190.450195 48.315186 Q 189.660645 47.474609 189.660645 45.997559 Q 189.660645 44.558105 190.434082 43.698730 Q 191.207520 42.839355 192.496582 42.839355 Q 193.645996 42.839355 194.309326 43.618164 Q 194.972656 44.396973 195.015625 45.498047 Z M 194.027344 45.208008 Q 193.962891 44.584961 193.573486 44.131104 Q 193.184082 43.677246 192.453613 43.677246 Q 191.739258 43.677246 191.277344 44.149902 Q 190.815430 44.622559 190.772461 45.213379 Z " fill="black" fill-opacity="1.000000"/>
<path d="M 226.878906 52.319336 L 226.878906 38.300781 L 227.738281 38.300781 L 227.738281 52.319336 Z " fill="black" fill-opacity="1.000000"/>
<path d="M 306.763184 48.715332 Q 306.349609 48.935547 305.914551 49.045654 Q 305.479492 49.155762 304.990723 49.155762 Q 303.449219 49.155762 302.597900 48.065430 Q 301.746582 46.975098 301.746582 44.998535 Q 301.746582 43.032715 302.603271 41.934326 Q 303.459961 40.835938 304.990723 40.835938 Q 305.479492 40.835938 305.914551 40.946045 Q 306.349609 41.056152 306.763184 41.276367 L 306.763184 42.388184 Q 306.365723 42.060547 305.909180 41.888672 Q 305.452637 41.716797 304.990723 41.716797 Q 303.932617 41.716797 303.406250 42.533203 Q 302.879883 43.349609 302.879883 44.998535 Q 302.879883 46.642090 303.406250 47.458496 Q 303.932617 48.274902 304.990723 48.274902 Q 305.463379 48.274902 305.917236 48.103027 Q 306.371094 47.931152 306.763184 47.603516 Z " fill="black" fill-opacity="1.000000"/>
<path d="M 311.308594 43.677246 Q 310.556641 43.677246 310.169922 44.262695 Q 309.783203 44.848145 309.783203 45.997559 Q 309.783203 47.141602 310.169922 47.729736 Q 310.556641 48.317871 311.308594 48.317871 Q 312.065918 48.317871 312.452637 47.729736 Q 312.839355 47.141602 312.839355 45.997559 Q 312.839355 44.848145 312.452637 44.262695 Q 312.065918 43.677246 311.308594 43.677246 Z M 311.308594 42.839355 Q 312.560059 42.839355 313.223389 43.650391 Q 313.886719 44.461426 313.886719 45.997559 Q 313.886719 47.539062 313.226074 48.347412 Q 312.565430 49.155762 311.308594 49.155762 Q 310.057129 49.155762 309.396484 48.347412 Q 308.735840 47.539062 308.735840 45.997559 Q 308.735840 44.461426 309.396484 43.650391 Q 310.057129 42.839355 311.308594 42.839355 Z " fill="black" fill-opacity="1.000000"/>
<path d="M 320.645020 45.272461 L 320.645020 49.000000 L 319.651367 49.000000 L 319.651367 45.272461 Q 319.651367 44.461426 319.366699 44.080078 Q 319.082031 43.698730 318.475098 43.698730 Q 317.782227 43.698730 317.408936 44.190186 Q 317.035645 44.681641 317.035645 45.600098 L 317.035645 49.000000 L 316.047363 49.000000 L 316.047363 42.984375 L 317.035645 42.984375 L 317.035645 43.886719 Q 317.298828 43.371094 317.750000 43.105225 Q 318.201172 42.839355 318.818848 42.839355 Q 319.737305 42.839355 320.191162 43.443604 Q 320.645020 44.047852 320.645020 45.272461 Z " fill="black" fill-opacity="1.000000"/>
<path d="M 327.226074 43.193848 L 327.226074 44.160645 Q 326.801758 43.913574 326.372070 43.790039 Q 325.942383 43.666504 325.496582 43.666504 Q 324.825195 43.666504 324.494873 43.884033 Q 324.164551 44.101562 324.164551 44.547363 Q 324.164551 44.950195 324.411621 45.148926 Q 324.658691 45.347656 325.641602 45.535645 L 326.039062 45.610840 Q 326.774902 45.750488 327.153564 46.169434 Q 327.532227 46.588379 327.532227 47.259766 Q 327.532227 48.151367 326.898438 48.653564 Q 326.264648 49.155762 325.136719 49.155762 Q 324.690918 49.155762 324.202148 49.061768 Q 323.713379 48.967773 323.144043 48.779785 L 323.144043 47.759277 Q 323.697266 48.043945 324.202148 48.186279 Q 324.707031 48.328613 325.158203 48.328613 Q 325.813477 48.328613 326.173340 48.062744 Q 326.533203 47.796875 326.533203 47.318848 Q 326.533203 46.631348 325.217285 46.368164 L 325.174316 46.357422 L 324.803711 46.282227 Q 323.949707 46.115723 323.557617 45.720947 Q 323.165527 45.326172 323.165527 44.644043 Q 323.165527 43.779297 323.750977 43.309326 Q 324.336426 42.839355 325.421387 42.839355 Q 325.904785 42.839355 326.350586 42.927979 Q 326.796387 43.016602 327.226074 43.193848 Z " fill="black" fill-opacity="1.000000"/>
<path d="M 330.079590 40.980957 L 334.532227 40.980957 L 334.532227 41.894043 L 332.851074 41.894043 L 332.851074 48.086914 L 334.532227 48.086914 L 334.532227 49.000000 L 330.079590 49.000000 L 330.079590 48.086914 L 331.760742 48.086914 L 331.760742 41.894043 L 330.079590 41.894043 Z " fill="black" fill-opacity="1.000000"/>
<path d="M 341.645020 45.272461 L 341.645020 49.000000 L 340.651367 49.000000 L 340.651367 45.272461 Q 340.651367 44.461426 340.366699 44.080078 Q 340.082031 43.698730 339.475098 43.698730 Q 338.782227 43.698730 338.408936 44.190186 Q 338.035645 44.681641 338.035645 45.600098 L 338.035645 49.000000 L 337.047363 49.000000 L 337.047363 42.984375 L 338.035645 42.984375 L 338.035645 43.886719 Q 338.298828 43.371094 338.750000 43.105225 Q 339.201172 42.839355 339.818848 42.839355 Q 340.737305 42.839355 341.191162 43.443604 Q 341.645020 44.047852 341.645020 45.272461 Z " fill="black" fill-opacity="1.000000"/>
<path d="M 347.608398 45.943848 Q 347.608398 44.832031 347.245850 44.254639 Q 346.883301 43.677246 346.190430 43.677246 Q 345.465332 43.677246 345.083984 44.254639 Q 344.702637 44.832031 344.702637 45.943848 Q 344.702637 47.055664 345.086670 47.638428 Q 345.470703 48.221191 346.201172 48.221191 Q 346.883301 48.221191 347.245850 47.635742 Q 347.608398 47.050293 347.608398 45.943848 Z M 348.596680 48.613281 Q 348.596680 49.966797 347.957520 50.665039 Q 347.318359 51.363281 346.077637 51.363281 Q 345.669434 51.363281 345.223633 51.288086 Q 344.777832 51.212891 344.332031 51.067871 L 344.332031 50.090332 Q 344.858398 50.337402 345.288086 50.455566 Q 345.717773 50.573730 346.077637 50.573730 Q 346.877930 50.573730 347.243164 50.138672 Q 347.608398 49.703613 347.608398 48.758301 L 347.608398 48.715332 L 347.608398 48.043945 Q 347.372070 48.548828 346.963867 48.795898 Q 346.555664 49.042969 345.970215 49.042969 Q 344.917480 49.042969 344.289062 48.199707 Q 343.660645 47.356445 343.660645 45.943848 Q 343.660645 44.525879 344.289062 43.682617 Q 344.917480 42.839355 345.970215 42.839355 Q 346.550293 42.839355 346.953125 43.070312 Q 347.355957 43.301270 347.608398 43.784668 L 347.608398 43.005859 L 348.596680 43.005859 Z " fill="black" fill-opacity="1.000000"/>
<path d="M 356.203613 44.225098 Q 355.886719 43.978027 355.559082 43.865234 Q 355.231445 43.752441 354.839355 43.752441 Q 353.915527 43.752441 353.426758 44.332520 Q 352.937988 44.912598 352.937988 46.008301 L 352.937988 49.000000 L 351.944336 49.000000 L 351.944336 42.984375 L 352.937988 42.984375 L 352.937988 44.160645 Q 353.185059 43.521484 353.697998 43.180420 Q 354.210938 42.839355 354.914551 42.839355 Q 355.279785 42.839355 355.596680 42.930664 Q 355.913574 43.021973 356.203613 43.215332 Z " fill="black" fill-opacity="1.000000"/>
<path d="M 363.015625 45.498047 L 363.015625 45.981445 L 358.734863 45.981445 L 358.734863 46.013672 Q 358.691895 47.243652 359.204834 47.780762 Q 359.717773 48.317871 360.652344 48.317871 Q 361.125000 48.317871 361.640625 48.167480 Q 362.156250 48.017090 362.741699 47.710938 L 362.741699 48.693848 Q 362.177734 48.924805 361.654053 49.040283 Q 361.130371 49.155762 360.641602 49.155762 Q 359.239746 49.155762 358.450195 48.315186 Q 357.660645 47.474609 357.660645 45.997559 Q 357.660645 44.558105 358.434082 43.698730 Q 359.207520 42.839355 360.496582 42.839355 Q 361.645996 42.839355 362.309326 43.618164 Q 362.972656 44.396973 363.015625 45.498047 Z M 362.027344 45.208008 Q 361.962891 44.584961 361.573486 44.131104 Q 361.184082 43.677246 360.453613 43.677246 Q 359.739258 43.677246 359.277344 44.149902 Q 358.815430 44.622559 358.772461 45.213379 Z " fill="black" fill-opacity="1.000000"/>
<path d="M 369.226074 43.193848 L 369.226074 44.160645 Q 368.801758 43.913574 368.372070 43.790039 Q 367.942383 43.666504 367.496582 43.666504 Q 366.825195 43.666504 366.494873 43.884033 Q 366.164551 44.101562 366.164551 44.547363 Q 366.164551 44.950195 366.411621 45.148926 Q 366.658691 45.347656 367.641602 45.535645 L 368.039062 45.610840 Q 368.774902 45.750488 369.153564 46.169434 Q 369.532227 46.588379 369.532227 47.259766 Q 369.532227 48.151367 368.898438 48.653564 Q 368.264648 49.155762 367.136719 49.155762 Q 366.690918 49.155762 366.202148 49.061768 Q 365.713379 48.967773 365.144043 48.779785 L 365.144043 47.759277 Q 365.697266 48.043945 366.202148 48.186279 Q 366.707031 48.328613 367.158203 48.328613 Q 367.813477 48.328613 368.173340 48.062744 Q 368.533203 47.796875 368.533203 47.318848 Q 368.533203 46.631348 367.217285 46.368164 L 367.174316 46.357422 L 366.803711 46.282227 Q 365.949707 46.115723 365.557617 45.720947 Q 365.165527 45.326172 365.165527 44.644043 Q 365.165527 43.779297 365.750977 43.309326 Q 366.336426 42.839355 367.421387 42.839355 Q 367.904785 42.839355 368.350586 42.927979 Q 368.796387 43.016602 369.226074 43.193848 Z " fill="black" fill-opacity="1.000000"/>
<path d="M 376.226074 43.193848 L 376.226074 44.160645 Q 375.801758 43.913574 375.372070 43.790039 Q 374.942383 43.666504 374.496582 43.666504 Q 373.825195 43.666504 373.494873 43.884033 Q 373.164551 44.101562 373.164551 44.547363 Q 373.164551 44.950195 373.411621 45.148926 Q 373.658691 45.347656 374.641602 45.535645 L 375.039062 45.610840 Q 375.774902 45.750488 376.153564 46.169434 Q 376.532227 46.588379 376.532227 47.259766 Q 376.532227 48.151367 375.898438 48.653564 Q 375.264648 49.155762 374.136719 49.155762 Q 373.690918 49.155762 373.202148 49.061768 Q 372.713379 48.967773 372.144043 48.779785 L 372.144043 47.759277 Q 372.697266 48.043945 373.202148 48.186279 Q 373.707031 48.328613 374.158203 48.328613 Q 374.813477 48.328613 375.173340 48.062744 Q 375.533203 47.796875 375.533203 47.318848 Q 375.533203 46.631348 374.217285 46.368164 L 374.174316 46.357422 L 373.803711 46.282227 Q 372.949707 46.115723 372.557617 45.720947 Q 372.165527 45.326172 372.165527 44.644043 Q 372.165527 43.779297 372.750977 43.309326 Q 373.336426 42.839355 374.421387 42.839355 Q 374.904785 42.839355 375.350586 42.927979 Q 375.796387 43.016602 376.226074 43.193848 Z " fill="black" fill-opacity="1.000000"/>
<path d="M 450.878906 52.319336 L 450.878906 38.300781 L 451.738281 38.300781 L 451.738281 52.319336 Z " fill="black" fill-opacity="1.000000"/>
<path d="M 6.892578 33.335938 L 6.892578 32.412109 L 13.729980 32.412109 L 13.729980 33.335938 Z " fill="black" fill-opacity="1.000000"/>
<path d="M 13.892578 33.335938 L 13.892578 32.412109 L 16.878906 32.412109 L 16.878906 25.300781 L 17.738281 25.300781 L 17.738281 32.412109 L 20.729980 32.412109 L 20.729980 33.335938 Z " fill="black" fill-opacity="1.000000"/>
<path d="M 20.892578 33.335938 L 20.892578 32.412109 L 27.729980 32.412109 L 27.729980 33.335938 Z " fill="black" fill-opacity="1.000000"/>
<path d="M 27.892578 33.335938 L 27.892578 32.412109 L 30.878906 32.412109 L 30.878906 25.300781 L 31.738281 25.300781 L 31.738281 32.412109 L 34.729980 32.412109 L 34.729980 33.335938 Z " fill="black" fill-opacity="1.000000"/>
<path d="M 34.892578 33.335938 L 34.892578 32.412109 L 41.729980 32.412109 L 41.729980 33.335938 Z " fill="black" fill-opacity="1.000000"/>
<path d="M 41.892578 33.335938 L 41.892578 32.412109 L 44.878906 32.412109 L 44.878906 25.300781 L 45.738281 25.300781 L 45.738281 32.412109 L 48.729980 32.412109 L 48.729980 33.335938 Z " fill="black" fill-opacity="1.000000"/>
<path d="M 48.892578 33.335938 L 48.892578 32.412109 L 55.729980 32.412109 L 55.729980 33.335938 Z " fill="black" fill-opacity="1.000000"/>
<path d="M 55.892578 33.335938 L 55.892578 32.412109 L 58.878906 32.412109 L 58.878906 25.300781 L 59.738281 25.300781 L 59.738281 32.412109 L 62.729980 32.412109 L 62.729980 33.335938 Z " fill="black" fill-opacity="1.000000"/>
<path d="M 62.892578 33.335938 L 62.892578 32.412109 L 69.729980 32.412109 L 69.729980 33.335938 Z " fill="black" fill-opacity="1.000000"/>
<path d="M 69.892578 33.335938 L 69.892578 32.412109 L 72.878906 32.412109 L 72.878906 25.300781 L 73.738281 25.300781 L 73.738281 32.412109 L 76.729980 32.412109 L 76.729980 33.335938 Z " fill="black" fill-opacity="1.000000"/>
<path d="M 76.892578 33.335938 L 76.892578 32.412109 L 83.729980 32.412109 L 83.729980 33.335938 Z " fill="black" fill-opacity="1.000000"/>
<path d="M 87.738281 33.335938 L 87.738281 39.319336 L 86.878906 39.319336 L 86.878906 33.335938 L 83.892578 33.335938 L 83.892578 32.412109 L 86.878906 32.412109 L 86.878906 25.300781 L 87.738281 25.300781 L 87.738281 32.412109 L 90.729980 32.412109 L 90.729980 33.335938 Z " fill="black" fill-opacity="1.000000"/>
<path d="M 90.892578 33.335938 L 90.892578 32.412109 L 97.729980 32.412109 L 97.729980 33.335938 Z " fill="black" fill-opacity="1.000000"/>
<path d="M 101.738281 33.335938 L 101.738281 39.319336 L 100.878906 39.319336 L 100.878906 33.335938 L 97.892578 33.335938 L 97.892578 32.412109 L 100.878906 32.412109 L 100.878906 25.300781 L 101.738281 25.300781 L 101.738281 32.412109 L 104.729980 32.412109 L 104.729980 33.335938 Z " fill="black" fill-opacity="1.000000"/>
<path d="M 104.892578 33.335938 L 104.892578 32.412109 L 111.729980 32.412109 L 111.729980 33.335938 Z " fill="black" fill-opacity="1.000000"/>
<path d="M 115.738281 33.335938 L 115.738281 39.319336 L 114.878906 39.319336 L 114.878906 33.335938 L 111.892578 33.335938 L 111.892578 32.412109 L 114.878906 32.412109 L 114.878906 25.300781 L 115.738281 25.300781 L 115.738281 32.412109 L 118.729980 32.412109 L 118.729980 33.335938 Z " fill="black" fill-opacity="1.000000"/>
<path d="M 118.892578 33.335938 L 118.892578 32.412109 L 125.729980 32.412109 L 125.729980 33.335938 Z " fill="black" fill-opacity="1.000000"/>
<path d="M 125.892578 33.335938 L 125.892578 32.412109 L 128.878906 32.412109 L 128.878906 25.300781 L 129.738281 25.300781 L 129.738281 32.412109 L 132.729980 32.412109 L 132.729980 33.335938 Z " fill="black" fill-opacity="1.000000"/>
<path d="M 132.892578 33.335938 L 132.892578 32.412109 L 139.729980 32.412109 L 139.729980 33.335938 Z " fill="black" fill-opacity="1.000000"/>
<path d="M 139.892578 33.335938 L 139.892578 32.412109 L 142.878906 32.412109 L 142.878906 25.300781 L 143.738281 25.300781 L 143.738281 32.412109 L 146.729980 32.412109 L 146.729980 33.335938 Z " fill="black" fill-opacity="1.000000"/>
<path d="M 146.892578 33.335938 L 146.892578 32.412109 L 153.729980 32.412109 L 153.729980 33.335938 Z " fill="black" fill-opacity="1.000000"/>
<path d="M 153.892578 33.335938 L 153.892578 32.412109 L 156.878906 32.412109 L 156.878906 25.300781 L 157.738281 25.300781 L 157.738281 32.412109 L 160.729980 32.412109 L 160.729980 33.335938 Z " fill="black" fill-opacity="1.000000"/>
<path d="M 160.892578 33.335938 L 160.892578 32.412109 L 167.729980 32.412109 L 167.729980 33.335938 Z " fill="black" fill-opacity="1.000000"/>
<path d="M 167.892578 33.335938 L 167.892578 32.412109 L 170.878906 32.412109 L 170.878906 25.300781 L 171.738281 25.300781 L 171.738281 32.412109 L 174.729980 32.412109 L 174.729980 33.335938 Z " fill="black" fill-opacity="1.000000"/>
<path d="M 174.892578 33.335938 L 174.892578 32.412109 L 181.729980 32.412109 L 181.729980 33.335938 Z " fill="black" fill-opacity="1.000000"/>
<path d="M 181.892578 33.335938 L 181.892578 32.412109 L 184.878906 32.412109 L 184.878906 25.300781 L 185.738281 25.300781 L 185.738281 32.412109 L 188.729980 32.412109 L 188.729980 33.335938 Z " fill="black" fill-opacity="1.000000"/>
<path d="M 188.892578 33.335938 L 188.892578 32.412109 L 195.729980 32.412109 L 195.729980 33.335938 Z " fill="black" fill-opacity="1.000000"/>
<path d="M 195.892578 33.335938 L 195.892578 32.412109 L 198.878906 32.412109 L 198.878906 25.300781 L 199.738281 25.300781 L 199.738281 32.412109 L 202.729980 32.412109 L 202.729980 33.335938 Z " fill="black" fill-opacity="1.000000"/>
<path d="M 202.892578 33.335938 L 202.892578 32.412109 L 209.729980 32.412109 L 209.729980 33.335938 Z " fill="black" fill-opacity="1.000000"/>
<path d="M 209.892578 33.335938 L 209.892578 32.412109 L 212.878906 32.412109 L 212.878906 25.300781 L 213.738281 25.300781 L 213.738281 32.412109 L 216.729980 32.412109 L 216.729980 33.335938 Z " fill="black" fill-opacity="1.000000"/>
<path d="M 216.892578 33.335938 L 216.892578 32.412109 L 223.729980 32.412109 L 223.729980 33.335938 Z " fill="black" fill-opacity="1.000000"/>
<path d="M 227.738281 33.335938 L 227.738281 39.319336 L 226.878906 39.319336 L 226.878906 33.335938 L 223.892578 33.335938 L 223.892578 32.412109 L 226.878906 32.412109 L 226.878906 25.300781 L 227.738281 25.300781 L 227.738281 32.412109 L 230.729980 32.412109 L 230.729980 33.335938 Z " fill="black" fill-opacity="1.000000"/>
<path d="M 230.892578 33.335938 L 230.892578 32.412109 L 237.729980 32.412109 L 237.729980 33.335938 Z " fill="black" fill-opacity="1.000000"/>
<path d="M 237.892578 33.335938 L 237.892578 32.412109 L 240.878906 32.412109 L 240.878906 25.300781 L 241.738281 25.300781 L 241.738281 32.412109 L 244.729980 32.412109 L 244.729980 33.335938 Z " fill="black" fill-opacity="1.000000"/>
<path d="M 244.892578 33.335938 L 244.892578 32.412109 L 251.729980 32.412109 L 251.729980 33.335938 Z " fill="black" fill-opacity="1.000000"/>
<path d="M 251.892578 33.335938 L 251.892578 32.412109 L 254.878906 32.412109 L 254.878906 25.300781 L 255.738281 25.300781 L 255.738281 32.412109 L 258.729980 32.412109 L 258.729980 33.335938 Z " fill="black" fill-opacity="1.000000"/>
<path d="M 258.892578 33.335938 L 258.892578 32.412109 L 265.729980 32.412109 L 265.729980 33.335938 Z " fill="black" fill-opacity="1.000000"/>
<path d="M 265.892578 33.335938 L 265.892578 32.412109 L 268.878906 32.412109 L 268.878906 25.300781 L 269.738281 25.300781 L 269.738281 32.412109 L 272.729980 32.412109 L 272.729980 33.335938 Z " fill="black" fill-opacity="1.000000"/>
<path d="M 272.892578 33.335938 L 272.892578 32.412109 L 279.729980 32.412109 L 279.729980 33.335938 Z " fill="black" fill-opacity="1.000000"/>
<path d="M 279.892578 33.335938 L 279.892578 32.412109 L 282.878906 32.412109 L 282.878906 25.300781 L 283.738281 25.300781 L 283.738281 32.412109 L 286.729980 32.412109 L 286.729980 33.335938 Z " fill="black" fill-opacity="1.000000"/>
<path d="M 286.892578 33.335938 L 286.892578 32.412109 L 293.729980 32.412109 L 293.729980 33.335938 Z " fill="black" fill-opacity="1.000000"/>
<path d="M 293.892578 33.335938 L 293.892578 32.412109 L 296.878906 32.412109 L 296.878906 25.300781 L 297.738281 25.300781 L 297.738281 32.412109 L 300.729980 32.412109 L 300.729980 33.335938 Z " fill="black" fill-opacity="1.000000"/>
<path d="M 300.892578 33.335938 L 300.892578 32.412109 L 307.729980 32.412109 L 307.729980 33.335938 Z " fill="black" fill-opacity="1.000000"/>
<path d="M 307.892578 33.335938 L 307.892578 32.412109 L 310.878906 32.412109 L 310.878906 25.300781 L 311.738281 25.300781 L 311.738281 32.412109 L 314.729980 32.412109 L 314.729980 33.335938 Z " fill="black" fill-opacity="1.000000"/>
<path d="M 314.892578 33.335938 L 314.892578 32.412109 L 321.729980 32.412109 L 321.729980 33.335938 Z " fill="black" fill-opacity="1.000000"/>
<path d="M 321.892578 33.335938 L 321.892578 32.412109 L 324.878906 32.412109 L 324.878906 25.300781 L 325.738281 25.300781 L 325.738281 32.412109 L 328.729980 32.412109 L 328.729980 33.335938 Z " fill="black" fill-opacity="1.000000"/>
<path d="M 328.892578 33.335938 L 328.892578 32.412109 L 335.729980 32.412109 L 335.729980 33.335938 Z " fill="black" fill-opacity="1.000000"/>
<path d="M 335.892578 33.335938 L 335.892578 32.412109 L 338.878906 32.412109 L 338.878906 25.300781 L 339.738281 25.300781 L 339.738281 32.412109 L 342.729980 32.412109 L 342.729980 33.335938 Z " fill="black" fill-opacity="1.000000"/>
<path d="M 342.892578 33.335938 L 342.892578 32.412109 L 349.729980 32.412109 L 349.729980 33.335938 Z " fill="black" fill-opacity="1.000000"/>
<path d="M 349.892578 33.335938 L 349.892578 32.412109 L 352.878906 32.412109 L 352.878906 25.300781 L 353.738281 25.300781 L 353.738281 32.412109 L 356.729980 32.412109 L 356.729980 33.335938 Z " fill="black" fill-opacity="1.000000"/>
<path d="M 356.892578 33.335938 L 356.892578 32.412109 L 363.729980 32.412109 L 363.729980 33.335938 Z " fill="black" fill-opacity="1.000000"/>
<path d="M 363.892578 33.335938 L 363.892578 32.412109 L 366.878906 32.412109 L 366.878906 25.300781 L 367.738281 25.300781 L 367.738281 32.412109 L 370.729980 32.412109 L 370.729980 33.335938 Z " fill="black" fill-opacity="1.000000"/>
<path d="M 370.892578 33.335938 L 370.892578 32.412109 L 377.729980 32.412109 L 377.729980 33.335938 Z " fill="black" fill-opacity="1.000000"/>
<path d="M 377.892578 33.335938 L 377.892578 32.412109 L 380.878906 32.412109 L 380.878906 25.300781 L 381.738281 25.300781 L 381.738281 32.412109 L 384.729980 32.412109 L 384.729980 33.335938 Z " fill="black" fill-opacity="1.000000"/>
<path d="M 384.892578 33.335938 L 384.892578 32.412109 L 391.729980 32.412109 L 391.729980 33.335938 Z " fill="black" fill-opacity="1.000000"/>
<path d="M 391.892578 33.335938 L 391.892578 32.412109 L 394.878906 32.412109 L 394.878906 25.300781 L 395.738281 25.300781 L 395.738281 32.412109 L 398.729980 32.412109 L 398.729980 33.335938 Z " fill="black" fill-opacity="1.000000"/>
<path d="M 398.892578 33.335938 L 398.892578 32.412109 L 405.729980 32.412109 L 405.729980 33.335938 Z " fill="black" fill-opacity="1.000000"/>
<path d="M 405.892578 33.335938 L 405.892578 32.412109 L 408.878906 32.412109 L 408.878906 25.300781 L 409.738281 25.300781 L 409.738281 32.412109 L 412.729980 32.412109 L 412.729980 33.335938 Z " fill="black" fill-opacity="1.000000"/>
<path d="M 412.892578 33.335938 L 412.892578 32.412109 L 419.729980 32.412109 L 419.729980 33.335938 Z " fill="black" fill-opacity="1.000000"/>
<path d="M 419.892578 33.335938 L 419.892578 32.412109 L 422.878906 32.412109 L 422.878906 25.300781 L 423.738281 25.300781 L 423.738281 32.412109 L 426.729980 32.412109 L 426.729980 33.335938 Z " fill="black" fill-opacity="1.000000"/>
<path d="M 426.892578 33.335938 L 426.892578 32.412109 L 433.729980 32.412109 L 433.729980 33.335938 Z " fill="black" fill-opacity="1.000000"/>
<path d="M 433.892578 33.335938 L 433.892578 32.412109 L 436.878906 32.412109 L 436.878906 25.300781 L 437.738281 25.300781 L 437.738281 32.412109 L 440.729980 32.412109 L 440.729980 33.335938 Z " fill="black" fill-opacity="1.000000"/>
<path d="M 440.892578 33.335938 L 440.892578 32.412109 L 447.729980 32.412109 L 447.729980 33.335938 Z " fill="black" fill-opacity="1.000000"/>
<path d="M 450.878906 39.319336 L 450.878906 33.335938 L 447.892578 33.335938 L 447.892578 32.412109 L 450.878906 32.412109 L 450.878906 25.300781 L 451.738281 25.300781 L 451.738281 39.319336 Z " fill="black" fill-opacity="1.000000"/>
<path d="M 10.308594 1.862793 Q 11.592285 1.862793 12.250244 2.910156 Q 12.908203 3.957520 12.908203 6.009277 Q 12.908203 8.061035 12.250244 9.108398 Q 11.592285 10.155762 10.308594 10.155762 Q 9.024902 10.155762 8.369629 9.108398 Q 7.714355 8.061035 7.714355 6.009277 Q 7.714355 3.957520 8.369629 2.910156 Q 9.024902 1.862793 10.308594 1.862793 Z M 10.308594 9.296387 Q 11.071289 9.296387 11.444580 8.485352 Q 11.817871 7.674316 11.817871 6.009277 Q 11.817871 5.123047 11.710449 4.408691 L 9.153809 8.410156 Q 9.556641 9.296387 10.308594 9.296387 Z M 10.308594 2.722168 Q 9.551270 2.722168 9.177979 3.533203 Q 8.804688 4.344238 8.804688 6.009277 Q 8.804688 6.766602 8.906738 7.427246 L 11.409668 3.436523 Q 11.001465 2.722168 10.308594 2.722168 Z " fill="black" fill-opacity="1.000000"/>
<path d="M 10.308594 14.862793 Q 11.592285 14.862793 12.250244 15.910156 Q 12.908203 16.957520 12.908203 19.009277 Q 12.908203 21.061035 12.250244 22.108398 Q 11.592285 23.155762 10.308594 23.155762 Q 9.024902 23.155762 8.369629 22.108398 Q 7.714355 21.061035 7.714355 19.009277 Q 7.714355 16.957520 8.369629 15.910156 Q 9.024902 14.862793 10.308594 14.862793 Z M 10.308594 22.296387 Q 11.071289 22.296387 11.444580 21.485352 Q 11.817871 20.674316 11.817871 19.009277 Q 11.817871 18.123047 11.710449 17.408691 L 9.153809 21.410156 Q 9.556641 22.296387 10.308594 22.296387 Z M 10.308594 15.722168 Q 9.551270 15.722168 9.177979 16.533203 Q 8.804688 17.344238 8.804688 19.009277 Q 8.804688 19.766602 8.906738 20.427246 L 11.409668 16.436523 Q 11.001465 15.722168 10.308594 15.722168 Z " fill="black" fill-opacity="1.000000"/>
<path d="M 22.450195 22.092285 L 24.136719 22.092285 L 24.136719 16.033691 L 22.117188 17.005859 L 22.117188 15.963867 L 24.125977 15.007812 L 25.210938 15.007812 L 25.210938 22.092285 L 26.875977 22.092285 L 26.875977 23.000000 L 22.450195 23.000000 Z " fill="black" fill-opacity="1.000000"/>
<path d="M 37.003418 22.086914 L 40.687988 22.086914 L 40.687988 23.000000 L 35.816406 23.000000 L 35.816406 22.086914 Q 36.820801 21.028809 37.572754 20.217773 Q 38.324707 19.406738 38.609375 19.073730 Q 39.146484 18.418457 39.334473 18.012939 Q 39.522461 17.607422 39.522461 17.183105 Q 39.522461 16.511719 39.127686 16.130371 Q 38.732910 15.749023 38.045410 15.749023 Q 37.556641 15.749023 37.019531 15.926270 Q 36.482422 16.103516 35.880859 16.463379 L 35.880859 15.367676 Q 36.434082 15.104492 36.968506 14.970215 Q 37.502930 14.835938 38.023926 14.835938 Q 39.200195 14.835938 39.917236 15.461670 Q 40.634277 16.087402 40.634277 17.102539 Q 40.634277 17.618164 40.395264 18.133789 Q 40.156250 18.649414 39.619141 19.272461 Q 39.318359 19.621582 38.746338 20.239258 Q 38.174316 20.856934 37.003418 22.086914 Z " fill="black" fill-opacity="1.000000"/>
<path d="M 53.167969 18.708496 Q 53.957520 18.917969 54.376465 19.452393 Q 54.795410 19.986816 54.795410 20.787109 Q 54.795410 21.893555 54.051514 22.524658 Q 53.307617 23.155762 51.991699 23.155762 Q 51.438477 23.155762 50.863770 23.053711 Q 50.289062 22.951660 49.735840 22.758301 L 49.735840 21.678711 Q 50.283691 21.963379 50.815430 22.103027 Q 51.347168 22.242676 51.873535 22.242676 Q 52.765137 22.242676 53.243164 21.839844 Q 53.721191 21.437012 53.721191 20.679688 Q 53.721191 19.981445 53.243164 19.570557 Q 52.765137 19.159668 51.948730 19.159668 L 51.121582 19.159668 L 51.121582 18.268066 L 51.948730 18.268066 Q 52.695312 18.268066 53.114258 17.940430 Q 53.533203 17.612793 53.533203 17.027344 Q 53.533203 16.409668 53.143799 16.079346 Q 52.754395 15.749023 52.034668 15.749023 Q 51.556641 15.749023 51.046387 15.856445 Q 50.536133 15.963867 49.977539 16.178711 L 49.977539 15.179688 Q 50.627441 15.007812 51.135010 14.921875 Q 51.642578 14.835938 52.034668 14.835938 Q 53.205566 14.835938 53.906494 15.424072 Q 54.607422 16.012207 54.607422 16.984375 Q 54.607422 17.645020 54.239502 18.085449 Q 53.871582 18.525879 53.167969 18.708496 Z " fill="black" fill-opacity="1.000000"/>
<path d="M 66.947754 15.969238 L 64.417969 20.207031 L 66.947754 20.207031 Z M 66.770508 14.980957 L 68.027344 14.980957 L 68.027344 20.207031 L 69.096191 20.207031 L 69.096191 21.087891 L 68.027344 21.087891 L 68.027344 23.000000 L 66.947754 23.000000 L 66.947754 21.087891 L 63.547852 21.087891 L 63.547852 20.062012 Z " fill="black" fill-opacity="1.000000"/>
<path d="M 78.111816 14.980957 L 82.172363 14.980957 L 82.172363 15.894043 L 79.100098 15.894043 L 79.100098 17.865234 Q 79.331055 17.779297 79.564697 17.739014 Q 79.798340 17.698730 80.034668 17.698730 Q 81.280762 17.698730 82.011230 18.434570 Q 82.741699 19.170410 82.741699 20.427246 Q 82.741699 21.694824 81.976318 22.425293 Q 81.210938 23.155762 79.884277 23.155762 Q 79.245117 23.155762 78.716064 23.069824 Q 78.187012 22.983887 77.768066 22.812012 L 77.768066 21.710938 Q 78.262207 21.979492 78.761719 22.111084 Q 79.261230 22.242676 79.782227 22.242676 Q 80.679199 22.242676 81.165283 21.770020 Q 81.651367 21.297363 81.651367 20.427246 Q 81.651367 19.567871 81.149170 19.089844 Q 80.646973 18.611816 79.750000 18.611816 Q 79.314941 18.611816 78.901367 18.711182 Q 78.487793 18.810547 78.111816 19.009277 Z " fill="black" fill-opacity="1.000000"/>
<path d="M 96.322754 15.158203 L 96.322754 16.157227 Q 95.984375 15.958496 95.603027 15.853760 Q 95.221680 15.749023 94.808105 15.749023 Q 93.776855 15.749023 93.245117 16.525146 Q 92.713379 17.301270 92.713379 18.810547 Q 92.971191 18.273438 93.427734 17.986084 Q 93.884277 17.698730 94.475098 17.698730 Q 95.635254 17.698730 96.271729 18.410400 Q 96.908203 19.122070 96.908203 20.427246 Q 96.908203 21.727051 96.252930 22.441406 Q 95.597656 23.155762 94.410645 23.155762 Q 93.014160 23.155762 92.364258 22.154053 Q 91.714355 21.152344 91.714355 18.998535 Q 91.714355 16.968262 92.495850 15.902100 Q 93.277344 14.835938 94.759766 14.835938 Q 95.157227 14.835938 95.554688 14.919189 Q 95.952148 15.002441 96.322754 15.158203 Z M 94.389160 18.547363 Q 93.696289 18.547363 93.298828 19.046875 Q 92.901367 19.546387 92.901367 20.427246 Q 92.901367 21.308105 93.298828 21.807617 Q 93.696289 22.307129 94.389160 22.307129 Q 95.108887 22.307129 95.474121 21.831787 Q 95.839355 21.356445 95.839355 20.427246 Q 95.839355 19.492676 95.474121 19.020020 Q 95.108887 18.547363 94.389160 18.547363 Z " fill="black" fill-opacity="1.000000"/>
<path d="M 105.746582 14.980957 L 110.795410 14.980957 L 110.795410 15.442871 L 107.927246 23.000000 L 106.793945 23.000000 L 109.586914 15.894043 L 105.746582 15.894043 Z " fill="black" fill-opacity="1.000000"/>
<path d="M 122.308594 19.191895 Q 121.583496 19.191895 121.188721 19.597412 Q 120.793945 20.002930 120.793945 20.744141 Q 120.793945 21.485352 121.194092 21.896240 Q 121.594238 22.307129 122.308594 22.307129 Q 123.039062 22.307129 123.433838 21.901611 Q 123.828613 21.496094 123.828613 20.744141 Q 123.828613 20.008301 123.428467 19.600098 Q 123.028320 19.191895 122.308594 19.191895 Z M 121.363281 18.740723 Q 120.670410 18.563477 120.281006 18.080078 Q 119.891602 17.596680 119.891602 16.914551 Q 119.891602 15.958496 120.541504 15.397217 Q 121.191406 14.835938 122.308594 14.835938 Q 123.431152 14.835938 124.081055 15.397217 Q 124.730957 15.958496 124.730957 16.914551 Q 124.730957 17.596680 124.341553 18.080078 Q 123.952148 18.563477 123.259277 18.740723 Q 124.064941 18.917969 124.491943 19.455078 Q 124.918945 19.992188 124.918945 20.846191 Q 124.918945 21.931152 124.226074 22.543457 Q 123.533203 23.155762 122.308594 23.155762 Q 121.083984 23.155762 120.393799 22.546143 Q 119.703613 21.936523 119.703613 20.856934 Q 119.703613 19.997559 120.130615 19.457764 Q 120.557617 18.917969 121.363281 18.740723 Z M 120.971191 17.016602 Q 120.971191 17.661133 121.314941 17.999512 Q 121.658691 18.337891 122.308594 18.337891 Q 122.963867 18.337891 123.307617 17.999512 Q 123.651367 17.661133 123.651367 17.016602 Q 123.651367 16.361328 123.310303 16.017578 Q 122.969238 15.673828 122.308594 15.673828 Q 121.658691 15.673828 121.314941 16.020264 Q 120.971191 16.366699 120.971191 17.016602 Z " fill="black" fill-opacity="1.000000"/>
<path d="M 136.201172 19.444336 Q 136.894043 19.444336 137.288818 18.944824 Q 137.683594 18.445312 137.683594 17.564453 Q 137.683594 16.683594 137.288818 16.184082 Q 136.894043 15.684570 136.201172 15.684570 Q 135.481445 15.684570 135.116211 16.159912 Q 134.750977 16.635254 134.750977 17.564453 Q 134.750977 18.499023 135.113525 18.971680 Q 135.476074 19.444336 136.201172 19.444336 Z M 134.267578 22.833496 L 134.267578 21.834473 Q 134.605957 22.033203 134.987305 22.137939 Q 135.368652 22.242676 135.782227 22.242676 Q 136.813477 22.242676 137.342529 21.466553 Q 137.871582 20.690430 137.871582 19.181152 Q 137.619141 19.718262 137.162598 20.005615 Q 136.706055 20.292969 136.115234 20.292969 Q 134.955078 20.292969 134.318604 19.578613 Q 133.682129 18.864258 133.682129 17.553711 Q 133.682129 16.259277 134.334717 15.547607 Q 134.987305 14.835938 136.179688 14.835938 Q 137.576172 14.835938 138.226074 15.840332 Q 138.875977 16.844727 138.875977 18.998535 Q 138.875977 21.023438 138.094482 22.089600 Q 137.312988 23.155762 135.825195 23.155762 Q 135.433105 23.155762 135.035645 23.072510 Q 134.638184 22.989258 134.267578 22.833496 Z " fill="black" fill-opacity="1.000000"/>
<path d="M 150.308594 14.862793 Q 151.592285 14.862793 152.250244 15.910156 Q 152.908203 16.957520 152.908203 19.009277 Q 152.908203 21.061035 152.250244 22.108398 Q 151.592285 23.155762 150.308594 23.155762 Q 149.024902 23.155762 148.369629 22.108398 Q 147.714355 21.061035 147.714355 19.009277 Q 147.714355 16.957520 148.369629 15.910156 Q 149.024902 14.862793 150.308594 14.862793 Z M 150.308594 22.296387 Q 151.071289 22.296387 151.444580 21.485352 Q 151.817871 20.674316 151.817871 19.009277 Q 151.817871 18.123047 151.710449 17.408691 L 149.153809 21.410156 Q 149.556641 22.296387 150.308594 22.296387 Z M 150.308594 15.722168 Q 149.551270 15.722168 149.177979 16.533203 Q 148.804688 17.344238 148.804688 19.009277 Q 148.804688 19.766602 148.906738 20.427246 L 151.409668 16.436523 Q 151.001465 15.722168 150.308594 15.722168 Z " fill="black" fill-opacity="1.000000"/>
<path d="M 162.450195 22.092285 L 164.136719 22.092285 L 164.136719 16.033691 L 162.117188 17.005859 L 162.117188 15.963867 L 164.125977 15.007812 L 165.210938 15.007812 L 165.210938 22.092285 L 166.875977 22.092285 L 166.875977 23.000000 L 162.450195 23.000000 Z " fill="black" fill-opacity="1.000000"/>
<path d="M 177.003418 22.086914 L 180.687988 22.086914 L 180.687988 23.000000 L 175.816406 23.000000 L 175.816406 22.086914 Q 176.820801 21.028809 177.572754 20.217773 Q 178.324707 19.406738 178.609375 19.073730 Q 179.146484 18.418457 179.334473 18.012939 Q 179.522461 17.607422 179.522461 17.183105 Q 179.522461 16.511719 179.127686 16.130371 Q 178.732910 15.749023 178.045410 15.749023 Q 177.556641 15.749023 177.019531 15.926270 Q 176.482422 16.103516 175.880859 16.463379 L 175.880859 15.367676 Q 176.434082 15.104492 176.968506 14.970215 Q 177.502930 14.835938 178.023926 14.835938 Q 179.200195 14.835938 179.917236 15.461670 Q 180.634277 16.087402 180.634277 17.102539 Q 180.634277 17.618164 180.395264 18.133789 Q 180.156250 18.649414 179.619141 19.272461 Q 179.318359 19.621582 178.746338 20.239258 Q 178.174316 20.856934 177.003418 22.086914 Z " fill="black" fill-opacity="1.000000"/>
<path d="M 193.167969 18.708496 Q 193.957520 18.917969 194.376465 19.452393 Q 194.795410 19.986816 194.795410 20.787109 Q 194.795410 21.893555 194.051514 22.524658 Q 193.307617 23.155762 191.991699 23.155762 Q 191.438477 23.155762 190.863770 23.053711 Q 190.289062 22.951660 189.735840 22.758301 L 189.735840 21.678711 Q 190.283691 21.963379 190.815430 22.103027 Q 191.347168 22.242676 191.873535 22.242676 Q 192.765137 22.242676 193.243164 21.839844 Q 193.721191 21.437012 193.721191 20.679688 Q 193.721191 19.981445 193.243164 19.570557 Q 192.765137 19.159668 191.948730 19.159668 L 191.121582 19.159668 L 191.121582 18.268066 L 191.948730 18.268066 Q 192.695312 18.268066 193.114258 17.940430 Q 193.533203 17.612793 193.533203 17.027344 Q 193.533203 16.409668 193.143799 16.079346 Q 192.754395 15.749023 192.034668 15.749023 Q 191.556641 15.749023 191.046387 15.856445 Q 190.536133 15.963867 189.977539 16.178711 L 189.977539 15.179688 Q 190.627441 15.007812 191.135010 14.921875 Q 191.642578 14.835938 192.034668 14.835938 Q 193.205566 14.835938 193.906494 15.424072 Q 194.607422 16.012207 194.607422 16.984375 Q 194.607422 17.645020 194.239502 18.085449 Q 193.871582 18.525879 193.167969 18.708496 Z " fill="black" fill-opacity="1.000000"/>
<path d="M 206.947754 15.969238 L 204.417969 20.207031 L 206.947754 20.207031 Z M 206.770508 14.980957 L 208.027344 14.980957 L 208.027344 20.207031 L 209.096191 20.207031 L 209.096191 21.087891 L 208.027344 21.087891 L 208.027344 23.000000 L 206.947754 23.000000 L 206.947754 21.087891 L 203.547852 21.087891 L 203.547852 20.062012 Z " fill="black" fill-opacity="1.000000"/>
<path d="M 218.111816 14.980957 L 222.172363 14.980957 L 222.172363 15.894043 L 219.100098 15.894043 L 219.100098 17.865234 Q 219.331055 17.779297 219.564697 17.739014 Q 219.798340 17.698730 220.034668 17.698730 Q 221.280762 17.698730 222.011230 18.434570 Q 222.741699 19.170410 222.741699 20.427246 Q 222.741699 21.694824 221.976318 22.425293 Q 221.210938 23.155762 219.884277 23.155762 Q 219.245117 23.155762 218.716064 23.069824 Q 218.187012 22.983887 217.768066 22.812012 L 217.768066 21.710938 Q 218.262207 21.979492 218.761719 22.111084 Q 219.261230 22.242676 219.782227 22.242676 Q 220.679199 22.242676 221.165283 21.770020 Q 221.651367 21.297363 221.651367 20.427246 Q 221.651367 19.567871 221.149170 19.089844 Q 220.646973 18.611816 219.750000 18.611816 Q 219.314941 18.611816 218.901367 18.711182 Q 218.487793 18.810547 218.111816 19.009277 Z " fill="black" fill-opacity="1.000000"/>
<path d="M 236.322754 15.158203 L 236.322754 16.157227 Q 235.984375 15.958496 235.603027 15.853760 Q 235.221680 15.749023 234.808105 15.749023 Q 233.776855 15.749023 233.245117 16.525146 Q 232.713379 17.301270 232.713379 18.810547 Q 232.971191 18.273438 233.427734 17.986084 Q 233.884277 17.698730 234.475098 17.698730 Q 235.635254 17.698730 236.271729 18.410400 Q 236.908203 19.122070 236.908203 20.427246 Q 236.908203 21.727051 236.252930 22.441406 Q 235.597656 23.155762 234.410645 23.155762 Q 233.014160 23.155762 232.364258 22.154053 Q 231.714355 21.152344 231.714355 18.998535 Q 231.714355 16.968262 232.495850 15.902100 Q 233.277344 14.835938 234.759766 14.835938 Q 235.157227 14.835938 235.554688 14.919189 Q 235.952148 15.002441 236.322754 15.158203 Z M 234.389160 18.547363 Q 233.696289 18.547363 233.298828 19.046875 Q 232.901367 19.546387 232.901367 20.427246 Q 232.901367 21.308105 233.298828 21.807617 Q 233.696289 22.307129 234.389160 22.307129 Q 235.108887 22.307129 235.474121 21.831787 Q 235.839355 21.356445 235.839355 20.427246 Q 235.839355 19.492676 235.474121 19.020020 Q 235.108887 18.547363 234.389160 18.547363 Z " fill="black" fill-opacity="1.000000"/>
<path d="M 245.746582 14.980957 L 250.795410 14.980957 L 250.795410 15.442871 L 247.927246 23.000000 L 246.793945 23.000000 L 249.586914 15.894043 L 245.746582 15.894043 Z " fill="black" fill-opacity="1.000000"/>
<path d="M 262.308594 19.191895 Q 261.583496 19.191895 261.188721 19.597412 Q 260.793945 20.002930 260.793945 20.744141 Q 260.793945 21.485352 261.194092 21.896240 Q 261.594238 22.307129 262.308594 22.307129 Q 263.039062 22.307129 263.433838 21.901611 Q 263.828613 21.496094 263.828613 20.744141 Q 263.828613 20.008301 263.428467 19.600098 Q 263.028320 19.191895 262.308594 19.191895 Z M 261.363281 18.740723 Q 260.670410 18.563477 260.281006 18.080078 Q 259.891602 17.596680 259.891602 16.914551 Q 259.891602 15.958496 260.541504 15.397217 Q 261.191406 14.835938 262.308594 14.835938 Q 263.431152 14.835938 264.081055 15.397217 Q 264.730957 15.958496 264.730957 16.914551 Q 264.730957 17.596680 264.341553 18.080078 Q 263.952148 18.563477 263.259277 18.740723 Q 264.064941 18.917969 264.491943 19.455078 Q 264.918945 19.992188 264.918945 20.846191 Q 264.918945 21.931152 264.226074 22.543457 Q 263.533203 23.155762 262.308594 23.155762 Q 261.083984 23.155762 260.393799 22.546143 Q 259.703613 21.936523 259.703613 20.856934 Q 259.703613 19.997559 260.130615 19.457764 Q 260.557617 18.917969 261.363281 18.740723 Z M 260.971191 17.016602 Q 260.971191 17.661133 261.314941 17.999512 Q 261.658691 18.337891 262.308594 18.337891 Q 262.963867 18.337891 263.307617 17.999512 Q 263.651367 17.661133 263.651367 17.016602 Q 263.651367 16.361328 263.310303 16.017578 Q 262.969238 15.673828 262.308594 15.673828 Q 261.658691 15.673828 261.314941 16.020264 Q 260.971191 16.366699 260.971191 17.016602 Z " fill="black" fill-opacity="1.000000"/>
<path d="M 276.201172 19.444336 Q 276.894043 19.444336 277.288818 18.944824 Q 277.683594 18.445312 277.683594 17.564453 Q 277.683594 16.683594 277.288818 16.184082 Q 276.894043 15.684570 276.201172 15.684570 Q 275.481445 15.684570 275.116211 16.159912 Q 274.750977 16.635254 274.750977 17.564453 Q 274.750977 18.499023 275.113525 18.971680 Q 275.476074 19.444336 276.201172 19.444336 Z M 274.267578 22.833496 L 274.267578 21.834473 Q 274.605957 22.033203 274.987305 22.137939 Q 275.368652 22.242676 275.782227 22.242676 Q 276.813477 22.242676 277.342529 21.466553 Q 277.871582 20.690430 277.871582 19.181152 Q 277.619141 19.718262 277.162598 20.005615 Q 276.706055 20.292969 276.115234 20.292969 Q 274.955078 20.292969 274.318604 19.578613 Q 273.682129 18.864258 273.682129 17.553711 Q 273.682129 16.259277 274.334717 15.547607 Q 274.987305 14.835938 276.179688 14.835938 Q 277.576172 14.835938 278.226074 15.840332 Q 278.875977 16.844727 278.875977 18.998535 Q 278.875977 21.023438 278.094482 22.089600 Q 277.312988 23.155762 275.825195 23.155762 Q 275.433105 23.155762 275.035645 23.072510 Q 274.638184 22.989258 274.267578 22.833496 Z " fill="black" fill-opacity="1.000000"/>
<path d="M 290.308594 14.862793 Q 291.592285 14.862793 292.250244 15.910156 Q 292.908203 16.957520 292.908203 19.009277 Q 292.908203 21.061035 292.250244 22.108398 Q 291.592285 23.155762 290.308594 23.155762 Q 289.024902 23.155762 288.369629 22.108398 Q 287.714355 21.061035 287.714355 19.009277 Q 287.714355 16.957520 288.369629 15.910156 Q 289.024902 14.862793 290.308594 14.862793 Z M 290.308594 22.296387 Q 291.071289 22.296387 291.444580 21.485352 Q 291.817871 20.674316 291.817871 19.009277 Q 291.817871 18.123047 291.710449 17.408691 L 289.153809 21.410156 Q 289.556641 22.296387 290.308594 22.296387 Z M 290.308594 15.722168 Q 289.551270 15.722168 289.177979 16.533203 Q 288.804688 17.344238 288.804688 19.009277 Q 288.804688 19.766602 288.906738 20.427246 L 291.409668 16.436523 Q 291.001465 15.722168 290.308594 15.722168 Z " fill="black" fill-opacity="1.000000"/>
<path d="M 302.450195 22.092285 L 304.136719 22.092285 L 304.136719 16.033691 L 302.117188 17.005859 L 302.117188 15.963867 L 304.125977 15.007812 L 305.210938 15.007812 L 305.210938 22.092285 L 306.875977 22.092285 L 306.875977 23.000000 L 302.450195 23.000000 Z " fill="black" fill-opacity="1.000000"/>
<path d="M 317.003418 22.086914 L 320.687988 22.086914 L 320.687988 23.000000 L 315.816406 23.000000 L 315.816406 22.086914 Q 316.820801 21.028809 317.572754 20.217773 Q 318.324707 19.406738 318.609375 19.073730 Q 319.146484 18.418457 319.334473 18.012939 Q 319.522461 17.607422 319.522461 17.183105 Q 319.522461 16.511719 319.127686 16.130371 Q 318.732910 15.749023 318.045410 15.749023 Q 317.556641 15.749023 317.019531 15.926270 Q 316.482422 16.103516 315.880859 16.463379 L 315.880859 15.367676 Q 316.434082 15.104492 316.968506 14.970215 Q 317.502930 14.835938 318.023926 14.835938 Q 319.200195 14.835938 319.917236 15.461670 Q 320.634277 16.087402 320.634277 17.102539 Q 320.634277 17.618164 320.395264 18.133789 Q 320.156250 18.649414 319.619141 19.272461 Q 319.318359 19.621582 318.746338 20.239258 Q 318.174316 20.856934 317.003418 22.086914 Z " fill="black" fill-opacity="1.000000"/>
<path d="M 333.167969 18.708496 Q 333.957520 18.917969 334.376465 19.452393 Q 334.795410 19.986816 334.795410 20.787109 Q 334.795410 21.893555 334.051514 22.524658 Q 333.307617 23.155762 331.991699 23.155762 Q 331.438477 23.155762 330.863770 23.053711 Q 330.289062 22.951660 329.735840 22.758301 L 329.735840 21.678711 Q 330.283691 21.963379 330.815430 22.103027 Q 331.347168 22.242676 331.873535 22.242676 Q 332.765137 22.242676 333.243164 21.839844 Q 333.721191 21.437012 333.721191 20.679688 Q 333.721191 19.981445 333.243164 19.570557 Q 332.765137 19.159668 331.948730 19.159668 L 331.121582 19.159668 L 331.121582 18.268066 L 331.948730 18.268066 Q 332.695312 18.268066 333.114258 17.940430 Q 333.533203 17.612793 333.533203 17.027344 Q 333.533203 16.409668 333.143799 16.079346 Q 332.754395 15.749023 332.034668 15.749023 Q 331.556641 15.749023 331.046387 15.856445 Q 330.536133 15.963867 329.977539 16.178711 L 329.977539 15.179688 Q 330.627441 15.007812 331.135010 14.921875 Q 331.642578 14.835938 332.034668 14.835938 Q 333.205566 14.835938 333.906494 15.424072 Q 334.607422 16.012207 334.607422 16.984375 Q 334.607422 17.645020 334.239502 18.085449 Q 333.871582 18.525879 333.167969 18.708496 Z " fill="black" fill-opacity="1.000000"/>
<path d="M 346.947754 15.969238 L 344.417969 20.207031 L 346.947754 20.207031 Z M 346.770508 14.980957 L 348.027344 14.980957 L 348.027344 20.207031 L 349.096191 20.207031 L 349.096191 21.087891 L 348.027344 21.087891 L 348.027344 23.000000 L 346.947754 23.000000 L 346.947754 21.087891 L 343.547852 21.087891 L 343.547852 20.062012 Z " fill="black" fill-opacity="1.000000"/>
<path d="M 358.111816 14.980957 L 362.172363 14.980957 L 362.172363 15.894043 L 359.100098 15.894043 L 359.100098 17.865234 Q 359.331055 17.779297 359.564697 17.739014 Q 359.798340 17.698730 360.034668 17.698730 Q 361.280762 17.698730 362.011230 18.434570 Q 362.741699 19.170410 362.741699 20.427246 Q 362.741699 21.694824 361.976318 22.425293 Q 361.210938 23.155762 359.884277 23.155762 Q 359.245117 23.155762 358.716064 23.069824 Q 358.187012 22.983887 357.768066 22.812012 L 357.768066 21.710938 Q 358.262207 21.979492 358.761719 22.111084 Q 359.261230 22.242676 359.782227 22.242676 Q 360.679199 22.242676 361.165283 21.770020 Q 361.651367 21.297363 361.651367 20.427246 Q 361.651367 19.567871 361.149170 19.089844 Q 360.646973 18.611816 359.750000 18.611816 Q 359.314941 18.611816 358.901367 18.711182 Q 358.487793 18.810547 358.111816 19.009277 Z " fill="black" fill-opacity="1.000000"/>
<path d="M 376.322754 15.158203 L 376.322754 16.157227 Q 375.984375 15.958496 375.603027 15.853760 Q 375.221680 15.749023 374.808105 15.749023 Q 373.776855 15.749023 373.245117 16.525146 Q 372.713379 17.301270 372.713379 18.810547 Q 372.971191 18.273438 373.427734 17.986084 Q 373.884277 17.698730 374.475098 17.698730 Q 375.635254 17.698730 376.271729 18.410400 Q 376.908203 19.122070 376.908203 20.427246 Q 376.908203 21.727051 376.252930 22.441406 Q 375.597656 23.155762 374.410645 23.155762 Q 373.014160 23.155762 372.364258 22.154053 Q 371.714355 21.152344 371.714355 18.998535 Q 371.714355 16.968262 372.495850 15.902100 Q 373.277344 14.835938 374.759766 14.835938 Q 375.157227 14.835938 375.554688 14.919189 Q 375.952148 15.002441 376.322754 15.158203 Z M 374.389160 18.547363 Q 373.696289 18.547363 373.298828 19.046875 Q 372.901367 19.546387 372.901367 20.427246 Q 372.901367 21.308105 373.298828 21.807617 Q 373.696289 22.307129 374.389160 22.307129 Q 375.108887 22.307129 375.474121 21.831787 Q 375.839355 21.356445 375.839355 20.427246 Q 375.839355 19.492676 375.474121 19.020020 Q 375.108887 18.547363 374.389160 18.547363 Z " fill="black" fill-opacity="1.000000"/>
<path d="M 385.746582 14.980957 L 390.795410 14.980957 L 390.795410 15.442871 L 387.927246 23.000000 L 386.793945 23.000000 L 389.586914 15.894043 L 385.746582 15.894043 Z " fill="black" fill-opacity="1.000000"/>
<path d="M 402.308594 19.191895 Q 401.583496 19.191895 401.188721 19.597412 Q 400.793945 20.002930 400.793945 20.744141 Q 400.793945 21.485352 401.194092 21.896240 Q 401.594238 22.307129 402.308594 22.307129 Q 403.039062 22.307129 403.433838 21.901611 Q 403.828613 21.496094 403.828613 20.744141 Q 403.828613 20.008301 403.428467 19.600098 Q 403.028320 19.191895 402.308594 19.191895 Z M 401.363281 18.740723 Q 400.670410 18.563477 400.281006 18.080078 Q 399.891602 17.596680 399.891602 16.914551 Q 399.891602 15.958496 400.541504 15.397217 Q 401.191406 14.835938 402.308594 14.835938 Q 403.431152 14.835938 404.081055 15.397217 Q 404.730957 15.958496 404.730957 16.914551 Q 404.730957 17.596680 404.341553 18.080078 Q 403.952148 18.563477 403.259277 18.740723 Q 404.064941 18.917969 404.491943 19.455078 Q 404.918945 19.992188 404.918945 20.846191 Q 404.918945 21.931152 404.226074 22.543457 Q 403.533203 23.155762 402.308594 23.155762 Q 401.083984 23.155762 400.393799 22.546143 Q 399.703613 21.936523 399.703613 20.856934 Q 399.703613 19.997559 400.130615 19.457764 Q 400.557617 18.917969 401.363281 18.740723 Z M 400.971191 17.016602 Q 400.971191 17.661133 401.314941 17.999512 Q 401.658691 18.337891 402.308594 18.337891 Q 402.963867 18.337891 403.307617 17.999512 Q 403.651367 17.661133 403.651367 17.016602 Q 403.651367 16.361328 403.310303 16.017578 Q 402.969238 15.673828 402.308594 15.673828 Q 401.658691 15.673828 401.314941 16.020264 Q 400.971191 16.366699 400.971191 17.016602 Z " fill="black" fill-opacity="1.000000"/>
<path d="M 416.201172 19.444336 Q 416.894043 19.444336 417.288818 18.944824 Q 417.683594 18.445312 417.683594 17.564453 Q 417.683594 16.683594 417.288818 16.184082 Q 416.894043 15.684570 416.201172 15.684570 Q 415.481445 15.684570 415.116211 16.159912 Q 414.750977 16.635254 414.750977 17.564453 Q 414.750977 18.499023 415.113525 18.971680 Q 415.476074 19.444336 416.201172 19.444336 Z M 414.267578 22.833496 L 414.267578 21.834473 Q 414.605957 22.033203 414.987305 22.137939 Q 415.368652 22.242676 415.782227 22.242676 Q 416.813477 22.242676 417.342529 21.466553 Q 417.871582 20.690430 417.871582 19.181152 Q 417.619141 19.718262 417.162598 20.005615 Q 416.706055 20.292969 416.115234 20.292969 Q 414.955078 20.292969 414.318604 19.578613 Q 413.682129 18.864258 413.682129 17.553711 Q 413.682129 16.259277 414.334717 15.547607 Q 414.987305 14.835938 416.179688 14.835938 Q 417.576172 14.835938 418.226074 15.840332 Q 418.875977 16.844727 418.875977 18.998535 Q 418.875977 21.023438 418.094482 22.089600 Q 417.312988 23.155762 415.825195 23.155762 Q 415.433105 23.155762 415.035645 23.072510 Q 414.638184 22.989258 414.267578 22.833496 Z " fill="black" fill-opacity="1.000000"/>
<path d="M 430.308594 14.862793 Q 431.592285 14.862793 432.250244 15.910156 Q 432.908203 16.957520 432.908203 19.009277 Q 432.908203 21.061035 432.250244 22.108398 Q 431.592285 23.155762 430.308594 23.155762 Q 429.024902 23.155762 428.369629 22.108398 Q 427.714355 21.061035 427.714355 19.009277 Q 427.714355 16.957520 428.369629 15.910156 Q 429.024902 14.862793 430.308594 14.862793 Z M 430.308594 22.296387 Q 431.071289 22.296387 431.444580 21.485352 Q 431.817871 20.674316 431.817871 19.009277 Q 431.817871 18.123047 431.710449 17.408691 L 429.153809 21.410156 Q 429.556641 22.296387 430.308594 22.296387 Z M 430.308594 15.722168 Q 429.551270 15.722168 429.177979 16.533203 Q 428.804688 17.344238 428.804688 19.009277 Q 428.804688 19.766602 428.906738 20.427246 L 431.409668 16.436523 Q 431.001465 15.722168 430.308594 15.722168 Z " fill="black" fill-opacity="1.000000"/>
<path d="M 442.450195 22.092285 L 444.136719 22.092285 L 444.136719 16.033691 L 442.117188 17.005859 L 442.117188 15.963867 L 444.125977 15.007812 L 445.210938 15.007812 L 445.210938 22.092285 L 446.875977 22.092285 L 446.875977 23.000000 L 442.450195 23.000000 Z " fill="black" fill-opacity="1.000000"/>
<path d="M 148.450195 9.092285 L 150.136719 9.092285 L 150.136719 3.033691 L 148.117188 4.005859 L 148.117188 2.963867 L 150.125977 2.007812 L 151.210938 2.007812 L 151.210938 9.092285 L 152.875977 9.092285 L 152.875977 10.000000 L 148.450195 10.000000 Z " fill="black" fill-opacity="1.000000"/>
<path d="M 289.003418 9.086914 L 292.687988 9.086914 L 292.687988 10.000000 L 287.816406 10.000000 L 287.816406 9.086914 Q 288.820801 8.028809 289.572754 7.217773 Q 290.324707 6.406738 290.609375 6.073730 Q 291.146484 5.418457 291.334473 5.012939 Q 291.522461 4.607422 291.522461 4.183105 Q 291.522461 3.511719 291.127686 3.130371 Q 290.732910 2.749023 290.045410 2.749023 Q 289.556641 2.749023 289.019531 2.926270 Q 288.482422 3.103516 287.880859 3.463379 L 287.880859 2.367676 Q 288.434082 2.104492 288.968506 1.970215 Q 289.502930 1.835938 290.023926 1.835938 Q 291.200195 1.835938 291.917236 2.461670 Q 292.634277 3.087402 292.634277 4.102539 Q 292.634277 4.618164 292.395264 5.133789 Q 292.156250 5.649414 291.619141 6.272461 Q 291.318359 6.621582 290.746338 7.239258 Q 290.174316 7.856934 289.003418 9.086914 Z " fill="black" fill-opacity="1.000000"/>
<path d="M 431.167969 5.708496 Q 431.957520 5.917969 432.376465 6.452393 Q 432.795410 6.986816 432.795410 7.787109 Q 432.795410 8.893555 432.051514 9.524658 Q 431.307617 10.155762 429.991699 10.155762 Q 429.438477 10.155762 428.863770 10.053711 Q 428.289062 9.951660 427.735840 9.758301 L 427.735840 8.678711 Q 428.283691 8.963379 428.815430 9.103027 Q 429.347168 9.242676 429.873535 9.242676 Q 430.765137 9.242676 431.243164 8.839844 Q 431.721191 8.437012 431.721191 7.679688 Q 431.721191 6.981445 431.243164 6.570557 Q 430.765137 6.159668 429.948730 6.159668 L 429.121582 6.159668 L 429.121582 5.268066 L 429.948730 5.268066 Q 430.695312 5.268066 431.114258 4.940430 Q 431.533203 4.612793 431.533203 4.027344 Q 431.533203 3.409668 431.143799 3.079346 Q 430.754395 2.749023 430.034668 2.749023 Q 429.556641 2.749023 429.046387 2.856445 Q 428.536133 2.963867 427.977539 3.178711 L 427.977539 2.179688 Q 428.627441 2.007812 429.135010 1.921875 Q 429.642578 1.835938 430.034668 1.835938 Q 431.205566 1.835938 431.906494 2.424072 Q 432.607422 3.012207 432.607422 3.984375 Q 432.607422 4.645020 432.239502 5.085449 Q 431.871582 5.525879 431.167969 5.708496 Z " fill="black" fill-opacity="1.000000"/>
</svg>
