<?xml version='1.0' encoding='utf-8'?>
<svg xmlns="http://www.w3.org/2000/svg" version="1.1" width="456" height="92" viewBox="0 0 456.0 92.0">
<path d="M 2.878906 13.319336 L 2.878906 6.412109 L 6.729980 6.412109 L 6.729980 7.335938 L 3.738281 7.335938 L 3.738281 13.319336 Z " fill="black" fill-opacity="1.000000"/>
<path d="M 2.878906 26.319336 L 2.878906 12.300781 L 3.738281 12.300781 L 3.738281 26.319336 Z " fill="black" fill-opacity="1.000000"/>
<path d="M 2.878906 39.319336 L 2.878906 25.300781 L 3.738281 25.300781 L 3.738281 32.412109 L 6.729980 32.412109 L 6.729980 33.335938 L 3.738281 33.335938 L 3.738281 39.319336 Z " fill="black" fill-opacity="1.000000"/>
<path d="M 2.878906 52.319336 L 2.878906 38.300781 L 3.738281 38.300781 L 3.738281 52.319336 Z " fill="black" fill-opacity="1.000000"/>
<path d="M 2.878906 65.319336 L 2.878906 51.300781 L 3.738281 51.300781 L 3.738281 58.412109 L 6.729980 58.412109 L 6.729980 59.335938 L 3.738281 59.335938 L 3.738281 65.319336 Z " fill="black" fill-opacity="1.000000"/>
<path d="M 2.878906 78.319336 L 2.878906 64.300781 L 3.738281 64.300781 L 3.738281 78.319336 Z " fill="black" fill-opacity="1.000000"/>
<path d="M 2.878906 85.335938 L 2.878906 77.300781 L 3.738281 77.300781 L 3.738281 84.412109 L 6.729980 84.412109 L 6.729980 85.335938 Z " fill="black" fill-opacity="1.000000"/>
<path d="M 6.892578 85.335938 L 6.892578 84.412109 L 13.729980 84.412109 L 13.729980 85.335938 Z " fill="black" fill-opacity="1.000000"/>
<path d="M 13.892578 85.335938 L 13.892578 84.412109 L 20.729980 84.412109 L 20.729980 85.335938 Z " fill="black" fill-opacity="1.000000"/>
<path d="M 20.892578 85.335938 L 20.892578 84.412109 L 27.729980 84.412109 L 27.729980 85.335938 Z " fill="black" fill-opacity="1.000000"/>
<path d="M 27.892578 85.335938 L 27.892578 84.412109 L 34.729980 84.412109 L 34.729980 85.335938 Z " fill="black" fill-opacity="1.000000"/>
<path d="M 34.892578 85.335938 L 34.892578 84.412109 L 41.729980 84.412109 L 41.729980 85.335938 Z " fill="black" fill-opacity="1.000000"/>
<path d="M 41.892578 85.335938 L 41.892578 84.412109 L 48.729980 84.412109 L 48.729980 85.335938 Z " fill="black" fill-opacity="1.000000"/>
<path d="M 48.892578 85.335938 L 48.892578 84.412109 L 55.729980 84.412109 L 55.729980 85.335938 Z " fill="black" fill-opacity="1.000000"/>
<path d="M 55.892578 85.335938 L 55.892578 84.412109 L 62.729980 84.412109 L 62.729980 85.335938 Z " fill="black" fill-opacity="1.000000"/>
<path d="M 62.892578 85.335938 L 62.892578 84.412109 L 69.729980 84.412109 L 69.729980 85.335938 Z " fill="black" fill-opacity="1.000000"/>
<path d="M 69.892578 85.335938 L 69.892578 84.412109 L 76.729980 84.412109 L 76.729980 85.335938 Z " fill="black" fill-opacity="1.000000"/>
<path d="M 76.892578 85.335938 L 76.892578 84.412109 L 83.729980 84.412109 L 83.729980 85.335938 Z " fill="black" fill-opacity="1.000000"/>
<path d="M 83.892578 85.335938 L 83.892578 84.412109 L 90.729980 84.412109 L 90.729980 85.335938 Z " fill="black" fill-opacity="1.000000"/>
<path d="M 90.892578 85.335938 L 90.892578 84.412109 L 97.729980 84.412109 L 97.729980 85.335938 Z " fill="black" fill-opacity="1.000000"/>
<path d="M 97.892578 85.335938 L 97.892578 84.412109 L 104.729980 84.412109 L 104.729980 85.335938 Z " fill="black" fill-opacity="1.000000"/>
<path d="M 104.892578 85.335938 L 104.892578 84.412109 L 111.729980 84.412109 L 111.729980 85.335938 Z " fill="black" fill-opacity="1.000000"/>
<path d="M 111.892578 85.335938 L 111.892578 84.412109 L 118.729980 84.412109 L 118.729980 85.335938 Z " fill="black" fill-opacity="1.000000"/>
<path d="M 118.892578 85.335938 L 118.892578 84.412109 L 125.729980 84.412109 L 125.729980 85.335938 Z " fill="black" fill-opacity="1.000000"/>
<path d="M 125.892578 85.335938 L 125.892578 84.412109 L 132.729980 84.412109 L 132.729980 85.335938 Z " fill="black" fill-opacity="1.000000"/>
<path d="M 132.892578 85.335938 L 132.892578 84.412109 L 139.729980 84.412109 L 139.729980 85.335938 Z " fill="black" fill-opacity="1.000000"/>
<path d="M 139.892578 85.335938 L 139.892578 84.412109 L 146.729980 84.412109 L 146.729980 85.335938 Z " fill="black" fill-opacity="1.000000"/>
<path d="M 146.892578 85.335938 L 146.892578 84.412109 L 153.729980 84.412109 L 153.729980 85.335938 Z " fill="black" fill-opacity="1.000000"/>
<path d="M 153.892578 85.335938 L 153.892578 84.412109 L 160.729980 84.412109 L 160.729980 85.335938 Z " fill="black" fill-opacity="1.000000"/>
<path d="M 160.892578 85.335938 L 160.892578 84.412109 L 167.729980 84.412109 L 167.729980 85.335938 Z " fill="black" fill-opacity="1.000000"/>
<path d="M 167.892578 85.335938 L 167.892578 84.412109 L 174.729980 84.412109 L 174.729980 85.335938 Z " fill="black" fill-opacity="1.000000"/>
<path d="M 174.892578 85.335938 L 174.892578 84.412109 L 181.729980 84.412109 L 181.729980 85.335938 Z " fill="black" fill-opacity="1.000000"/>
<path d="M 181.892578 85.335938 L 181.892578 84.412109 L 188.729980 84.412109 L 188.729980 85.335938 Z " fill="black" fill-opacity="1.000000"/>
<path d="M 188.892578 85.335938 L 188.892578 84.412109 L 195.729980 84.412109 L 195.729980 85.335938 Z " fill="black" fill-opacity="1.000000"/>
<path d="M 195.892578 85.335938 L 195.892578 84.412109 L 202.729980 84.412109 L 202.729980 85.335938 Z " fill="black" fill-opacity="1.000000"/>
<path d="M 202.892578 85.335938 L 202.892578 84.412109 L 209.729980 84.412109 L 209.729980 85.335938 Z " fill="black" fill-opacity="1.000000"/>
<path d="M 209.892578 85.335938 L 209.892578 84.412109 L 216.729980 84.412109 L 216.729980 85.335938 Z " fill="black" fill-opacity="1.000000"/>
<path d="M 216.892578 85.335938 L 216.892578 84.412109 L 223.729980 84.412109 L 223.729980 85.335938 Z " fill="black" fill-opacity="1.000000"/>
<path d="M 223.892578 85.335938 L 223.892578 84.412109 L 230.729980 84.412109 L 230.729980 85.335938 Z " fill="black" fill-opacity="1.000000"/>
<path d="M 230.892578 85.335938 L 230.892578 84.412109 L 237.729980 84.412109 L 237.729980 85.335938 Z " fill="black" fill-opacity="1.000000"/>
<path d="M 237.892578 85.335938 L 237.892578 84.412109 L 244.729980 84.412109 L 244.729980 85.335938 Z " fill="black" fill-opacity="1.000000"/>
<path d="M 244.892578 85.335938 L 244.892578 84.412109 L 251.729980 84.412109 L 251.729980 85.335938 Z " fill="black" fill-opacity="1.000000"/>
<path d="M 251.892578 85.335938 L 251.892578 84.412109 L 258.729980 84.412109 L 258.729980 85.335938 Z " fill="black" fill-opacity="1.000000"/>
<path d="M 258.892578 85.335938 L 258.892578 84.412109 L 265.729980 84.412109 L 265.729980 85.335938 Z " fill="black" fill-opacity="1.000000"/>
<path d="M 265.892578 85.335938 L 265.892578 84.412109 L 272.729980 84.412109 L 272.729980 85.335938 Z " fill="black" fill-opacity="1.000000"/>
<path d="M 272.892578 85.335938 L 272.892578 84.412109 L 279.729980 84.412109 L 279.729980 85.335938 Z " fill="black" fill-opacity="1.000000"/>
<path d="M 279.892578 85.335938 L 279.892578 84.412109 L 286.729980 84.412109 L 286.729980 85.335938 Z " fill="black" fill-opacity="1.000000"/>
<path d="M 286.892578 85.335938 L 286.892578 84.412109 L 293.729980 84.412109 L 293.729980 85.335938 Z " fill="black" fill-opacity="1.000000"/>
<path d="M 293.892578 85.335938 L 293.892578 84.412109 L 300.729980 84.412109 L 300.729980 85.335938 Z " fill="black" fill-opacity="1.000000"/>
<path d="M 300.892578 85.335938 L 300.892578 84.412109 L 307.729980 84.412109 L 307.729980 85.335938 Z " fill="black" fill-opacity="1.000000"/>
<path d="M 307.892578 85.335938 L 307.892578 84.412109 L 314.729980 84.412109 L 314.729980 85.335938 Z " fill="black" fill-opacity="1.000000"/>
<path d="M 314.892578 85.335938 L 314.892578 84.412109 L 321.729980 84.412109 L 321.729980 85.335938 Z " fill="black" fill-opacity="1.000000"/>
<path d="M 321.892578 85.335938 L 321.892578 84.412109 L 328.729980 84.412109 L 328.729980 85.335938 Z " fill="black" fill-opacity="1.000000"/>
<path d="M 328.892578 85.335938 L 328.892578 84.412109 L 335.729980 84.412109 L 335.729980 85.335938 Z " fill="black" fill-opacity="1.000000"/>
<path d="M 335.892578 85.335938 L 335.892578 84.412109 L 342.729980 84.412109 L 342.729980 85.335938 Z " fill="black" fill-opacity="1.000000"/>
<path d="M 342.892578 85.335938 L 342.892578 84.412109 L 349.729980 84.412109 L 349.729980 85.335938 Z " fill="black" fill-opacity="1.000000"/>
<path d="M 349.892578 85.335938 L 349.892578 84.412109 L 356.729980 84.412109 L 356.729980 85.335938 Z " fill="black" fill-opacity="1.000000"/>
<path d="M 356.892578 85.335938 L 356.892578 84.412109 L 363.729980 84.412109 L 363.729980 85.335938 Z " fill="black" fill-opacity="1.000000"/>
<path d="M 363.892578 85.335938 L 363.892578 84.412109 L 370.729980 84.412109 L 370.729980 85.335938 Z " fill="black" fill-opacity="1.000000"/>
<path d="M 370.892578 85.335938 L 370.892578 84.412109 L 377.729980 84.412109 L 377.729980 85.335938 Z " fill="black" fill-opacity="1.000000"/>
<path d="M 377.892578 85.335938 L 377.892578 84.412109 L 384.729980 84.412109 L 384.729980 85.335938 Z " fill="black" fill-opacity="1.000000"/>
<path d="M 384.892578 85.335938 L 384.892578 84.412109 L 391.729980 84.412109 L 391.729980 85.335938 Z " fill="black" fill-opacity="1.000000"/>
<path d="M 391.892578 85.335938 L 391.892578 84.412109 L 398.729980 84.412109 L 398.729980 85.335938 Z " fill="black" fill-opacity="1.000000"/>
<path d="M 398.892578 85.335938 L 398.892578 84.412109 L 405.729980 84.412109 L 405.729980 85.335938 Z " fill="black" fill-opacity="1.000000"/>
<path d="M 405.892578 85.335938 L 405.892578 84.412109 L 412.729980 84.412109 L 412.729980 85.335938 Z " fill="black" fill-opacity="1.000000"/>
<path d="M 412.892578 85.335938 L 412.892578 84.412109 L 419.729980 84.412109 L 419.729980 85.335938 Z " fill="black" fill-opacity="1.000000"/>
<path d="M 419.892578 85.335938 L 419.892578 84.412109 L 426.729980 84.412109 L 426.729980 85.335938 Z " fill="black" fill-opacity="1.000000"/>
<path d="M 426.892578 85.335938 L 426.892578 84.412109 L 433.729980 84.412109 L 433.729980 85.335938 Z " fill="black" fill-opacity="1.000000"/>
<path d="M 433.892578 85.335938 L 433.892578 84.412109 L 440.729980 84.412109 L 440.729980 85.335938 Z " fill="black" fill-opacity="1.000000"/>
<path d="M 440.892578 85.335938 L 440.892578 84.412109 L 447.729980 84.412109 L 447.729980 85.335938 Z " fill="black" fill-opacity="1.000000"/>
<path d="M 447.892578 85.335938 L 447.892578 84.412109 L 450.878906 84.412109 L 450.878906 77.300781 L 451.738281 77.300781 L 451.738281 85.335938 Z " fill="black" fill-opacity="1.000000"/>
<path d="M 196.735840 66.980957 L 197.826172 66.980957 L 197.826172 70.053223 L 200.796387 70.053223 L 200.796387 66.980957 L 201.886719 66.980957 L 201.886719 75.000000 L 200.796387 75.000000 L 200.796387 70.966309 L 197.826172 70.966309 L 197.826172 75.000000 L 196.735840 75.000000 Z " fill="black" fill-opacity="1.000000"/>
<path d="M 206.308594 69.677246 Q 205.556641 69.677246 205.169922 70.262695 Q 204.783203 70.848145 204.783203 71.997559 Q 204.783203 73.141602 205.169922 73.729736 Q 205.556641 74.317871 206.308594 74.317871 Q 207.065918 74.317871 207.452637 73.729736 Q 207.839355 73.141602 207.839355 71.997559 Q 207.839355 70.848145 207.452637 70.262695 Q 207.065918 69.677246 206.308594 69.677246 Z M 206.308594 68.839355 Q 207.560059 68.839355 208.223389 69.650391 Q 208.886719 70.461426 208.886719 71.997559 Q 208.886719 73.539062 208.226074 74.347412 Q 207.565430 75.155762 206.308594 75.155762 Q 205.057129 75.155762 204.396484 74.347412 Q 203.735840 73.539062 203.735840 71.997559 Q 203.735840 70.461426 204.396484 69.650391 Q 205.057129 68.839355 206.308594 68.839355 Z " fill="black" fill-opacity="1.000000"/>
<path d="M 212.014160 74.242676 L 212.014160 77.288086 L 211.020508 77.288086 L 211.020508 68.984375 L 212.014160 68.984375 L 212.014160 69.752441 Q 212.261230 69.306641 212.672119 69.072998 Q 213.083008 68.839355 213.620117 68.839355 Q 214.710449 68.839355 215.330811 69.682617 Q 215.951172 70.525879 215.951172 72.019043 Q 215.951172 73.485352 215.328125 74.320557 Q 214.705078 75.155762 213.620117 75.155762 Q 213.072266 75.155762 212.661377 74.922119 Q 212.250488 74.688477 212.014160 74.242676 Z M 214.914551 71.997559 Q 214.914551 70.848145 214.552002 70.262695 Q 214.189453 69.677246 213.475098 69.677246 Q 212.755371 69.677246 212.384766 70.265381 Q 212.014160 70.853516 212.014160 71.997559 Q 212.014160 73.136230 212.384766 73.727051 Q 212.755371 74.317871 213.475098 74.317871 Q 214.189453 74.317871 214.552002 73.732422 Q 214.914551 73.146973 214.914551 71.997559 Z " fill="black" fill-opacity="1.000000"/>
<path d="M 218.251465 66.980957 L 222.972656 66.980957 L 222.972656 67.894043 L 219.341797 67.894043 L 219.341797 70.042480 L 222.634277 70.042480 L 222.634277 70.955566 L 219.341797 70.955566 L 219.341797 75.000000 L 218.251465 75.000000 Z " fill="black" fill-opacity="1.000000"/>
<path d="M 225.697266 69.005859 L 228.227051 69.005859 L 228.227051 74.231934 L 230.187500 74.231934 L 230.187500 75.000000 L 225.278320 75.000000 L 225.278320 74.231934 L 227.238770 74.231934 L 227.238770 69.773926 L 225.697266 69.773926 Z M 227.238770 66.669434 L 228.227051 66.669434 L 228.227051 67.915527 L 227.238770 67.915527 Z " fill="black" fill-opacity="1.000000"/>
<path d="M 237.015625 71.498047 L 237.015625 71.981445 L 232.734863 71.981445 L 232.734863 72.013672 Q 232.691895 73.243652 233.204834 73.780762 Q 233.717773 74.317871 234.652344 74.317871 Q 235.125000 74.317871 235.640625 74.167480 Q 236.156250 74.017090 236.741699 73.710938 L 236.741699 74.693848 Q 236.177734 74.924805 235.654053 75.040283 Q 235.130371 75.155762 234.641602 75.155762 Q 233.239746 75.155762 232.450195 74.315186 Q 231.660645 73.474609 231.660645 71.997559 Q 231.660645 70.558105 232.434082 69.698730 Q 233.207520 68.839355 234.496582 68.839355 Q 235.645996 68.839355 236.309326 69.618164 Q 236.972656 70.396973 237.015625 71.498047 Z M 236.027344 71.208008 Q 235.962891 70.584961 235.573486 70.131104 Q 235.184082 69.677246 234.453613 69.677246 Q 233.739258 69.677246 233.277344 70.149902 Q 232.815430 70.622559 232.772461 71.213379 Z " fill="black" fill-opacity="1.000000"/>
<path d="M 241.861816 72.824707 Q 241.861816 73.490723 242.106201 73.829102 Q 242.350586 74.167480 242.828613 74.167480 L 243.983398 74.167480 L 243.983398 75.000000 L 242.731934 75.000000 Q 241.845703 75.000000 241.359619 74.433350 Q 240.873535 73.866699 240.873535 72.824707 L 240.873535 67.383789 L 239.289062 67.383789 L 239.289062 66.610352 L 241.861816 66.610352 Z " fill="black" fill-opacity="1.000000"/>
<path d="M 249.608398 69.752441 L 249.608398 66.642578 L 250.596680 66.642578 L 250.596680 75.000000 L 249.608398 75.000000 L 249.608398 74.242676 Q 249.361328 74.688477 248.950439 74.922119 Q 248.539551 75.155762 248.002441 75.155762 Q 246.912109 75.155762 246.286377 74.309814 Q 245.660645 73.463867 245.660645 71.976074 Q 245.660645 70.509766 246.289062 69.674561 Q 246.917480 68.839355 248.002441 68.839355 Q 248.544922 68.839355 248.958496 69.072998 Q 249.372070 69.306641 249.608398 69.752441 Z M 246.702637 71.997559 Q 246.702637 73.146973 247.067871 73.732422 Q 247.433105 74.317871 248.147461 74.317871 Q 248.861816 74.317871 249.235107 73.727051 Q 249.608398 73.136230 249.608398 71.997559 Q 249.608398 70.853516 249.235107 70.265381 Q 248.861816 69.677246 248.147461 69.677246 Q 247.433105 69.677246 247.067871 70.262695 Q 246.702637 70.848145 246.702637 71.997559 Z " fill="black" fill-opacity="1.000000"/>
<path d="M 450.878906 78.319336 L 450.878906 64.300781 L 451.738281 64.300781 L 451.738281 78.319336 Z " fill="black" fill-opacity="1.000000"/>
<path d="M 6.892578 59.335938 L 6.892578 58.412109 L 13.729980 58.412109 L 13.729980 59.335938 Z " fill="black" fill-opacity="1.000000"/>
<path d="M 13.892578 59.335938 L 13.892578 58.412109 L 20.729980 58.412109 L 20.729980 59.335938 Z " fill="black" fill-opacity="1.000000"/>
<path d="M 20.892578 59.335938 L 20.892578 58.412109 L 27.729980 58.412109 L 27.729980 59.335938 Z " fill="black" fill-opacity="1.000000"/>
<path d="M 27.892578 59.335938 L 27.892578 58.412109 L 34.729980 58.412109 L 34.729980 59.335938 Z " fill="black" fill-opacity="1.000000"/>
<path d="M 34.892578 59.335938 L 34.892578 58.412109 L 41.729980 58.412109 L 41.729980 59.335938 Z " fill="black" fill-opacity="1.000000"/>
<path d="M 41.892578 59.335938 L 41.892578 58.412109 L 48.729980 58.412109 L 48.729980 59.335938 Z " fill="black" fill-opacity="1.000000"/>
<path d="M 48.892578 59.335938 L 48.892578 58.412109 L 55.729980 58.412109 L 55.729980 59.335938 Z " fill="black" fill-opacity="1.000000"/>
<path d="M 55.892578 59.335938 L 55.892578 58.412109 L 62.729980 58.412109 L 62.729980 59.335938 Z " fill="black" fill-opacity="1.000000"/>
<path d="M 62.892578 59.335938 L 62.892578 58.412109 L 69.729980 58.412109 L 69.729980 59.335938 Z " fill="black" fill-opacity="1.000000"/>
<path d="M 69.892578 59.335938 L 69.892578 58.412109 L 76.729980 58.412109 L 76.729980 59.335938 Z " fill="black" fill-opacity="1.000000"/>
<path d="M 76.892578 59.335938 L 76.892578 58.412109 L 83.729980 58.412109 L 83.729980 59.335938 Z " fill="black" fill-opacity="1.000000"/>
<path d="M 83.892578 59.335938 L 83.892578 58.412109 L 90.729980 58.412109 L 90.729980 59.335938 Z " fill="black" fill-opacity="1.000000"/>
<path d="M 90.892578 59.335938 L 90.892578 58.412109 L 97.729980 58.412109 L 97.729980 59.335938 Z " fill="black" fill-opacity="1.000000"/>
<path d="M 97.892578 59.335938 L 97.892578 58.412109 L 104.729980 58.412109 L 104.729980 59.335938 Z " fill="black" fill-opacity="1.000000"/>
<path d="M 104.892578 59.335938 L 104.892578 58.412109 L 111.729980 58.412109 L 111.729980 59.335938 Z " fill="black" fill-opacity="1.000000"/>
<path d="M 111.892578 59.335938 L 111.892578 58.412109 L 118.729980 58.412109 L 118.729980 59.335938 Z " fill="black" fill-opacity="1.000000"/>
<path d="M 118.892578 59.335938 L 118.892578 58.412109 L 125.729980 58.412109 L 125.729980 59.335938 Z " fill="black" fill-opacity="1.000000"/>
<path d="M 125.892578 59.335938 L 125.892578 58.412109 L 132.729980 58.412109 L 132.729980 59.335938 Z " fill="black" fill-opacity="1.000000"/>
<path d="M 132.892578 59.335938 L 132.892578 58.412109 L 139.729980 58.412109 L 139.729980 59.335938 Z " fill="black" fill-opacity="1.000000"/>
<path d="M 139.892578 59.335938 L 139.892578 58.412109 L 146.729980 58.412109 L 146.729980 59.335938 Z " fill="black" fill-opacity="1.000000"/>
<path d="M 146.892578 59.335938 L 146.892578 58.412109 L 153.729980 58.412109 L 153.729980 59.335938 Z " fill="black" fill-opacity="1.000000"/>
<path d="M 153.892578 59.335938 L 153.892578 58.412109 L 160.729980 58.412109 L 160.729980 59.335938 Z " fill="black" fill-opacity="1.000000"/>
<path d="M 160.892578 59.335938 L 160.892578 58.412109 L 167.729980 58.412109 L 167.729980 59.335938 Z " fill="black" fill-opacity="1.000000"/>
<path d="M 167.892578 59.335938 L 167.892578 58.412109 L 174.729980 58.412109 L 174.729980 59.335938 Z " fill="black" fill-opacity="1.000000"/>
<path d="M 174.892578 59.335938 L 174.892578 58.412109 L 181.729980 58.412109 L 181.729980 59.335938 Z " fill="black" fill-opacity="1.000000"/>
<path d="M 181.892578 59.335938 L 181.892578 58.412109 L 188.729980 58.412109 L 188.729980 59.335938 Z " fill="black" fill-opacity="1.000000"/>
<path d="M 188.892578 59.335938 L 188.892578 58.412109 L 195.729980 58.412109 L 195.729980 59.335938 Z " fill="black" fill-opacity="1.000000"/>
<path d="M 195.892578 59.335938 L 195.892578 58.412109 L 202.729980 58.412109 L 202.729980 59.335938 Z " fill="black" fill-opacity="1.000000"/>
<path d="M 202.892578 59.335938 L 202.892578 58.412109 L 209.729980 58.412109 L 209.729980 59.335938 Z " fill="black" fill-opacity="1.000000"/>
<path d="M 209.892578 59.335938 L 209.892578 58.412109 L 216.729980 58.412109 L 216.729980 59.335938 Z " fill="black" fill-opacity="1.000000"/>
<path d="M 216.892578 59.335938 L 216.892578 58.412109 L 223.729980 58.412109 L 223.729980 59.335938 Z " fill="black" fill-opacity="1.000000"/>
<path d="M 223.892578 59.335938 L 223.892578 58.412109 L 230.729980 58.412109 L 230.729980 59.335938 Z " fill="black" fill-opacity="1.000000"/>
<path d="M 230.892578 59.335938 L 230.892578 58.412109 L 237.729980 58.412109 L 237.729980 59.335938 Z " fill="black" fill-opacity="1.000000"/>
<path d="M 237.892578 59.335938 L 237.892578 58.412109 L 244.729980 58.412109 L 244.729980 59.335938 Z " fill="black" fill-opacity="1.000000"/>
<path d="M 244.892578 59.335938 L 244.892578 58.412109 L 251.729980 58.412109 L 251.729980 59.335938 Z " fill="black" fill-opacity="1.000000"/>
<path d="M 251.892578 59.335938 L 251.892578 58.412109 L 258.729980 58.412109 L 258.729980 59.335938 Z " fill="black" fill-opacity="1.000000"/>
<path d="M 258.892578 59.335938 L 258.892578 58.412109 L 265.729980 58.412109 L 265.729980 59.335938 Z " fill="black" fill-opacity="1.000000"/>
<path d="M 265.892578 59.335938 L 265.892578 58.412109 L 272.729980 58.412109 L 272.729980 59.335938 Z " fill="black" fill-opacity="1.000000"/>
<path d="M 272.892578 59.335938 L 272.892578 58.412109 L 279.729980 58.412109 L 279.729980 59.335938 Z " fill="black" fill-opacity="1.000000"/>
<path d="M 279.892578 59.335938 L 279.892578 58.412109 L 286.729980 58.412109 L 286.729980 59.335938 Z " fill="black" fill-opacity="1.000000"/>
<path d="M 286.892578 59.335938 L 286.892578 58.412109 L 293.729980 58.412109 L 293.729980 59.335938 Z " fill="black" fill-opacity="1.000000"/>
<path d="M 293.892578 59.335938 L 293.892578 58.412109 L 300.729980 58.412109 L 300.729980 59.335938 Z " fill="black" fill-opacity="1.000000"/>
<path d="M 300.892578 59.335938 L 300.892578 58.412109 L 307.729980 58.412109 L 307.729980 59.335938 Z " fill="black" fill-opacity="1.000000"/>
<path d="M 307.892578 59.335938 L 307.892578 58.412109 L 314.729980 58.412109 L 314.729980 59.335938 Z " fill="black" fill-opacity="1.000000"/>
<path d="M 314.892578 59.335938 L 314.892578 58.412109 L 321.729980 58.412109 L 321.729980 59.335938 Z " fill="black" fill-opacity="1.000000"/>
<path d="M 321.892578 59.335938 L 321.892578 58.412109 L 328.729980 58.412109 L 328.729980 59.335938 Z " fill="black" fill-opacity="1.000000"/>
<path d="M 328.892578 59.335938 L 328.892578 58.412109 L 335.729980 58.412109 L 335.729980 59.335938 Z " fill="black" fill-opacity="1.000000"/>
<path d="M 335.892578 59.335938 L 335.892578 58.412109 L 342.729980 58.412109 L 342.729980 59.335938 Z " fill="black" fill-opacity="1.000000"/>
<path d="M 342.892578 59.335938 L 342.892578 58.412109 L 349.729980 58.412109 L 349.729980 59.335938 Z " fill="black" fill-opacity="1.000000"/>
<path d="M 349.892578 59.335938 L 349.892578 58.412109 L 356.729980 58.412109 L 356.729980 59.335938 Z " fill="black" fill-opacity="1.000000"/>
<path d="M 356.892578 59.335938 L 356.892578 58.412109 L 363.729980 58.412109 L 363.729980 59.335938 Z " fill="black" fill-opacity="1.000000"/>
<path d="M 363.892578 59.335938 L 363.892578 58.412109 L 370.729980 58.412109 L 370.729980 59.335938 Z " fill="black" fill-opacity="1.000000"/>
<path d="M 370.892578 59.335938 L 370.892578 58.412109 L 377.729980 58.412109 L 377.729980 59.335938 Z " fill="black" fill-opacity="1.000000"/>
<path d="M 377.892578 59.335938 L 377.892578 58.412109 L 384.729980 58.412109 L 384.729980 59.335938 Z " fill="black" fill-opacity="1.000000"/>
<path d="M 384.892578 59.335938 L 384.892578 58.412109 L 391.729980 58.412109 L 391.729980 59.335938 Z " fill="black" fill-opacity="1.000000"/>
<path d="M 391.892578 59.335938 L 391.892578 58.412109 L 398.729980 58.412109 L 398.729980 59.335938 Z " fill="black" fill-opacity="1.000000"/>
<path d="M 398.892578 59.335938 L 398.892578 58.412109 L 405.729980 58.412109 L 405.729980 59.335938 Z " fill="black" fill-opacity="1.000000"/>
<path d="M 405.892578 59.335938 L 405.892578 58.412109 L 412.729980 58.412109 L 412.729980 59.335938 Z " fill="black" fill-opacity="1.000000"/>
<path d="M 412.892578 59.335938 L 412.892578 58.412109 L 419.729980 58.412109 L 419.729980 59.335938 Z " fill="black" fill-opacity="1.000000"/>
<path d="M 419.892578 59.335938 L 419.892578 58.412109 L 426.729980 58.412109 L 426.729980 59.335938 Z " fill="black" fill-opacity="1.000000"/>
<path d="M 426.892578 59.335938 L 426.892578 58.412109 L 433.729980 58.412109 L 433.729980 59.335938 Z " fill="black" fill-opacity="1.000000"/>
<path d="M 433.892578 59.335938 L 433.892578 58.412109 L 440.729980 58.412109 L 440.729980 59.335938 Z " fill="black" fill-opacity="1.000000"/>
<path d="M 440.892578 59.335938 L 440.892578 58.412109 L 447.729980 58.412109 L 447.729980 59.335938 Z " fill="black" fill-opacity="1.000000"/>
<path d="M 450.878906 65.319336 L 450.878906 59.335938 L 447.892578 59.335938 L 447.892578 58.412109 L 450.878906 58.412109 L 450.878906 51.300781 L 451.738281 51.300781 L 451.738281 65.319336 Z " fill="black" fill-opacity="1.000000"/>
<path d="M 196.735840 40.980957 L 197.826172 40.980957 L 197.826172 44.053223 L 200.796387 44.053223 L 200.796387 40.980957 L 201.886719 40.980957 L 201.886719 49.000000 L 200.796387 49.000000 L 200.796387 44.966309 L 197.826172 44.966309 L 197.826172 49.000000 L 196.735840 49.000000 Z " fill="black" fill-opacity="1.000000"/>
<path d="M 206.308594 43.677246 Q 205.556641 43.677246 205.169922 44.262695 Q 204.783203 44.848145 204.783203 45.997559 Q 204.783203 47.141602 205.169922 47.729736 Q 205.556641 48.317871 206.308594 48.317871 Q 207.065918 48.317871 207.452637 47.729736 Q 207.839355 47.141602 207.839355 45.997559 Q 207.839355 44.848145 207.452637 44.262695 Q 207.065918 43.677246 206.308594 43.677246 Z M 206.308594 42.839355 Q 207.560059 42.839355 208.223389 43.650391 Q 208.886719 44.461426 208.886719 45.997559 Q 208.886719 47.539062 208.226074 48.347412 Q 207.565430 49.155762 206.308594 49.155762 Q 205.057129 49.155762 204.396484 48.347412 Q 203.735840 47.539062 203.735840 45.997559 Q 203.735840 44.461426 204.396484 43.650391 Q 205.057129 42.839355 206.308594 42.839355 Z " fill="black" fill-opacity="1.000000"/>
<path d="M 212.014160 48.242676 L 212.014160 51.288086 L 211.020508 51.288086 L 211.020508 42.984375 L 212.014160 42.984375 L 212.014160 43.752441 Q 212.261230 43.306641 212.672119 43.072998 Q 213.083008 42.839355 213.620117 42.839355 Q 214.710449 42.839355 215.330811 43.682617 Q 215.951172 44.525879 215.951172 46.019043 Q 215.951172 47.485352 215.328125 48.320557 Q 214.705078 49.155762 213.620117 49.155762 Q 213.072266 49.155762 212.661377 48.922119 Q 212.250488 48.688477 212.014160 48.242676 Z M 214.914551 45.997559 Q 214.914551 44.848145 214.552002 44.262695 Q 214.189453 43.677246 213.475098 43.677246 Q 212.755371 43.677246 212.384766 44.265381 Q 212.014160 44.853516 212.014160 45.997559 Q 212.014160 47.136230 212.384766 47.727051 Q 212.755371 48.317871 213.475098 48.317871 Q 214.189453 48.317871 214.552002 47.732422 Q 214.914551 47.146973 214.914551 45.997559 Z " fill="black" fill-opacity="1.000000"/>
<path d="M 218.251465 40.980957 L 222.972656 40.980957 L 222.972656 41.894043 L 219.341797 41.894043 L 219.341797 44.042480 L 222.634277 44.042480 L 222.634277 44.955566 L 219.341797 44.955566 L 219.341797 49.000000 L 218.251465 49.000000 Z " fill="black" fill-opacity="1.000000"/>
<path d="M 225.697266 43.005859 L 228.227051 43.005859 L 228.227051 48.231934 L 230.187500 48.231934 L 230.187500 49.000000 L 225.278320 49.000000 L 225.278320 48.231934 L 227.238770 48.231934 L 227.238770 43.773926 L 225.697266 43.773926 Z M 227.238770 40.669434 L 228.227051 40.669434 L 228.227051 41.915527 L 227.238770 41.915527 Z " fill="black" fill-opacity="1.000000"/>
<path d="M 237.015625 45.498047 L 237.015625 45.981445 L 232.734863 45.981445 L 232.734863 46.013672 Q 232.691895 47.243652 233.204834 47.780762 Q 233.717773 48.317871 234.652344 48.317871 Q 235.125000 48.317871 235.640625 48.167480 Q 236.156250 48.017090 236.741699 47.710938 L 236.741699 48.693848 Q 236.177734 48.924805 235.654053 49.040283 Q 235.130371 49.155762 234.641602 49.155762 Q 233.239746 49.155762 232.450195 48.315186 Q 231.660645 47.474609 231.660645 45.997559 Q 231.660645 44.558105 232.434082 43.698730 Q 233.207520 42.839355 234.496582 42.839355 Q 235.645996 42.839355 236.309326 43.618164 Q 236.972656 44.396973 237.015625 45.498047 Z M 236.027344 45.208008 Q 235.962891 44.584961 235.573486 44.131104 Q 235.184082 43.677246 234.453613 43.677246 Q 233.739258 43.677246 233.277344 44.149902 Q 232.815430 44.622559 232.772461 45.213379 Z " fill="black" fill-opacity="1.000000"/>
<path d="M 241.861816 46.824707 Q 241.861816 47.490723 242.106201 47.829102 Q 242.350586 48.167480 242.828613 48.167480 L 243.983398 48.167480 L 243.983398 49.000000 L 242.731934 49.000000 Q 241.845703 49.000000 241.359619 48.433350 Q 240.873535 47.866699 240.873535 46.824707 L 240.873535 41.383789 L 239.289062 41.383789 L 239.289062 40.610352 L 241.861816 40.610352 Z " fill="black" fill-opacity="1.000000"/>
<path d="M 249.608398 43.752441 L 249.608398 40.642578 L 250.596680 40.642578 L 250.596680 49.000000 L 249.608398 49.000000 L 249.608398 48.242676 Q 249.361328 48.688477 248.950439 48.922119 Q 248.539551 49.155762 248.002441 49.155762 Q 246.912109 49.155762 246.286377 48.309814 Q 245.660645 47.463867 245.660645 45.976074 Q 245.660645 44.509766 246.289062 43.674561 Q 246.917480 42.839355 248.002441 42.839355 Q 248.544922 42.839355 248.958496 43.072998 Q 249.372070 43.306641 249.608398 43.752441 Z M 246.702637 45.997559 Q 246.702637 47.146973 247.067871 47.732422 Q 247.433105 48.317871 248.147461 48.317871 Q 248.861816 48.317871 249.235107 47.727051 Q 249.608398 47.136230 249.608398 45.997559 Q 249.608398 44.853516 249.235107 44.265381 Q 248.861816 43.677246 248.147461 43.677246 Q 247.433105 43.677246 247.067871 44.262695 Q 246.702637 44.848145 246.702637 45.997559 Z " fill="black" fill-opacity="1.000000"/>
<path d="M 450.878906 52.319336 L 450.878906 38.300781 L 451.738281 38.300781 L 451.738281 52.319336 Z " fill="black" fill-opacity="1.000000"/>
<path d="M 6.892578 33.335938 L 6.892578 32.412109 L 13.729980 32.412109 L 13.729980 33.335938 Z " fill="black" fill-opacity="1.000000"/>
<path d="M 13.892578 33.335938 L 13.892578 32.412109 L 20.729980 32.412109 L 20.729980 33.335938 Z " fill="black" fill-opacity="1.000000"/>
<path d="M 20.892578 33.335938 L 20.892578 32.412109 L 27.729980 32.412109 L 27.729980 33.335938 Z " fill="black" fill-opacity="1.000000"/>
<path d="M 27.892578 33.335938 L 27.892578 32.412109 L 34.729980 32.412109 L 34.729980 33.335938 Z " fill="black" fill-opacity="1.000000"/>
<path d="M 34.892578 33.335938 L 34.892578 32.412109 L 41.729980 32.412109 L 41.729980 33.335938 Z " fill="black" fill-opacity="1.000000"/>
<path d="M 41.892578 33.335938 L 41.892578 32.412109 L 48.729980 32.412109 L 48.729980 33.335938 Z " fill="black" fill-opacity="1.000000"/>
<path d="M 48.892578 33.335938 L 48.892578 32.412109 L 55.729980 32.412109 L 55.729980 33.335938 Z " fill="black" fill-opacity="1.000000"/>
<path d="M 55.892578 33.335938 L 55.892578 32.412109 L 62.729980 32.412109 L 62.729980 33.335938 Z " fill="black" fill-opacity="1.000000"/>
<path d="M 62.892578 33.335938 L 62.892578 32.412109 L 69.729980 32.412109 L 69.729980 33.335938 Z " fill="black" fill-opacity="1.000000"/>
<path d="M 69.892578 33.335938 L 69.892578 32.412109 L 76.729980 32.412109 L 76.729980 33.335938 Z " fill="black" fill-opacity="1.000000"/>
<path d="M 76.892578 33.335938 L 76.892578 32.412109 L 83.729980 32.412109 L 83.729980 33.335938 Z " fill="black" fill-opacity="1.000000"/>
<path d="M 83.892578 33.335938 L 83.892578 32.412109 L 90.729980 32.412109 L 90.729980 33.335938 Z " fill="black" fill-opacity="1.000000"/>
<path d="M 90.892578 33.335938 L 90.892578 32.412109 L 97.729980 32.412109 L 97.729980 33.335938 Z " fill="black" fill-opacity="1.000000"/>
<path d="M 97.892578 33.335938 L 97.892578 32.412109 L 104.729980 32.412109 L 104.729980 33.335938 Z " fill="black" fill-opacity="1.000000"/>
<path d="M 104.892578 33.335938 L 104.892578 32.412109 L 111.729980 32.412109 L 111.729980 33.335938 Z " fill="black" fill-opacity="1.000000"/>
<path d="M 111.892578 33.335938 L 111.892578 32.412109 L 118.729980 32.412109 L 118.729980 33.335938 Z " fill="black" fill-opacity="1.000000"/>
<path d="M 118.892578 33.335938 L 118.892578 32.412109 L 125.729980 32.412109 L 125.729980 33.335938 Z " fill="black" fill-opacity="1.000000"/>
<path d="M 125.892578 33.335938 L 125.892578 32.412109 L 132.729980 32.412109 L 132.729980 33.335938 Z " fill="black" fill-opacity="1.000000"/>
<path d="M 132.892578 33.335938 L 132.892578 32.412109 L 139.729980 32.412109 L 139.729980 33.335938 Z " fill="black" fill-opacity="1.000000"/>
<path d="M 139.892578 33.335938 L 139.892578 32.412109 L 146.729980 32.412109 L 146.729980 33.335938 Z " fill="black" fill-opacity="1.000000"/>
<path d="M 146.892578 33.335938 L 146.892578 32.412109 L 153.729980 32.412109 L 153.729980 33.335938 Z " fill="black" fill-opacity="1.000000"/>
<path d="M 153.892578 33.335938 L 153.892578 32.412109 L 160.729980 32.412109 L 160.729980 33.335938 Z " fill="black" fill-opacity="1.000000"/>
<path d="M 160.892578 33.335938 L 160.892578 32.412109 L 167.729980 32.412109 L 167.729980 33.335938 Z " fill="black" fill-opacity="1.000000"/>
<path d="M 167.892578 33.335938 L 167.892578 32.412109 L 174.729980 32.412109 L 174.729980 33.335938 Z " fill="black" fill-opacity="1.000000"/>
<path d="M 174.892578 33.335938 L 174.892578 32.412109 L 181.729980 32.412109 L 181.729980 33.335938 Z " fill="black" fill-opacity="1.000000"/>
<path d="M 181.892578 33.335938 L 181.892578 32.412109 L 188.729980 32.412109 L 188.729980 33.335938 Z " fill="black" fill-opacity="1.000000"/>
<path d="M 188.892578 33.335938 L 188.892578 32.412109 L 195.729980 32.412109 L 195.729980 33.335938 Z " fill="black" fill-opacity="1.000000"/>
<path d="M 195.892578 33.335938 L 195.892578 32.412109 L 202.729980 32.412109 L 202.729980 33.335938 Z " fill="black" fill-opacity="1.000000"/>
<path d="M 202.892578 33.335938 L 202.892578 32.412109 L 209.729980 32.412109 L 209.729980 33.335938 Z " fill="black" fill-opacity="1.000000"/>
<path d="M 209.892578 33.335938 L 209.892578 32.412109 L 216.729980 32.412109 L 216.729980 33.335938 Z " fill="black" fill-opacity="1.000000"/>
<path d="M 216.892578 33.335938 L 216.892578 32.412109 L 223.729980 32.412109 L 223.729980 33.335938 Z " fill="black" fill-opacity="1.000000"/>
<path d="M 223.892578 33.335938 L 223.892578 32.412109 L 230.729980 32.412109 L 230.729980 33.335938 Z " fill="black" fill-opacity="1.000000"/>
<path d="M 230.892578 33.335938 L 230.892578 32.412109 L 237.729980 32.412109 L 237.729980 33.335938 Z " fill="black" fill-opacity="1.000000"/>
<path d="M 237.892578 33.335938 L 237.892578 32.412109 L 244.729980 32.412109 L 244.729980 33.335938 Z " fill="black" fill-opacity="1.000000"/>
<path d="M 244.892578 33.335938 L 244.892578 32.412109 L 251.729980 32.412109 L 251.729980 33.335938 Z " fill="black" fill-opacity="1.000000"/>
<path d="M 251.892578 33.335938 L 251.892578 32.412109 L 258.729980 32.412109 L 258.729980 33.335938 Z " fill="black" fill-opacity="1.000000"/>
<path d="M 258.892578 33.335938 L 258.892578 32.412109 L 265.729980 32.412109 L 265.729980 33.335938 Z " fill="black" fill-opacity="1.000000"/>
<path d="M 265.892578 33.335938 L 265.892578 32.412109 L 272.729980 32.412109 L 272.729980 33.335938 Z " fill="black" fill-opacity="1.000000"/>
<path d="M 272.892578 33.335938 L 272.892578 32.412109 L 279.729980 32.412109 L 279.729980 33.335938 Z " fill="black" fill-opacity="1.000000"/>
<path d="M 279.892578 33.335938 L 279.892578 32.412109 L 286.729980 32.412109 L 286.729980 33.335938 Z " fill="black" fill-opacity="1.000000"/>
<path d="M 286.892578 33.335938 L 286.892578 32.412109 L 293.729980 32.412109 L 293.729980 33.335938 Z " fill="black" fill-opacity="1.000000"/>
<path d="M 293.892578 33.335938 L 293.892578 32.412109 L 300.729980 32.412109 L 300.729980 33.335938 Z " fill="black" fill-opacity="1.000000"/>
<path d="M 300.892578 33.335938 L 300.892578 32.412109 L 307.729980 32.412109 L 307.729980 33.335938 Z " fill="black" fill-opacity="1.000000"/>
<path d="M 307.892578 33.335938 L 307.892578 32.412109 L 314.729980 32.412109 L 314.729980 33.335938 Z " fill="black" fill-opacity="1.000000"/>
<path d="M 314.892578 33.335938 L 314.892578 32.412109 L 321.729980 32.412109 L 321.729980 33.335938 Z " fill="black" fill-opacity="1.000000"/>
<path d="M 321.892578 33.335938 L 321.892578 32.412109 L 328.729980 32.412109 L 328.729980 33.335938 Z " fill="black" fill-opacity="1.000000"/>
<path d="M 328.892578 33.335938 L 328.892578 32.412109 L 335.729980 32.412109 L 335.729980 33.335938 Z " fill="black" fill-opacity="1.000000"/>
<path d="M 335.892578 33.335938 L 335.892578 32.412109 L 342.729980 32.412109 L 342.729980 33.335938 Z " fill="black" fill-opacity="1.000000"/>
<path d="M 342.892578 33.335938 L 342.892578 32.412109 L 349.729980 32.412109 L 349.729980 33.335938 Z " fill="black" fill-opacity="1.000000"/>
<path d="M 349.892578 33.335938 L 349.892578 32.412109 L 356.729980 32.412109 L 356.729980 33.335938 Z " fill="black" fill-opacity="1.000000"/>
<path d="M 356.892578 33.335938 L 356.892578 32.412109 L 363.729980 32.412109 L 363.729980 33.335938 Z " fill="black" fill-opacity="1.000000"/>
<path d="M 363.892578 33.335938 L 363.892578 32.412109 L 370.729980 32.412109 L 370.729980 33.335938 Z " fill="black" fill-opacity="1.000000"/>
<path d="M 370.892578 33.335938 L 370.892578 32.412109 L 377.729980 32.412109 L 377.729980 33.335938 Z " fill="black" fill-opacity="1.000000"/>
<path d="M 377.892578 33.335938 L 377.892578 32.412109 L 384.729980 32.412109 L 384.729980 33.335938 Z " fill="black" fill-opacity="1.000000"/>
<path d="M 384.892578 33.335938 L 384.892578 32.412109 L 391.729980 32.412109 L 391.729980 33.335938 Z " fill="black" fill-opacity="1.000000"/>
<path d="M 391.892578 33.335938 L 391.892578 32.412109 L 398.729980 32.412109 L 398.729980 33.335938 Z " fill="black" fill-opacity="1.000000"/>
<path d="M 398.892578 33.335938 L 398.892578 32.412109 L 405.729980 32.412109 L 405.729980 33.335938 Z " fill="black" fill-opacity="1.000000"/>
<path d="M 405.892578 33.335938 L 405.892578 32.412109 L 412.729980 32.412109 L 412.729980 33.335938 Z " fill="black" fill-opacity="1.000000"/>
<path d="M 412.892578 33.335938 L 412.892578 32.412109 L 419.729980 32.412109 L 419.729980 33.335938 Z " fill="black" fill-opacity="1.000000"/>
<path d="M 419.892578 33.335938 L 419.892578 32.412109 L 426.729980 32.412109 L 426.729980 33.335938 Z " fill="black" fill-opacity="1.000000"/>
<path d="M 426.892578 33.335938 L 426.892578 32.412109 L 433.729980 32.412109 L 433.729980 33.335938 Z " fill="black" fill-opacity="1.000000"/>
<path d="M 433.892578 33.335938 L 433.892578 32.412109 L 440.729980 32.412109 L 440.729980 33.335938 Z " fill="black" fill-opacity="1.000000"/>
<path d="M 440.892578 33.335938 L 440.892578 32.412109 L 447.729980 32.412109 L 447.729980 33.335938 Z " fill="black" fill-opacity="1.000000"/>
<path d="M 450.878906 39.319336 L 450.878906 33.335938 L 447.892578 33.335938 L 447.892578 32.412109 L 450.878906 32.412109 L 450.878906 25.300781 L 451.738281 25.300781 L 451.738281 39.319336 Z " fill="black" fill-opacity="1.000000"/>
<path d="M 197.079590 14.980957 L 201.532227 14.980957 L 201.532227 15.894043 L 199.851074 15.894043 L 199.851074 22.086914 L 201.532227 22.086914 L 201.532227 23.000000 L 197.079590 23.000000 L 197.079590 22.086914 L 198.760742 22.086914 L 198.760742 15.894043 L 197.079590 15.894043 Z " fill="black" fill-opacity="1.000000"/>
<path d="M 208.645020 19.272461 L 208.645020 23.000000 L 207.651367 23.000000 L 207.651367 19.272461 Q 207.651367 18.461426 207.366699 18.080078 Q 207.082031 17.698730 206.475098 17.698730 Q 205.782227 17.698730 205.408936 18.190186 Q 205.035645 18.681641 205.035645 19.600098 L 205.035645 23.000000 L 204.047363 23.000000 L 204.047363 16.984375 L 205.035645 16.984375 L 205.035645 17.886719 Q 205.298828 17.371094 205.750000 17.105225 Q 206.201172 16.839355 206.818848 16.839355 Q 207.737305 16.839355 208.191162 17.443604 Q 208.645020 18.047852 208.645020 19.272461 Z " fill="black" fill-opacity="1.000000"/>
<path d="M 215.709473 14.642578 L 215.709473 15.464355 L 214.586914 15.464355 Q 214.055176 15.464355 213.848389 15.681885 Q 213.641602 15.899414 213.641602 16.452637 L 213.641602 16.984375 L 215.709473 16.984375 L 215.709473 17.752441 L 213.641602 17.752441 L 213.641602 23.000000 L 212.653320 23.000000 L 212.653320 17.752441 L 211.047363 17.752441 L 211.047363 16.984375 L 212.653320 16.984375 L 212.653320 16.565430 Q 212.653320 15.577148 213.107178 15.109863 Q 213.561035 14.642578 214.522461 14.642578 Z " fill="black" fill-opacity="1.000000"/>
<path d="M 220.308594 17.677246 Q 219.556641 17.677246 219.169922 18.262695 Q 218.783203 18.848145 218.783203 19.997559 Q 218.783203 21.141602 219.169922 21.729736 Q 219.556641 22.317871 220.308594 22.317871 Q 221.065918 22.317871 221.452637 21.729736 Q 221.839355 21.141602 221.839355 19.997559 Q 221.839355 18.848145 221.452637 18.262695 Q 221.065918 17.677246 220.308594 17.677246 Z M 220.308594 16.839355 Q 221.560059 16.839355 222.223389 17.650391 Q 222.886719 18.461426 222.886719 19.997559 Q 222.886719 21.539062 222.226074 22.347412 Q 221.565430 23.155762 220.308594 23.155762 Q 219.057129 23.155762 218.396484 22.347412 Q 217.735840 21.539062 217.735840 19.997559 Q 217.735840 18.461426 218.396484 17.650391 Q 219.057129 16.839355 220.308594 16.839355 Z " fill="black" fill-opacity="1.000000"/>
<path d="M 225.251465 14.980957 L 229.972656 14.980957 L 229.972656 15.894043 L 226.341797 15.894043 L 226.341797 18.042480 L 229.634277 18.042480 L 229.634277 18.955566 L 226.341797 18.955566 L 226.341797 23.000000 L 225.251465 23.000000 Z " fill="black" fill-opacity="1.000000"/>
<path d="M 232.697266 17.005859 L 235.227051 17.005859 L 235.227051 22.231934 L 237.187500 22.231934 L 237.187500 23.000000 L 232.278320 23.000000 L 232.278320 22.231934 L 234.238770 22.231934 L 234.238770 17.773926 L 232.697266 17.773926 Z M 234.238770 14.669434 L 235.227051 14.669434 L 235.227051 15.915527 L 234.238770 15.915527 Z " fill="black" fill-opacity="1.000000"/>
<path d="M 244.015625 19.498047 L 244.015625 19.981445 L 239.734863 19.981445 L 239.734863 20.013672 Q 239.691895 21.243652 240.204834 21.780762 Q 240.717773 22.317871 241.652344 22.317871 Q 242.125000 22.317871 242.640625 22.167480 Q 243.156250 22.017090 243.741699 21.710938 L 243.741699 22.693848 Q 243.177734 22.924805 242.654053 23.040283 Q 242.130371 23.155762 241.641602 23.155762 Q 240.239746 23.155762 239.450195 22.315186 Q 238.660645 21.474609 238.660645 19.997559 Q 238.660645 18.558105 239.434082 17.698730 Q 240.207520 16.839355 241.496582 16.839355 Q 242.645996 16.839355 243.309326 17.618164 Q 243.972656 18.396973 244.015625 19.498047 Z M 243.027344 19.208008 Q 242.962891 18.584961 242.573486 18.131104 Q 242.184082 17.677246 241.453613 17.677246 Q 240.739258 17.677246 240.277344 18.149902 Q 239.815430 18.622559 239.772461 19.213379 Z " fill="black" fill-opacity="1.000000"/>
<path d="M 248.861816 20.824707 Q 248.861816 21.490723 249.106201 21.829102 Q 249.350586 22.167480 249.828613 22.167480 L 250.983398 22.167480 L 250.983398 23.000000 L 249.731934 23.000000 Q 248.845703 23.000000 248.359619 22.433350 Q 247.873535 21.866699 247.873535 20.824707 L 247.873535 15.383789 L 246.289062 15.383789 L 246.289062 14.610352 L 248.861816 14.610352 Z " fill="black" fill-opacity="1.000000"/>
<path d="M 256.608398 17.752441 L 256.608398 14.642578 L 257.596680 14.642578 L 257.596680 23.000000 L 256.608398 23.000000 L 256.608398 22.242676 Q 256.361328 22.688477 255.950439 22.922119 Q 255.539551 23.155762 255.002441 23.155762 Q 253.912109 23.155762 253.286377 22.309814 Q 252.660645 21.463867 252.660645 19.976074 Q 252.660645 18.509766 253.289062 17.674561 Q 253.917480 16.839355 255.002441 16.839355 Q 255.544922 16.839355 255.958496 17.072998 Q 256.372070 17.306641 256.608398 17.752441 Z M 253.702637 19.997559 Q 253.702637 21.146973 254.067871 21.732422 Q 254.433105 22.317871 255.147461 22.317871 Q 255.861816 22.317871 256.235107 21.727051 Q 256.608398 21.136230 256.608398 19.997559 Q 256.608398 18.853516 256.235107 18.265381 Q 255.861816 17.677246 255.147461 17.677246 Q 254.433105 17.677246 254.067871 18.262695 Q 253.702637 18.848145 253.702637 19.997559 Z " fill="black" fill-opacity="1.000000"/>
<path d="M 450.878906 26.319336 L 450.878906 12.300781 L 451.738281 12.300781 L 451.738281 26.319336 Z " fill="black" fill-opacity="1.000000"/>
<path d="M 6.892578 7.335938 L 6.892578 6.412109 L 13.729980 6.412109 L 13.729980 7.335938 Z " fill="black" fill-opacity="1.000000"/>
<path d="M 13.892578 7.335938 L 13.892578 6.412109 L 20.729980 6.412109 L 20.729980 7.335938 Z " fill="black" fill-opacity="1.000000"/>
<path d="M 20.892578 7.335938 L 20.892578 6.412109 L 27.729980 6.412109 L 27.729980 7.335938 Z " fill="black" fill-opacity="1.000000"/>
<path d="M 27.892578 7.335938 L 27.892578 6.412109 L 34.729980 6.412109 L 34.729980 7.335938 Z " fill="black" fill-opacity="1.000000"/>
<path d="M 34.892578 7.335938 L 34.892578 6.412109 L 41.729980 6.412109 L 41.729980 7.335938 Z " fill="black" fill-opacity="1.000000"/>
<path d="M 41.892578 7.335938 L 41.892578 6.412109 L 48.729980 6.412109 L 48.729980 7.335938 Z " fill="black" fill-opacity="1.000000"/>
<path d="M 48.892578 7.335938 L 48.892578 6.412109 L 55.729980 6.412109 L 55.729980 7.335938 Z " fill="black" fill-opacity="1.000000"/>
<path d="M 55.892578 7.335938 L 55.892578 6.412109 L 62.729980 6.412109 L 62.729980 7.335938 Z " fill="black" fill-opacity="1.000000"/>
<path d="M 62.892578 7.335938 L 62.892578 6.412109 L 69.729980 6.412109 L 69.729980 7.335938 Z " fill="black" fill-opacity="1.000000"/>
<path d="M 69.892578 7.335938 L 69.892578 6.412109 L 76.729980 6.412109 L 76.729980 7.335938 Z " fill="black" fill-opacity="1.000000"/>
<path d="M 76.892578 7.335938 L 76.892578 6.412109 L 83.729980 6.412109 L 83.729980 7.335938 Z " fill="black" fill-opacity="1.000000"/>
<path d="M 83.892578 7.335938 L 83.892578 6.412109 L 90.729980 6.412109 L 90.729980 7.335938 Z " fill="black" fill-opacity="1.000000"/>
<path d="M 90.892578 7.335938 L 90.892578 6.412109 L 97.729980 6.412109 L 97.729980 7.335938 Z " fill="black" fill-opacity="1.000000"/>
<path d="M 97.892578 7.335938 L 97.892578 6.412109 L 104.729980 6.412109 L 104.729980 7.335938 Z " fill="black" fill-opacity="1.000000"/>
<path d="M 104.892578 7.335938 L 104.892578 6.412109 L 111.729980 6.412109 L 111.729980 7.335938 Z " fill="black" fill-opacity="1.000000"/>
<path d="M 111.892578 7.335938 L 111.892578 6.412109 L 118.729980 6.412109 L 118.729980 7.335938 Z " fill="black" fill-opacity="1.000000"/>
<path d="M 118.892578 7.335938 L 118.892578 6.412109 L 125.729980 6.412109 L 125.729980 7.335938 Z " fill="black" fill-opacity="1.000000"/>
<path d="M 125.892578 7.335938 L 125.892578 6.412109 L 132.729980 6.412109 L 132.729980 7.335938 Z " fill="black" fill-opacity="1.000000"/>
<path d="M 132.892578 7.335938 L 132.892578 6.412109 L 139.729980 6.412109 L 139.729980 7.335938 Z " fill="black" fill-opacity="1.000000"/>
<path d="M 139.892578 7.335938 L 139.892578 6.412109 L 146.729980 6.412109 L 146.729980 7.335938 Z " fill="black" fill-opacity="1.000000"/>
<path d="M 146.892578 7.335938 L 146.892578 6.412109 L 153.729980 6.412109 L 153.729980 7.335938 Z " fill="black" fill-opacity="1.000000"/>
<path d="M 153.892578 7.335938 L 153.892578 6.412109 L 160.729980 6.412109 L 160.729980 7.335938 Z " fill="black" fill-opacity="1.000000"/>
<path d="M 160.892578 7.335938 L 160.892578 6.412109 L 167.729980 6.412109 L 167.729980 7.335938 Z " fill="black" fill-opacity="1.000000"/>
<path d="M 167.892578 7.335938 L 167.892578 6.412109 L 174.729980 6.412109 L 174.729980 7.335938 Z " fill="black" fill-opacity="1.000000"/>
<path d="M 174.892578 7.335938 L 174.892578 6.412109 L 181.729980 6.412109 L 181.729980 7.335938 Z " fill="black" fill-opacity="1.000000"/>
<path d="M 181.892578 7.335938 L 181.892578 6.412109 L 188.729980 6.412109 L 188.729980 7.335938 Z " fill="black" fill-opacity="1.000000"/>
<path d="M 188.892578 7.335938 L 188.892578 6.412109 L 195.729980 6.412109 L 195.729980 7.335938 Z " fill="black" fill-opacity="1.000000"/>
<path d="M 195.892578 7.335938 L 195.892578 6.412109 L 202.729980 6.412109 L 202.729980 7.335938 Z " fill="black" fill-opacity="1.000000"/>
<path d="M 202.892578 7.335938 L 202.892578 6.412109 L 209.729980 6.412109 L 209.729980 7.335938 Z " fill="black" fill-opacity="1.000000"/>
<path d="M 209.892578 7.335938 L 209.892578 6.412109 L 216.729980 6.412109 L 216.729980 7.335938 Z " fill="black" fill-opacity="1.000000"/>
<path d="M 216.892578 7.335938 L 216.892578 6.412109 L 223.729980 6.412109 L 223.729980 7.335938 Z " fill="black" fill-opacity="1.000000"/>
<path d="M 223.892578 7.335938 L 223.892578 6.412109 L 230.729980 6.412109 L 230.729980 7.335938 Z " fill="black" fill-opacity="1.000000"/>
<path d="M 230.892578 7.335938 L 230.892578 6.412109 L 237.729980 6.412109 L 237.729980 7.335938 Z " fill="black" fill-opacity="1.000000"/>
<path d="M 237.892578 7.335938 L 237.892578 6.412109 L 244.729980 6.412109 L 244.729980 7.335938 Z " fill="black" fill-opacity="1.000000"/>
<path d="M 244.892578 7.335938 L 244.892578 6.412109 L 251.729980 6.412109 L 251.729980 7.335938 Z " fill="black" fill-opacity="1.000000"/>
<path d="M 251.892578 7.335938 L 251.892578 6.412109 L 258.729980 6.412109 L 258.729980 7.335938 Z " fill="black" fill-opacity="1.000000"/>
<path d="M 258.892578 7.335938 L 258.892578 6.412109 L 265.729980 6.412109 L 265.729980 7.335938 Z " fill="black" fill-opacity="1.000000"/>
<path d="M 265.892578 7.335938 L 265.892578 6.412109 L 272.729980 6.412109 L 272.729980 7.335938 Z " fill="black" fill-opacity="1.000000"/>
<path d="M 272.892578 7.335938 L 272.892578 6.412109 L 279.729980 6.412109 L 279.729980 7.335938 Z " fill="black" fill-opacity="1.000000"/>
<path d="M 279.892578 7.335938 L 279.892578 6.412109 L 286.729980 6.412109 L 286.729980 7.335938 Z " fill="black" fill-opacity="1.000000"/>
<path d="M 286.892578 7.335938 L 286.892578 6.412109 L 293.729980 6.412109 L 293.729980 7.335938 Z " fill="black" fill-opacity="1.000000"/>
<path d="M 293.892578 7.335938 L 293.892578 6.412109 L 300.729980 6.412109 L 300.729980 7.335938 Z " fill="black" fill-opacity="1.000000"/>
<path d="M 300.892578 7.335938 L 300.892578 6.412109 L 307.729980 6.412109 L 307.729980 7.335938 Z " fill="black" fill-opacity="1.000000"/>
<path d="M 307.892578 7.335938 L 307.892578 6.412109 L 314.729980 6.412109 L 314.729980 7.335938 Z " fill="black" fill-opacity="1.000000"/>
<path d="M 314.892578 7.335938 L 314.892578 6.412109 L 321.729980 6.412109 L 321.729980 7.335938 Z " fill="black" fill-opacity="1.000000"/>
<path d="M 321.892578 7.335938 L 321.892578 6.412109 L 328.729980 6.412109 L 328.729980 7.335938 Z " fill="black" fill-opacity="1.000000"/>
<path d="M 328.892578 7.335938 L 328.892578 6.412109 L 335.729980 6.412109 L 335.729980 7.335938 Z " fill="black" fill-opacity="1.000000"/>
<path d="M 335.892578 7.335938 L 335.892578 6.412109 L 342.729980 6.412109 L 342.729980 7.335938 Z " fill="black" fill-opacity="1.000000"/>
<path d="M 342.892578 7.335938 L 342.892578 6.412109 L 349.729980 6.412109 L 349.729980 7.335938 Z " fill="black" fill-opacity="1.000000"/>
<path d="M 349.892578 7.335938 L 349.892578 6.412109 L 356.729980 6.412109 L 356.729980 7.335938 Z " fill="black" fill-opacity="1.000000"/>
<path d="M 356.892578 7.335938 L 356.892578 6.412109 L 363.729980 6.412109 L 363.729980 7.335938 Z " fill="black" fill-opacity="1.000000"/>
<path d="M 363.892578 7.335938 L 363.892578 6.412109 L 370.729980 6.412109 L 370.729980 7.335938 Z " fill="black" fill-opacity="1.000000"/>
<path d="M 370.892578 7.335938 L 370.892578 6.412109 L 377.729980 6.412109 L 377.729980 7.335938 Z " fill="black" fill-opacity="1.000000"/>
<path d="M 377.892578 7.335938 L 377.892578 6.412109 L 384.729980 6.412109 L 384.729980 7.335938 Z " fill="black" fill-opacity="1.000000"/>
<path d="M 384.892578 7.335938 L 384.892578 6.412109 L 391.729980 6.412109 L 391.729980 7.335938 Z " fill="black" fill-opacity="1.000000"/>
<path d="M 391.892578 7.335938 L 391.892578 6.412109 L 398.729980 6.412109 L 398.729980 7.335938 Z " fill="black" fill-opacity="1.000000"/>
<path d="M 398.892578 7.335938 L 398.892578 6.412109 L 405.729980 6.412109 L 405.729980 7.335938 Z " fill="black" fill-opacity="1.000000"/>
<path d="M 405.892578 7.335938 L 405.892578 6.412109 L 412.729980 6.412109 L 412.729980 7.335938 Z " fill="black" fill-opacity="1.000000"/>
<path d="M 412.892578 7.335938 L 412.892578 6.412109 L 419.729980 6.412109 L 419.729980 7.335938 Z " fill="black" fill-opacity="1.000000"/>
<path d="M 419.892578 7.335938 L 419.892578 6.412109 L 426.729980 6.412109 L 426.729980 7.335938 Z " fill="black" fill-opacity="1.000000"/>
<path d="M 426.892578 7.335938 L 426.892578 6.412109 L 433.729980 6.412109 L 433.729980 7.335938 Z " fill="black" fill-opacity="1.000000"/>
<path d="M 433.892578 7.335938 L 433.892578 6.412109 L 440.729980 6.412109 L 440.729980 7.335938 Z " fill="black" fill-opacity="1.000000"/>
<path d="M 440.892578 7.335938 L 440.892578 6.412109 L 447.729980 6.412109 L 447.729980 7.335938 Z " fill="black" fill-opacity="1.000000"/>
<path d="M 450.878906 13.319336 L 450.878906 7.335938 L 447.892578 7.335938 L 447.892578 6.412109 L 451.738281 6.412109 L 451.738281 13.319336 Z " fill="black" fill-opacity="1.000000"/>
</svg>
