<?xml version='1.0' encoding='utf-8'?>
<svg xmlns="http://www.w3.org/2000/svg" version="1.1" width="456" height="92" viewBox="0 0 456.0 92.0">
<path d="M 2.878906 39.319336 L 2.878906 25.300781 L 3.738281 25.300781 L 3.738281 32.412109 L 6.729980 32.412109 L 6.729980 33.335938 L 3.738281 33.335938 L 3.738281 39.319336 Z " fill="black" fill-opacity="1.000000"/>
<path d="M 2.878906 52.319336 L 2.878906 38.300781 L 3.738281 38.300781 L 3.738281 52.319336 Z " fill="black" fill-opacity="1.000000"/>
<path d="M 2.878906 65.319336 L 2.878906 51.300781 L 3.738281 51.300781 L 3.738281 58.412109 L 6.729980 58.412109 L 6.729980 59.335938 L 3.738281 59.335938 L 3.738281 65.319336 Z " fill="black" fill-opacity="1.000000"/>
<path d="M 2.878906 78.319336 L 2.878906 64.300781 L 3.738281 64.300781 L 3.738281 78.319336 Z " fill="black" fill-opacity="1.000000"/>
<path d="M 2.878906 85.335938 L 2.878906 77.300781 L 3.738281 77.300781 L 3.738281 84.412109 L 6.729980 84.412109 L 6.729980 85.335938 Z " fill="black" fill-opacity="1.000000"/>
<path d="M 6.892578 85.335938 L 6.892578 84.412109 L 13.729980 84.412109 L 13.729980 85.335938 Z " fill="black" fill-opacity="1.000000"/>
<path d="M 13.892578 85.335938 L 13.892578 84.412109 L 20.729980 84.412109 L 20.729980 85.335938 Z " fill="black" fill-opacity="1.000000"/>
<path d="M 20.892578 85.335938 L 20.892578 84.412109 L 27.729980 84.412109 L 27.729980 85.335938 Z " fill="black" fill-opacity="1.000000"/>
<path d="M 27.892578 85.335938 L 27.892578 84.412109 L 34.729980 84.412109 L 34.729980 85.335938 Z " fill="black" fill-opacity="1.000000"/>
<path d="M 34.892578 85.335938 L 34.892578 84.412109 L 41.729980 84.412109 L 41.729980 85.335938 Z " fill="black" fill-opacity="1.000000"/>
<path d="M 41.892578 85.335938 L 41.892578 84.412109 L 48.729980 84.412109 L 48.729980 85.335938 Z " fill="black" fill-opacity="1.000000"/>
<path d="M 48.892578 85.335938 L 48.892578 84.412109 L 55.729980 84.412109 L 55.729980 85.335938 Z " fill="black" fill-opacity="1.000000"/>
<path d="M 55.892578 85.335938 L 55.892578 84.412109 L 62.729980 84.412109 L 62.729980 85.335938 Z " fill="black" fill-opacity="1.000000"/>
<path d="M 62.892578 85.335938 L 62.892578 84.412109 L 69.729980 84.412109 L 69.729980 85.335938 Z " fill="black" fill-opacity="1.000000"/>
<path d="M 69.892578 85.335938 L 69.892578 84.412109 L 76.729980 84.412109 L 76.729980 85.335938 Z " fill="black" fill-opacity="1.000000"/>
<path d="M 76.892578 85.335938 L 76.892578 84.412109 L 83.729980 84.412109 L 83.729980 85.335938 Z " fill="black" fill-opacity="1.000000"/>
<path d="M 83.892578 85.335938 L 83.892578 84.412109 L 90.729980 84.412109 L 90.729980 85.335938 Z " fill="black" fill-opacity="1.000000"/>
<path d="M 90.892578 85.335938 L 90.892578 84.412109 L 97.729980 84.412109 L 97.729980 85.335938 Z " fill="black" fill-opacity="1.000000"/>
<path d="M 97.892578 85.335938 L 97.892578 84.412109 L 104.729980 84.412109 L 104.729980 85.335938 Z " fill="black" fill-opacity="1.000000"/>
<path d="M 104.892578 85.335938 L 104.892578 84.412109 L 111.729980 84.412109 L 111.729980 85.335938 Z " fill="black" fill-opacity="1.000000"/>
<path d="M 111.892578 85.335938 L 111.892578 84.412109 L 118.729980 84.412109 L 118.729980 85.335938 Z " fill="black" fill-opacity="1.000000"/>
<path d="M 118.892578 85.335938 L 118.892578 84.412109 L 125.729980 84.412109 L 125.729980 85.335938 Z " fill="black" fill-opacity="1.000000"/>
<path d="M 125.892578 85.335938 L 125.892578 84.412109 L 132.729980 84.412109 L 132.729980 85.335938 Z " fill="black" fill-opacity="1.000000"/>
<path d="M 132.892578 85.335938 L 132.892578 84.412109 L 139.729980 84.412109 L 139.729980 85.335938 Z " fill="black" fill-opacity="1.000000"/>
<path d="M 139.892578 85.335938 L 139.892578 84.412109 L 146.729980 84.412109 L 146.729980 85.335938 Z " fill="black" fill-opacity="1.000000"/>
<path d="M 146.892578 85.335938 L 146.892578 84.412109 L 153.729980 84.412109 L 153.729980 85.335938 Z " fill="black" fill-opacity="1.000000"/>
<path d="M 153.892578 85.335938 L 153.892578 84.412109 L 160.729980 84.412109 L 160.729980 85.335938 Z " fill="black" fill-opacity="1.000000"/>
<path d="M 160.892578 85.335938 L 160.892578 84.412109 L 167.729980 84.412109 L 167.729980 85.335938 Z " fill="black" fill-opacity="1.000000"/>
<path d="M 167.892578 85.335938 L 167.892578 84.412109 L 174.729980 84.412109 L 174.729980 85.335938 Z " fill="black" fill-opacity="1.000000"/>
<path d="M 174.892578 85.335938 L 174.892578 84.412109 L 181.729980 84.412109 L 181.729980 85.335938 Z " fill="black" fill-opacity="1.000000"/>
<path d="M 181.892578 85.335938 L 181.892578 84.412109 L 188.729980 84.412109 L 188.729980 85.335938 Z " fill="black" fill-opacity="1.000000"/>
<path d="M 188.892578 85.335938 L 188.892578 84.412109 L 195.729980 84.412109 L 195.729980 85.335938 Z " fill="black" fill-opacity="1.000000"/>
<path d="M 195.892578 85.335938 L 195.892578 84.412109 L 202.729980 84.412109 L 202.729980 85.335938 Z " fill="black" fill-opacity="1.000000"/>
<path d="M 202.892578 85.335938 L 202.892578 84.412109 L 209.729980 84.412109 L 209.729980 85.335938 Z " fill="black" fill-opacity="1.000000"/>
<path d="M 209.892578 85.335938 L 209.892578 84.412109 L 216.729980 84.412109 L 216.729980 85.335938 Z " fill="black" fill-opacity="1.000000"/>
<path d="M 216.892578 85.335938 L 216.892578 84.412109 L 223.729980 84.412109 L 223.729980 85.335938 Z " fill="black" fill-opacity="1.000000"/>
<path d="M 223.892578 85.335938 L 223.892578 84.412109 L 230.729980 84.412109 L 230.729980 85.335938 Z " fill="black" fill-opacity="1.000000"/>
<path d="M 230.892578 85.335938 L 230.892578 84.412109 L 237.729980 84.412109 L 237.729980 85.335938 Z " fill="black" fill-opacity="1.000000"/>
<path d="M 237.892578 85.335938 L 237.892578 84.412109 L 244.729980 84.412109 L 244.729980 85.335938 Z " fill="black" fill-opacity="1.000000"/>
<path d="M 244.892578 85.335938 L 244.892578 84.412109 L 251.729980 84.412109 L 251.729980 85.335938 Z " fill="black" fill-opacity="1.000000"/>
<path d="M 251.892578 85.335938 L 251.892578 84.412109 L 258.729980 84.412109 L 258.729980 85.335938 Z " fill="black" fill-opacity="1.000000"/>
<path d="M 258.892578 85.335938 L 258.892578 84.412109 L 265.729980 84.412109 L 265.729980 85.335938 Z " fill="black" fill-opacity="1.000000"/>
<path d="M 265.892578 85.335938 L 265.892578 84.412109 L 272.729980 84.412109 L 272.729980 85.335938 Z " fill="black" fill-opacity="1.000000"/>
<path d="M 272.892578 85.335938 L 272.892578 84.412109 L 279.729980 84.412109 L 279.729980 85.335938 Z " fill="black" fill-opacity="1.000000"/>
<path d="M 279.892578 85.335938 L 279.892578 84.412109 L 286.729980 84.412109 L 286.729980 85.335938 Z " fill="black" fill-opacity="1.000000"/>
<path d="M 286.892578 85.335938 L 286.892578 84.412109 L 293.729980 84.412109 L 293.729980 85.335938 Z " fill="black" fill-opacity="1.000000"/>
<path d="M 293.892578 85.335938 L 293.892578 84.412109 L 300.729980 84.412109 L 300.729980 85.335938 Z " fill="black" fill-opacity="1.000000"/>
<path d="M 300.892578 85.335938 L 300.892578 84.412109 L 307.729980 84.412109 L 307.729980 85.335938 Z " fill="black" fill-opacity="1.000000"/>
<path d="M 307.892578 85.335938 L 307.892578 84.412109 L 314.729980 84.412109 L 314.729980 85.335938 Z " fill="black" fill-opacity="1.000000"/>
<path d="M 314.892578 85.335938 L 314.892578 84.412109 L 321.729980 84.412109 L 321.729980 85.335938 Z " fill="black" fill-opacity="1.000000"/>
<path d="M 321.892578 85.335938 L 321.892578 84.412109 L 328.729980 84.412109 L 328.729980 85.335938 Z " fill="black" fill-opacity="1.000000"/>
<path d="M 328.892578 85.335938 L 328.892578 84.412109 L 335.729980 84.412109 L 335.729980 85.335938 Z " fill="black" fill-opacity="1.000000"/>
<path d="M 335.892578 85.335938 L 335.892578 84.412109 L 342.729980 84.412109 L 342.729980 85.335938 Z " fill="black" fill-opacity="1.000000"/>
<path d="M 342.892578 85.335938 L 342.892578 84.412109 L 349.729980 84.412109 L 349.729980 85.335938 Z " fill="black" fill-opacity="1.000000"/>
<path d="M 349.892578 85.335938 L 349.892578 84.412109 L 356.729980 84.412109 L 356.729980 85.335938 Z " fill="black" fill-opacity="1.000000"/>
<path d="M 356.892578 85.335938 L 356.892578 84.412109 L 363.729980 84.412109 L 363.729980 85.335938 Z " fill="black" fill-opacity="1.000000"/>
<path d="M 363.892578 85.335938 L 363.892578 84.412109 L 370.729980 84.412109 L 370.729980 85.335938 Z " fill="black" fill-opacity="1.000000"/>
<path d="M 370.892578 85.335938 L 370.892578 84.412109 L 377.729980 84.412109 L 377.729980 85.335938 Z " fill="black" fill-opacity="1.000000"/>
<path d="M 377.892578 85.335938 L 377.892578 84.412109 L 384.729980 84.412109 L 384.729980 85.335938 Z " fill="black" fill-opacity="1.000000"/>
<path d="M 384.892578 85.335938 L 384.892578 84.412109 L 391.729980 84.412109 L 391.729980 85.335938 Z " fill="black" fill-opacity="1.000000"/>
<path d="M 391.892578 85.335938 L 391.892578 84.412109 L 398.729980 84.412109 L 398.729980 85.335938 Z " fill="black" fill-opacity="1.000000"/>
<path d="M 398.892578 85.335938 L 398.892578 84.412109 L 405.729980 84.412109 L 405.729980 85.335938 Z " fill="black" fill-opacity="1.000000"/>
<path d="M 405.892578 85.335938 L 405.892578 84.412109 L 412.729980 84.412109 L 412.729980 85.335938 Z " fill="black" fill-opacity="1.000000"/>
<path d="M 412.892578 85.335938 L 412.892578 84.412109 L 419.729980 84.412109 L 419.729980 85.335938 Z " fill="black" fill-opacity="1.000000"/>
<path d="M 419.892578 85.335938 L 419.892578 84.412109 L 426.729980 84.412109 L 426.729980 85.335938 Z " fill="black" fill-opacity="1.000000"/>
<path d="M 426.892578 85.335938 L 426.892578 84.412109 L 433.729980 84.412109 L 433.729980 85.335938 Z " fill="black" fill-opacity="1.000000"/>
<path d="M 433.892578 85.335938 L 433.892578 84.412109 L 440.729980 84.412109 L 440.729980 85.335938 Z " fill="black" fill-opacity="1.000000"/>
<path d="M 440.892578 85.335938 L 440.892578 84.412109 L 447.729980 84.412109 L 447.729980 85.335938 Z " fill="black" fill-opacity="1.000000"/>
<path d="M 447.892578 85.335938 L 447.892578 84.412109 L 450.878906 84.412109 L 450.878906 77.300781 L 451.738281 77.300781 L 451.738281 85.335938 Z " fill="black" fill-opacity="1.000000"/>
<path d="M 219.089355 72.830078 L 220.979980 72.830078 L 220.979980 75.000000 L 219.089355 75.000000 Z " fill="black" fill-opacity="1.000000"/>
<path d="M 226.089355 72.830078 L 227.979980 72.830078 L 227.979980 75.000000 L 226.089355 75.000000 Z " fill="black" fill-opacity="1.000000"/>
<path d="M 233.089355 72.830078 L 234.979980 72.830078 L 234.979980 75.000000 L 233.089355 75.000000 Z " fill="black" fill-opacity="1.000000"/>
<path d="M 450.878906 78.319336 L 450.878906 64.300781 L 451.738281 64.300781 L 451.738281 78.319336 Z " fill="black" fill-opacity="1.000000"/>
<path d="M 6.892578 59.335938 L 6.892578 58.412109 L 13.729980 58.412109 L 13.729980 59.335938 Z " fill="black" fill-opacity="1.000000"/>
<path d="M 13.892578 59.335938 L 13.892578 58.412109 L 20.729980 58.412109 L 20.729980 59.335938 Z " fill="black" fill-opacity="1.000000"/>
<path d="M 20.892578 59.335938 L 20.892578 58.412109 L 27.729980 58.412109 L 27.729980 59.335938 Z " fill="black" fill-opacity="1.000000"/>
<path d="M 27.892578 59.335938 L 27.892578 58.412109 L 34.729980 58.412109 L 34.729980 59.335938 Z " fill="black" fill-opacity="1.000000"/>
<path d="M 34.892578 59.335938 L 34.892578 58.412109 L 41.729980 58.412109 L 41.729980 59.335938 Z " fill="black" fill-opacity="1.000000"/>
<path d="M 41.892578 59.335938 L 41.892578 58.412109 L 48.729980 58.412109 L 48.729980 59.335938 Z " fill="black" fill-opacity="1.000000"/>
<path d="M 48.892578 59.335938 L 48.892578 58.412109 L 55.729980 58.412109 L 55.729980 59.335938 Z " fill="black" fill-opacity="1.000000"/>
<path d="M 55.892578 59.335938 L 55.892578 58.412109 L 62.729980 58.412109 L 62.729980 59.335938 Z " fill="black" fill-opacity="1.000000"/>
<path d="M 62.892578 59.335938 L 62.892578 58.412109 L 69.729980 58.412109 L 69.729980 59.335938 Z " fill="black" fill-opacity="1.000000"/>
<path d="M 69.892578 59.335938 L 69.892578 58.412109 L 76.729980 58.412109 L 76.729980 59.335938 Z " fill="black" fill-opacity="1.000000"/>
<path d="M 76.892578 59.335938 L 76.892578 58.412109 L 83.729980 58.412109 L 83.729980 59.335938 Z " fill="black" fill-opacity="1.000000"/>
<path d="M 83.892578 59.335938 L 83.892578 58.412109 L 90.729980 58.412109 L 90.729980 59.335938 Z " fill="black" fill-opacity="1.000000"/>
<path d="M 90.892578 59.335938 L 90.892578 58.412109 L 97.729980 58.412109 L 97.729980 59.335938 Z " fill="black" fill-opacity="1.000000"/>
<path d="M 97.892578 59.335938 L 97.892578 58.412109 L 104.729980 58.412109 L 104.729980 59.335938 Z " fill="black" fill-opacity="1.000000"/>
<path d="M 104.892578 59.335938 L 104.892578 58.412109 L 111.729980 58.412109 L 111.729980 59.335938 Z " fill="black" fill-opacity="1.000000"/>
<path d="M 111.892578 59.335938 L 111.892578 58.412109 L 114.878906 58.412109 L 114.878906 51.300781 L 115.738281 51.300781 L 115.738281 58.412109 L 118.729980 58.412109 L 118.729980 59.335938 Z " fill="black" fill-opacity="1.000000"/>
<path d="M 118.892578 59.335938 L 118.892578 58.412109 L 125.729980 58.412109 L 125.729980 59.335938 Z " fill="black" fill-opacity="1.000000"/>
<path d="M 125.892578 59.335938 L 125.892578 58.412109 L 132.729980 58.412109 L 132.729980 59.335938 Z " fill="black" fill-opacity="1.000000"/>
<path d="M 132.892578 59.335938 L 132.892578 58.412109 L 139.729980 58.412109 L 139.729980 59.335938 Z " fill="black" fill-opacity="1.000000"/>
<path d="M 139.892578 59.335938 L 139.892578 58.412109 L 146.729980 58.412109 L 146.729980 59.335938 Z " fill="black" fill-opacity="1.000000"/>
<path d="M 146.892578 59.335938 L 146.892578 58.412109 L 153.729980 58.412109 L 153.729980 59.335938 Z " fill="black" fill-opacity="1.000000"/>
<path d="M 153.892578 59.335938 L 153.892578 58.412109 L 160.729980 58.412109 L 160.729980 59.335938 Z " fill="black" fill-opacity="1.000000"/>
<path d="M 160.892578 59.335938 L 160.892578 58.412109 L 167.729980 58.412109 L 167.729980 59.335938 Z " fill="black" fill-opacity="1.000000"/>
<path d="M 167.892578 59.335938 L 167.892578 58.412109 L 174.729980 58.412109 L 174.729980 59.335938 Z " fill="black" fill-opacity="1.000000"/>
<path d="M 174.892578 59.335938 L 174.892578 58.412109 L 181.729980 58.412109 L 181.729980 59.335938 Z " fill="black" fill-opacity="1.000000"/>
<path d="M 181.892578 59.335938 L 181.892578 58.412109 L 188.729980 58.412109 L 188.729980 59.335938 Z " fill="black" fill-opacity="1.000000"/>
<path d="M 188.892578 59.335938 L 188.892578 58.412109 L 195.729980 58.412109 L 195.729980 59.335938 Z " fill="black" fill-opacity="1.000000"/>
<path d="M 195.892578 59.335938 L 195.892578 58.412109 L 202.729980 58.412109 L 202.729980 59.335938 Z " fill="black" fill-opacity="1.000000"/>
<path d="M 202.892578 59.335938 L 202.892578 58.412109 L 209.729980 58.412109 L 209.729980 59.335938 Z " fill="black" fill-opacity="1.000000"/>
<path d="M 209.892578 59.335938 L 209.892578 58.412109 L 216.729980 58.412109 L 216.729980 59.335938 Z " fill="black" fill-opacity="1.000000"/>
<path d="M 216.892578 59.335938 L 216.892578 58.412109 L 223.729980 58.412109 L 223.729980 59.335938 Z " fill="black" fill-opacity="1.000000"/>
<path d="M 223.892578 59.335938 L 223.892578 58.412109 L 226.878906 58.412109 L 226.878906 51.300781 L 227.738281 51.300781 L 227.738281 59.335938 Z " fill="black" fill-opacity="1.000000"/>
<path d="M 450.878906 65.319336 L 450.878906 59.335938 L 447.892578 59.335938 L 447.892578 58.412109 L 450.878906 58.412109 L 450.878906 51.300781 L 451.738281 51.300781 L 451.738281 65.319336 Z " fill="black" fill-opacity="1.000000"/>
<path d="M 39.860840 44.998535 Q 39.860840 43.231445 39.498291 42.474121 Q 39.135742 41.716797 38.308594 41.716797 Q 37.486816 41.716797 37.124268 42.474121 Q 36.761719 43.231445 36.761719 44.998535 Q 36.761719 46.760254 37.124268 47.517578 Q 37.486816 48.274902 38.308594 48.274902 Q 39.135742 48.274902 39.498291 47.520264 Q 39.860840 46.765625 39.860840 44.998535 Z M 40.994141 44.998535 Q 40.994141 47.093262 40.330811 48.124512 Q 39.667480 49.155762 38.308594 49.155762 Q 36.949707 49.155762 36.289062 48.129883 Q 35.628418 47.104004 35.628418 44.998535 Q 35.628418 42.898438 36.291748 41.867188 Q 36.955078 40.835938 38.308594 40.835938 Q 39.667480 40.835938 40.330811 41.867188 Q 40.994141 42.898438 40.994141 44.998535 Z " fill="black" fill-opacity="1.000000"/>
<path d="M 44.014160 48.242676 L 44.014160 51.288086 L 43.020508 51.288086 L 43.020508 42.984375 L 44.014160 42.984375 L 44.014160 43.752441 Q 44.261230 43.306641 44.672119 43.072998 Q 45.083008 42.839355 45.620117 42.839355 Q 46.710449 42.839355 47.330811 43.682617 Q 47.951172 44.525879 47.951172 46.019043 Q 47.951172 47.485352 47.328125 48.320557 Q 46.705078 49.155762 45.620117 49.155762 Q 45.072266 49.155762 44.661377 48.922119 Q 44.250488 48.688477 44.014160 48.242676 Z M 46.914551 45.997559 Q 46.914551 44.848145 46.552002 44.262695 Q 46.189453 43.677246 45.475098 43.677246 Q 44.755371 43.677246 44.384766 44.265381 Q 44.014160 44.853516 44.014160 45.997559 Q 44.014160 47.136230 44.384766 47.727051 Q 44.755371 48.317871 45.475098 48.317871 Q 46.189453 48.317871 46.552002 47.732422 Q 46.914551 47.146973 46.914551 45.997559 Z " fill="black" fill-opacity="1.000000"/>
<path d="M 52.297852 41.276367 L 52.297852 42.984375 L 54.542969 42.984375 L 54.542969 43.752441 L 52.297852 43.752441 L 52.297852 47.018066 Q 52.297852 47.684082 52.550293 47.947266 Q 52.802734 48.210449 53.431152 48.210449 L 54.542969 48.210449 L 54.542969 49.000000 L 53.334473 49.000000 Q 52.222656 49.000000 51.766113 48.554199 Q 51.309570 48.108398 51.309570 47.018066 L 51.309570 43.752441 L 49.703613 43.752441 L 49.703613 42.984375 L 51.309570 42.984375 L 51.309570 41.276367 Z " fill="black" fill-opacity="1.000000"/>
<path d="M 56.252441 40.980957 L 62.370117 40.980957 L 62.370117 41.894043 L 59.861816 41.894043 L 59.861816 49.000000 L 58.771484 49.000000 L 58.771484 41.894043 L 56.252441 41.894043 Z " fill="black" fill-opacity="1.000000"/>
<path d="M 67.608398 47.066406 Q 67.361328 47.694824 66.979980 48.720703 Q 66.448242 50.138672 66.265625 50.450195 Q 66.018555 50.869141 65.647949 51.078613 Q 65.277344 51.288086 64.783203 51.288086 L 63.988281 51.288086 L 63.988281 50.460938 L 64.573730 50.460938 Q 65.008789 50.460938 65.255859 50.208496 Q 65.502930 49.956055 65.884277 48.903320 L 63.558594 42.984375 L 64.605957 42.984375 L 66.389160 47.689453 L 68.145508 42.984375 L 69.192871 42.984375 Z " fill="black" fill-opacity="1.000000"/>
<path d="M 72.014160 48.242676 L 72.014160 51.288086 L 71.020508 51.288086 L 71.020508 42.984375 L 72.014160 42.984375 L 72.014160 43.752441 Q 72.261230 43.306641 72.672119 43.072998 Q 73.083008 42.839355 73.620117 42.839355 Q 74.710449 42.839355 75.330811 43.682617 Q 75.951172 44.525879 75.951172 46.019043 Q 75.951172 47.485352 75.328125 48.320557 Q 74.705078 49.155762 73.620117 49.155762 Q 73.072266 49.155762 72.661377 48.922119 Q 72.250488 48.688477 72.014160 48.242676 Z M 74.914551 45.997559 Q 74.914551 44.848145 74.552002 44.262695 Q 74.189453 43.677246 73.475098 43.677246 Q 72.755371 43.677246 72.384766 44.265381 Q 72.014160 44.853516 72.014160 45.997559 Q 72.014160 47.136230 72.384766 47.727051 Q 72.755371 48.317871 73.475098 48.317871 Q 74.189453 48.317871 74.552002 47.732422 Q 74.914551 47.146973 74.914551 45.997559 Z " fill="black" fill-opacity="1.000000"/>
<path d="M 83.015625 45.498047 L 83.015625 45.981445 L 78.734863 45.981445 L 78.734863 46.013672 Q 78.691895 47.243652 79.204834 47.780762 Q 79.717773 48.317871 80.652344 48.317871 Q 81.125000 48.317871 81.640625 48.167480 Q 82.156250 48.017090 82.741699 47.710938 L 82.741699 48.693848 Q 82.177734 48.924805 81.654053 49.040283 Q 81.130371 49.155762 80.641602 49.155762 Q 79.239746 49.155762 78.450195 48.315186 Q 77.660645 47.474609 77.660645 45.997559 Q 77.660645 44.558105 78.434082 43.698730 Q 79.207520 42.839355 80.496582 42.839355 Q 81.645996 42.839355 82.309326 43.618164 Q 82.972656 44.396973 83.015625 45.498047 Z M 82.027344 45.208008 Q 81.962891 44.584961 81.573486 44.131104 Q 81.184082 43.677246 80.453613 43.677246 Q 79.739258 43.677246 79.277344 44.149902 Q 78.815430 44.622559 78.772461 45.213379 Z " fill="black" fill-opacity="1.000000"/>
<path d="M 114.878906 52.319336 L 114.878906 38.300781 L 115.738281 38.300781 L 115.738281 52.319336 Z " fill="black" fill-opacity="1.000000"/>
<path d="M 137.860840 44.998535 Q 137.860840 43.231445 137.498291 42.474121 Q 137.135742 41.716797 136.308594 41.716797 Q 135.486816 41.716797 135.124268 42.474121 Q 134.761719 43.231445 134.761719 44.998535 Q 134.761719 46.760254 135.124268 47.517578 Q 135.486816 48.274902 136.308594 48.274902 Q 137.135742 48.274902 137.498291 47.520264 Q 137.860840 46.765625 137.860840 44.998535 Z M 138.994141 44.998535 Q 138.994141 47.093262 138.330811 48.124512 Q 137.667480 49.155762 136.308594 49.155762 Q 134.949707 49.155762 134.289062 48.129883 Q 133.628418 47.104004 133.628418 44.998535 Q 133.628418 42.898438 134.291748 41.867188 Q 134.955078 40.835938 136.308594 40.835938 Q 137.667480 40.835938 138.330811 41.867188 Q 138.994141 42.898438 138.994141 44.998535 Z " fill="black" fill-opacity="1.000000"/>
<path d="M 142.014160 48.242676 L 142.014160 51.288086 L 141.020508 51.288086 L 141.020508 42.984375 L 142.014160 42.984375 L 142.014160 43.752441 Q 142.261230 43.306641 142.672119 43.072998 Q 143.083008 42.839355 143.620117 42.839355 Q 144.710449 42.839355 145.330811 43.682617 Q 145.951172 44.525879 145.951172 46.019043 Q 145.951172 47.485352 145.328125 48.320557 Q 144.705078 49.155762 143.620117 49.155762 Q 143.072266 49.155762 142.661377 48.922119 Q 142.250488 48.688477 142.014160 48.242676 Z M 144.914551 45.997559 Q 144.914551 44.848145 144.552002 44.262695 Q 144.189453 43.677246 143.475098 43.677246 Q 142.755371 43.677246 142.384766 44.265381 Q 142.014160 44.853516 142.014160 45.997559 Q 142.014160 47.136230 142.384766 47.727051 Q 142.755371 48.317871 143.475098 48.317871 Q 144.189453 48.317871 144.552002 47.732422 Q 144.914551 47.146973 144.914551 45.997559 Z " fill="black" fill-opacity="1.000000"/>
<path d="M 150.297852 41.276367 L 150.297852 42.984375 L 152.542969 42.984375 L 152.542969 43.752441 L 150.297852 43.752441 L 150.297852 47.018066 Q 150.297852 47.684082 150.550293 47.947266 Q 150.802734 48.210449 151.431152 48.210449 L 152.542969 48.210449 L 152.542969 49.000000 L 151.334473 49.000000 Q 150.222656 49.000000 149.766113 48.554199 Q 149.309570 48.108398 149.309570 47.018066 L 149.309570 43.752441 L 147.703613 43.752441 L 147.703613 42.984375 L 149.309570 42.984375 L 149.309570 41.276367 Z " fill="black" fill-opacity="1.000000"/>
<path d="M 156.341797 48.108398 Q 157.711426 48.108398 158.253906 47.434326 Q 158.796387 46.760254 158.796387 44.998535 Q 158.796387 43.220703 158.256592 42.546631 Q 157.716797 41.872559 156.341797 41.872559 L 155.826172 41.872559 L 155.826172 48.108398 Z M 156.363281 40.980957 Q 158.200195 40.980957 159.070312 41.958496 Q 159.940430 42.936035 159.940430 44.998535 Q 159.940430 47.050293 159.070312 48.025146 Q 158.200195 49.000000 156.363281 49.000000 L 154.735840 49.000000 L 154.735840 40.980957 Z " fill="black" fill-opacity="1.000000"/>
<path d="M 164.770508 45.976074 L 164.442871 45.976074 Q 163.578125 45.976074 163.140381 46.279541 Q 162.702637 46.583008 162.702637 47.184570 Q 162.702637 47.727051 163.030273 48.027832 Q 163.357910 48.328613 163.937988 48.328613 Q 164.754395 48.328613 165.221680 47.761963 Q 165.688965 47.195312 165.694336 46.196289 L 165.694336 45.976074 Z M 166.687988 45.567871 L 166.687988 49.000000 L 165.694336 49.000000 L 165.694336 48.108398 Q 165.377441 48.645508 164.896729 48.900635 Q 164.416016 49.155762 163.728516 49.155762 Q 162.810059 49.155762 162.262207 48.637451 Q 161.714355 48.119141 161.714355 47.249023 Q 161.714355 46.244629 162.388428 45.723633 Q 163.062500 45.202637 164.367676 45.202637 L 165.694336 45.202637 L 165.694336 45.046875 Q 165.688965 44.327148 165.329102 44.002197 Q 164.969238 43.677246 164.179688 43.677246 Q 163.674805 43.677246 163.159180 43.822266 Q 162.643555 43.967285 162.154785 44.246582 L 162.154785 43.258301 Q 162.702637 43.048828 163.204834 42.944092 Q 163.707031 42.839355 164.179688 42.839355 Q 164.926270 42.839355 165.455322 43.059570 Q 165.984375 43.279785 166.312012 43.720215 Q 166.516113 43.988770 166.602051 44.383545 Q 166.687988 44.778320 166.687988 45.567871 Z " fill="black" fill-opacity="1.000000"/>
<path d="M 171.297852 41.276367 L 171.297852 42.984375 L 173.542969 42.984375 L 173.542969 43.752441 L 171.297852 43.752441 L 171.297852 47.018066 Q 171.297852 47.684082 171.550293 47.947266 Q 171.802734 48.210449 172.431152 48.210449 L 173.542969 48.210449 L 173.542969 49.000000 L 172.334473 49.000000 Q 171.222656 49.000000 170.766113 48.554199 Q 170.309570 48.108398 170.309570 47.018066 L 170.309570 43.752441 L 168.703613 43.752441 L 168.703613 42.984375 L 170.309570 42.984375 L 170.309570 41.276367 Z " fill="black" fill-opacity="1.000000"/>
<path d="M 178.770508 45.976074 L 178.442871 45.976074 Q 177.578125 45.976074 177.140381 46.279541 Q 176.702637 46.583008 176.702637 47.184570 Q 176.702637 47.727051 177.030273 48.027832 Q 177.357910 48.328613 177.937988 48.328613 Q 178.754395 48.328613 179.221680 47.761963 Q 179.688965 47.195312 179.694336 46.196289 L 179.694336 45.976074 Z M 180.687988 45.567871 L 180.687988 49.000000 L 179.694336 49.000000 L 179.694336 48.108398 Q 179.377441 48.645508 178.896729 48.900635 Q 178.416016 49.155762 177.728516 49.155762 Q 176.810059 49.155762 176.262207 48.637451 Q 175.714355 48.119141 175.714355 47.249023 Q 175.714355 46.244629 176.388428 45.723633 Q 177.062500 45.202637 178.367676 45.202637 L 179.694336 45.202637 L 179.694336 45.046875 Q 179.688965 44.327148 179.329102 44.002197 Q 178.969238 43.677246 178.179688 43.677246 Q 177.674805 43.677246 177.159180 43.822266 Q 176.643555 43.967285 176.154785 44.246582 L 176.154785 43.258301 Q 176.702637 43.048828 177.204834 42.944092 Q 177.707031 42.839355 178.179688 42.839355 Q 178.926270 42.839355 179.455322 43.059570 Q 179.984375 43.279785 180.312012 43.720215 Q 180.516113 43.988770 180.602051 44.383545 Q 180.687988 44.778320 180.687988 45.567871 Z " fill="black" fill-opacity="1.000000"/>
<path d="M 183.154785 40.980957 L 184.245117 40.980957 L 184.245117 48.086914 L 188.117676 48.086914 L 188.117676 49.000000 L 183.154785 49.000000 Z " fill="black" fill-opacity="1.000000"/>
<path d="M 195.015625 45.498047 L 195.015625 45.981445 L 190.734863 45.981445 L 190.734863 46.013672 Q 190.691895 47.243652 191.204834 47.780762 Q 191.717773 48.317871 192.652344 48.317871 Q 193.125000 48.317871 193.640625 48.167480 Q 194.156250 48.017090 194.741699 47.710938 L 194.741699 48.693848 Q 194.177734 48.924805 193.654053 49.040283 Q 193.130371 49.155762 192.641602 49.155762 Q 191.239746 49.155762 190.450195 48.315186 Q 189.660645 47.474609 189.660645 45.997559 Q 189.660645 44.558105 190.434082 43.698730 Q 191.207520 42.839355 192.496582 42.839355 Q 193.645996 42.839355 194.309326 43.618164 Q 194.972656 44.396973 195.015625 45.498047 Z M 194.027344 45.208008 Q 193.962891 44.584961 193.573486 44.131104 Q 193.184082 43.677246 192.453613 43.677246 Q 191.739258 43.677246 191.277344 44.149902 Q 190.815430 44.622559 190.772461 45.213379 Z " fill="black" fill-opacity="1.000000"/>
<path d="M 201.645020 45.272461 L 201.645020 49.000000 L 200.651367 49.000000 L 200.651367 45.272461 Q 200.651367 44.461426 200.366699 44.080078 Q 200.082031 43.698730 199.475098 43.698730 Q 198.782227 43.698730 198.408936 44.190186 Q 198.035645 44.681641 198.035645 45.600098 L 198.035645 49.000000 L 197.047363 49.000000 L 197.047363 42.984375 L 198.035645 42.984375 L 198.035645 43.886719 Q 198.298828 43.371094 198.750000 43.105225 Q 199.201172 42.839355 199.818848 42.839355 Q 200.737305 42.839355 201.191162 43.443604 Q 201.645020 44.047852 201.645020 45.272461 Z " fill="black" fill-opacity="1.000000"/>
<path d="M 226.878906 52.319336 L 226.878906 38.300781 L 227.738281 38.300781 L 227.738281 52.319336 Z " fill="black" fill-opacity="1.000000"/>
<path d="M 319.860840 44.998535 Q 319.860840 43.231445 319.498291 42.474121 Q 319.135742 41.716797 318.308594 41.716797 Q 317.486816 41.716797 317.124268 42.474121 Q 316.761719 43.231445 316.761719 44.998535 Q 316.761719 46.760254 317.124268 47.517578 Q 317.486816 48.274902 318.308594 48.274902 Q 319.135742 48.274902 319.498291 47.520264 Q 319.860840 46.765625 319.860840 44.998535 Z M 320.994141 44.998535 Q 320.994141 47.093262 320.330811 48.124512 Q 319.667480 49.155762 318.308594 49.155762 Q 316.949707 49.155762 316.289062 48.129883 Q 315.628418 47.104004 315.628418 44.998535 Q 315.628418 42.898438 316.291748 41.867188 Q 316.955078 40.835938 318.308594 40.835938 Q 319.667480 40.835938 320.330811 41.867188 Q 320.994141 42.898438 320.994141 44.998535 Z " fill="black" fill-opacity="1.000000"/>
<path d="M 324.014160 48.242676 L 324.014160 51.288086 L 323.020508 51.288086 L 323.020508 42.984375 L 324.014160 42.984375 L 324.014160 43.752441 Q 324.261230 43.306641 324.672119 43.072998 Q 325.083008 42.839355 325.620117 42.839355 Q 326.710449 42.839355 327.330811 43.682617 Q 327.951172 44.525879 327.951172 46.019043 Q 327.951172 47.485352 327.328125 48.320557 Q 326.705078 49.155762 325.620117 49.155762 Q 325.072266 49.155762 324.661377 48.922119 Q 324.250488 48.688477 324.014160 48.242676 Z M 326.914551 45.997559 Q 326.914551 44.848145 326.552002 44.262695 Q 326.189453 43.677246 325.475098 43.677246 Q 324.755371 43.677246 324.384766 44.265381 Q 324.014160 44.853516 324.014160 45.997559 Q 324.014160 47.136230 324.384766 47.727051 Q 324.755371 48.317871 325.475098 48.317871 Q 326.189453 48.317871 326.552002 47.732422 Q 326.914551 47.146973 326.914551 45.997559 Z " fill="black" fill-opacity="1.000000"/>
<path d="M 332.297852 41.276367 L 332.297852 42.984375 L 334.542969 42.984375 L 334.542969 43.752441 L 332.297852 43.752441 L 332.297852 47.018066 Q 332.297852 47.684082 332.550293 47.947266 Q 332.802734 48.210449 333.431152 48.210449 L 334.542969 48.210449 L 334.542969 49.000000 L 333.334473 49.000000 Q 332.222656 49.000000 331.766113 48.554199 Q 331.309570 48.108398 331.309570 47.018066 L 331.309570 43.752441 L 329.703613 43.752441 L 329.703613 42.984375 L 331.309570 42.984375 L 331.309570 41.276367 Z " fill="black" fill-opacity="1.000000"/>
<path d="M 338.341797 48.108398 Q 339.711426 48.108398 340.253906 47.434326 Q 340.796387 46.760254 340.796387 44.998535 Q 340.796387 43.220703 340.256592 42.546631 Q 339.716797 41.872559 338.341797 41.872559 L 337.826172 41.872559 L 337.826172 48.108398 Z M 338.363281 40.980957 Q 340.200195 40.980957 341.070312 41.958496 Q 341.940430 42.936035 341.940430 44.998535 Q 341.940430 47.050293 341.070312 48.025146 Q 340.200195 49.000000 338.363281 49.000000 L 336.735840 49.000000 L 336.735840 40.980957 Z " fill="black" fill-opacity="1.000000"/>
<path d="M 346.770508 45.976074 L 346.442871 45.976074 Q 345.578125 45.976074 345.140381 46.279541 Q 344.702637 46.583008 344.702637 47.184570 Q 344.702637 47.727051 345.030273 48.027832 Q 345.357910 48.328613 345.937988 48.328613 Q 346.754395 48.328613 347.221680 47.761963 Q 347.688965 47.195312 347.694336 46.196289 L 347.694336 45.976074 Z M 348.687988 45.567871 L 348.687988 49.000000 L 347.694336 49.000000 L 347.694336 48.108398 Q 347.377441 48.645508 346.896729 48.900635 Q 346.416016 49.155762 345.728516 49.155762 Q 344.810059 49.155762 344.262207 48.637451 Q 343.714355 48.119141 343.714355 47.249023 Q 343.714355 46.244629 344.388428 45.723633 Q 345.062500 45.202637 346.367676 45.202637 L 347.694336 45.202637 L 347.694336 45.046875 Q 347.688965 44.327148 347.329102 44.002197 Q 346.969238 43.677246 346.179688 43.677246 Q 345.674805 43.677246 345.159180 43.822266 Q 344.643555 43.967285 344.154785 44.246582 L 344.154785 43.258301 Q 344.702637 43.048828 345.204834 42.944092 Q 345.707031 42.839355 346.179688 42.839355 Q 346.926270 42.839355 347.455322 43.059570 Q 347.984375 43.279785 348.312012 43.720215 Q 348.516113 43.988770 348.602051 44.383545 Q 348.687988 44.778320 348.687988 45.567871 Z " fill="black" fill-opacity="1.000000"/>
<path d="M 353.297852 41.276367 L 353.297852 42.984375 L 355.542969 42.984375 L 355.542969 43.752441 L 353.297852 43.752441 L 353.297852 47.018066 Q 353.297852 47.684082 353.550293 47.947266 Q 353.802734 48.210449 354.431152 48.210449 L 355.542969 48.210449 L 355.542969 49.000000 L 354.334473 49.000000 Q 353.222656 49.000000 352.766113 48.554199 Q 352.309570 48.108398 352.309570 47.018066 L 352.309570 43.752441 L 350.703613 43.752441 L 350.703613 42.984375 L 352.309570 42.984375 L 352.309570 41.276367 Z " fill="black" fill-opacity="1.000000"/>
<path d="M 360.770508 45.976074 L 360.442871 45.976074 Q 359.578125 45.976074 359.140381 46.279541 Q 358.702637 46.583008 358.702637 47.184570 Q 358.702637 47.727051 359.030273 48.027832 Q 359.357910 48.328613 359.937988 48.328613 Q 360.754395 48.328613 361.221680 47.761963 Q 361.688965 47.195312 361.694336 46.196289 L 361.694336 45.976074 Z M 362.687988 45.567871 L 362.687988 49.000000 L 361.694336 49.000000 L 361.694336 48.108398 Q 361.377441 48.645508 360.896729 48.900635 Q 360.416016 49.155762 359.728516 49.155762 Q 358.810059 49.155762 358.262207 48.637451 Q 357.714355 48.119141 357.714355 47.249023 Q 357.714355 46.244629 358.388428 45.723633 Q 359.062500 45.202637 360.367676 45.202637 L 361.694336 45.202637 L 361.694336 45.046875 Q 361.688965 44.327148 361.329102 44.002197 Q 360.969238 43.677246 360.179688 43.677246 Q 359.674805 43.677246 359.159180 43.822266 Q 358.643555 43.967285 358.154785 44.246582 L 358.154785 43.258301 Q 358.702637 43.048828 359.204834 42.944092 Q 359.707031 42.839355 360.179688 42.839355 Q 360.926270 42.839355 361.455322 43.059570 Q 361.984375 43.279785 362.312012 43.720215 Q 362.516113 43.988770 362.602051 44.383545 Q 362.687988 44.778320 362.687988 45.567871 Z " fill="black" fill-opacity="1.000000"/>
<path d="M 450.878906 52.319336 L 450.878906 38.300781 L 451.738281 38.300781 L 451.738281 52.319336 Z " fill="black" fill-opacity="1.000000"/>
<path d="M 6.892578 33.335938 L 6.892578 32.412109 L 13.729980 32.412109 L 13.729980 33.335938 Z " fill="black" fill-opacity="1.000000"/>
<path d="M 13.892578 33.335938 L 13.892578 32.412109 L 16.878906 32.412109 L 16.878906 25.300781 L 17.738281 25.300781 L 17.738281 32.412109 L 20.729980 32.412109 L 20.729980 33.335938 Z " fill="black" fill-opacity="1.000000"/>
<path d="M 20.892578 33.335938 L 20.892578 32.412109 L 27.729980 32.412109 L 27.729980 33.335938 Z " fill="black" fill-opacity="1.000000"/>
<path d="M 27.892578 33.335938 L 27.892578 32.412109 L 30.878906 32.412109 L 30.878906 25.300781 L 31.738281 25.300781 L 31.738281 32.412109 L 34.729980 32.412109 L 34.729980 33.335938 Z " fill="black" fill-opacity="1.000000"/>
<path d="M 34.892578 33.335938 L 34.892578 32.412109 L 41.729980 32.412109 L 41.729980 33.335938 Z " fill="black" fill-opacity="1.000000"/>
<path d="M 41.892578 33.335938 L 41.892578 32.412109 L 44.878906 32.412109 L 44.878906 25.300781 L 45.738281 25.300781 L 45.738281 32.412109 L 48.729980 32.412109 L 48.729980 33.335938 Z " fill="black" fill-opacity="1.000000"/>
<path d="M 48.892578 33.335938 L 48.892578 32.412109 L 55.729980 32.412109 L 55.729980 33.335938 Z " fill="black" fill-opacity="1.000000"/>
<path d="M 55.892578 33.335938 L 55.892578 32.412109 L 58.878906 32.412109 L 58.878906 25.300781 L 59.738281 25.300781 L 59.738281 32.412109 L 62.729980 32.412109 L 62.729980 33.335938 Z " fill="black" fill-opacity="1.000000"/>
<path d="M 62.892578 33.335938 L 62.892578 32.412109 L 69.729980 32.412109 L 69.729980 33.335938 Z " fill="black" fill-opacity="1.000000"/>
<path d="M 69.892578 33.335938 L 69.892578 32.412109 L 72.878906 32.412109 L 72.878906 25.300781 L 73.738281 25.300781 L 73.738281 32.412109 L 76.729980 32.412109 L 76.729980 33.335938 Z " fill="black" fill-opacity="1.000000"/>
<path d="M 76.892578 33.335938 L 76.892578 32.412109 L 83.729980 32.412109 L 83.729980 33.335938 Z " fill="black" fill-opacity="1.000000"/>
<path d="M 83.892578 33.335938 L 83.892578 32.412109 L 86.878906 32.412109 L 86.878906 25.300781 L 87.738281 25.300781 L 87.738281 32.412109 L 90.729980 32.412109 L 90.729980 33.335938 Z " fill="black" fill-opacity="1.000000"/>
<path d="M 90.892578 33.335938 L 90.892578 32.412109 L 97.729980 32.412109 L 97.729980 33.335938 Z " fill="black" fill-opacity="1.000000"/>
<path d="M 97.892578 33.335938 L 97.892578 32.412109 L 100.878906 32.412109 L 100.878906 25.300781 L 101.738281 25.300781 L 101.738281 32.412109 L 104.729980 32.412109 L 104.729980 33.335938 Z " fill="black" fill-opacity="1.000000"/>
<path d="M 104.892578 33.335938 L 104.892578 32.412109 L 111.729980 32.412109 L 111.729980 33.335938 Z " fill="black" fill-opacity="1.000000"/>
<path d="M 115.738281 33.335938 L 115.738281 39.319336 L 114.878906 39.319336 L 114.878906 33.335938 L 111.892578 33.335938 L 111.892578 32.412109 L 114.878906 32.412109 L 114.878906 25.300781 L 115.738281 25.300781 L 115.738281 32.412109 L 118.729980 32.412109 L 118.729980 33.335938 Z " fill="black" fill-opacity="1.000000"/>
<path d="M 118.892578 33.335938 L 118.892578 32.412109 L 125.729980 32.412109 L 125.729980 33.335938 Z " fill="black" fill-opacity="1.000000"/>
<path d="M 125.892578 33.335938 L 125.892578 32.412109 L 128.878906 32.412109 L 128.878906 25.300781 L 129.738281 25.300781 L 129.738281 32.412109 L 132.729980 32.412109 L 132.729980 33.335938 Z " fill="black" fill-opacity="1.000000"/>
<path d="M 132.892578 33.335938 L 132.892578 32.412109 L 139.729980 32.412109 L 139.729980 33.335938 Z " fill="black" fill-opacity="1.000000"/>
<path d="M 139.892578 33.335938 L 139.892578 32.412109 L 142.878906 32.412109 L 142.878906 25.300781 L 143.738281 25.300781 L 143.738281 32.412109 L 146.729980 32.412109 L 146.729980 33.335938 Z " fill="black" fill-opacity="1.000000"/>
<path d="M 146.892578 33.335938 L 146.892578 32.412109 L 153.729980 32.412109 L 153.729980 33.335938 Z " fill="black" fill-opacity="1.000000"/>
<path d="M 153.892578 33.335938 L 153.892578 32.412109 L 156.878906 32.412109 L 156.878906 25.300781 L 157.738281 25.300781 L 157.738281 32.412109 L 160.729980 32.412109 L 160.729980 33.335938 Z " fill="black" fill-opacity="1.000000"/>
<path d="M 160.892578 33.335938 L 160.892578 32.412109 L 167.729980 32.412109 L 167.729980 33.335938 Z " fill="black" fill-opacity="1.000000"/>
<path d="M 167.892578 33.335938 L 167.892578 32.412109 L 170.878906 32.412109 L 170.878906 25.300781 L 171.738281 25.300781 L 171.738281 32.412109 L 174.729980 32.412109 L 174.729980 33.335938 Z " fill="black" fill-opacity="1.000000"/>
<path d="M 174.892578 33.335938 L 174.892578 32.412109 L 181.729980 32.412109 L 181.729980 33.335938 Z " fill="black" fill-opacity="1.000000"/>
<path d="M 181.892578 33.335938 L 181.892578 32.412109 L 184.878906 32.412109 L 184.878906 25.300781 L 185.738281 25.300781 L 185.738281 32.412109 L 188.729980 32.412109 L 188.729980 33.335938 Z " fill="black" fill-opacity="1.000000"/>
<path d="M 188.892578 33.335938 L 188.892578 32.412109 L 195.729980 32.412109 L 195.729980 33.335938 Z " fill="black" fill-opacity="1.000000"/>
<path d="M 195.892578 33.335938 L 195.892578 32.412109 L 198.878906 32.412109 L 198.878906 25.300781 L 199.738281 25.300781 L 199.738281 32.412109 L 202.729980 32.412109 L 202.729980 33.335938 Z " fill="black" fill-opacity="1.000000"/>
<path d="M 202.892578 33.335938 L 202.892578 32.412109 L 209.729980 32.412109 L 209.729980 33.335938 Z " fill="black" fill-opacity="1.000000"/>
<path d="M 209.892578 33.335938 L 209.892578 32.412109 L 212.878906 32.412109 L 212.878906 25.300781 L 213.738281 25.300781 L 213.738281 32.412109 L 216.729980 32.412109 L 216.729980 33.335938 Z " fill="black" fill-opacity="1.000000"/>
<path d="M 216.892578 33.335938 L 216.892578 32.412109 L 223.729980 32.412109 L 223.729980 33.335938 Z " fill="black" fill-opacity="1.000000"/>
<path d="M 227.738281 33.335938 L 227.738281 39.319336 L 226.878906 39.319336 L 226.878906 33.335938 L 223.892578 33.335938 L 223.892578 32.412109 L 226.878906 32.412109 L 226.878906 25.300781 L 227.738281 25.300781 L 227.738281 32.412109 L 230.729980 32.412109 L 230.729980 33.335938 Z " fill="black" fill-opacity="1.000000"/>
<path d="M 230.892578 33.335938 L 230.892578 32.412109 L 237.729980 32.412109 L 237.729980 33.335938 Z " fill="black" fill-opacity="1.000000"/>
<path d="M 237.892578 33.335938 L 237.892578 32.412109 L 240.878906 32.412109 L 240.878906 25.300781 L 241.738281 25.300781 L 241.738281 32.412109 L 244.729980 32.412109 L 244.729980 33.335938 Z " fill="black" fill-opacity="1.000000"/>
<path d="M 244.892578 33.335938 L 244.892578 32.412109 L 251.729980 32.412109 L 251.729980 33.335938 Z " fill="black" fill-opacity="1.000000"/>
<path d="M 251.892578 33.335938 L 251.892578 32.412109 L 254.878906 32.412109 L 254.878906 25.300781 L 255.738281 25.300781 L 255.738281 32.412109 L 258.729980 32.412109 L 258.729980 33.335938 Z " fill="black" fill-opacity="1.000000"/>
<path d="M 258.892578 33.335938 L 258.892578 32.412109 L 265.729980 32.412109 L 265.729980 33.335938 Z " fill="black" fill-opacity="1.000000"/>
<path d="M 265.892578 33.335938 L 265.892578 32.412109 L 268.878906 32.412109 L 268.878906 25.300781 L 269.738281 25.300781 L 269.738281 32.412109 L 272.729980 32.412109 L 272.729980 33.335938 Z " fill="black" fill-opacity="1.000000"/>
<path d="M 272.892578 33.335938 L 272.892578 32.412109 L 279.729980 32.412109 L 279.729980 33.335938 Z " fill="black" fill-opacity="1.000000"/>
<path d="M 279.892578 33.335938 L 279.892578 32.412109 L 282.878906 32.412109 L 282.878906 25.300781 L 283.738281 25.300781 L 283.738281 32.412109 L 286.729980 32.412109 L 286.729980 33.335938 Z " fill="black" fill-opacity="1.000000"/>
<path d="M 286.892578 33.335938 L 286.892578 32.412109 L 293.729980 32.412109 L 293.729980 33.335938 Z " fill="black" fill-opacity="1.000000"/>
<path d="M 293.892578 33.335938 L 293.892578 32.412109 L 296.878906 32.412109 L 296.878906 25.300781 L 297.738281 25.300781 L 297.738281 32.412109 L 300.729980 32.412109 L 300.729980 33.335938 Z " fill="black" fill-opacity="1.000000"/>
<path d="M 300.892578 33.335938 L 300.892578 32.412109 L 307.729980 32.412109 L 307.729980 33.335938 Z " fill="black" fill-opacity="1.000000"/>
<path d="M 307.892578 33.335938 L 307.892578 32.412109 L 310.878906 32.412109 L 310.878906 25.300781 L 311.738281 25.300781 L 311.738281 32.412109 L 314.729980 32.412109 L 314.729980 33.335938 Z " fill="black" fill-opacity="1.000000"/>
<path d="M 314.892578 33.335938 L 314.892578 32.412109 L 321.729980 32.412109 L 321.729980 33.335938 Z " fill="black" fill-opacity="1.000000"/>
<path d="M 321.892578 33.335938 L 321.892578 32.412109 L 324.878906 32.412109 L 324.878906 25.300781 L 325.738281 25.300781 L 325.738281 32.412109 L 328.729980 32.412109 L 328.729980 33.335938 Z " fill="black" fill-opacity="1.000000"/>
<path d="M 328.892578 33.335938 L 328.892578 32.412109 L 335.729980 32.412109 L 335.729980 33.335938 Z " fill="black" fill-opacity="1.000000"/>
<path d="M 335.892578 33.335938 L 335.892578 32.412109 L 338.878906 32.412109 L 338.878906 25.300781 L 339.738281 25.300781 L 339.738281 32.412109 L 342.729980 32.412109 L 342.729980 33.335938 Z " fill="black" fill-opacity="1.000000"/>
<path d="M 342.892578 33.335938 L 342.892578 32.412109 L 349.729980 32.412109 L 349.729980 33.335938 Z " fill="black" fill-opacity="1.000000"/>
<path d="M 349.892578 33.335938 L 349.892578 32.412109 L 352.878906 32.412109 L 352.878906 25.300781 L 353.738281 25.300781 L 353.738281 32.412109 L 356.729980 32.412109 L 356.729980 33.335938 Z " fill="black" fill-opacity="1.000000"/>
<path d="M 356.892578 33.335938 L 356.892578 32.412109 L 363.729980 32.412109 L 363.729980 33.335938 Z " fill="black" fill-opacity="1.000000"/>
<path d="M 363.892578 33.335938 L 363.892578 32.412109 L 366.878906 32.412109 L 366.878906 25.300781 L 367.738281 25.300781 L 367.738281 32.412109 L 370.729980 32.412109 L 370.729980 33.335938 Z " fill="black" fill-opacity="1.000000"/>
<path d="M 370.892578 33.335938 L 370.892578 32.412109 L 377.729980 32.412109 L 377.729980 33.335938 Z " fill="black" fill-opacity="1.000000"/>
<path d="M 377.892578 33.335938 L 377.892578 32.412109 L 380.878906 32.412109 L 380.878906 25.300781 L 381.738281 25.300781 L 381.738281 32.412109 L 384.729980 32.412109 L 384.729980 33.335938 Z " fill="black" fill-opacity="1.000000"/>
<path d="M 384.892578 33.335938 L 384.892578 32.412109 L 391.729980 32.412109 L 391.729980 33.335938 Z " fill="black" fill-opacity="1.000000"/>
<path d="M 391.892578 33.335938 L 391.892578 32.412109 L 394.878906 32.412109 L 394.878906 25.300781 L 395.738281 25.300781 L 395.738281 32.412109 L 398.729980 32.412109 L 398.729980 33.335938 Z " fill="black" fill-opacity="1.000000"/>
<path d="M 398.892578 33.335938 L 398.892578 32.412109 L 405.729980 32.412109 L 405.729980 33.335938 Z " fill="black" fill-opacity="1.000000"/>
<path d="M 405.892578 33.335938 L 405.892578 32.412109 L 408.878906 32.412109 L 408.878906 25.300781 L 409.738281 25.300781 L 409.738281 32.412109 L 412.729980 32.412109 L 412.729980 33.335938 Z " fill="black" fill-opacity="1.000000"/>
<path d="M 412.892578 33.335938 L 412.892578 32.412109 L 419.729980 32.412109 L 419.729980 33.335938 Z " fill="black" fill-opacity="1.000000"/>
<path d="M 419.892578 33.335938 L 419.892578 32.412109 L 422.878906 32.412109 L 422.878906 25.300781 L 423.738281 25.300781 L 423.738281 32.412109 L 426.729980 32.412109 L 426.729980 33.335938 Z " fill="black" fill-opacity="1.000000"/>
<path d="M 426.892578 33.335938 L 426.892578 32.412109 L 433.729980 32.412109 L 433.729980 33.335938 Z " fill="black" fill-opacity="1.000000"/>
<path d="M 433.892578 33.335938 L 433.892578 32.412109 L 436.878906 32.412109 L 436.878906 25.300781 L 437.738281 25.300781 L 437.738281 32.412109 L 440.729980 32.412109 L 440.729980 33.335938 Z " fill="black" fill-opacity="1.000000"/>
<path d="M 440.892578 33.335938 L 440.892578 32.412109 L 447.729980 32.412109 L 447.729980 33.335938 Z " fill="black" fill-opacity="1.000000"/>
<path d="M 450.878906 39.319336 L 450.878906 33.335938 L 447.892578 33.335938 L 447.892578 32.412109 L 450.878906 32.412109 L 450.878906 25.300781 L 451.738281 25.300781 L 451.738281 39.319336 Z " fill="black" fill-opacity="1.000000"/>
<path d="M 10.308594 1.862793 Q 11.592285 1.862793 12.250244 2.910156 Q 12.908203 3.957520 12.908203 6.009277 Q 12.908203 8.061035 12.250244 9.108398 Q 11.592285 10.155762 10.308594 10.155762 Q 9.024902 10.155762 8.369629 9.108398 Q 7.714355 8.061035 7.714355 6.009277 Q 7.714355 3.957520 8.369629 2.910156 Q 9.024902 1.862793 10.308594 1.862793 Z M 10.308594 9.296387 Q 11.071289 9.296387 11.444580 8.485352 Q 11.817871 7.674316 11.817871 6.009277 Q 11.817871 5.123047 11.710449 4.408691 L 9.153809 8.410156 Q 9.556641 9.296387 10.308594 9.296387 Z M 10.308594 2.722168 Q 9.551270 2.722168 9.177979 3.533203 Q 8.804688 4.344238 8.804688 6.009277 Q 8.804688 6.766602 8.906738 7.427246 L 11.409668 3.436523 Q 11.001465 2.722168 10.308594 2.722168 Z " fill="black" fill-opacity="1.000000"/>
<path d="M 10.308594 14.862793 Q 11.592285 14.862793 12.250244 15.910156 Q 12.908203 16.957520 12.908203 19.009277 Q 12.908203 21.061035 12.250244 22.108398 Q 11.592285 23.155762 10.308594 23.155762 Q 9.024902 23.155762 8.369629 22.108398 Q 7.714355 21.061035 7.714355 19.009277 Q 7.714355 16.957520 8.369629 15.910156 Q 9.024902 14.862793 10.308594 14.862793 Z M 10.308594 22.296387 Q 11.071289 22.296387 11.444580 21.485352 Q 11.817871 20.674316 11.817871 19.009277 Q 11.817871 18.123047 11.710449 17.408691 L 9.153809 21.410156 Q 9.556641 22.296387 10.308594 22.296387 Z M 10.308594 15.722168 Q 9.551270 15.722168 9.177979 16.533203 Q 8.804688 17.344238 8.804688 19.009277 Q 8.804688 19.766602 8.906738 20.427246 L 11.409668 16.436523 Q 11.001465 15.722168 10.308594 15.722168 Z " fill="black" fill-opacity="1.000000"/>
<path d="M 22.450195 22.092285 L 24.136719 22.092285 L 24.136719 16.033691 L 22.117188 17.005859 L 22.117188 15.963867 L 24.125977 15.007812 L 25.210938 15.007812 L 25.210938 22.092285 L 26.875977 22.092285 L 26.875977 23.000000 L 22.450195 23.000000 Z " fill="black" fill-opacity="1.000000"/>
<path d="M 37.003418 22.086914 L 40.687988 22.086914 L 40.687988 23.000000 L 35.816406 23.000000 L 35.816406 22.086914 Q 36.820801 21.028809 37.572754 20.217773 Q 38.324707 19.406738 38.609375 19.073730 Q 39.146484 18.418457 39.334473 18.012939 Q 39.522461 17.607422 39.522461 17.183105 Q 39.522461 16.511719 39.127686 16.130371 Q 38.732910 15.749023 38.045410 15.749023 Q 37.556641 15.749023 37.019531 15.926270 Q 36.482422 16.103516 35.880859 16.463379 L 35.880859 15.367676 Q 36.434082 15.104492 36.968506 14.970215 Q 37.502930 14.835938 38.023926 14.835938 Q 39.200195 14.835938 39.917236 15.461670 Q 40.634277 16.087402 40.634277 17.102539 Q 40.634277 17.618164 40.395264 18.133789 Q 40.156250 18.649414 39.619141 19.272461 Q 39.318359 19.621582 38.746338 20.239258 Q 38.174316 20.856934 37.003418 22.086914 Z " fill="black" fill-opacity="1.000000"/>
<path d="M 53.167969 18.708496 Q 53.957520 18.917969 54.376465 19.452393 Q 54.795410 19.986816 54.795410 20.787109 Q 54.795410 21.893555 54.051514 22.524658 Q 53.307617 23.155762 51.991699 23.155762 Q 51.438477 23.155762 50.863770 23.053711 Q 50.289062 22.951660 49.735840 22.758301 L 49.735840 21.678711 Q 50.283691 21.963379 50.815430 22.103027 Q 51.347168 22.242676 51.873535 22.242676 Q 52.765137 22.242676 53.243164 21.839844 Q 53.721191 21.437012 53.721191 20.679688 Q 53.721191 19.981445 53.243164 19.570557 Q 52.765137 19.159668 51.948730 19.159668 L 51.121582 19.159668 L 51.121582 18.268066 L 51.948730 18.268066 Q 52.695312 18.268066 53.114258 17.940430 Q 53.533203 17.612793 53.533203 17.027344 Q 53.533203 16.409668 53.143799 16.079346 Q 52.754395 15.749023 52.034668 15.749023 Q 51.556641 15.749023 51.046387 15.856445 Q 50.536133 15.963867 49.977539 16.178711 L 49.977539 15.179688 Q 50.627441 15.007812 51.135010 14.921875 Q 51.642578 14.835938 52.034668 14.835938 Q 53.205566 14.835938 53.906494 15.424072 Q 54.607422 16.012207 54.607422 16.984375 Q 54.607422 17.645020 54.239502 18.085449 Q 53.871582 18.525879 53.167969 18.708496 Z " fill="black" fill-opacity="1.000000"/>
<path d="M 66.947754 15.969238 L 64.417969 20.207031 L 66.947754 20.207031 Z M 66.770508 14.980957 L 68.027344 14.980957 L 68.027344 20.207031 L 69.096191 20.207031 L 69.096191 21.087891 L 68.027344 21.087891 L 68.027344 23.000000 L 66.947754 23.000000 L 66.947754 21.087891 L 63.547852 21.087891 L 63.547852 20.062012 Z " fill="black" fill-opacity="1.000000"/>
<path d="M 78.111816 14.980957 L 82.172363 14.980957 L 82.172363 15.894043 L 79.100098 15.894043 L 79.100098 17.865234 Q 79.331055 17.779297 79.564697 17.739014 Q 79.798340 17.698730 80.034668 17.698730 Q 81.280762 17.698730 82.011230 18.434570 Q 82.741699 19.170410 82.741699 20.427246 Q 82.741699 21.694824 81.976318 22.425293 Q 81.210938 23.155762 79.884277 23.155762 Q 79.245117 23.155762 78.716064 23.069824 Q 78.187012 22.983887 77.768066 22.812012 L 77.768066 21.710938 Q 78.262207 21.979492 78.761719 22.111084 Q 79.261230 22.242676 79.782227 22.242676 Q 80.679199 22.242676 81.165283 21.770020 Q 81.651367 21.297363 81.651367 20.427246 Q 81.651367 19.567871 81.149170 19.089844 Q 80.646973 18.611816 79.750000 18.611816 Q 79.314941 18.611816 78.901367 18.711182 Q 78.487793 18.810547 78.111816 19.009277 Z " fill="black" fill-opacity="1.000000"/>
<path d="M 96.322754 15.158203 L 96.322754 16.157227 Q 95.984375 15.958496 95.603027 15.853760 Q 95.221680 15.749023 94.808105 15.749023 Q 93.776855 15.749023 93.245117 16.525146 Q 92.713379 17.301270 92.713379 18.810547 Q 92.971191 18.273438 93.427734 17.986084 Q 93.884277 17.698730 94.475098 17.698730 Q 95.635254 17.698730 96.271729 18.410400 Q 96.908203 19.122070 96.908203 20.427246 Q 96.908203 21.727051 96.252930 22.441406 Q 95.597656 23.155762 94.410645 23.155762 Q 93.014160 23.155762 92.364258 22.154053 Q 91.714355 21.152344 91.714355 18.998535 Q 91.714355 16.968262 92.495850 15.902100 Q 93.277344 14.835938 94.759766 14.835938 Q 95.157227 14.835938 95.554688 14.919189 Q 95.952148 15.002441 96.322754 15.158203 Z M 94.389160 18.547363 Q 93.696289 18.547363 93.298828 19.046875 Q 92.901367 19.546387 92.901367 20.427246 Q 92.901367 21.308105 93.298828 21.807617 Q 93.696289 22.307129 94.389160 22.307129 Q 95.108887 22.307129 95.474121 21.831787 Q 95.839355 21.356445 95.839355 20.427246 Q 95.839355 19.492676 95.474121 19.020020 Q 95.108887 18.547363 94.389160 18.547363 Z " fill="black" fill-opacity="1.000000"/>
<path d="M 105.746582 14.980957 L 110.795410 14.980957 L 110.795410 15.442871 L 107.927246 23.000000 L 106.793945 23.000000 L 109.586914 15.894043 L 105.746582 15.894043 Z " fill="black" fill-opacity="1.000000"/>
<path d="M 122.308594 19.191895 Q 121.583496 19.191895 121.188721 19.597412 Q 120.793945 20.002930 120.793945 20.744141 Q 120.793945 21.485352 121.194092 21.896240 Q 121.594238 22.307129 122.308594 22.307129 Q 123.039062 22.307129 123.433838 21.901611 Q 123.828613 21.496094 123.828613 20.744141 Q 123.828613 20.008301 123.428467 19.600098 Q 123.028320 19.191895 122.308594 19.191895 Z M 121.363281 18.740723 Q 120.670410 18.563477 120.281006 18.080078 Q 119.891602 17.596680 119.891602 16.914551 Q 119.891602 15.958496 120.541504 15.397217 Q 121.191406 14.835938 122.308594 14.835938 Q 123.431152 14.835938 124.081055 15.397217 Q 124.730957 15.958496 124.730957 16.914551 Q 124.730957 17.596680 124.341553 18.080078 Q 123.952148 18.563477 123.259277 18.740723 Q 124.064941 18.917969 124.491943 19.455078 Q 124.918945 19.992188 124.918945 20.846191 Q 124.918945 21.931152 124.226074 22.543457 Q 123.533203 23.155762 122.308594 23.155762 Q 121.083984 23.155762 120.393799 22.546143 Q 119.703613 21.936523 119.703613 20.856934 Q 119.703613 19.997559 120.130615 19.457764 Q 120.557617 18.917969 121.363281 18.740723 Z M 120.971191 17.016602 Q 120.971191 17.661133 121.314941 17.999512 Q 121.658691 18.337891 122.308594 18.337891 Q 122.963867 18.337891 123.307617 17.999512 Q 123.651367 17.661133 123.651367 17.016602 Q 123.651367 16.361328 123.310303 16.017578 Q 122.969238 15.673828 122.308594 15.673828 Q 121.658691 15.673828 121.314941 16.020264 Q 120.971191 16.366699 120.971191 17.016602 Z " fill="black" fill-opacity="1.000000"/>
<path d="M 136.201172 19.444336 Q 136.894043 19.444336 137.288818 18.944824 Q 137.683594 18.445312 137.683594 17.564453 Q 137.683594 16.683594 137.288818 16.184082 Q 136.894043 15.684570 136.201172 15.684570 Q 135.481445 15.684570 135.116211 16.159912 Q 134.750977 16.635254 134.750977 17.564453 Q 134.750977 18.499023 135.113525 18.971680 Q 135.476074 19.444336 136.201172 19.444336 Z M 134.267578 22.833496 L 134.267578 21.834473 Q 134.605957 22.033203 134.987305 22.137939 Q 135.368652 22.242676 135.782227 22.242676 Q 136.813477 22.242676 137.342529 21.466553 Q 137.871582 20.690430 137.871582 19.181152 Q 137.619141 19.718262 137.162598 20.005615 Q 136.706055 20.292969 136.115234 20.292969 Q 134.955078 20.292969 134.318604 19.578613 Q 133.682129 18.864258 133.682129 17.553711 Q 133.682129 16.259277 134.334717 15.547607 Q 134.987305 14.835938 136.179688 14.835938 Q 137.576172 14.835938 138.226074 15.840332 Q 138.875977 16.844727 138.875977 18.998535 Q 138.875977 21.023438 138.094482 22.089600 Q 137.312988 23.155762 135.825195 23.155762 Q 135.433105 23.155762 135.035645 23.072510 Q 134.638184 22.989258 134.267578 22.833496 Z " fill="black" fill-opacity="1.000000"/>
<path d="M 150.308594 14.862793 Q 151.592285 14.862793 152.250244 15.910156 Q 152.908203 16.957520 152.908203 19.009277 Q 152.908203 21.061035 152.250244 22.108398 Q 151.592285 23.155762 150.308594 23.155762 Q 149.024902 23.155762 148.369629 22.108398 Q 147.714355 21.061035 147.714355 19.009277 Q 147.714355 16.957520 148.369629 15.910156 Q 149.024902 14.862793 150.308594 14.862793 Z M 150.308594 22.296387 Q 151.071289 22.296387 151.444580 21.485352 Q 151.817871 20.674316 151.817871 19.009277 Q 151.817871 18.123047 151.710449 17.408691 L 149.153809 21.410156 Q 149.556641 22.296387 150.308594 22.296387 Z M 150.308594 15.722168 Q 149.551270 15.722168 149.177979 16.533203 Q 148.804688 17.344238 148.804688 19.009277 Q 148.804688 19.766602 148.906738 20.427246 L 151.409668 16.436523 Q 151.001465 15.722168 150.308594 15.722168 Z " fill="black" fill-opacity="1.000000"/>
<path d="M 162.450195 22.092285 L 164.136719 22.092285 L 164.136719 16.033691 L 162.117188 17.005859 L 162.117188 15.963867 L 164.125977 15.007812 L 165.210938 15.007812 L 165.210938 22.092285 L 166.875977 22.092285 L 166.875977 23.000000 L 162.450195 23.000000 Z " fill="black" fill-opacity="1.000000"/>
<path d="M 177.003418 22.086914 L 180.687988 22.086914 L 180.687988 23.000000 L 175.816406 23.000000 L 175.816406 22.086914 Q 176.820801 21.028809 177.572754 20.217773 Q 178.324707 19.406738 178.609375 19.073730 Q 179.146484 18.418457 179.334473 18.012939 Q 179.522461 17.607422 179.522461 17.183105 Q 179.522461 16.511719 179.127686 16.130371 Q 178.732910 15.749023 178.045410 15.749023 Q 177.556641 15.749023 177.019531 15.926270 Q 176.482422 16.103516 175.880859 16.463379 L 175.880859 15.367676 Q 176.434082 15.104492 176.968506 14.970215 Q 177.502930 14.835938 178.023926 14.835938 Q 179.200195 14.835938 179.917236 15.461670 Q 180.634277 16.087402 180.634277 17.102539 Q 180.634277 17.618164 180.395264 18.133789 Q 180.156250 18.649414 179.619141 19.272461 Q 179.318359 19.621582 178.746338 20.239258 Q 178.174316 20.856934 177.003418 22.086914 Z " fill="black" fill-opacity="1.000000"/>
<path d="M 193.167969 18.708496 Q 193.957520 18.917969 194.376465 19.452393 Q 194.795410 19.986816 194.795410 20.787109 Q 194.795410 21.893555 194.051514 22.524658 Q 193.307617 23.155762 191.991699 23.155762 Q 191.438477 23.155762 190.863770 23.053711 Q 190.289062 22.951660 189.735840 22.758301 L 189.735840 21.678711 Q 190.283691 21.963379 190.815430 22.103027 Q 191.347168 22.242676 191.873535 22.242676 Q 192.765137 22.242676 193.243164 21.839844 Q 193.721191 21.437012 193.721191 20.679688 Q 193.721191 19.981445 193.243164 19.570557 Q 192.765137 19.159668 191.948730 19.159668 L 191.121582 19.159668 L 191.121582 18.268066 L 191.948730 18.268066 Q 192.695312 18.268066 193.114258 17.940430 Q 193.533203 17.612793 193.533203 17.027344 Q 193.533203 16.409668 193.143799 16.079346 Q 192.754395 15.749023 192.034668 15.749023 Q 191.556641 15.749023 191.046387 15.856445 Q 190.536133 15.963867 189.977539 16.178711 L 189.977539 15.179688 Q 190.627441 15.007812 191.135010 14.921875 Q 191.642578 14.835938 192.034668 14.835938 Q 193.205566 14.835938 193.906494 15.424072 Q 194.607422 16.012207 194.607422 16.984375 Q 194.607422 17.645020 194.239502 18.085449 Q 193.871582 18.525879 193.167969 18.708496 Z " fill="black" fill-opacity="1.000000"/>
<path d="M 206.947754 15.969238 L 204.417969 20.207031 L 206.947754 20.207031 Z M 206.770508 14.980957 L 208.027344 14.980957 L 208.027344 20.207031 L 209.096191 20.207031 L 209.096191 21.087891 L 208.027344 21.087891 L 208.027344 23.000000 L 206.947754 23.000000 L 206.947754 21.087891 L 203.547852 21.087891 L 203.547852 20.062012 Z " fill="black" fill-opacity="1.000000"/>
<path d="M 218.111816 14.980957 L 222.172363 14.980957 L 222.172363 15.894043 L 219.100098 15.894043 L 219.100098 17.865234 Q 219.331055 17.779297 219.564697 17.739014 Q 219.798340 17.698730 220.034668 17.698730 Q 221.280762 17.698730 222.011230 18.434570 Q 222.741699 19.170410 222.741699 20.427246 Q 222.741699 21.694824 221.976318 22.425293 Q 221.210938 23.155762 219.884277 23.155762 Q 219.245117 23.155762 218.716064 23.069824 Q 218.187012 22.983887 217.768066 22.812012 L 217.768066 21.710938 Q 218.262207 21.979492 218.761719 22.111084 Q 219.261230 22.242676 219.782227 22.242676 Q 220.679199 22.242676 221.165283 21.770020 Q 221.651367 21.297363 221.651367 20.427246 Q 221.651367 19.567871 221.149170 19.089844 Q 220.646973 18.611816 219.750000 18.611816 Q 219.314941 18.611816 218.901367 18.711182 Q 218.487793 18.810547 218.111816 19.009277 Z " fill="black" fill-opacity="1.000000"/>
<path d="M 236.322754 15.158203 L 236.322754 16.157227 Q 235.984375 15.958496 235.603027 15.853760 Q 235.221680 15.749023 234.808105 15.749023 Q 233.776855 15.749023 233.245117 16.525146 Q 232.713379 17.301270 232.713379 18.810547 Q 232.971191 18.273438 233.427734 17.986084 Q 233.884277 17.698730 234.475098 17.698730 Q 235.635254 17.698730 236.271729 18.410400 Q 236.908203 19.122070 236.908203 20.427246 Q 236.908203 21.727051 236.252930 22.441406 Q 235.597656 23.155762 234.410645 23.155762 Q 233.014160 23.155762 232.364258 22.154053 Q 231.714355 21.152344 231.714355 18.998535 Q 231.714355 16.968262 232.495850 15.902100 Q 233.277344 14.835938 234.759766 14.835938 Q 235.157227 14.835938 235.554688 14.919189 Q 235.952148 15.002441 236.322754 15.158203 Z M 234.389160 18.547363 Q 233.696289 18.547363 233.298828 19.046875 Q 232.901367 19.546387 232.901367 20.427246 Q 232.901367 21.308105 233.298828 21.807617 Q 233.696289 22.307129 234.389160 22.307129 Q 235.108887 22.307129 235.474121 21.831787 Q 235.839355 21.356445 235.839355 20.427246 Q 235.839355 19.492676 235.474121 19.020020 Q 235.108887 18.547363 234.389160 18.547363 Z " fill="black" fill-opacity="1.000000"/>
<path d="M 245.746582 14.980957 L 250.795410 14.980957 L 250.795410 15.442871 L 247.927246 23.000000 L 246.793945 23.000000 L 249.586914 15.894043 L 245.746582 15.894043 Z " fill="black" fill-opacity="1.000000"/>
<path d="M 262.308594 19.191895 Q 261.583496 19.191895 261.188721 19.597412 Q 260.793945 20.002930 260.793945 20.744141 Q 260.793945 21.485352 261.194092 21.896240 Q 261.594238 22.307129 262.308594 22.307129 Q 263.039062 22.307129 263.433838 21.901611 Q 263.828613 21.496094 263.828613 20.744141 Q 263.828613 20.008301 263.428467 19.600098 Q 263.028320 19.191895 262.308594 19.191895 Z M 261.363281 18.740723 Q 260.670410 18.563477 260.281006 18.080078 Q 259.891602 17.596680 259.891602 16.914551 Q 259.891602 15.958496 260.541504 15.397217 Q 261.191406 14.835938 262.308594 14.835938 Q 263.431152 14.835938 264.081055 15.397217 Q 264.730957 15.958496 264.730957 16.914551 Q 264.730957 17.596680 264.341553 18.080078 Q 263.952148 18.563477 263.259277 18.740723 Q 264.064941 18.917969 264.491943 19.455078 Q 264.918945 19.992188 264.918945 20.846191 Q 264.918945 21.931152 264.226074 22.543457 Q 263.533203 23.155762 262.308594 23.155762 Q 261.083984 23.155762 260.393799 22.546143 Q 259.703613 21.936523 259.703613 20.856934 Q 259.703613 19.997559 260.130615 19.457764 Q 260.557617 18.917969 261.363281 18.740723 Z M 260.971191 17.016602 Q 260.971191 17.661133 261.314941 17.999512 Q 261.658691 18.337891 262.308594 18.337891 Q 262.963867 18.337891 263.307617 17.999512 Q 263.651367 17.661133 263.651367 17.016602 Q 263.651367 16.361328 263.310303 16.017578 Q 262.969238 15.673828 262.308594 15.673828 Q 261.658691 15.673828 261.314941 16.020264 Q 260.971191 16.366699 260.971191 17.016602 Z " fill="black" fill-opacity="1.000000"/>
<path d="M 276.201172 19.444336 Q 276.894043 19.444336 277.288818 18.944824 Q 277.683594 18.445312 277.683594 17.564453 Q 277.683594 16.683594 277.288818 16.184082 Q 276.894043 15.684570 276.201172 15.684570 Q 275.481445 15.684570 275.116211 16.159912 Q 274.750977 16.635254 274.750977 17.564453 Q 274.750977 18.499023 275.113525 18.971680 Q 275.476074 19.444336 276.201172 19.444336 Z M 274.267578 22.833496 L 274.267578 21.834473 Q 274.605957 22.033203 274.987305 22.137939 Q 275.368652 22.242676 275.782227 22.242676 Q 276.813477 22.242676 277.342529 21.466553 Q 277.871582 20.690430 277.871582 19.181152 Q 277.619141 19.718262 277.162598 20.005615 Q 276.706055 20.292969 276.115234 20.292969 Q 274.955078 20.292969 274.318604 19.578613 Q 273.682129 18.864258 273.682129 17.553711 Q 273.682129 16.259277 274.334717 15.547607 Q 274.987305 14.835938 276.179688 14.835938 Q 277.576172 14.835938 278.226074 15.840332 Q 278.875977 16.844727 278.875977 18.998535 Q 278.875977 21.023438 278.094482 22.089600 Q 277.312988 23.155762 275.825195 23.155762 Q 275.433105 23.155762 275.035645 23.072510 Q 274.638184 22.989258 274.267578 22.833496 Z " fill="black" fill-opacity="1.000000"/>
<path d="M 290.308594 14.862793 Q 291.592285 14.862793 292.250244 15.910156 Q 292.908203 16.957520 292.908203 19.009277 Q 292.908203 21.061035 292.250244 22.108398 Q 291.592285 23.155762 290.308594 23.155762 Q 289.024902 23.155762 288.369629 22.108398 Q 287.714355 21.061035 287.714355 19.009277 Q 287.714355 16.957520 288.369629 15.910156 Q 289.024902 14.862793 290.308594 14.862793 Z M 290.308594 22.296387 Q 291.071289 22.296387 291.444580 21.485352 Q 291.817871 20.674316 291.817871 19.009277 Q 291.817871 18.123047 291.710449 17.408691 L 289.153809 21.410156 Q 289.556641 22.296387 290.308594 22.296387 Z M 290.308594 15.722168 Q 289.551270 15.722168 289.177979 16.533203 Q 288.804688 17.344238 288.804688 19.009277 Q 288.804688 19.766602 288.906738 20.427246 L 291.409668 16.436523 Q 291.001465 15.722168 290.308594 15.722168 Z " fill="black" fill-opacity="1.000000"/>
<path d="M 302.450195 22.092285 L 304.136719 22.092285 L 304.136719 16.033691 L 302.117188 17.005859 L 302.117188 15.963867 L 304.125977 15.007812 L 305.210938 15.007812 L 305.210938 22.092285 L 306.875977 22.092285 L 306.875977 23.000000 L 302.450195 23.000000 Z " fill="black" fill-opacity="1.000000"/>
<path d="M 317.003418 22.086914 L 320.687988 22.086914 L 320.687988 23.000000 L 315.816406 23.000000 L 315.816406 22.086914 Q 316.820801 21.028809 317.572754 20.217773 Q 318.324707 19.406738 318.609375 19.073730 Q 319.146484 18.418457 319.334473 18.012939 Q 319.522461 17.607422 319.522461 17.183105 Q 319.522461 16.511719 319.127686 16.130371 Q 318.732910 15.749023 318.045410 15.749023 Q 317.556641 15.749023 317.019531 15.926270 Q 316.482422 16.103516 315.880859 16.463379 L 315.880859 15.367676 Q 316.434082 15.104492 316.968506 14.970215 Q 317.502930 14.835938 318.023926 14.835938 Q 319.200195 14.835938 319.917236 15.461670 Q 320.634277 16.087402 320.634277 17.102539 Q 320.634277 17.618164 320.395264 18.133789 Q 320.156250 18.649414 319.619141 19.272461 Q 319.318359 19.621582 318.746338 20.239258 Q 318.174316 20.856934 317.003418 22.086914 Z " fill="black" fill-opacity="1.000000"/>
<path d="M 333.167969 18.708496 Q 333.957520 18.917969 334.376465 19.452393 Q 334.795410 19.986816 334.795410 20.787109 Q 334.795410 21.893555 334.051514 22.524658 Q 333.307617 23.155762 331.991699 23.155762 Q 331.438477 23.155762 330.863770 23.053711 Q 330.289062 22.951660 329.735840 22.758301 L 329.735840 21.678711 Q 330.283691 21.963379 330.815430 22.103027 Q 331.347168 22.242676 331.873535 22.242676 Q 332.765137 22.242676 333.243164 21.839844 Q 333.721191 21.437012 333.721191 20.679688 Q 333.721191 19.981445 333.243164 19.570557 Q 332.765137 19.159668 331.948730 19.159668 L 331.121582 19.159668 L 331.121582 18.268066 L 331.948730 18.268066 Q 332.695312 18.268066 333.114258 17.940430 Q 333.533203 17.612793 333.533203 17.027344 Q 333.533203 16.409668 333.143799 16.079346 Q 332.754395 15.749023 332.034668 15.749023 Q 331.556641 15.749023 331.046387 15.856445 Q 330.536133 15.963867 329.977539 16.178711 L 329.977539 15.179688 Q 330.627441 15.007812 331.135010 14.921875 Q 331.642578 14.835938 332.034668 14.835938 Q 333.205566 14.835938 333.906494 15.424072 Q 334.607422 16.012207 334.607422 16.984375 Q 334.607422 17.645020 334.239502 18.085449 Q 333.871582 18.525879 333.167969 18.708496 Z " fill="black" fill-opacity="1.000000"/>
<path d="M 346.947754 15.969238 L 344.417969 20.207031 L 346.947754 20.207031 Z M 346.770508 14.980957 L 348.027344 14.980957 L 348.027344 20.207031 L 349.096191 20.207031 L 349.096191 21.087891 L 348.027344 21.087891 L 348.027344 23.000000 L 346.947754 23.000000 L 346.947754 21.087891 L 343.547852 21.087891 L 343.547852 20.062012 Z " fill="black" fill-opacity="1.000000"/>
<path d="M 358.111816 14.980957 L 362.172363 14.980957 L 362.172363 15.894043 L 359.100098 15.894043 L 359.100098 17.865234 Q 359.331055 17.779297 359.564697 17.739014 Q 359.798340 17.698730 360.034668 17.698730 Q 361.280762 17.698730 362.011230 18.434570 Q 362.741699 19.170410 362.741699 20.427246 Q 362.741699 21.694824 361.976318 22.425293 Q 361.210938 23.155762 359.884277 23.155762 Q 359.245117 23.155762 358.716064 23.069824 Q 358.187012 22.983887 357.768066 22.812012 L 357.768066 21.710938 Q 358.262207 21.979492 358.761719 22.111084 Q 359.261230 22.242676 359.782227 22.242676 Q 360.679199 22.242676 361.165283 21.770020 Q 361.651367 21.297363 361.651367 20.427246 Q 361.651367 19.567871 361.149170 19.089844 Q 360.646973 18.611816 359.750000 18.611816 Q 359.314941 18.611816 358.901367 18.711182 Q 358.487793 18.810547 358.111816 19.009277 Z " fill="black" fill-opacity="1.000000"/>
<path d="M 376.322754 15.158203 L 376.322754 16.157227 Q 375.984375 15.958496 375.603027 15.853760 Q 375.221680 15.749023 374.808105 15.749023 Q 373.776855 15.749023 373.245117 16.525146 Q 372.713379 17.301270 372.713379 18.810547 Q 372.971191 18.273438 373.427734 17.986084 Q 373.884277 17.698730 374.475098 17.698730 Q 375.635254 17.698730 376.271729 18.410400 Q 376.908203 19.122070 376.908203 20.427246 Q 376.908203 21.727051 376.252930 22.441406 Q 375.597656 23.155762 374.410645 23.155762 Q 373.014160 23.155762 372.364258 22.154053 Q 371.714355 21.152344 371.714355 18.998535 Q 371.714355 16.968262 372.495850 15.902100 Q 373.277344 14.835938 374.759766 14.835938 Q 375.157227 14.835938 375.554688 14.919189 Q 375.952148 15.002441 376.322754 15.158203 Z M 374.389160 18.547363 Q 373.696289 18.547363 373.298828 19.046875 Q 372.901367 19.546387 372.901367 20.427246 Q 372.901367 21.308105 373.298828 21.807617 Q 373.696289 22.307129 374.389160 22.307129 Q 375.108887 22.307129 375.474121 21.831787 Q 375.839355 21.356445 375.839355 20.427246 Q 375.839355 19.492676 375.474121 19.020020 Q 375.108887 18.547363 374.389160 18.547363 Z " fill="black" fill-opacity="1.000000"/>
<path d="M 385.746582 14.980957 L 390.795410 14.980957 L 390.795410 15.442871 L 387.927246 23.000000 L 386.793945 23.000000 L 389.586914 15.894043 L 385.746582 15.894043 Z " fill="black" fill-opacity="1.000000"/>
<path d="M 402.308594 19.191895 Q 401.583496 19.191895 401.188721 19.597412 Q 400.793945 20.002930 400.793945 20.744141 Q 400.793945 21.485352 401.194092 21.896240 Q 401.594238 22.307129 402.308594 22.307129 Q 403.039062 22.307129 403.433838 21.901611 Q 403.828613 21.496094 403.828613 20.744141 Q 403.828613 20.008301 403.428467 19.600098 Q 403.028320 19.191895 402.308594 19.191895 Z M 401.363281 18.740723 Q 400.670410 18.563477 400.281006 18.080078 Q 399.891602 17.596680 399.891602 16.914551 Q 399.891602 15.958496 400.541504 15.397217 Q 401.191406 14.835938 402.308594 14.835938 Q 403.431152 14.835938 404.081055 15.397217 Q 404.730957 15.958496 404.730957 16.914551 Q 404.730957 17.596680 404.341553 18.080078 Q 403.952148 18.563477 403.259277 18.740723 Q 404.064941 18.917969 404.491943 19.455078 Q 404.918945 19.992188 404.918945 20.846191 Q 404.918945 21.931152 404.226074 22.543457 Q 403.533203 23.155762 402.308594 23.155762 Q 401.083984 23.155762 400.393799 22.546143 Q 399.703613 21.936523 399.703613 20.856934 Q 399.703613 19.997559 400.130615 19.457764 Q 400.557617 18.917969 401.363281 18.740723 Z M 400.971191 17.016602 Q 400.971191 17.661133 401.314941 17.999512 Q 401.658691 18.337891 402.308594 18.337891 Q 402.963867 18.337891 403.307617 17.999512 Q 403.651367 17.661133 403.651367 17.016602 Q 403.651367 16.361328 403.310303 16.017578 Q 402.969238 15.673828 402.308594 15.673828 Q 401.658691 15.673828 401.314941 16.020264 Q 400.971191 16.366699 400.971191 17.016602 Z " fill="black" fill-opacity="1.000000"/>
<path d="M 416.201172 19.444336 Q 416.894043 19.444336 417.288818 18.944824 Q 417.683594 18.445312 417.683594 17.564453 Q 417.683594 16.683594 417.288818 16.184082 Q 416.894043 15.684570 416.201172 15.684570 Q 415.481445 15.684570 415.116211 16.159912 Q 414.750977 16.635254 414.750977 17.564453 Q 414.750977 18.499023 415.113525 18.971680 Q 415.476074 19.444336 416.201172 19.444336 Z M 414.267578 22.833496 L 414.267578 21.834473 Q 414.605957 22.033203 414.987305 22.137939 Q 415.368652 22.242676 415.782227 22.242676 Q 416.813477 22.242676 417.342529 21.466553 Q 417.871582 20.690430 417.871582 19.181152 Q 417.619141 19.718262 417.162598 20.005615 Q 416.706055 20.292969 416.115234 20.292969 Q 414.955078 20.292969 414.318604 19.578613 Q 413.682129 18.864258 413.682129 17.553711 Q 413.682129 16.259277 414.334717 15.547607 Q 414.987305 14.835938 416.179688 14.835938 Q 417.576172 14.835938 418.226074 15.840332 Q 418.875977 16.844727 418.875977 18.998535 Q 418.875977 21.023438 418.094482 22.089600 Q 417.312988 23.155762 415.825195 23.155762 Q 415.433105 23.155762 415.035645 23.072510 Q 414.638184 22.989258 414.267578 22.833496 Z " fill="black" fill-opacity="1.000000"/>
<path d="M 430.308594 14.862793 Q 431.592285 14.862793 432.250244 15.910156 Q 432.908203 16.957520 432.908203 19.009277 Q 432.908203 21.061035 432.250244 22.108398 Q 431.592285 23.155762 430.308594 23.155762 Q 429.024902 23.155762 428.369629 22.108398 Q 427.714355 21.061035 427.714355 19.009277 Q 427.714355 16.957520 428.369629 15.910156 Q 429.024902 14.862793 430.308594 14.862793 Z M 430.308594 22.296387 Q 431.071289 22.296387 431.444580 21.485352 Q 431.817871 20.674316 431.817871 19.009277 Q 431.817871 18.123047 431.710449 17.408691 L 429.153809 21.410156 Q 429.556641 22.296387 430.308594 22.296387 Z M 430.308594 15.722168 Q 429.551270 15.722168 429.177979 16.533203 Q 428.804688 17.344238 428.804688 19.009277 Q 428.804688 19.766602 428.906738 20.427246 L 431.409668 16.436523 Q 431.001465 15.722168 430.308594 15.722168 Z " fill="black" fill-opacity="1.000000"/>
<path d="M 442.450195 22.092285 L 444.136719 22.092285 L 444.136719 16.033691 L 442.117188 17.005859 L 442.117188 15.963867 L 444.125977 15.007812 L 445.210938 15.007812 L 445.210938 22.092285 L 446.875977 22.092285 L 446.875977 23.000000 L 442.450195 23.000000 Z " fill="black" fill-opacity="1.000000"/>
<path d="M 148.450195 9.092285 L 150.136719 9.092285 L 150.136719 3.033691 L 148.117188 4.005859 L 148.117188 2.963867 L 150.125977 2.007812 L 151.210938 2.007812 L 151.210938 9.092285 L 152.875977 9.092285 L 152.875977 10.000000 L 148.450195 10.000000 Z " fill="black" fill-opacity="1.000000"/>
<path d="M 289.003418 9.086914 L 292.687988 9.086914 L 292.687988 10.000000 L 287.816406 10.000000 L 287.816406 9.086914 Q 288.820801 8.028809 289.572754 7.217773 Q 290.324707 6.406738 290.609375 6.073730 Q 291.146484 5.418457 291.334473 5.012939 Q 291.522461 4.607422 291.522461 4.183105 Q 291.522461 3.511719 291.127686 3.130371 Q 290.732910 2.749023 290.045410 2.749023 Q 289.556641 2.749023 289.019531 2.926270 Q 288.482422 3.103516 287.880859 3.463379 L 287.880859 2.367676 Q 288.434082 2.104492 288.968506 1.970215 Q 289.502930 1.835938 290.023926 1.835938 Q 291.200195 1.835938 291.917236 2.461670 Q 292.634277 3.087402 292.634277 4.102539 Q 292.634277 4.618164 292.395264 5.133789 Q 292.156250 5.649414 291.619141 6.272461 Q 291.318359 6.621582 290.746338 7.239258 Q 290.174316 7.856934 289.003418 9.086914 Z " fill="black" fill-opacity="1.000000"/>
<path d="M 431.167969 5.708496 Q 431.957520 5.917969 432.376465 6.452393 Q 432.795410 6.986816 432.795410 7.787109 Q 432.795410 8.893555 432.051514 9.524658 Q 431.307617 10.155762 429.991699 10.155762 Q 429.438477 10.155762 428.863770 10.053711 Q 428.289062 9.951660 427.735840 9.758301 L 427.735840 8.678711 Q 428.283691 8.963379 428.815430 9.103027 Q 429.347168 9.242676 429.873535 9.242676 Q 430.765137 9.242676 431.243164 8.839844 Q 431.721191 8.437012 431.721191 7.679688 Q 431.721191 6.981445 431.243164 6.570557 Q 430.765137 6.159668 429.948730 6.159668 L 429.121582 6.159668 L 429.121582 5.268066 L 429.948730 5.268066 Q 430.695312 5.268066 431.114258 4.940430 Q 431.533203 4.612793 431.533203 4.027344 Q 431.533203 3.409668 431.143799 3.079346 Q 430.754395 2.749023 430.034668 2.749023 Q 429.556641 2.749023 429.046387 2.856445 Q 428.536133 2.963867 427.977539 3.178711 L 427.977539 2.179688 Q 428.627441 2.007812 429.135010 1.921875 Q 429.642578 1.835938 430.034668 1.835938 Q 431.205566 1.835938 431.906494 2.424072 Q 432.607422 3.012207 432.607422 3.984375 Q 432.607422 4.645020 432.239502 5.085449 Q 431.871582 5.525879 431.167969 5.708496 Z " fill="black" fill-opacity="1.000000"/>
</svg>
