<?xml version='1.0' encoding='utf-8'?>
<svg xmlns="http://www.w3.org/2000/svg" version="1.1" width="456" height="66" viewBox="0 0 456.0 66.0">
<path d="M 2.878906 39.319336 L 2.878906 25.300781 L 3.738281 25.300781 L 3.738281 32.412109 L 6.729980 32.412109 L 6.729980 33.335938 L 3.738281 33.335938 L 3.738281 39.319336 Z " fill="black" fill-opacity="1.000000"/>
<path d="M 2.878906 52.319336 L 2.878906 38.300781 L 3.738281 38.300781 L 3.738281 52.319336 Z " fill="black" fill-opacity="1.000000"/>
<path d="M 2.878906 59.335938 L 2.878906 51.300781 L 3.738281 51.300781 L 3.738281 58.412109 L 6.729980 58.412109 L 6.729980 59.335938 Z " fill="black" fill-opacity="1.000000"/>
<path d="M 6.892578 59.335938 L 6.892578 58.412109 L 13.729980 58.412109 L 13.729980 59.335938 Z " fill="black" fill-opacity="1.000000"/>
<path d="M 13.892578 59.335938 L 13.892578 58.412109 L 20.729980 58.412109 L 20.729980 59.335938 Z " fill="black" fill-opacity="1.000000"/>
<path d="M 20.892578 59.335938 L 20.892578 58.412109 L 27.729980 58.412109 L 27.729980 59.335938 Z " fill="black" fill-opacity="1.000000"/>
<path d="M 27.892578 59.335938 L 27.892578 58.412109 L 30.878906 58.412109 L 30.878906 51.300781 L 31.738281 51.300781 L 31.738281 58.412109 L 34.729980 58.412109 L 34.729980 59.335938 Z " fill="black" fill-opacity="1.000000"/>
<path d="M 34.892578 59.335938 L 34.892578 58.412109 L 41.729980 58.412109 L 41.729980 59.335938 Z " fill="black" fill-opacity="1.000000"/>
<path d="M 41.892578 59.335938 L 41.892578 58.412109 L 48.729980 58.412109 L 48.729980 59.335938 Z " fill="black" fill-opacity="1.000000"/>
<path d="M 48.892578 59.335938 L 48.892578 58.412109 L 55.729980 58.412109 L 55.729980 59.335938 Z " fill="black" fill-opacity="1.000000"/>
<path d="M 55.892578 59.335938 L 55.892578 58.412109 L 62.729980 58.412109 L 62.729980 59.335938 Z " fill="black" fill-opacity="1.000000"/>
<path d="M 62.892578 59.335938 L 62.892578 58.412109 L 69.729980 58.412109 L 69.729980 59.335938 Z " fill="black" fill-opacity="1.000000"/>
<path d="M 69.892578 59.335938 L 69.892578 58.412109 L 76.729980 58.412109 L 76.729980 59.335938 Z " fill="black" fill-opacity="1.000000"/>
<path d="M 76.892578 59.335938 L 76.892578 58.412109 L 83.729980 58.412109 L 83.729980 59.335938 Z " fill="black" fill-opacity="1.000000"/>
<path d="M 83.892578 59.335938 L 83.892578 58.412109 L 90.729980 58.412109 L 90.729980 59.335938 Z " fill="black" fill-opacity="1.000000"/>
<path d="M 90.892578 59.335938 L 90.892578 58.412109 L 97.729980 58.412109 L 97.729980 59.335938 Z " fill="black" fill-opacity="1.000000"/>
<path d="M 97.892578 59.335938 L 97.892578 58.412109 L 104.729980 58.412109 L 104.729980 59.335938 Z " fill="black" fill-opacity="1.000000"/>
<path d="M 104.892578 59.335938 L 104.892578 58.412109 L 111.729980 58.412109 L 111.729980 59.335938 Z " fill="black" fill-opacity="1.000000"/>
<path d="M 111.892578 59.335938 L 111.892578 58.412109 L 114.878906 58.412109 L 114.878906 51.300781 L 115.738281 51.300781 L 115.738281 58.412109 L 118.729980 58.412109 L 118.729980 59.335938 Z " fill="black" fill-opacity="1.000000"/>
<path d="M 118.892578 59.335938 L 118.892578 58.412109 L 125.729980 58.412109 L 125.729980 59.335938 Z " fill="black" fill-opacity="1.000000"/>
<path d="M 125.892578 59.335938 L 125.892578 58.412109 L 132.729980 58.412109 L 132.729980 59.335938 Z " fill="black" fill-opacity="1.000000"/>
<path d="M 132.892578 59.335938 L 132.892578 58.412109 L 139.729980 58.412109 L 139.729980 59.335938 Z " fill="black" fill-opacity="1.000000"/>
<path d="M 139.892578 59.335938 L 139.892578 58.412109 L 146.729980 58.412109 L 146.729980 59.335938 Z " fill="black" fill-opacity="1.000000"/>
<path d="M 146.892578 59.335938 L 146.892578 58.412109 L 153.729980 58.412109 L 153.729980 59.335938 Z " fill="black" fill-opacity="1.000000"/>
<path d="M 153.892578 59.335938 L 153.892578 58.412109 L 160.729980 58.412109 L 160.729980 59.335938 Z " fill="black" fill-opacity="1.000000"/>
<path d="M 160.892578 59.335938 L 160.892578 58.412109 L 167.729980 58.412109 L 167.729980 59.335938 Z " fill="black" fill-opacity="1.000000"/>
<path d="M 167.892578 59.335938 L 167.892578 58.412109 L 174.729980 58.412109 L 174.729980 59.335938 Z " fill="black" fill-opacity="1.000000"/>
<path d="M 174.892578 59.335938 L 174.892578 58.412109 L 181.729980 58.412109 L 181.729980 59.335938 Z " fill="black" fill-opacity="1.000000"/>
<path d="M 181.892578 59.335938 L 181.892578 58.412109 L 188.729980 58.412109 L 188.729980 59.335938 Z " fill="black" fill-opacity="1.000000"/>
<path d="M 188.892578 59.335938 L 188.892578 58.412109 L 195.729980 58.412109 L 195.729980 59.335938 Z " fill="black" fill-opacity="1.000000"/>
<path d="M 195.892578 59.335938 L 195.892578 58.412109 L 198.878906 58.412109 L 198.878906 51.300781 L 199.738281 51.300781 L 199.738281 58.412109 L 202.729980 58.412109 L 202.729980 59.335938 Z " fill="black" fill-opacity="1.000000"/>
<path d="M 202.892578 59.335938 L 202.892578 58.412109 L 209.729980 58.412109 L 209.729980 59.335938 Z " fill="black" fill-opacity="1.000000"/>
<path d="M 209.892578 59.335938 L 209.892578 58.412109 L 216.729980 58.412109 L 216.729980 59.335938 Z " fill="black" fill-opacity="1.000000"/>
<path d="M 216.892578 59.335938 L 216.892578 58.412109 L 223.729980 58.412109 L 223.729980 59.335938 Z " fill="black" fill-opacity="1.000000"/>
<path d="M 223.892578 59.335938 L 223.892578 58.412109 L 230.729980 58.412109 L 230.729980 59.335938 Z " fill="black" fill-opacity="1.000000"/>
<path d="M 230.892578 59.335938 L 230.892578 58.412109 L 237.729980 58.412109 L 237.729980 59.335938 Z " fill="black" fill-opacity="1.000000"/>
<path d="M 237.892578 59.335938 L 237.892578 58.412109 L 244.729980 58.412109 L 244.729980 59.335938 Z " fill="black" fill-opacity="1.000000"/>
<path d="M 244.892578 59.335938 L 244.892578 58.412109 L 251.729980 58.412109 L 251.729980 59.335938 Z " fill="black" fill-opacity="1.000000"/>
<path d="M 251.892578 59.335938 L 251.892578 58.412109 L 258.729980 58.412109 L 258.729980 59.335938 Z " fill="black" fill-opacity="1.000000"/>
<path d="M 258.892578 59.335938 L 258.892578 58.412109 L 265.729980 58.412109 L 265.729980 59.335938 Z " fill="black" fill-opacity="1.000000"/>
<path d="M 265.892578 59.335938 L 265.892578 58.412109 L 272.729980 58.412109 L 272.729980 59.335938 Z " fill="black" fill-opacity="1.000000"/>
<path d="M 272.892578 59.335938 L 272.892578 58.412109 L 279.729980 58.412109 L 279.729980 59.335938 Z " fill="black" fill-opacity="1.000000"/>
<path d="M 279.892578 59.335938 L 279.892578 58.412109 L 282.878906 58.412109 L 282.878906 51.300781 L 283.738281 51.300781 L 283.738281 58.412109 L 286.729980 58.412109 L 286.729980 59.335938 Z " fill="black" fill-opacity="1.000000"/>
<path d="M 286.892578 59.335938 L 286.892578 58.412109 L 293.729980 58.412109 L 293.729980 59.335938 Z " fill="black" fill-opacity="1.000000"/>
<path d="M 293.892578 59.335938 L 293.892578 58.412109 L 300.729980 58.412109 L 300.729980 59.335938 Z " fill="black" fill-opacity="1.000000"/>
<path d="M 300.892578 59.335938 L 300.892578 58.412109 L 307.729980 58.412109 L 307.729980 59.335938 Z " fill="black" fill-opacity="1.000000"/>
<path d="M 307.892578 59.335938 L 307.892578 58.412109 L 314.729980 58.412109 L 314.729980 59.335938 Z " fill="black" fill-opacity="1.000000"/>
<path d="M 314.892578 59.335938 L 314.892578 58.412109 L 321.729980 58.412109 L 321.729980 59.335938 Z " fill="black" fill-opacity="1.000000"/>
<path d="M 321.892578 59.335938 L 321.892578 58.412109 L 328.729980 58.412109 L 328.729980 59.335938 Z " fill="black" fill-opacity="1.000000"/>
<path d="M 328.892578 59.335938 L 328.892578 58.412109 L 335.729980 58.412109 L 335.729980 59.335938 Z " fill="black" fill-opacity="1.000000"/>
<path d="M 335.892578 59.335938 L 335.892578 58.412109 L 342.729980 58.412109 L 342.729980 59.335938 Z " fill="black" fill-opacity="1.000000"/>
<path d="M 342.892578 59.335938 L 342.892578 58.412109 L 349.729980 58.412109 L 349.729980 59.335938 Z " fill="black" fill-opacity="1.000000"/>
<path d="M 349.892578 59.335938 L 349.892578 58.412109 L 356.729980 58.412109 L 356.729980 59.335938 Z " fill="black" fill-opacity="1.000000"/>
<path d="M 356.892578 59.335938 L 356.892578 58.412109 L 363.729980 58.412109 L 363.729980 59.335938 Z " fill="black" fill-opacity="1.000000"/>
<path d="M 363.892578 59.335938 L 363.892578 58.412109 L 366.878906 58.412109 L 366.878906 51.300781 L 367.738281 51.300781 L 367.738281 58.412109 L 370.729980 58.412109 L 370.729980 59.335938 Z " fill="black" fill-opacity="1.000000"/>
<path d="M 370.892578 59.335938 L 370.892578 58.412109 L 377.729980 58.412109 L 377.729980 59.335938 Z " fill="black" fill-opacity="1.000000"/>
<path d="M 377.892578 59.335938 L 377.892578 58.412109 L 384.729980 58.412109 L 384.729980 59.335938 Z " fill="black" fill-opacity="1.000000"/>
<path d="M 384.892578 59.335938 L 384.892578 58.412109 L 391.729980 58.412109 L 391.729980 59.335938 Z " fill="black" fill-opacity="1.000000"/>
<path d="M 391.892578 59.335938 L 391.892578 58.412109 L 398.729980 58.412109 L 398.729980 59.335938 Z " fill="black" fill-opacity="1.000000"/>
<path d="M 398.892578 59.335938 L 398.892578 58.412109 L 405.729980 58.412109 L 405.729980 59.335938 Z " fill="black" fill-opacity="1.000000"/>
<path d="M 405.892578 59.335938 L 405.892578 58.412109 L 412.729980 58.412109 L 412.729980 59.335938 Z " fill="black" fill-opacity="1.000000"/>
<path d="M 412.892578 59.335938 L 412.892578 58.412109 L 419.729980 58.412109 L 419.729980 59.335938 Z " fill="black" fill-opacity="1.000000"/>
<path d="M 419.892578 59.335938 L 419.892578 58.412109 L 426.729980 58.412109 L 426.729980 59.335938 Z " fill="black" fill-opacity="1.000000"/>
<path d="M 426.892578 59.335938 L 426.892578 58.412109 L 433.729980 58.412109 L 433.729980 59.335938 Z " fill="black" fill-opacity="1.000000"/>
<path d="M 433.892578 59.335938 L 433.892578 58.412109 L 440.729980 58.412109 L 440.729980 59.335938 Z " fill="black" fill-opacity="1.000000"/>
<path d="M 440.892578 59.335938 L 440.892578 58.412109 L 447.729980 58.412109 L 447.729980 59.335938 Z " fill="black" fill-opacity="1.000000"/>
<path d="M 447.892578 59.335938 L 447.892578 58.412109 L 450.878906 58.412109 L 450.878906 51.300781 L 451.738281 51.300781 L 451.738281 59.335938 Z " fill="black" fill-opacity="1.000000"/>
<path d="M 19.763184 48.715332 Q 19.349609 48.935547 18.914551 49.045654 Q 18.479492 49.155762 17.990723 49.155762 Q 16.449219 49.155762 15.597900 48.065430 Q 14.746582 46.975098 14.746582 44.998535 Q 14.746582 43.032715 15.603271 41.934326 Q 16.459961 40.835938 17.990723 40.835938 Q 18.479492 40.835938 18.914551 40.946045 Q 19.349609 41.056152 19.763184 41.276367 L 19.763184 42.388184 Q 19.365723 42.060547 18.909180 41.888672 Q 18.452637 41.716797 17.990723 41.716797 Q 16.932617 41.716797 16.406250 42.533203 Q 15.879883 43.349609 15.879883 44.998535 Q 15.879883 46.642090 16.406250 47.458496 Q 16.932617 48.274902 17.990723 48.274902 Q 18.463379 48.274902 18.917236 48.103027 Q 19.371094 47.931152 19.763184 47.603516 Z " fill="black" fill-opacity="1.000000"/>
<path d="M 30.878906 52.319336 L 30.878906 38.300781 L 31.738281 38.300781 L 31.738281 52.319336 Z " fill="black" fill-opacity="1.000000"/>
<path d="M 54.763184 48.715332 Q 54.349609 48.935547 53.914551 49.045654 Q 53.479492 49.155762 52.990723 49.155762 Q 51.449219 49.155762 50.597900 48.065430 Q 49.746582 46.975098 49.746582 44.998535 Q 49.746582 43.032715 50.603271 41.934326 Q 51.459961 40.835938 52.990723 40.835938 Q 53.479492 40.835938 53.914551 40.946045 Q 54.349609 41.056152 54.763184 41.276367 L 54.763184 42.388184 Q 54.365723 42.060547 53.909180 41.888672 Q 53.452637 41.716797 52.990723 41.716797 Q 51.932617 41.716797 51.406250 42.533203 Q 50.879883 43.349609 50.879883 44.998535 Q 50.879883 46.642090 51.406250 47.458496 Q 51.932617 48.274902 52.990723 48.274902 Q 53.463379 48.274902 53.917236 48.103027 Q 54.371094 47.931152 54.763184 47.603516 Z " fill="black" fill-opacity="1.000000"/>
<path d="M 57.047363 46.722656 L 57.047363 42.995117 L 58.035645 42.995117 L 58.035645 46.722656 Q 58.035645 47.533691 58.322998 47.915039 Q 58.610352 48.296387 59.211914 48.296387 Q 59.910156 48.296387 60.280762 47.804932 Q 60.651367 47.313477 60.651367 46.395020 L 60.651367 42.995117 L 61.645020 42.995117 L 61.645020 49.000000 L 60.651367 49.000000 L 60.651367 48.097656 Q 60.388184 48.618652 59.934326 48.887207 Q 59.480469 49.155762 58.873535 49.155762 Q 57.949707 49.155762 57.498535 48.551514 Q 57.047363 47.947266 57.047363 46.722656 Z " fill="black" fill-opacity="1.000000"/>
<path d="M 69.203613 44.225098 Q 68.886719 43.978027 68.559082 43.865234 Q 68.231445 43.752441 67.839355 43.752441 Q 66.915527 43.752441 66.426758 44.332520 Q 65.937988 44.912598 65.937988 46.008301 L 65.937988 49.000000 L 64.944336 49.000000 L 64.944336 42.984375 L 65.937988 42.984375 L 65.937988 44.160645 Q 66.185059 43.521484 66.697998 43.180420 Q 67.210938 42.839355 67.914551 42.839355 Q 68.279785 42.839355 68.596680 42.930664 Q 68.913574 43.021973 69.203613 43.215332 Z " fill="black" fill-opacity="1.000000"/>
<path d="M 76.203613 44.225098 Q 75.886719 43.978027 75.559082 43.865234 Q 75.231445 43.752441 74.839355 43.752441 Q 73.915527 43.752441 73.426758 44.332520 Q 72.937988 44.912598 72.937988 46.008301 L 72.937988 49.000000 L 71.944336 49.000000 L 71.944336 42.984375 L 72.937988 42.984375 L 72.937988 44.160645 Q 73.185059 43.521484 73.697998 43.180420 Q 74.210938 42.839355 74.914551 42.839355 Q 75.279785 42.839355 75.596680 42.930664 Q 75.913574 43.021973 76.203613 43.215332 Z " fill="black" fill-opacity="1.000000"/>
<path d="M 77.735840 40.980957 L 78.826172 40.980957 L 78.826172 44.053223 L 81.796387 44.053223 L 81.796387 40.980957 L 82.886719 40.980957 L 82.886719 49.000000 L 81.796387 49.000000 L 81.796387 44.966309 L 78.826172 44.966309 L 78.826172 49.000000 L 77.735840 49.000000 Z " fill="black" fill-opacity="1.000000"/>
<path d="M 85.251465 40.980957 L 89.972656 40.980957 L 89.972656 41.894043 L 86.341797 41.894043 L 86.341797 44.042480 L 89.634277 44.042480 L 89.634277 44.955566 L 86.341797 44.955566 L 86.341797 49.000000 L 85.251465 49.000000 Z " fill="black" fill-opacity="1.000000"/>
<path d="M 114.878906 52.319336 L 114.878906 38.300781 L 115.738281 38.300781 L 115.738281 52.319336 Z " fill="black" fill-opacity="1.000000"/>
<path d="M 151.082031 45.213379 Q 151.500977 45.320801 151.796387 45.618896 Q 152.091797 45.916992 152.532227 46.808594 L 153.622559 49.000000 L 152.457031 49.000000 L 151.500977 46.975098 Q 151.087402 46.110352 150.757080 45.860596 Q 150.426758 45.610840 149.895020 45.610840 L 148.858398 45.610840 L 148.858398 49.000000 L 147.768066 49.000000 L 147.768066 40.980957 L 150.002441 40.980957 Q 151.323730 40.980957 152.027344 41.577148 Q 152.730957 42.173340 152.730957 43.301270 Q 152.730957 44.096191 152.298584 44.598389 Q 151.866211 45.100586 151.082031 45.213379 Z M 148.858398 41.872559 L 148.858398 44.719238 L 150.045410 44.719238 Q 150.824219 44.719238 151.205566 44.370117 Q 151.586914 44.020996 151.586914 43.301270 Q 151.586914 42.608398 151.181396 42.240479 Q 150.775879 41.872559 150.002441 41.872559 Z " fill="black" fill-opacity="1.000000"/>
<path d="M 159.435547 41.254883 L 159.435547 42.355957 Q 158.941406 42.039062 158.444580 41.877930 Q 157.947754 41.716797 157.442871 41.716797 Q 156.674805 41.716797 156.229004 42.073975 Q 155.783203 42.431152 155.783203 43.038086 Q 155.783203 43.569824 156.075928 43.849121 Q 156.368652 44.128418 157.168945 44.316406 L 157.738281 44.445312 Q 158.866211 44.708496 159.381836 45.272461 Q 159.897461 45.836426 159.897461 46.808594 Q 159.897461 47.952637 159.188477 48.554199 Q 158.479492 49.155762 157.125977 49.155762 Q 156.562012 49.155762 155.992676 49.034912 Q 155.423340 48.914062 154.848633 48.672363 L 154.848633 47.517578 Q 155.466309 47.909668 156.016846 48.092285 Q 156.567383 48.274902 157.125977 48.274902 Q 157.947754 48.274902 158.404297 47.906982 Q 158.860840 47.539062 158.860840 46.878418 Q 158.860840 46.276855 158.546631 45.959961 Q 158.232422 45.643066 157.453613 45.471191 L 156.873535 45.336914 Q 155.756348 45.084473 155.251465 44.574219 Q 154.746582 44.063965 154.746582 43.204590 Q 154.746582 42.130371 155.468994 41.483154 Q 156.191406 40.835938 157.389160 40.835938 Q 157.851074 40.835938 158.361328 40.940674 Q 158.871582 41.045410 159.435547 41.254883 Z " fill="black" fill-opacity="1.000000"/>
<path d="M 164.308594 48.086914 L 166.193848 40.980957 L 167.316406 40.980957 L 164.969238 49.000000 L 163.653320 49.000000 L 161.306152 40.980957 L 162.428711 40.980957 Z " fill="black" fill-opacity="1.000000"/>
<path d="M 198.878906 52.319336 L 198.878906 38.300781 L 199.738281 38.300781 L 199.738281 52.319336 Z " fill="black" fill-opacity="1.000000"/>
<path d="M 222.435547 41.254883 L 222.435547 42.355957 Q 221.941406 42.039062 221.444580 41.877930 Q 220.947754 41.716797 220.442871 41.716797 Q 219.674805 41.716797 219.229004 42.073975 Q 218.783203 42.431152 218.783203 43.038086 Q 218.783203 43.569824 219.075928 43.849121 Q 219.368652 44.128418 220.168945 44.316406 L 220.738281 44.445312 Q 221.866211 44.708496 222.381836 45.272461 Q 222.897461 45.836426 222.897461 46.808594 Q 222.897461 47.952637 222.188477 48.554199 Q 221.479492 49.155762 220.125977 49.155762 Q 219.562012 49.155762 218.992676 49.034912 Q 218.423340 48.914062 217.848633 48.672363 L 217.848633 47.517578 Q 218.466309 47.909668 219.016846 48.092285 Q 219.567383 48.274902 220.125977 48.274902 Q 220.947754 48.274902 221.404297 47.906982 Q 221.860840 47.539062 221.860840 46.878418 Q 221.860840 46.276855 221.546631 45.959961 Q 221.232422 45.643066 220.453613 45.471191 L 219.873535 45.336914 Q 218.756348 45.084473 218.251465 44.574219 Q 217.746582 44.063965 217.746582 43.204590 Q 217.746582 42.130371 218.468994 41.483154 Q 219.191406 40.835938 220.389160 40.835938 Q 220.851074 40.835938 221.361328 40.940674 Q 221.871582 41.045410 222.435547 41.254883 Z " fill="black" fill-opacity="1.000000"/>
<path d="M 230.015625 45.498047 L 230.015625 45.981445 L 225.734863 45.981445 L 225.734863 46.013672 Q 225.691895 47.243652 226.204834 47.780762 Q 226.717773 48.317871 227.652344 48.317871 Q 228.125000 48.317871 228.640625 48.167480 Q 229.156250 48.017090 229.741699 47.710938 L 229.741699 48.693848 Q 229.177734 48.924805 228.654053 49.040283 Q 228.130371 49.155762 227.641602 49.155762 Q 226.239746 49.155762 225.450195 48.315186 Q 224.660645 47.474609 224.660645 45.997559 Q 224.660645 44.558105 225.434082 43.698730 Q 226.207520 42.839355 227.496582 42.839355 Q 228.645996 42.839355 229.309326 43.618164 Q 229.972656 44.396973 230.015625 45.498047 Z M 229.027344 45.208008 Q 228.962891 44.584961 228.573486 44.131104 Q 228.184082 43.677246 227.453613 43.677246 Q 226.739258 43.677246 226.277344 44.149902 Q 225.815430 44.622559 225.772461 45.213379 Z " fill="black" fill-opacity="1.000000"/>
<path d="M 235.608398 45.943848 Q 235.608398 44.832031 235.245850 44.254639 Q 234.883301 43.677246 234.190430 43.677246 Q 233.465332 43.677246 233.083984 44.254639 Q 232.702637 44.832031 232.702637 45.943848 Q 232.702637 47.055664 233.086670 47.638428 Q 233.470703 48.221191 234.201172 48.221191 Q 234.883301 48.221191 235.245850 47.635742 Q 235.608398 47.050293 235.608398 45.943848 Z M 236.596680 48.613281 Q 236.596680 49.966797 235.957520 50.665039 Q 235.318359 51.363281 234.077637 51.363281 Q 233.669434 51.363281 233.223633 51.288086 Q 232.777832 51.212891 232.332031 51.067871 L 232.332031 50.090332 Q 232.858398 50.337402 233.288086 50.455566 Q 233.717773 50.573730 234.077637 50.573730 Q 234.877930 50.573730 235.243164 50.138672 Q 235.608398 49.703613 235.608398 48.758301 L 235.608398 48.715332 L 235.608398 48.043945 Q 235.372070 48.548828 234.963867 48.795898 Q 234.555664 49.042969 233.970215 49.042969 Q 232.917480 49.042969 232.289062 48.199707 Q 231.660645 47.356445 231.660645 45.943848 Q 231.660645 44.525879 232.289062 43.682617 Q 232.917480 42.839355 233.970215 42.839355 Q 234.550293 42.839355 234.953125 43.070312 Q 235.355957 43.301270 235.608398 43.784668 L 235.608398 43.005859 L 236.596680 43.005859 Z " fill="black" fill-opacity="1.000000"/>
<path d="M 241.308594 40.862793 Q 242.592285 40.862793 243.250244 41.910156 Q 243.908203 42.957520 243.908203 45.009277 Q 243.908203 47.061035 243.250244 48.108398 Q 242.592285 49.155762 241.308594 49.155762 Q 240.024902 49.155762 239.369629 48.108398 Q 238.714355 47.061035 238.714355 45.009277 Q 238.714355 42.957520 239.369629 41.910156 Q 240.024902 40.862793 241.308594 40.862793 Z M 241.308594 48.296387 Q 242.071289 48.296387 242.444580 47.485352 Q 242.817871 46.674316 242.817871 45.009277 Q 242.817871 44.123047 242.710449 43.408691 L 240.153809 47.410156 Q 240.556641 48.296387 241.308594 48.296387 Z M 241.308594 41.722168 Q 240.551270 41.722168 240.177979 42.533203 Q 239.804688 43.344238 239.804688 45.009277 Q 239.804688 45.766602 239.906738 46.427246 L 242.409668 42.436523 Q 242.001465 41.722168 241.308594 41.722168 Z " fill="black" fill-opacity="1.000000"/>
<path d="M 246.154785 40.980957 L 247.245117 40.980957 L 247.245117 48.086914 L 251.117676 48.086914 L 251.117676 49.000000 L 246.154785 49.000000 Z " fill="black" fill-opacity="1.000000"/>
<path d="M 258.015625 45.498047 L 258.015625 45.981445 L 253.734863 45.981445 L 253.734863 46.013672 Q 253.691895 47.243652 254.204834 47.780762 Q 254.717773 48.317871 255.652344 48.317871 Q 256.125000 48.317871 256.640625 48.167480 Q 257.156250 48.017090 257.741699 47.710938 L 257.741699 48.693848 Q 257.177734 48.924805 256.654053 49.040283 Q 256.130371 49.155762 255.641602 49.155762 Q 254.239746 49.155762 253.450195 48.315186 Q 252.660645 47.474609 252.660645 45.997559 Q 252.660645 44.558105 253.434082 43.698730 Q 254.207520 42.839355 255.496582 42.839355 Q 256.645996 42.839355 257.309326 43.618164 Q 257.972656 44.396973 258.015625 45.498047 Z M 257.027344 45.208008 Q 256.962891 44.584961 256.573486 44.131104 Q 256.184082 43.677246 255.453613 43.677246 Q 254.739258 43.677246 254.277344 44.149902 Q 253.815430 44.622559 253.772461 45.213379 Z " fill="black" fill-opacity="1.000000"/>
<path d="M 264.645020 45.272461 L 264.645020 49.000000 L 263.651367 49.000000 L 263.651367 45.272461 Q 263.651367 44.461426 263.366699 44.080078 Q 263.082031 43.698730 262.475098 43.698730 Q 261.782227 43.698730 261.408936 44.190186 Q 261.035645 44.681641 261.035645 45.600098 L 261.035645 49.000000 L 260.047363 49.000000 L 260.047363 42.984375 L 261.035645 42.984375 L 261.035645 43.886719 Q 261.298828 43.371094 261.750000 43.105225 Q 262.201172 42.839355 262.818848 42.839355 Q 263.737305 42.839355 264.191162 43.443604 Q 264.645020 44.047852 264.645020 45.272461 Z " fill="black" fill-opacity="1.000000"/>
<path d="M 282.878906 52.319336 L 282.878906 38.300781 L 283.738281 38.300781 L 283.738281 52.319336 Z " fill="black" fill-opacity="1.000000"/>
<path d="M 306.435547 41.254883 L 306.435547 42.355957 Q 305.941406 42.039062 305.444580 41.877930 Q 304.947754 41.716797 304.442871 41.716797 Q 303.674805 41.716797 303.229004 42.073975 Q 302.783203 42.431152 302.783203 43.038086 Q 302.783203 43.569824 303.075928 43.849121 Q 303.368652 44.128418 304.168945 44.316406 L 304.738281 44.445312 Q 305.866211 44.708496 306.381836 45.272461 Q 306.897461 45.836426 306.897461 46.808594 Q 306.897461 47.952637 306.188477 48.554199 Q 305.479492 49.155762 304.125977 49.155762 Q 303.562012 49.155762 302.992676 49.034912 Q 302.423340 48.914062 301.848633 48.672363 L 301.848633 47.517578 Q 302.466309 47.909668 303.016846 48.092285 Q 303.567383 48.274902 304.125977 48.274902 Q 304.947754 48.274902 305.404297 47.906982 Q 305.860840 47.539062 305.860840 46.878418 Q 305.860840 46.276855 305.546631 45.959961 Q 305.232422 45.643066 304.453613 45.471191 L 303.873535 45.336914 Q 302.756348 45.084473 302.251465 44.574219 Q 301.746582 44.063965 301.746582 43.204590 Q 301.746582 42.130371 302.468994 41.483154 Q 303.191406 40.835938 304.389160 40.835938 Q 304.851074 40.835938 305.361328 40.940674 Q 305.871582 41.045410 306.435547 41.254883 Z " fill="black" fill-opacity="1.000000"/>
<path d="M 314.015625 45.498047 L 314.015625 45.981445 L 309.734863 45.981445 L 309.734863 46.013672 Q 309.691895 47.243652 310.204834 47.780762 Q 310.717773 48.317871 311.652344 48.317871 Q 312.125000 48.317871 312.640625 48.167480 Q 313.156250 48.017090 313.741699 47.710938 L 313.741699 48.693848 Q 313.177734 48.924805 312.654053 49.040283 Q 312.130371 49.155762 311.641602 49.155762 Q 310.239746 49.155762 309.450195 48.315186 Q 308.660645 47.474609 308.660645 45.997559 Q 308.660645 44.558105 309.434082 43.698730 Q 310.207520 42.839355 311.496582 42.839355 Q 312.645996 42.839355 313.309326 43.618164 Q 313.972656 44.396973 314.015625 45.498047 Z M 313.027344 45.208008 Q 312.962891 44.584961 312.573486 44.131104 Q 312.184082 43.677246 311.453613 43.677246 Q 310.739258 43.677246 310.277344 44.149902 Q 309.815430 44.622559 309.772461 45.213379 Z " fill="black" fill-opacity="1.000000"/>
<path d="M 319.608398 45.943848 Q 319.608398 44.832031 319.245850 44.254639 Q 318.883301 43.677246 318.190430 43.677246 Q 317.465332 43.677246 317.083984 44.254639 Q 316.702637 44.832031 316.702637 45.943848 Q 316.702637 47.055664 317.086670 47.638428 Q 317.470703 48.221191 318.201172 48.221191 Q 318.883301 48.221191 319.245850 47.635742 Q 319.608398 47.050293 319.608398 45.943848 Z M 320.596680 48.613281 Q 320.596680 49.966797 319.957520 50.665039 Q 319.318359 51.363281 318.077637 51.363281 Q 317.669434 51.363281 317.223633 51.288086 Q 316.777832 51.212891 316.332031 51.067871 L 316.332031 50.090332 Q 316.858398 50.337402 317.288086 50.455566 Q 317.717773 50.573730 318.077637 50.573730 Q 318.877930 50.573730 319.243164 50.138672 Q 319.608398 49.703613 319.608398 48.758301 L 319.608398 48.715332 L 319.608398 48.043945 Q 319.372070 48.548828 318.963867 48.795898 Q 318.555664 49.042969 317.970215 49.042969 Q 316.917480 49.042969 316.289062 48.199707 Q 315.660645 47.356445 315.660645 45.943848 Q 315.660645 44.525879 316.289062 43.682617 Q 316.917480 42.839355 317.970215 42.839355 Q 318.550293 42.839355 318.953125 43.070312 Q 319.355957 43.301270 319.608398 43.784668 L 319.608398 43.005859 L 320.596680 43.005859 Z " fill="black" fill-opacity="1.000000"/>
<path d="M 323.450195 48.092285 L 325.136719 48.092285 L 325.136719 42.033691 L 323.117188 43.005859 L 323.117188 41.963867 L 325.125977 41.007812 L 326.210938 41.007812 L 326.210938 48.092285 L 327.875977 48.092285 L 327.875977 49.000000 L 323.450195 49.000000 Z " fill="black" fill-opacity="1.000000"/>
<path d="M 330.154785 40.980957 L 331.245117 40.980957 L 331.245117 48.086914 L 335.117676 48.086914 L 335.117676 49.000000 L 330.154785 49.000000 Z " fill="black" fill-opacity="1.000000"/>
<path d="M 342.015625 45.498047 L 342.015625 45.981445 L 337.734863 45.981445 L 337.734863 46.013672 Q 337.691895 47.243652 338.204834 47.780762 Q 338.717773 48.317871 339.652344 48.317871 Q 340.125000 48.317871 340.640625 48.167480 Q 341.156250 48.017090 341.741699 47.710938 L 341.741699 48.693848 Q 341.177734 48.924805 340.654053 49.040283 Q 340.130371 49.155762 339.641602 49.155762 Q 338.239746 49.155762 337.450195 48.315186 Q 336.660645 47.474609 336.660645 45.997559 Q 336.660645 44.558105 337.434082 43.698730 Q 338.207520 42.839355 339.496582 42.839355 Q 340.645996 42.839355 341.309326 43.618164 Q 341.972656 44.396973 342.015625 45.498047 Z M 341.027344 45.208008 Q 340.962891 44.584961 340.573486 44.131104 Q 340.184082 43.677246 339.453613 43.677246 Q 338.739258 43.677246 338.277344 44.149902 Q 337.815430 44.622559 337.772461 45.213379 Z " fill="black" fill-opacity="1.000000"/>
<path d="M 348.645020 45.272461 L 348.645020 49.000000 L 347.651367 49.000000 L 347.651367 45.272461 Q 347.651367 44.461426 347.366699 44.080078 Q 347.082031 43.698730 346.475098 43.698730 Q 345.782227 43.698730 345.408936 44.190186 Q 345.035645 44.681641 345.035645 45.600098 L 345.035645 49.000000 L 344.047363 49.000000 L 344.047363 42.984375 L 345.035645 42.984375 L 345.035645 43.886719 Q 345.298828 43.371094 345.750000 43.105225 Q 346.201172 42.839355 346.818848 42.839355 Q 347.737305 42.839355 348.191162 43.443604 Q 348.645020 44.047852 348.645020 45.272461 Z " fill="black" fill-opacity="1.000000"/>
<path d="M 366.878906 52.319336 L 366.878906 38.300781 L 367.738281 38.300781 L 367.738281 52.319336 Z " fill="black" fill-opacity="1.000000"/>
<path d="M 390.435547 41.254883 L 390.435547 42.355957 Q 389.941406 42.039062 389.444580 41.877930 Q 388.947754 41.716797 388.442871 41.716797 Q 387.674805 41.716797 387.229004 42.073975 Q 386.783203 42.431152 386.783203 43.038086 Q 386.783203 43.569824 387.075928 43.849121 Q 387.368652 44.128418 388.168945 44.316406 L 388.738281 44.445312 Q 389.866211 44.708496 390.381836 45.272461 Q 390.897461 45.836426 390.897461 46.808594 Q 390.897461 47.952637 390.188477 48.554199 Q 389.479492 49.155762 388.125977 49.155762 Q 387.562012 49.155762 386.992676 49.034912 Q 386.423340 48.914062 385.848633 48.672363 L 385.848633 47.517578 Q 386.466309 47.909668 387.016846 48.092285 Q 387.567383 48.274902 388.125977 48.274902 Q 388.947754 48.274902 389.404297 47.906982 Q 389.860840 47.539062 389.860840 46.878418 Q 389.860840 46.276855 389.546631 45.959961 Q 389.232422 45.643066 388.453613 45.471191 L 387.873535 45.336914 Q 386.756348 45.084473 386.251465 44.574219 Q 385.746582 44.063965 385.746582 43.204590 Q 385.746582 42.130371 386.468994 41.483154 Q 387.191406 40.835938 388.389160 40.835938 Q 388.851074 40.835938 389.361328 40.940674 Q 389.871582 41.045410 390.435547 41.254883 Z " fill="black" fill-opacity="1.000000"/>
<path d="M 398.015625 45.498047 L 398.015625 45.981445 L 393.734863 45.981445 L 393.734863 46.013672 Q 393.691895 47.243652 394.204834 47.780762 Q 394.717773 48.317871 395.652344 48.317871 Q 396.125000 48.317871 396.640625 48.167480 Q 397.156250 48.017090 397.741699 47.710938 L 397.741699 48.693848 Q 397.177734 48.924805 396.654053 49.040283 Q 396.130371 49.155762 395.641602 49.155762 Q 394.239746 49.155762 393.450195 48.315186 Q 392.660645 47.474609 392.660645 45.997559 Q 392.660645 44.558105 393.434082 43.698730 Q 394.207520 42.839355 395.496582 42.839355 Q 396.645996 42.839355 397.309326 43.618164 Q 397.972656 44.396973 398.015625 45.498047 Z M 397.027344 45.208008 Q 396.962891 44.584961 396.573486 44.131104 Q 396.184082 43.677246 395.453613 43.677246 Q 394.739258 43.677246 394.277344 44.149902 Q 393.815430 44.622559 393.772461 45.213379 Z " fill="black" fill-opacity="1.000000"/>
<path d="M 403.608398 45.943848 Q 403.608398 44.832031 403.245850 44.254639 Q 402.883301 43.677246 402.190430 43.677246 Q 401.465332 43.677246 401.083984 44.254639 Q 400.702637 44.832031 400.702637 45.943848 Q 400.702637 47.055664 401.086670 47.638428 Q 401.470703 48.221191 402.201172 48.221191 Q 402.883301 48.221191 403.245850 47.635742 Q 403.608398 47.050293 403.608398 45.943848 Z M 404.596680 48.613281 Q 404.596680 49.966797 403.957520 50.665039 Q 403.318359 51.363281 402.077637 51.363281 Q 401.669434 51.363281 401.223633 51.288086 Q 400.777832 51.212891 400.332031 51.067871 L 400.332031 50.090332 Q 400.858398 50.337402 401.288086 50.455566 Q 401.717773 50.573730 402.077637 50.573730 Q 402.877930 50.573730 403.243164 50.138672 Q 403.608398 49.703613 403.608398 48.758301 L 403.608398 48.715332 L 403.608398 48.043945 Q 403.372070 48.548828 402.963867 48.795898 Q 402.555664 49.042969 401.970215 49.042969 Q 400.917480 49.042969 400.289062 48.199707 Q 399.660645 47.356445 399.660645 45.943848 Q 399.660645 44.525879 400.289062 43.682617 Q 400.917480 42.839355 401.970215 42.839355 Q 402.550293 42.839355 402.953125 43.070312 Q 403.355957 43.301270 403.608398 43.784668 L 403.608398 43.005859 L 404.596680 43.005859 Z " fill="black" fill-opacity="1.000000"/>
<path d="M 408.003418 48.086914 L 411.687988 48.086914 L 411.687988 49.000000 L 406.816406 49.000000 L 406.816406 48.086914 Q 407.820801 47.028809 408.572754 46.217773 Q 409.324707 45.406738 409.609375 45.073730 Q 410.146484 44.418457 410.334473 44.012939 Q 410.522461 43.607422 410.522461 43.183105 Q 410.522461 42.511719 410.127686 42.130371 Q 409.732910 41.749023 409.045410 41.749023 Q 408.556641 41.749023 408.019531 41.926270 Q 407.482422 42.103516 406.880859 42.463379 L 406.880859 41.367676 Q 407.434082 41.104492 407.968506 40.970215 Q 408.502930 40.835938 409.023926 40.835938 Q 410.200195 40.835938 410.917236 41.461670 Q 411.634277 42.087402 411.634277 43.102539 Q 411.634277 43.618164 411.395264 44.133789 Q 411.156250 44.649414 410.619141 45.272461 Q 410.318359 45.621582 409.746338 46.239258 Q 409.174316 46.856934 408.003418 48.086914 Z " fill="black" fill-opacity="1.000000"/>
<path d="M 414.154785 40.980957 L 415.245117 40.980957 L 415.245117 48.086914 L 419.117676 48.086914 L 419.117676 49.000000 L 414.154785 49.000000 Z " fill="black" fill-opacity="1.000000"/>
<path d="M 426.015625 45.498047 L 426.015625 45.981445 L 421.734863 45.981445 L 421.734863 46.013672 Q 421.691895 47.243652 422.204834 47.780762 Q 422.717773 48.317871 423.652344 48.317871 Q 424.125000 48.317871 424.640625 48.167480 Q 425.156250 48.017090 425.741699 47.710938 L 425.741699 48.693848 Q 425.177734 48.924805 424.654053 49.040283 Q 424.130371 49.155762 423.641602 49.155762 Q 422.239746 49.155762 421.450195 48.315186 Q 420.660645 47.474609 420.660645 45.997559 Q 420.660645 44.558105 421.434082 43.698730 Q 422.207520 42.839355 423.496582 42.839355 Q 424.645996 42.839355 425.309326 43.618164 Q 425.972656 44.396973 426.015625 45.498047 Z M 425.027344 45.208008 Q 424.962891 44.584961 424.573486 44.131104 Q 424.184082 43.677246 423.453613 43.677246 Q 422.739258 43.677246 422.277344 44.149902 Q 421.815430 44.622559 421.772461 45.213379 Z " fill="black" fill-opacity="1.000000"/>
<path d="M 432.645020 45.272461 L 432.645020 49.000000 L 431.651367 49.000000 L 431.651367 45.272461 Q 431.651367 44.461426 431.366699 44.080078 Q 431.082031 43.698730 430.475098 43.698730 Q 429.782227 43.698730 429.408936 44.190186 Q 429.035645 44.681641 429.035645 45.600098 L 429.035645 49.000000 L 428.047363 49.000000 L 428.047363 42.984375 L 429.035645 42.984375 L 429.035645 43.886719 Q 429.298828 43.371094 429.750000 43.105225 Q 430.201172 42.839355 430.818848 42.839355 Q 431.737305 42.839355 432.191162 43.443604 Q 432.645020 44.047852 432.645020 45.272461 Z " fill="black" fill-opacity="1.000000"/>
<path d="M 450.878906 52.319336 L 450.878906 38.300781 L 451.738281 38.300781 L 451.738281 52.319336 Z " fill="black" fill-opacity="1.000000"/>
<path d="M 6.892578 33.335938 L 6.892578 32.412109 L 13.729980 32.412109 L 13.729980 33.335938 Z " fill="black" fill-opacity="1.000000"/>
<path d="M 13.892578 33.335938 L 13.892578 32.412109 L 16.878906 32.412109 L 16.878906 25.300781 L 17.738281 25.300781 L 17.738281 32.412109 L 20.729980 32.412109 L 20.729980 33.335938 Z " fill="black" fill-opacity="1.000000"/>
<path d="M 20.892578 33.335938 L 20.892578 32.412109 L 27.729980 32.412109 L 27.729980 33.335938 Z " fill="black" fill-opacity="1.000000"/>
<path d="M 31.738281 33.335938 L 31.738281 39.319336 L 30.878906 39.319336 L 30.878906 33.335938 L 27.892578 33.335938 L 27.892578 32.412109 L 30.878906 32.412109 L 30.878906 25.300781 L 31.738281 25.300781 L 31.738281 32.412109 L 34.729980 32.412109 L 34.729980 33.335938 Z " fill="black" fill-opacity="1.000000"/>
<path d="M 34.892578 33.335938 L 34.892578 32.412109 L 41.729980 32.412109 L 41.729980 33.335938 Z " fill="black" fill-opacity="1.000000"/>
<path d="M 41.892578 33.335938 L 41.892578 32.412109 L 44.878906 32.412109 L 44.878906 25.300781 L 45.738281 25.300781 L 45.738281 32.412109 L 48.729980 32.412109 L 48.729980 33.335938 Z " fill="black" fill-opacity="1.000000"/>
<path d="M 48.892578 33.335938 L 48.892578 32.412109 L 55.729980 32.412109 L 55.729980 33.335938 Z " fill="black" fill-opacity="1.000000"/>
<path d="M 55.892578 33.335938 L 55.892578 32.412109 L 58.878906 32.412109 L 58.878906 25.300781 L 59.738281 25.300781 L 59.738281 32.412109 L 62.729980 32.412109 L 62.729980 33.335938 Z " fill="black" fill-opacity="1.000000"/>
<path d="M 62.892578 33.335938 L 62.892578 32.412109 L 69.729980 32.412109 L 69.729980 33.335938 Z " fill="black" fill-opacity="1.000000"/>
<path d="M 69.892578 33.335938 L 69.892578 32.412109 L 72.878906 32.412109 L 72.878906 25.300781 L 73.738281 25.300781 L 73.738281 32.412109 L 76.729980 32.412109 L 76.729980 33.335938 Z " fill="black" fill-opacity="1.000000"/>
<path d="M 76.892578 33.335938 L 76.892578 32.412109 L 83.729980 32.412109 L 83.729980 33.335938 Z " fill="black" fill-opacity="1.000000"/>
<path d="M 83.892578 33.335938 L 83.892578 32.412109 L 86.878906 32.412109 L 86.878906 25.300781 L 87.738281 25.300781 L 87.738281 32.412109 L 90.729980 32.412109 L 90.729980 33.335938 Z " fill="black" fill-opacity="1.000000"/>
<path d="M 90.892578 33.335938 L 90.892578 32.412109 L 97.729980 32.412109 L 97.729980 33.335938 Z " fill="black" fill-opacity="1.000000"/>
<path d="M 97.892578 33.335938 L 97.892578 32.412109 L 100.878906 32.412109 L 100.878906 25.300781 L 101.738281 25.300781 L 101.738281 32.412109 L 104.729980 32.412109 L 104.729980 33.335938 Z " fill="black" fill-opacity="1.000000"/>
<path d="M 104.892578 33.335938 L 104.892578 32.412109 L 111.729980 32.412109 L 111.729980 33.335938 Z " fill="black" fill-opacity="1.000000"/>
<path d="M 115.738281 33.335938 L 115.738281 39.319336 L 114.878906 39.319336 L 114.878906 33.335938 L 111.892578 33.335938 L 111.892578 32.412109 L 114.878906 32.412109 L 114.878906 25.300781 L 115.738281 25.300781 L 115.738281 32.412109 L 118.729980 32.412109 L 118.729980 33.335938 Z " fill="black" fill-opacity="1.000000"/>
<path d="M 118.892578 33.335938 L 118.892578 32.412109 L 125.729980 32.412109 L 125.729980 33.335938 Z " fill="black" fill-opacity="1.000000"/>
<path d="M 125.892578 33.335938 L 125.892578 32.412109 L 128.878906 32.412109 L 128.878906 25.300781 L 129.738281 25.300781 L 129.738281 32.412109 L 132.729980 32.412109 L 132.729980 33.335938 Z " fill="black" fill-opacity="1.000000"/>
<path d="M 132.892578 33.335938 L 132.892578 32.412109 L 139.729980 32.412109 L 139.729980 33.335938 Z " fill="black" fill-opacity="1.000000"/>
<path d="M 139.892578 33.335938 L 139.892578 32.412109 L 142.878906 32.412109 L 142.878906 25.300781 L 143.738281 25.300781 L 143.738281 32.412109 L 146.729980 32.412109 L 146.729980 33.335938 Z " fill="black" fill-opacity="1.000000"/>
<path d="M 146.892578 33.335938 L 146.892578 32.412109 L 153.729980 32.412109 L 153.729980 33.335938 Z " fill="black" fill-opacity="1.000000"/>
<path d="M 153.892578 33.335938 L 153.892578 32.412109 L 156.878906 32.412109 L 156.878906 25.300781 L 157.738281 25.300781 L 157.738281 32.412109 L 160.729980 32.412109 L 160.729980 33.335938 Z " fill="black" fill-opacity="1.000000"/>
<path d="M 160.892578 33.335938 L 160.892578 32.412109 L 167.729980 32.412109 L 167.729980 33.335938 Z " fill="black" fill-opacity="1.000000"/>
<path d="M 167.892578 33.335938 L 167.892578 32.412109 L 170.878906 32.412109 L 170.878906 25.300781 L 171.738281 25.300781 L 171.738281 32.412109 L 174.729980 32.412109 L 174.729980 33.335938 Z " fill="black" fill-opacity="1.000000"/>
<path d="M 174.892578 33.335938 L 174.892578 32.412109 L 181.729980 32.412109 L 181.729980 33.335938 Z " fill="black" fill-opacity="1.000000"/>
<path d="M 181.892578 33.335938 L 181.892578 32.412109 L 184.878906 32.412109 L 184.878906 25.300781 L 185.738281 25.300781 L 185.738281 32.412109 L 188.729980 32.412109 L 188.729980 33.335938 Z " fill="black" fill-opacity="1.000000"/>
<path d="M 188.892578 33.335938 L 188.892578 32.412109 L 195.729980 32.412109 L 195.729980 33.335938 Z " fill="black" fill-opacity="1.000000"/>
<path d="M 199.738281 33.335938 L 199.738281 39.319336 L 198.878906 39.319336 L 198.878906 33.335938 L 195.892578 33.335938 L 195.892578 32.412109 L 198.878906 32.412109 L 198.878906 25.300781 L 199.738281 25.300781 L 199.738281 32.412109 L 202.729980 32.412109 L 202.729980 33.335938 Z " fill="black" fill-opacity="1.000000"/>
<path d="M 202.892578 33.335938 L 202.892578 32.412109 L 209.729980 32.412109 L 209.729980 33.335938 Z " fill="black" fill-opacity="1.000000"/>
<path d="M 209.892578 33.335938 L 209.892578 32.412109 L 212.878906 32.412109 L 212.878906 25.300781 L 213.738281 25.300781 L 213.738281 32.412109 L 216.729980 32.412109 L 216.729980 33.335938 Z " fill="black" fill-opacity="1.000000"/>
<path d="M 216.892578 33.335938 L 216.892578 32.412109 L 223.729980 32.412109 L 223.729980 33.335938 Z " fill="black" fill-opacity="1.000000"/>
<path d="M 223.892578 33.335938 L 223.892578 32.412109 L 226.878906 32.412109 L 226.878906 25.300781 L 227.738281 25.300781 L 227.738281 32.412109 L 230.729980 32.412109 L 230.729980 33.335938 Z " fill="black" fill-opacity="1.000000"/>
<path d="M 230.892578 33.335938 L 230.892578 32.412109 L 237.729980 32.412109 L 237.729980 33.335938 Z " fill="black" fill-opacity="1.000000"/>
<path d="M 237.892578 33.335938 L 237.892578 32.412109 L 240.878906 32.412109 L 240.878906 25.300781 L 241.738281 25.300781 L 241.738281 32.412109 L 244.729980 32.412109 L 244.729980 33.335938 Z " fill="black" fill-opacity="1.000000"/>
<path d="M 244.892578 33.335938 L 244.892578 32.412109 L 251.729980 32.412109 L 251.729980 33.335938 Z " fill="black" fill-opacity="1.000000"/>
<path d="M 251.892578 33.335938 L 251.892578 32.412109 L 254.878906 32.412109 L 254.878906 25.300781 L 255.738281 25.300781 L 255.738281 32.412109 L 258.729980 32.412109 L 258.729980 33.335938 Z " fill="black" fill-opacity="1.000000"/>
<path d="M 258.892578 33.335938 L 258.892578 32.412109 L 265.729980 32.412109 L 265.729980 33.335938 Z " fill="black" fill-opacity="1.000000"/>
<path d="M 265.892578 33.335938 L 265.892578 32.412109 L 268.878906 32.412109 L 268.878906 25.300781 L 269.738281 25.300781 L 269.738281 32.412109 L 272.729980 32.412109 L 272.729980 33.335938 Z " fill="black" fill-opacity="1.000000"/>
<path d="M 272.892578 33.335938 L 272.892578 32.412109 L 279.729980 32.412109 L 279.729980 33.335938 Z " fill="black" fill-opacity="1.000000"/>
<path d="M 283.738281 33.335938 L 283.738281 39.319336 L 282.878906 39.319336 L 282.878906 33.335938 L 279.892578 33.335938 L 279.892578 32.412109 L 282.878906 32.412109 L 282.878906 25.300781 L 283.738281 25.300781 L 283.738281 32.412109 L 286.729980 32.412109 L 286.729980 33.335938 Z " fill="black" fill-opacity="1.000000"/>
<path d="M 286.892578 33.335938 L 286.892578 32.412109 L 293.729980 32.412109 L 293.729980 33.335938 Z " fill="black" fill-opacity="1.000000"/>
<path d="M 293.892578 33.335938 L 293.892578 32.412109 L 296.878906 32.412109 L 296.878906 25.300781 L 297.738281 25.300781 L 297.738281 32.412109 L 300.729980 32.412109 L 300.729980 33.335938 Z " fill="black" fill-opacity="1.000000"/>
<path d="M 300.892578 33.335938 L 300.892578 32.412109 L 307.729980 32.412109 L 307.729980 33.335938 Z " fill="black" fill-opacity="1.000000"/>
<path d="M 307.892578 33.335938 L 307.892578 32.412109 L 310.878906 32.412109 L 310.878906 25.300781 L 311.738281 25.300781 L 311.738281 32.412109 L 314.729980 32.412109 L 314.729980 33.335938 Z " fill="black" fill-opacity="1.000000"/>
<path d="M 314.892578 33.335938 L 314.892578 32.412109 L 321.729980 32.412109 L 321.729980 33.335938 Z " fill="black" fill-opacity="1.000000"/>
<path d="M 321.892578 33.335938 L 321.892578 32.412109 L 324.878906 32.412109 L 324.878906 25.300781 L 325.738281 25.300781 L 325.738281 32.412109 L 328.729980 32.412109 L 328.729980 33.335938 Z " fill="black" fill-opacity="1.000000"/>
<path d="M 328.892578 33.335938 L 328.892578 32.412109 L 335.729980 32.412109 L 335.729980 33.335938 Z " fill="black" fill-opacity="1.000000"/>
<path d="M 335.892578 33.335938 L 335.892578 32.412109 L 338.878906 32.412109 L 338.878906 25.300781 L 339.738281 25.300781 L 339.738281 32.412109 L 342.729980 32.412109 L 342.729980 33.335938 Z " fill="black" fill-opacity="1.000000"/>
<path d="M 342.892578 33.335938 L 342.892578 32.412109 L 349.729980 32.412109 L 349.729980 33.335938 Z " fill="black" fill-opacity="1.000000"/>
<path d="M 349.892578 33.335938 L 349.892578 32.412109 L 352.878906 32.412109 L 352.878906 25.300781 L 353.738281 25.300781 L 353.738281 32.412109 L 356.729980 32.412109 L 356.729980 33.335938 Z " fill="black" fill-opacity="1.000000"/>
<path d="M 356.892578 33.335938 L 356.892578 32.412109 L 363.729980 32.412109 L 363.729980 33.335938 Z " fill="black" fill-opacity="1.000000"/>
<path d="M 367.738281 33.335938 L 367.738281 39.319336 L 366.878906 39.319336 L 366.878906 33.335938 L 363.892578 33.335938 L 363.892578 32.412109 L 366.878906 32.412109 L 366.878906 25.300781 L 367.738281 25.300781 L 367.738281 32.412109 L 370.729980 32.412109 L 370.729980 33.335938 Z " fill="black" fill-opacity="1.000000"/>
<path d="M 370.892578 33.335938 L 370.892578 32.412109 L 377.729980 32.412109 L 377.729980 33.335938 Z " fill="black" fill-opacity="1.000000"/>
<path d="M 377.892578 33.335938 L 377.892578 32.412109 L 380.878906 32.412109 L 380.878906 25.300781 L 381.738281 25.300781 L 381.738281 32.412109 L 384.729980 32.412109 L 384.729980 33.335938 Z " fill="black" fill-opacity="1.000000"/>
<path d="M 384.892578 33.335938 L 384.892578 32.412109 L 391.729980 32.412109 L 391.729980 33.335938 Z " fill="black" fill-opacity="1.000000"/>
<path d="M 391.892578 33.335938 L 391.892578 32.412109 L 394.878906 32.412109 L 394.878906 25.300781 L 395.738281 25.300781 L 395.738281 32.412109 L 398.729980 32.412109 L 398.729980 33.335938 Z " fill="black" fill-opacity="1.000000"/>
<path d="M 398.892578 33.335938 L 398.892578 32.412109 L 405.729980 32.412109 L 405.729980 33.335938 Z " fill="black" fill-opacity="1.000000"/>
<path d="M 405.892578 33.335938 L 405.892578 32.412109 L 408.878906 32.412109 L 408.878906 25.300781 L 409.738281 25.300781 L 409.738281 32.412109 L 412.729980 32.412109 L 412.729980 33.335938 Z " fill="black" fill-opacity="1.000000"/>
<path d="M 412.892578 33.335938 L 412.892578 32.412109 L 419.729980 32.412109 L 419.729980 33.335938 Z " fill="black" fill-opacity="1.000000"/>
<path d="M 419.892578 33.335938 L 419.892578 32.412109 L 422.878906 32.412109 L 422.878906 25.300781 L 423.738281 25.300781 L 423.738281 32.412109 L 426.729980 32.412109 L 426.729980 33.335938 Z " fill="black" fill-opacity="1.000000"/>
<path d="M 426.892578 33.335938 L 426.892578 32.412109 L 433.729980 32.412109 L 433.729980 33.335938 Z " fill="black" fill-opacity="1.000000"/>
<path d="M 433.892578 33.335938 L 433.892578 32.412109 L 436.878906 32.412109 L 436.878906 25.300781 L 437.738281 25.300781 L 437.738281 32.412109 L 440.729980 32.412109 L 440.729980 33.335938 Z " fill="black" fill-opacity="1.000000"/>
<path d="M 440.892578 33.335938 L 440.892578 32.412109 L 447.729980 32.412109 L 447.729980 33.335938 Z " fill="black" fill-opacity="1.000000"/>
<path d="M 450.878906 39.319336 L 450.878906 33.335938 L 447.892578 33.335938 L 447.892578 32.412109 L 450.878906 32.412109 L 450.878906 25.300781 L 451.738281 25.300781 L 451.738281 39.319336 Z " fill="black" fill-opacity="1.000000"/>
<path d="M 10.308594 1.862793 Q 11.592285 1.862793 12.250244 2.910156 Q 12.908203 3.957520 12.908203 6.009277 Q 12.908203 8.061035 12.250244 9.108398 Q 11.592285 10.155762 10.308594 10.155762 Q 9.024902 10.155762 8.369629 9.108398 Q 7.714355 8.061035 7.714355 6.009277 Q 7.714355 3.957520 8.369629 2.910156 Q 9.024902 1.862793 10.308594 1.862793 Z M 10.308594 9.296387 Q 11.071289 9.296387 11.444580 8.485352 Q 11.817871 7.674316 11.817871 6.009277 Q 11.817871 5.123047 11.710449 4.408691 L 9.153809 8.410156 Q 9.556641 9.296387 10.308594 9.296387 Z M 10.308594 2.722168 Q 9.551270 2.722168 9.177979 3.533203 Q 8.804688 4.344238 8.804688 6.009277 Q 8.804688 6.766602 8.906738 7.427246 L 11.409668 3.436523 Q 11.001465 2.722168 10.308594 2.722168 Z " fill="black" fill-opacity="1.000000"/>
<path d="M 10.308594 14.862793 Q 11.592285 14.862793 12.250244 15.910156 Q 12.908203 16.957520 12.908203 19.009277 Q 12.908203 21.061035 12.250244 22.108398 Q 11.592285 23.155762 10.308594 23.155762 Q 9.024902 23.155762 8.369629 22.108398 Q 7.714355 21.061035 7.714355 19.009277 Q 7.714355 16.957520 8.369629 15.910156 Q 9.024902 14.862793 10.308594 14.862793 Z M 10.308594 22.296387 Q 11.071289 22.296387 11.444580 21.485352 Q 11.817871 20.674316 11.817871 19.009277 Q 11.817871 18.123047 11.710449 17.408691 L 9.153809 21.410156 Q 9.556641 22.296387 10.308594 22.296387 Z M 10.308594 15.722168 Q 9.551270 15.722168 9.177979 16.533203 Q 8.804688 17.344238 8.804688 19.009277 Q 8.804688 19.766602 8.906738 20.427246 L 11.409668 16.436523 Q 11.001465 15.722168 10.308594 15.722168 Z " fill="black" fill-opacity="1.000000"/>
<path d="M 22.450195 22.092285 L 24.136719 22.092285 L 24.136719 16.033691 L 22.117188 17.005859 L 22.117188 15.963867 L 24.125977 15.007812 L 25.210938 15.007812 L 25.210938 22.092285 L 26.875977 22.092285 L 26.875977 23.000000 L 22.450195 23.000000 Z " fill="black" fill-opacity="1.000000"/>
<path d="M 37.003418 22.086914 L 40.687988 22.086914 L 40.687988 23.000000 L 35.816406 23.000000 L 35.816406 22.086914 Q 36.820801 21.028809 37.572754 20.217773 Q 38.324707 19.406738 38.609375 19.073730 Q 39.146484 18.418457 39.334473 18.012939 Q 39.522461 17.607422 39.522461 17.183105 Q 39.522461 16.511719 39.127686 16.130371 Q 38.732910 15.749023 38.045410 15.749023 Q 37.556641 15.749023 37.019531 15.926270 Q 36.482422 16.103516 35.880859 16.463379 L 35.880859 15.367676 Q 36.434082 15.104492 36.968506 14.970215 Q 37.502930 14.835938 38.023926 14.835938 Q 39.200195 14.835938 39.917236 15.461670 Q 40.634277 16.087402 40.634277 17.102539 Q 40.634277 17.618164 40.395264 18.133789 Q 40.156250 18.649414 39.619141 19.272461 Q 39.318359 19.621582 38.746338 20.239258 Q 38.174316 20.856934 37.003418 22.086914 Z " fill="black" fill-opacity="1.000000"/>
<path d="M 53.167969 18.708496 Q 53.957520 18.917969 54.376465 19.452393 Q 54.795410 19.986816 54.795410 20.787109 Q 54.795410 21.893555 54.051514 22.524658 Q 53.307617 23.155762 51.991699 23.155762 Q 51.438477 23.155762 50.863770 23.053711 Q 50.289062 22.951660 49.735840 22.758301 L 49.735840 21.678711 Q 50.283691 21.963379 50.815430 22.103027 Q 51.347168 22.242676 51.873535 22.242676 Q 52.765137 22.242676 53.243164 21.839844 Q 53.721191 21.437012 53.721191 20.679688 Q 53.721191 19.981445 53.243164 19.570557 Q 52.765137 19.159668 51.948730 19.159668 L 51.121582 19.159668 L 51.121582 18.268066 L 51.948730 18.268066 Q 52.695312 18.268066 53.114258 17.940430 Q 53.533203 17.612793 53.533203 17.027344 Q 53.533203 16.409668 53.143799 16.079346 Q 52.754395 15.749023 52.034668 15.749023 Q 51.556641 15.749023 51.046387 15.856445 Q 50.536133 15.963867 49.977539 16.178711 L 49.977539 15.179688 Q 50.627441 15.007812 51.135010 14.921875 Q 51.642578 14.835938 52.034668 14.835938 Q 53.205566 14.835938 53.906494 15.424072 Q 54.607422 16.012207 54.607422 16.984375 Q 54.607422 17.645020 54.239502 18.085449 Q 53.871582 18.525879 53.167969 18.708496 Z " fill="black" fill-opacity="1.000000"/>
<path d="M 66.947754 15.969238 L 64.417969 20.207031 L 66.947754 20.207031 Z M 66.770508 14.980957 L 68.027344 14.980957 L 68.027344 20.207031 L 69.096191 20.207031 L 69.096191 21.087891 L 68.027344 21.087891 L 68.027344 23.000000 L 66.947754 23.000000 L 66.947754 21.087891 L 63.547852 21.087891 L 63.547852 20.062012 Z " fill="black" fill-opacity="1.000000"/>
<path d="M 78.111816 14.980957 L 82.172363 14.980957 L 82.172363 15.894043 L 79.100098 15.894043 L 79.100098 17.865234 Q 79.331055 17.779297 79.564697 17.739014 Q 79.798340 17.698730 80.034668 17.698730 Q 81.280762 17.698730 82.011230 18.434570 Q 82.741699 19.170410 82.741699 20.427246 Q 82.741699 21.694824 81.976318 22.425293 Q 81.210938 23.155762 79.884277 23.155762 Q 79.245117 23.155762 78.716064 23.069824 Q 78.187012 22.983887 77.768066 22.812012 L 77.768066 21.710938 Q 78.262207 21.979492 78.761719 22.111084 Q 79.261230 22.242676 79.782227 22.242676 Q 80.679199 22.242676 81.165283 21.770020 Q 81.651367 21.297363 81.651367 20.427246 Q 81.651367 19.567871 81.149170 19.089844 Q 80.646973 18.611816 79.750000 18.611816 Q 79.314941 18.611816 78.901367 18.711182 Q 78.487793 18.810547 78.111816 19.009277 Z " fill="black" fill-opacity="1.000000"/>
<path d="M 96.322754 15.158203 L 96.322754 16.157227 Q 95.984375 15.958496 95.603027 15.853760 Q 95.221680 15.749023 94.808105 15.749023 Q 93.776855 15.749023 93.245117 16.525146 Q 92.713379 17.301270 92.713379 18.810547 Q 92.971191 18.273438 93.427734 17.986084 Q 93.884277 17.698730 94.475098 17.698730 Q 95.635254 17.698730 96.271729 18.410400 Q 96.908203 19.122070 96.908203 20.427246 Q 96.908203 21.727051 96.252930 22.441406 Q 95.597656 23.155762 94.410645 23.155762 Q 93.014160 23.155762 92.364258 22.154053 Q 91.714355 21.152344 91.714355 18.998535 Q 91.714355 16.968262 92.495850 15.902100 Q 93.277344 14.835938 94.759766 14.835938 Q 95.157227 14.835938 95.554688 14.919189 Q 95.952148 15.002441 96.322754 15.158203 Z M 94.389160 18.547363 Q 93.696289 18.547363 93.298828 19.046875 Q 92.901367 19.546387 92.901367 20.427246 Q 92.901367 21.308105 93.298828 21.807617 Q 93.696289 22.307129 94.389160 22.307129 Q 95.108887 22.307129 95.474121 21.831787 Q 95.839355 21.356445 95.839355 20.427246 Q 95.839355 19.492676 95.474121 19.020020 Q 95.108887 18.547363 94.389160 18.547363 Z " fill="black" fill-opacity="1.000000"/>
<path d="M 105.746582 14.980957 L 110.795410 14.980957 L 110.795410 15.442871 L 107.927246 23.000000 L 106.793945 23.000000 L 109.586914 15.894043 L 105.746582 15.894043 Z " fill="black" fill-opacity="1.000000"/>
<path d="M 122.308594 19.191895 Q 121.583496 19.191895 121.188721 19.597412 Q 120.793945 20.002930 120.793945 20.744141 Q 120.793945 21.485352 121.194092 21.896240 Q 121.594238 22.307129 122.308594 22.307129 Q 123.039062 22.307129 123.433838 21.901611 Q 123.828613 21.496094 123.828613 20.744141 Q 123.828613 20.008301 123.428467 19.600098 Q 123.028320 19.191895 122.308594 19.191895 Z M 121.363281 18.740723 Q 120.670410 18.563477 120.281006 18.080078 Q 119.891602 17.596680 119.891602 16.914551 Q 119.891602 15.958496 120.541504 15.397217 Q 121.191406 14.835938 122.308594 14.835938 Q 123.431152 14.835938 124.081055 15.397217 Q 124.730957 15.958496 124.730957 16.914551 Q 124.730957 17.596680 124.341553 18.080078 Q 123.952148 18.563477 123.259277 18.740723 Q 124.064941 18.917969 124.491943 19.455078 Q 124.918945 19.992188 124.918945 20.846191 Q 124.918945 21.931152 124.226074 22.543457 Q 123.533203 23.155762 122.308594 23.155762 Q 121.083984 23.155762 120.393799 22.546143 Q 119.703613 21.936523 119.703613 20.856934 Q 119.703613 19.997559 120.130615 19.457764 Q 120.557617 18.917969 121.363281 18.740723 Z M 120.971191 17.016602 Q 120.971191 17.661133 121.314941 17.999512 Q 121.658691 18.337891 122.308594 18.337891 Q 122.963867 18.337891 123.307617 17.999512 Q 123.651367 17.661133 123.651367 17.016602 Q 123.651367 16.361328 123.310303 16.017578 Q 122.969238 15.673828 122.308594 15.673828 Q 121.658691 15.673828 121.314941 16.020264 Q 120.971191 16.366699 120.971191 17.016602 Z " fill="black" fill-opacity="1.000000"/>
<path d="M 136.201172 19.444336 Q 136.894043 19.444336 137.288818 18.944824 Q 137.683594 18.445312 137.683594 17.564453 Q 137.683594 16.683594 137.288818 16.184082 Q 136.894043 15.684570 136.201172 15.684570 Q 135.481445 15.684570 135.116211 16.159912 Q 134.750977 16.635254 134.750977 17.564453 Q 134.750977 18.499023 135.113525 18.971680 Q 135.476074 19.444336 136.201172 19.444336 Z M 134.267578 22.833496 L 134.267578 21.834473 Q 134.605957 22.033203 134.987305 22.137939 Q 135.368652 22.242676 135.782227 22.242676 Q 136.813477 22.242676 137.342529 21.466553 Q 137.871582 20.690430 137.871582 19.181152 Q 137.619141 19.718262 137.162598 20.005615 Q 136.706055 20.292969 136.115234 20.292969 Q 134.955078 20.292969 134.318604 19.578613 Q 133.682129 18.864258 133.682129 17.553711 Q 133.682129 16.259277 134.334717 15.547607 Q 134.987305 14.835938 136.179688 14.835938 Q 137.576172 14.835938 138.226074 15.840332 Q 138.875977 16.844727 138.875977 18.998535 Q 138.875977 21.023438 138.094482 22.089600 Q 137.312988 23.155762 135.825195 23.155762 Q 135.433105 23.155762 135.035645 23.072510 Q 134.638184 22.989258 134.267578 22.833496 Z " fill="black" fill-opacity="1.000000"/>
<path d="M 150.308594 14.862793 Q 151.592285 14.862793 152.250244 15.910156 Q 152.908203 16.957520 152.908203 19.009277 Q 152.908203 21.061035 152.250244 22.108398 Q 151.592285 23.155762 150.308594 23.155762 Q 149.024902 23.155762 148.369629 22.108398 Q 147.714355 21.061035 147.714355 19.009277 Q 147.714355 16.957520 148.369629 15.910156 Q 149.024902 14.862793 150.308594 14.862793 Z M 150.308594 22.296387 Q 151.071289 22.296387 151.444580 21.485352 Q 151.817871 20.674316 151.817871 19.009277 Q 151.817871 18.123047 151.710449 17.408691 L 149.153809 21.410156 Q 149.556641 22.296387 150.308594 22.296387 Z M 150.308594 15.722168 Q 149.551270 15.722168 149.177979 16.533203 Q 148.804688 17.344238 148.804688 19.009277 Q 148.804688 19.766602 148.906738 20.427246 L 151.409668 16.436523 Q 151.001465 15.722168 150.308594 15.722168 Z " fill="black" fill-opacity="1.000000"/>
<path d="M 162.450195 22.092285 L 164.136719 22.092285 L 164.136719 16.033691 L 162.117188 17.005859 L 162.117188 15.963867 L 164.125977 15.007812 L 165.210938 15.007812 L 165.210938 22.092285 L 166.875977 22.092285 L 166.875977 23.000000 L 162.450195 23.000000 Z " fill="black" fill-opacity="1.000000"/>
<path d="M 177.003418 22.086914 L 180.687988 22.086914 L 180.687988 23.000000 L 175.816406 23.000000 L 175.816406 22.086914 Q 176.820801 21.028809 177.572754 20.217773 Q 178.324707 19.406738 178.609375 19.073730 Q 179.146484 18.418457 179.334473 18.012939 Q 179.522461 17.607422 179.522461 17.183105 Q 179.522461 16.511719 179.127686 16.130371 Q 178.732910 15.749023 178.045410 15.749023 Q 177.556641 15.749023 177.019531 15.926270 Q 176.482422 16.103516 175.880859 16.463379 L 175.880859 15.367676 Q 176.434082 15.104492 176.968506 14.970215 Q 177.502930 14.835938 178.023926 14.835938 Q 179.200195 14.835938 179.917236 15.461670 Q 180.634277 16.087402 180.634277 17.102539 Q 180.634277 17.618164 180.395264 18.133789 Q 180.156250 18.649414 179.619141 19.272461 Q 179.318359 19.621582 178.746338 20.239258 Q 178.174316 20.856934 177.003418 22.086914 Z " fill="black" fill-opacity="1.000000"/>
<path d="M 193.167969 18.708496 Q 193.957520 18.917969 194.376465 19.452393 Q 194.795410 19.986816 194.795410 20.787109 Q 194.795410 21.893555 194.051514 22.524658 Q 193.307617 23.155762 191.991699 23.155762 Q 191.438477 23.155762 190.863770 23.053711 Q 190.289062 22.951660 189.735840 22.758301 L 189.735840 21.678711 Q 190.283691 21.963379 190.815430 22.103027 Q 191.347168 22.242676 191.873535 22.242676 Q 192.765137 22.242676 193.243164 21.839844 Q 193.721191 21.437012 193.721191 20.679688 Q 193.721191 19.981445 193.243164 19.570557 Q 192.765137 19.159668 191.948730 19.159668 L 191.121582 19.159668 L 191.121582 18.268066 L 191.948730 18.268066 Q 192.695312 18.268066 193.114258 17.940430 Q 193.533203 17.612793 193.533203 17.027344 Q 193.533203 16.409668 193.143799 16.079346 Q 192.754395 15.749023 192.034668 15.749023 Q 191.556641 15.749023 191.046387 15.856445 Q 190.536133 15.963867 189.977539 16.178711 L 189.977539 15.179688 Q 190.627441 15.007812 191.135010 14.921875 Q 191.642578 14.835938 192.034668 14.835938 Q 193.205566 14.835938 193.906494 15.424072 Q 194.607422 16.012207 194.607422 16.984375 Q 194.607422 17.645020 194.239502 18.085449 Q 193.871582 18.525879 193.167969 18.708496 Z " fill="black" fill-opacity="1.000000"/>
<path d="M 206.947754 15.969238 L 204.417969 20.207031 L 206.947754 20.207031 Z M 206.770508 14.980957 L 208.027344 14.980957 L 208.027344 20.207031 L 209.096191 20.207031 L 209.096191 21.087891 L 208.027344 21.087891 L 208.027344 23.000000 L 206.947754 23.000000 L 206.947754 21.087891 L 203.547852 21.087891 L 203.547852 20.062012 Z " fill="black" fill-opacity="1.000000"/>
<path d="M 218.111816 14.980957 L 222.172363 14.980957 L 222.172363 15.894043 L 219.100098 15.894043 L 219.100098 17.865234 Q 219.331055 17.779297 219.564697 17.739014 Q 219.798340 17.698730 220.034668 17.698730 Q 221.280762 17.698730 222.011230 18.434570 Q 222.741699 19.170410 222.741699 20.427246 Q 222.741699 21.694824 221.976318 22.425293 Q 221.210938 23.155762 219.884277 23.155762 Q 219.245117 23.155762 218.716064 23.069824 Q 218.187012 22.983887 217.768066 22.812012 L 217.768066 21.710938 Q 218.262207 21.979492 218.761719 22.111084 Q 219.261230 22.242676 219.782227 22.242676 Q 220.679199 22.242676 221.165283 21.770020 Q 221.651367 21.297363 221.651367 20.427246 Q 221.651367 19.567871 221.149170 19.089844 Q 220.646973 18.611816 219.750000 18.611816 Q 219.314941 18.611816 218.901367 18.711182 Q 218.487793 18.810547 218.111816 19.009277 Z " fill="black" fill-opacity="1.000000"/>
<path d="M 236.322754 15.158203 L 236.322754 16.157227 Q 235.984375 15.958496 235.603027 15.853760 Q 235.221680 15.749023 234.808105 15.749023 Q 233.776855 15.749023 233.245117 16.525146 Q 232.713379 17.301270 232.713379 18.810547 Q 232.971191 18.273438 233.427734 17.986084 Q 233.884277 17.698730 234.475098 17.698730 Q 235.635254 17.698730 236.271729 18.410400 Q 236.908203 19.122070 236.908203 20.427246 Q 236.908203 21.727051 236.252930 22.441406 Q 235.597656 23.155762 234.410645 23.155762 Q 233.014160 23.155762 232.364258 22.154053 Q 231.714355 21.152344 231.714355 18.998535 Q 231.714355 16.968262 232.495850 15.902100 Q 233.277344 14.835938 234.759766 14.835938 Q 235.157227 14.835938 235.554688 14.919189 Q 235.952148 15.002441 236.322754 15.158203 Z M 234.389160 18.547363 Q 233.696289 18.547363 233.298828 19.046875 Q 232.901367 19.546387 232.901367 20.427246 Q 232.901367 21.308105 233.298828 21.807617 Q 233.696289 22.307129 234.389160 22.307129 Q 235.108887 22.307129 235.474121 21.831787 Q 235.839355 21.356445 235.839355 20.427246 Q 235.839355 19.492676 235.474121 19.020020 Q 235.108887 18.547363 234.389160 18.547363 Z " fill="black" fill-opacity="1.000000"/>
<path d="M 245.746582 14.980957 L 250.795410 14.980957 L 250.795410 15.442871 L 247.927246 23.000000 L 246.793945 23.000000 L 249.586914 15.894043 L 245.746582 15.894043 Z " fill="black" fill-opacity="1.000000"/>
<path d="M 262.308594 19.191895 Q 261.583496 19.191895 261.188721 19.597412 Q 260.793945 20.002930 260.793945 20.744141 Q 260.793945 21.485352 261.194092 21.896240 Q 261.594238 22.307129 262.308594 22.307129 Q 263.039062 22.307129 263.433838 21.901611 Q 263.828613 21.496094 263.828613 20.744141 Q 263.828613 20.008301 263.428467 19.600098 Q 263.028320 19.191895 262.308594 19.191895 Z M 261.363281 18.740723 Q 260.670410 18.563477 260.281006 18.080078 Q 259.891602 17.596680 259.891602 16.914551 Q 259.891602 15.958496 260.541504 15.397217 Q 261.191406 14.835938 262.308594 14.835938 Q 263.431152 14.835938 264.081055 15.397217 Q 264.730957 15.958496 264.730957 16.914551 Q 264.730957 17.596680 264.341553 18.080078 Q 263.952148 18.563477 263.259277 18.740723 Q 264.064941 18.917969 264.491943 19.455078 Q 264.918945 19.992188 264.918945 20.846191 Q 264.918945 21.931152 264.226074 22.543457 Q 263.533203 23.155762 262.308594 23.155762 Q 261.083984 23.155762 260.393799 22.546143 Q 259.703613 21.936523 259.703613 20.856934 Q 259.703613 19.997559 260.130615 19.457764 Q 260.557617 18.917969 261.363281 18.740723 Z M 260.971191 17.016602 Q 260.971191 17.661133 261.314941 17.999512 Q 261.658691 18.337891 262.308594 18.337891 Q 262.963867 18.337891 263.307617 17.999512 Q 263.651367 17.661133 263.651367 17.016602 Q 263.651367 16.361328 263.310303 16.017578 Q 262.969238 15.673828 262.308594 15.673828 Q 261.658691 15.673828 261.314941 16.020264 Q 260.971191 16.366699 260.971191 17.016602 Z " fill="black" fill-opacity="1.000000"/>
<path d="M 276.201172 19.444336 Q 276.894043 19.444336 277.288818 18.944824 Q 277.683594 18.445312 277.683594 17.564453 Q 277.683594 16.683594 277.288818 16.184082 Q 276.894043 15.684570 276.201172 15.684570 Q 275.481445 15.684570 275.116211 16.159912 Q 274.750977 16.635254 274.750977 17.564453 Q 274.750977 18.499023 275.113525 18.971680 Q 275.476074 19.444336 276.201172 19.444336 Z M 274.267578 22.833496 L 274.267578 21.834473 Q 274.605957 22.033203 274.987305 22.137939 Q 275.368652 22.242676 275.782227 22.242676 Q 276.813477 22.242676 277.342529 21.466553 Q 277.871582 20.690430 277.871582 19.181152 Q 277.619141 19.718262 277.162598 20.005615 Q 276.706055 20.292969 276.115234 20.292969 Q 274.955078 20.292969 274.318604 19.578613 Q 273.682129 18.864258 273.682129 17.553711 Q 273.682129 16.259277 274.334717 15.547607 Q 274.987305 14.835938 276.179688 14.835938 Q 277.576172 14.835938 278.226074 15.840332 Q 278.875977 16.844727 278.875977 18.998535 Q 278.875977 21.023438 278.094482 22.089600 Q 277.312988 23.155762 275.825195 23.155762 Q 275.433105 23.155762 275.035645 23.072510 Q 274.638184 22.989258 274.267578 22.833496 Z " fill="black" fill-opacity="1.000000"/>
<path d="M 290.308594 14.862793 Q 291.592285 14.862793 292.250244 15.910156 Q 292.908203 16.957520 292.908203 19.009277 Q 292.908203 21.061035 292.250244 22.108398 Q 291.592285 23.155762 290.308594 23.155762 Q 289.024902 23.155762 288.369629 22.108398 Q 287.714355 21.061035 287.714355 19.009277 Q 287.714355 16.957520 288.369629 15.910156 Q 289.024902 14.862793 290.308594 14.862793 Z M 290.308594 22.296387 Q 291.071289 22.296387 291.444580 21.485352 Q 291.817871 20.674316 291.817871 19.009277 Q 291.817871 18.123047 291.710449 17.408691 L 289.153809 21.410156 Q 289.556641 22.296387 290.308594 22.296387 Z M 290.308594 15.722168 Q 289.551270 15.722168 289.177979 16.533203 Q 288.804688 17.344238 288.804688 19.009277 Q 288.804688 19.766602 288.906738 20.427246 L 291.409668 16.436523 Q 291.001465 15.722168 290.308594 15.722168 Z " fill="black" fill-opacity="1.000000"/>
<path d="M 302.450195 22.092285 L 304.136719 22.092285 L 304.136719 16.033691 L 302.117188 17.005859 L 302.117188 15.963867 L 304.125977 15.007812 L 305.210938 15.007812 L 305.210938 22.092285 L 306.875977 22.092285 L 306.875977 23.000000 L 302.450195 23.000000 Z " fill="black" fill-opacity="1.000000"/>
<path d="M 317.003418 22.086914 L 320.687988 22.086914 L 320.687988 23.000000 L 315.816406 23.000000 L 315.816406 22.086914 Q 316.820801 21.028809 317.572754 20.217773 Q 318.324707 19.406738 318.609375 19.073730 Q 319.146484 18.418457 319.334473 18.012939 Q 319.522461 17.607422 319.522461 17.183105 Q 319.522461 16.511719 319.127686 16.130371 Q 318.732910 15.749023 318.045410 15.749023 Q 317.556641 15.749023 317.019531 15.926270 Q 316.482422 16.103516 315.880859 16.463379 L 315.880859 15.367676 Q 316.434082 15.104492 316.968506 14.970215 Q 317.502930 14.835938 318.023926 14.835938 Q 319.200195 14.835938 319.917236 15.461670 Q 320.634277 16.087402 320.634277 17.102539 Q 320.634277 17.618164 320.395264 18.133789 Q 320.156250 18.649414 319.619141 19.272461 Q 319.318359 19.621582 318.746338 20.239258 Q 318.174316 20.856934 317.003418 22.086914 Z " fill="black" fill-opacity="1.000000"/>
<path d="M 333.167969 18.708496 Q 333.957520 18.917969 334.376465 19.452393 Q 334.795410 19.986816 334.795410 20.787109 Q 334.795410 21.893555 334.051514 22.524658 Q 333.307617 23.155762 331.991699 23.155762 Q 331.438477 23.155762 330.863770 23.053711 Q 330.289062 22.951660 329.735840 22.758301 L 329.735840 21.678711 Q 330.283691 21.963379 330.815430 22.103027 Q 331.347168 22.242676 331.873535 22.242676 Q 332.765137 22.242676 333.243164 21.839844 Q 333.721191 21.437012 333.721191 20.679688 Q 333.721191 19.981445 333.243164 19.570557 Q 332.765137 19.159668 331.948730 19.159668 L 331.121582 19.159668 L 331.121582 18.268066 L 331.948730 18.268066 Q 332.695312 18.268066 333.114258 17.940430 Q 333.533203 17.612793 333.533203 17.027344 Q 333.533203 16.409668 333.143799 16.079346 Q 332.754395 15.749023 332.034668 15.749023 Q 331.556641 15.749023 331.046387 15.856445 Q 330.536133 15.963867 329.977539 16.178711 L 329.977539 15.179688 Q 330.627441 15.007812 331.135010 14.921875 Q 331.642578 14.835938 332.034668 14.835938 Q 333.205566 14.835938 333.906494 15.424072 Q 334.607422 16.012207 334.607422 16.984375 Q 334.607422 17.645020 334.239502 18.085449 Q 333.871582 18.525879 333.167969 18.708496 Z " fill="black" fill-opacity="1.000000"/>
<path d="M 346.947754 15.969238 L 344.417969 20.207031 L 346.947754 20.207031 Z M 346.770508 14.980957 L 348.027344 14.980957 L 348.027344 20.207031 L 349.096191 20.207031 L 349.096191 21.087891 L 348.027344 21.087891 L 348.027344 23.000000 L 346.947754 23.000000 L 346.947754 21.087891 L 343.547852 21.087891 L 343.547852 20.062012 Z " fill="black" fill-opacity="1.000000"/>
<path d="M 358.111816 14.980957 L 362.172363 14.980957 L 362.172363 15.894043 L 359.100098 15.894043 L 359.100098 17.865234 Q 359.331055 17.779297 359.564697 17.739014 Q 359.798340 17.698730 360.034668 17.698730 Q 361.280762 17.698730 362.011230 18.434570 Q 362.741699 19.170410 362.741699 20.427246 Q 362.741699 21.694824 361.976318 22.425293 Q 361.210938 23.155762 359.884277 23.155762 Q 359.245117 23.155762 358.716064 23.069824 Q 358.187012 22.983887 357.768066 22.812012 L 357.768066 21.710938 Q 358.262207 21.979492 358.761719 22.111084 Q 359.261230 22.242676 359.782227 22.242676 Q 360.679199 22.242676 361.165283 21.770020 Q 361.651367 21.297363 361.651367 20.427246 Q 361.651367 19.567871 361.149170 19.089844 Q 360.646973 18.611816 359.750000 18.611816 Q 359.314941 18.611816 358.901367 18.711182 Q 358.487793 18.810547 358.111816 19.009277 Z " fill="black" fill-opacity="1.000000"/>
<path d="M 376.322754 15.158203 L 376.322754 16.157227 Q 375.984375 15.958496 375.603027 15.853760 Q 375.221680 15.749023 374.808105 15.749023 Q 373.776855 15.749023 373.245117 16.525146 Q 372.713379 17.301270 372.713379 18.810547 Q 372.971191 18.273438 373.427734 17.986084 Q 373.884277 17.698730 374.475098 17.698730 Q 375.635254 17.698730 376.271729 18.410400 Q 376.908203 19.122070 376.908203 20.427246 Q 376.908203 21.727051 376.252930 22.441406 Q 375.597656 23.155762 374.410645 23.155762 Q 373.014160 23.155762 372.364258 22.154053 Q 371.714355 21.152344 371.714355 18.998535 Q 371.714355 16.968262 372.495850 15.902100 Q 373.277344 14.835938 374.759766 14.835938 Q 375.157227 14.835938 375.554688 14.919189 Q 375.952148 15.002441 376.322754 15.158203 Z M 374.389160 18.547363 Q 373.696289 18.547363 373.298828 19.046875 Q 372.901367 19.546387 372.901367 20.427246 Q 372.901367 21.308105 373.298828 21.807617 Q 373.696289 22.307129 374.389160 22.307129 Q 375.108887 22.307129 375.474121 21.831787 Q 375.839355 21.356445 375.839355 20.427246 Q 375.839355 19.492676 375.474121 19.020020 Q 375.108887 18.547363 374.389160 18.547363 Z " fill="black" fill-opacity="1.000000"/>
<path d="M 385.746582 14.980957 L 390.795410 14.980957 L 390.795410 15.442871 L 387.927246 23.000000 L 386.793945 23.000000 L 389.586914 15.894043 L 385.746582 15.894043 Z " fill="black" fill-opacity="1.000000"/>
<path d="M 402.308594 19.191895 Q 401.583496 19.191895 401.188721 19.597412 Q 400.793945 20.002930 400.793945 20.744141 Q 400.793945 21.485352 401.194092 21.896240 Q 401.594238 22.307129 402.308594 22.307129 Q 403.039062 22.307129 403.433838 21.901611 Q 403.828613 21.496094 403.828613 20.744141 Q 403.828613 20.008301 403.428467 19.600098 Q 403.028320 19.191895 402.308594 19.191895 Z M 401.363281 18.740723 Q 400.670410 18.563477 400.281006 18.080078 Q 399.891602 17.596680 399.891602 16.914551 Q 399.891602 15.958496 400.541504 15.397217 Q 401.191406 14.835938 402.308594 14.835938 Q 403.431152 14.835938 404.081055 15.397217 Q 404.730957 15.958496 404.730957 16.914551 Q 404.730957 17.596680 404.341553 18.080078 Q 403.952148 18.563477 403.259277 18.740723 Q 404.064941 18.917969 404.491943 19.455078 Q 404.918945 19.992188 404.918945 20.846191 Q 404.918945 21.931152 404.226074 22.543457 Q 403.533203 23.155762 402.308594 23.155762 Q 401.083984 23.155762 400.393799 22.546143 Q 399.703613 21.936523 399.703613 20.856934 Q 399.703613 19.997559 400.130615 19.457764 Q 400.557617 18.917969 401.363281 18.740723 Z M 400.971191 17.016602 Q 400.971191 17.661133 401.314941 17.999512 Q 401.658691 18.337891 402.308594 18.337891 Q 402.963867 18.337891 403.307617 17.999512 Q 403.651367 17.661133 403.651367 17.016602 Q 403.651367 16.361328 403.310303 16.017578 Q 402.969238 15.673828 402.308594 15.673828 Q 401.658691 15.673828 401.314941 16.020264 Q 400.971191 16.366699 400.971191 17.016602 Z " fill="black" fill-opacity="1.000000"/>
<path d="M 416.201172 19.444336 Q 416.894043 19.444336 417.288818 18.944824 Q 417.683594 18.445312 417.683594 17.564453 Q 417.683594 16.683594 417.288818 16.184082 Q 416.894043 15.684570 416.201172 15.684570 Q 415.481445 15.684570 415.116211 16.159912 Q 414.750977 16.635254 414.750977 17.564453 Q 414.750977 18.499023 415.113525 18.971680 Q 415.476074 19.444336 416.201172 19.444336 Z M 414.267578 22.833496 L 414.267578 21.834473 Q 414.605957 22.033203 414.987305 22.137939 Q 415.368652 22.242676 415.782227 22.242676 Q 416.813477 22.242676 417.342529 21.466553 Q 417.871582 20.690430 417.871582 19.181152 Q 417.619141 19.718262 417.162598 20.005615 Q 416.706055 20.292969 416.115234 20.292969 Q 414.955078 20.292969 414.318604 19.578613 Q 413.682129 18.864258 413.682129 17.553711 Q 413.682129 16.259277 414.334717 15.547607 Q 414.987305 14.835938 416.179688 14.835938 Q 417.576172 14.835938 418.226074 15.840332 Q 418.875977 16.844727 418.875977 18.998535 Q 418.875977 21.023438 418.094482 22.089600 Q 417.312988 23.155762 415.825195 23.155762 Q 415.433105 23.155762 415.035645 23.072510 Q 414.638184 22.989258 414.267578 22.833496 Z " fill="black" fill-opacity="1.000000"/>
<path d="M 430.308594 14.862793 Q 431.592285 14.862793 432.250244 15.910156 Q 432.908203 16.957520 432.908203 19.009277 Q 432.908203 21.061035 432.250244 22.108398 Q 431.592285 23.155762 430.308594 23.155762 Q 429.024902 23.155762 428.369629 22.108398 Q 427.714355 21.061035 427.714355 19.009277 Q 427.714355 16.957520 428.369629 15.910156 Q 429.024902 14.862793 430.308594 14.862793 Z M 430.308594 22.296387 Q 431.071289 22.296387 431.444580 21.485352 Q 431.817871 20.674316 431.817871 19.009277 Q 431.817871 18.123047 431.710449 17.408691 L 429.153809 21.410156 Q 429.556641 22.296387 430.308594 22.296387 Z M 430.308594 15.722168 Q 429.551270 15.722168 429.177979 16.533203 Q 428.804688 17.344238 428.804688 19.009277 Q 428.804688 19.766602 428.906738 20.427246 L 431.409668 16.436523 Q 431.001465 15.722168 430.308594 15.722168 Z " fill="black" fill-opacity="1.000000"/>
<path d="M 442.450195 22.092285 L 444.136719 22.092285 L 444.136719 16.033691 L 442.117188 17.005859 L 442.117188 15.963867 L 444.125977 15.007812 L 445.210938 15.007812 L 445.210938 22.092285 L 446.875977 22.092285 L 446.875977 23.000000 L 442.450195 23.000000 Z " fill="black" fill-opacity="1.000000"/>
<path d="M 148.450195 9.092285 L 150.136719 9.092285 L 150.136719 3.033691 L 148.117188 4.005859 L 148.117188 2.963867 L 150.125977 2.007812 L 151.210938 2.007812 L 151.210938 9.092285 L 152.875977 9.092285 L 152.875977 10.000000 L 148.450195 10.000000 Z " fill="black" fill-opacity="1.000000"/>
<path d="M 289.003418 9.086914 L 292.687988 9.086914 L 292.687988 10.000000 L 287.816406 10.000000 L 287.816406 9.086914 Q 288.820801 8.028809 289.572754 7.217773 Q 290.324707 6.406738 290.609375 6.073730 Q 291.146484 5.418457 291.334473 5.012939 Q 291.522461 4.607422 291.522461 4.183105 Q 291.522461 3.511719 291.127686 3.130371 Q 290.732910 2.749023 290.045410 2.749023 Q 289.556641 2.749023 289.019531 2.926270 Q 288.482422 3.103516 287.880859 3.463379 L 287.880859 2.367676 Q 288.434082 2.104492 288.968506 1.970215 Q 289.502930 1.835938 290.023926 1.835938 Q 291.200195 1.835938 291.917236 2.461670 Q 292.634277 3.087402 292.634277 4.102539 Q 292.634277 4.618164 292.395264 5.133789 Q 292.156250 5.649414 291.619141 6.272461 Q 291.318359 6.621582 290.746338 7.239258 Q 290.174316 7.856934 289.003418 9.086914 Z " fill="black" fill-opacity="1.000000"/>
<path d="M 431.167969 5.708496 Q 431.957520 5.917969 432.376465 6.452393 Q 432.795410 6.986816 432.795410 7.787109 Q 432.795410 8.893555 432.051514 9.524658 Q 431.307617 10.155762 429.991699 10.155762 Q 429.438477 10.155762 428.863770 10.053711 Q 428.289062 9.951660 427.735840 9.758301 L 427.735840 8.678711 Q 428.283691 8.963379 428.815430 9.103027 Q 429.347168 9.242676 429.873535 9.242676 Q 430.765137 9.242676 431.243164 8.839844 Q 431.721191 8.437012 431.721191 7.679688 Q 431.721191 6.981445 431.243164 6.570557 Q 430.765137 6.159668 429.948730 6.159668 L 429.121582 6.159668 L 429.121582 5.268066 L 429.948730 5.268066 Q 430.695312 5.268066 431.114258 4.940430 Q 431.533203 4.612793 431.533203 4.027344 Q 431.533203 3.409668 431.143799 3.079346 Q 430.754395 2.749023 430.034668 2.749023 Q 429.556641 2.749023 429.046387 2.856445 Q 428.536133 2.963867 427.977539 3.178711 L 427.977539 2.179688 Q 428.627441 2.007812 429.135010 1.921875 Q 429.642578 1.835938 430.034668 1.835938 Q 431.205566 1.835938 431.906494 2.424072 Q 432.607422 3.012207 432.607422 3.984375 Q 432.607422 4.645020 432.239502 5.085449 Q 431.871582 5.525879 431.167969 5.708496 Z " fill="black" fill-opacity="1.000000"/>
</svg>
