<?xml version='1.0' encoding='utf-8'?>
<svg xmlns="http://www.w3.org/2000/svg" version="1.1" width="407" height="170" viewBox="0 0 407.0 170.0">
<path d="M 2.878906 13.319336 L 2.878906 6.412109 L 6.729980 6.412109 L 6.729980 7.335938 L 3.738281 7.335938 L 3.738281 13.319336 Z " fill="black" fill-opacity="1.000000"/>
<path d="M 2.878906 26.319336 L 2.878906 12.300781 L 3.738281 12.300781 L 3.738281 26.319336 Z " fill="black" fill-opacity="1.000000"/>
<path d="M 2.878906 39.319336 L 2.878906 25.300781 L 3.738281 25.300781 L 3.738281 39.319336 Z " fill="black" fill-opacity="1.000000"/>
<path d="M 2.878906 52.319336 L 2.878906 38.300781 L 3.738281 38.300781 L 3.738281 45.412109 L 6.729980 45.412109 L 6.729980 46.335938 L 3.738281 46.335938 L 3.738281 52.319336 Z " fill="black" fill-opacity="1.000000"/>
<path d="M 2.878906 65.319336 L 2.878906 51.300781 L 3.738281 51.300781 L 3.738281 65.319336 Z " fill="black" fill-opacity="1.000000"/>
<path d="M 2.878906 78.319336 L 2.878906 64.300781 L 3.738281 64.300781 L 3.738281 78.319336 Z " fill="black" fill-opacity="1.000000"/>
<path d="M 2.878906 91.319336 L 2.878906 77.300781 L 3.738281 77.300781 L 3.738281 84.412109 L 6.729980 84.412109 L 6.729980 85.335938 L 3.738281 85.335938 L 3.738281 91.319336 Z " fill="black" fill-opacity="1.000000"/>
<path d="M 2.878906 104.319336 L 2.878906 90.300781 L 3.738281 90.300781 L 3.738281 104.319336 Z " fill="black" fill-opacity="1.000000"/>
<path d="M 2.878906 117.319336 L 2.878906 103.300781 L 3.738281 103.300781 L 3.738281 117.319336 Z " fill="black" fill-opacity="1.000000"/>
<path d="M 2.878906 130.319336 L 2.878906 116.300781 L 3.738281 116.300781 L 3.738281 123.412109 L 6.729980 123.412109 L 6.729980 124.335938 L 3.738281 124.335938 L 3.738281 130.319336 Z " fill="black" fill-opacity="1.000000"/>
<path d="M 2.878906 143.319336 L 2.878906 129.300781 L 3.738281 129.300781 L 3.738281 143.319336 Z " fill="black" fill-opacity="1.000000"/>
<path d="M 2.878906 156.319336 L 2.878906 142.300781 L 3.738281 142.300781 L 3.738281 156.319336 Z " fill="black" fill-opacity="1.000000"/>
<path d="M 2.878906 163.335938 L 2.878906 155.300781 L 3.738281 155.300781 L 3.738281 162.412109 L 6.729980 162.412109 L 6.729980 163.335938 Z " fill="black" fill-opacity="1.000000"/>
<path d="M 6.892578 163.335938 L 6.892578 162.412109 L 13.729980 162.412109 L 13.729980 163.335938 Z " fill="black" fill-opacity="1.000000"/>
<path d="M 13.892578 163.335938 L 13.892578 162.412109 L 20.729980 162.412109 L 20.729980 163.335938 Z " fill="black" fill-opacity="1.000000"/>
<path d="M 20.892578 163.335938 L 20.892578 162.412109 L 27.729980 162.412109 L 27.729980 163.335938 Z " fill="black" fill-opacity="1.000000"/>
<path d="M 27.892578 163.335938 L 27.892578 162.412109 L 34.729980 162.412109 L 34.729980 163.335938 Z " fill="black" fill-opacity="1.000000"/>
<path d="M 34.892578 163.335938 L 34.892578 162.412109 L 41.729980 162.412109 L 41.729980 163.335938 Z " fill="black" fill-opacity="1.000000"/>
<path d="M 41.892578 163.335938 L 41.892578 162.412109 L 48.729980 162.412109 L 48.729980 163.335938 Z " fill="black" fill-opacity="1.000000"/>
<path d="M 48.892578 163.335938 L 48.892578 162.412109 L 55.729980 162.412109 L 55.729980 163.335938 Z " fill="black" fill-opacity="1.000000"/>
<path d="M 55.892578 163.335938 L 55.892578 162.412109 L 62.729980 162.412109 L 62.729980 163.335938 Z " fill="black" fill-opacity="1.000000"/>
<path d="M 62.892578 163.335938 L 62.892578 162.412109 L 69.729980 162.412109 L 69.729980 163.335938 Z " fill="black" fill-opacity="1.000000"/>
<path d="M 69.892578 163.335938 L 69.892578 162.412109 L 76.729980 162.412109 L 76.729980 163.335938 Z " fill="black" fill-opacity="1.000000"/>
<path d="M 76.892578 163.335938 L 76.892578 162.412109 L 83.729980 162.412109 L 83.729980 163.335938 Z " fill="black" fill-opacity="1.000000"/>
<path d="M 83.892578 163.335938 L 83.892578 162.412109 L 90.729980 162.412109 L 90.729980 163.335938 Z " fill="black" fill-opacity="1.000000"/>
<path d="M 90.892578 163.335938 L 90.892578 162.412109 L 97.729980 162.412109 L 97.729980 163.335938 Z " fill="black" fill-opacity="1.000000"/>
<path d="M 97.892578 163.335938 L 97.892578 162.412109 L 104.729980 162.412109 L 104.729980 163.335938 Z " fill="black" fill-opacity="1.000000"/>
<path d="M 104.892578 163.335938 L 104.892578 162.412109 L 111.729980 162.412109 L 111.729980 163.335938 Z " fill="black" fill-opacity="1.000000"/>
<path d="M 111.892578 163.335938 L 111.892578 162.412109 L 118.729980 162.412109 L 118.729980 163.335938 Z " fill="black" fill-opacity="1.000000"/>
<path d="M 118.892578 163.335938 L 118.892578 162.412109 L 125.729980 162.412109 L 125.729980 163.335938 Z " fill="black" fill-opacity="1.000000"/>
<path d="M 125.892578 163.335938 L 125.892578 162.412109 L 132.729980 162.412109 L 132.729980 163.335938 Z " fill="black" fill-opacity="1.000000"/>
<path d="M 132.892578 163.335938 L 132.892578 162.412109 L 139.729980 162.412109 L 139.729980 163.335938 Z " fill="black" fill-opacity="1.000000"/>
<path d="M 139.892578 163.335938 L 139.892578 162.412109 L 146.729980 162.412109 L 146.729980 163.335938 Z " fill="black" fill-opacity="1.000000"/>
<path d="M 146.892578 163.335938 L 146.892578 162.412109 L 153.729980 162.412109 L 153.729980 163.335938 Z " fill="black" fill-opacity="1.000000"/>
<path d="M 153.892578 163.335938 L 153.892578 162.412109 L 160.729980 162.412109 L 160.729980 163.335938 Z " fill="black" fill-opacity="1.000000"/>
<path d="M 160.892578 163.335938 L 160.892578 162.412109 L 167.729980 162.412109 L 167.729980 163.335938 Z " fill="black" fill-opacity="1.000000"/>
<path d="M 167.892578 163.335938 L 167.892578 162.412109 L 174.729980 162.412109 L 174.729980 163.335938 Z " fill="black" fill-opacity="1.000000"/>
<path d="M 174.892578 163.335938 L 174.892578 162.412109 L 181.729980 162.412109 L 181.729980 163.335938 Z " fill="black" fill-opacity="1.000000"/>
<path d="M 181.892578 163.335938 L 181.892578 162.412109 L 188.729980 162.412109 L 188.729980 163.335938 Z " fill="black" fill-opacity="1.000000"/>
<path d="M 188.892578 163.335938 L 188.892578 162.412109 L 195.729980 162.412109 L 195.729980 163.335938 Z " fill="black" fill-opacity="1.000000"/>
<path d="M 195.892578 163.335938 L 195.892578 162.412109 L 202.729980 162.412109 L 202.729980 163.335938 Z " fill="black" fill-opacity="1.000000"/>
<path d="M 202.892578 163.335938 L 202.892578 162.412109 L 209.729980 162.412109 L 209.729980 163.335938 Z " fill="black" fill-opacity="1.000000"/>
<path d="M 209.892578 163.335938 L 209.892578 162.412109 L 216.729980 162.412109 L 216.729980 163.335938 Z " fill="black" fill-opacity="1.000000"/>
<path d="M 216.892578 163.335938 L 216.892578 162.412109 L 223.729980 162.412109 L 223.729980 163.335938 Z " fill="black" fill-opacity="1.000000"/>
<path d="M 223.892578 163.335938 L 223.892578 162.412109 L 230.729980 162.412109 L 230.729980 163.335938 Z " fill="black" fill-opacity="1.000000"/>
<path d="M 230.892578 163.335938 L 230.892578 162.412109 L 237.729980 162.412109 L 237.729980 163.335938 Z " fill="black" fill-opacity="1.000000"/>
<path d="M 237.892578 163.335938 L 237.892578 162.412109 L 244.729980 162.412109 L 244.729980 163.335938 Z " fill="black" fill-opacity="1.000000"/>
<path d="M 244.892578 163.335938 L 244.892578 162.412109 L 251.729980 162.412109 L 251.729980 163.335938 Z " fill="black" fill-opacity="1.000000"/>
<path d="M 251.892578 163.335938 L 251.892578 162.412109 L 258.729980 162.412109 L 258.729980 163.335938 Z " fill="black" fill-opacity="1.000000"/>
<path d="M 258.892578 163.335938 L 258.892578 162.412109 L 265.729980 162.412109 L 265.729980 163.335938 Z " fill="black" fill-opacity="1.000000"/>
<path d="M 265.892578 163.335938 L 265.892578 162.412109 L 272.729980 162.412109 L 272.729980 163.335938 Z " fill="black" fill-opacity="1.000000"/>
<path d="M 272.892578 163.335938 L 272.892578 162.412109 L 279.729980 162.412109 L 279.729980 163.335938 Z " fill="black" fill-opacity="1.000000"/>
<path d="M 279.892578 163.335938 L 279.892578 162.412109 L 286.729980 162.412109 L 286.729980 163.335938 Z " fill="black" fill-opacity="1.000000"/>
<path d="M 286.892578 163.335938 L 286.892578 162.412109 L 293.729980 162.412109 L 293.729980 163.335938 Z " fill="black" fill-opacity="1.000000"/>
<path d="M 293.892578 163.335938 L 293.892578 162.412109 L 300.729980 162.412109 L 300.729980 163.335938 Z " fill="black" fill-opacity="1.000000"/>
<path d="M 300.892578 163.335938 L 300.892578 162.412109 L 307.729980 162.412109 L 307.729980 163.335938 Z " fill="black" fill-opacity="1.000000"/>
<path d="M 307.892578 163.335938 L 307.892578 162.412109 L 314.729980 162.412109 L 314.729980 163.335938 Z " fill="black" fill-opacity="1.000000"/>
<path d="M 314.892578 163.335938 L 314.892578 162.412109 L 321.729980 162.412109 L 321.729980 163.335938 Z " fill="black" fill-opacity="1.000000"/>
<path d="M 321.892578 163.335938 L 321.892578 162.412109 L 328.729980 162.412109 L 328.729980 163.335938 Z " fill="black" fill-opacity="1.000000"/>
<path d="M 328.892578 163.335938 L 328.892578 162.412109 L 335.729980 162.412109 L 335.729980 163.335938 Z " fill="black" fill-opacity="1.000000"/>
<path d="M 335.892578 163.335938 L 335.892578 162.412109 L 342.729980 162.412109 L 342.729980 163.335938 Z " fill="black" fill-opacity="1.000000"/>
<path d="M 342.892578 163.335938 L 342.892578 162.412109 L 349.729980 162.412109 L 349.729980 163.335938 Z " fill="black" fill-opacity="1.000000"/>
<path d="M 349.892578 163.335938 L 349.892578 162.412109 L 356.729980 162.412109 L 356.729980 163.335938 Z " fill="black" fill-opacity="1.000000"/>
<path d="M 356.892578 163.335938 L 356.892578 162.412109 L 363.729980 162.412109 L 363.729980 163.335938 Z " fill="black" fill-opacity="1.000000"/>
<path d="M 363.892578 163.335938 L 363.892578 162.412109 L 370.729980 162.412109 L 370.729980 163.335938 Z " fill="black" fill-opacity="1.000000"/>
<path d="M 370.892578 163.335938 L 370.892578 162.412109 L 377.729980 162.412109 L 377.729980 163.335938 Z " fill="black" fill-opacity="1.000000"/>
<path d="M 377.892578 163.335938 L 377.892578 162.412109 L 384.729980 162.412109 L 384.729980 163.335938 Z " fill="black" fill-opacity="1.000000"/>
<path d="M 384.892578 163.335938 L 384.892578 162.412109 L 391.729980 162.412109 L 391.729980 163.335938 Z " fill="black" fill-opacity="1.000000"/>
<path d="M 391.892578 163.335938 L 391.892578 162.412109 L 398.729980 162.412109 L 398.729980 163.335938 Z " fill="black" fill-opacity="1.000000"/>
<path d="M 398.892578 163.335938 L 398.892578 162.412109 L 401.878906 162.412109 L 401.878906 155.300781 L 402.738281 155.300781 L 402.738281 163.335938 Z " fill="black" fill-opacity="1.000000"/>
<path d="M 113.058105 131.980957 L 117.816895 131.980957 L 117.816895 132.894043 L 114.143066 132.894043 L 114.143066 135.053223 L 117.655762 135.053223 L 117.655762 135.966309 L 114.143066 135.966309 L 114.143066 139.086914 L 117.918945 139.086914 L 117.918945 140.000000 L 113.058105 140.000000 Z " fill="black" fill-opacity="1.000000"/>
<path d="M 401.878906 156.319336 L 401.878906 142.300781 L 402.738281 142.300781 L 402.738281 156.319336 Z " fill="black" fill-opacity="1.000000"/>
<path d="M 125.004883 133.984375 L 122.851074 136.863281 L 125.214355 140.000000 L 124.070312 140.000000 L 122.308594 137.588379 L 120.552246 140.000000 L 119.408203 140.000000 L 121.771484 136.863281 L 119.617676 133.984375 L 120.713379 133.984375 L 122.308594 136.159668 L 123.893066 133.984375 Z " fill="black" fill-opacity="1.000000"/>
<path d="M 129.297852 132.276367 L 129.297852 133.984375 L 131.542969 133.984375 L 131.542969 134.752441 L 129.297852 134.752441 L 129.297852 138.018066 Q 129.297852 138.684082 129.550293 138.947266 Q 129.802734 139.210449 130.431152 139.210449 L 131.542969 139.210449 L 131.542969 140.000000 L 130.334473 140.000000 Q 129.222656 140.000000 128.766113 139.554199 Q 128.309570 139.108398 128.309570 138.018066 L 128.309570 134.752441 L 126.703613 134.752441 L 126.703613 133.984375 L 128.309570 133.984375 L 128.309570 132.276367 Z " fill="black" fill-opacity="1.000000"/>
<path d="M 139.015625 136.498047 L 139.015625 136.981445 L 134.734863 136.981445 L 134.734863 137.013672 Q 134.691895 138.243652 135.204834 138.780762 Q 135.717773 139.317871 136.652344 139.317871 Q 137.125000 139.317871 137.640625 139.167480 Q 138.156250 139.017090 138.741699 138.710938 L 138.741699 139.693848 Q 138.177734 139.924805 137.654053 140.040283 Q 137.130371 140.155762 136.641602 140.155762 Q 135.239746 140.155762 134.450195 139.315186 Q 133.660645 138.474609 133.660645 136.997559 Q 133.660645 135.558105 134.434082 134.698730 Q 135.207520 133.839355 136.496582 133.839355 Q 137.645996 133.839355 138.309326 134.618164 Q 138.972656 135.396973 139.015625 136.498047 Z M 138.027344 136.208008 Q 137.962891 135.584961 137.573486 135.131104 Q 137.184082 134.677246 136.453613 134.677246 Q 135.739258 134.677246 135.277344 135.149902 Q 134.815430 135.622559 134.772461 136.213379 Z " fill="black" fill-opacity="1.000000"/>
<path d="M 145.645020 136.272461 L 145.645020 140.000000 L 144.651367 140.000000 L 144.651367 136.272461 Q 144.651367 135.461426 144.366699 135.080078 Q 144.082031 134.698730 143.475098 134.698730 Q 142.782227 134.698730 142.408936 135.190186 Q 142.035645 135.681641 142.035645 136.600098 L 142.035645 140.000000 L 141.047363 140.000000 L 141.047363 133.984375 L 142.035645 133.984375 L 142.035645 134.886719 Q 142.298828 134.371094 142.750000 134.105225 Q 143.201172 133.839355 143.818848 133.839355 Q 144.737305 133.839355 145.191162 134.443604 Q 145.645020 135.047852 145.645020 136.272461 Z " fill="black" fill-opacity="1.000000"/>
<path d="M 152.226074 134.193848 L 152.226074 135.160645 Q 151.801758 134.913574 151.372070 134.790039 Q 150.942383 134.666504 150.496582 134.666504 Q 149.825195 134.666504 149.494873 134.884033 Q 149.164551 135.101562 149.164551 135.547363 Q 149.164551 135.950195 149.411621 136.148926 Q 149.658691 136.347656 150.641602 136.535645 L 151.039062 136.610840 Q 151.774902 136.750488 152.153564 137.169434 Q 152.532227 137.588379 152.532227 138.259766 Q 152.532227 139.151367 151.898438 139.653564 Q 151.264648 140.155762 150.136719 140.155762 Q 149.690918 140.155762 149.202148 140.061768 Q 148.713379 139.967773 148.144043 139.779785 L 148.144043 138.759277 Q 148.697266 139.043945 149.202148 139.186279 Q 149.707031 139.328613 150.158203 139.328613 Q 150.813477 139.328613 151.173340 139.062744 Q 151.533203 138.796875 151.533203 138.318848 Q 151.533203 137.631348 150.217285 137.368164 L 150.174316 137.357422 L 149.803711 137.282227 Q 148.949707 137.115723 148.557617 136.720947 Q 148.165527 136.326172 148.165527 135.644043 Q 148.165527 134.779297 148.750977 134.309326 Q 149.336426 133.839355 150.421387 133.839355 Q 150.904785 133.839355 151.350586 133.927979 Q 151.796387 134.016602 152.226074 134.193848 Z " fill="black" fill-opacity="1.000000"/>
<path d="M 155.697266 134.005859 L 158.227051 134.005859 L 158.227051 139.231934 L 160.187500 139.231934 L 160.187500 140.000000 L 155.278320 140.000000 L 155.278320 139.231934 L 157.238770 139.231934 L 157.238770 134.773926 L 155.697266 134.773926 Z M 157.238770 131.669434 L 158.227051 131.669434 L 158.227051 132.915527 L 157.238770 132.915527 Z " fill="black" fill-opacity="1.000000"/>
<path d="M 164.308594 134.677246 Q 163.556641 134.677246 163.169922 135.262695 Q 162.783203 135.848145 162.783203 136.997559 Q 162.783203 138.141602 163.169922 138.729736 Q 163.556641 139.317871 164.308594 139.317871 Q 165.065918 139.317871 165.452637 138.729736 Q 165.839355 138.141602 165.839355 136.997559 Q 165.839355 135.848145 165.452637 135.262695 Q 165.065918 134.677246 164.308594 134.677246 Z M 164.308594 133.839355 Q 165.560059 133.839355 166.223389 134.650391 Q 166.886719 135.461426 166.886719 136.997559 Q 166.886719 138.539062 166.226074 139.347412 Q 165.565430 140.155762 164.308594 140.155762 Q 163.057129 140.155762 162.396484 139.347412 Q 161.735840 138.539062 161.735840 136.997559 Q 161.735840 135.461426 162.396484 134.650391 Q 163.057129 133.839355 164.308594 133.839355 Z " fill="black" fill-opacity="1.000000"/>
<path d="M 173.645020 136.272461 L 173.645020 140.000000 L 172.651367 140.000000 L 172.651367 136.272461 Q 172.651367 135.461426 172.366699 135.080078 Q 172.082031 134.698730 171.475098 134.698730 Q 170.782227 134.698730 170.408936 135.190186 Q 170.035645 135.681641 170.035645 136.600098 L 170.035645 140.000000 L 169.047363 140.000000 L 169.047363 133.984375 L 170.035645 133.984375 L 170.035645 134.886719 Q 170.298828 134.371094 170.750000 134.105225 Q 171.201172 133.839355 171.818848 133.839355 Q 172.737305 133.839355 173.191162 134.443604 Q 173.645020 135.047852 173.645020 136.272461 Z " fill="black" fill-opacity="1.000000"/>
<path d="M 187.645020 136.272461 L 187.645020 140.000000 L 186.651367 140.000000 L 186.651367 136.272461 Q 186.651367 135.461426 186.366699 135.080078 Q 186.082031 134.698730 185.475098 134.698730 Q 184.782227 134.698730 184.408936 135.190186 Q 184.035645 135.681641 184.035645 136.600098 L 184.035645 140.000000 L 183.047363 140.000000 L 183.047363 131.642578 L 184.035645 131.642578 L 184.035645 134.886719 Q 184.298828 134.371094 184.750000 134.105225 Q 185.201172 133.839355 185.818848 133.839355 Q 186.737305 133.839355 187.191162 134.443604 Q 187.645020 135.047852 187.645020 136.272461 Z " fill="black" fill-opacity="1.000000"/>
<path d="M 195.015625 136.498047 L 195.015625 136.981445 L 190.734863 136.981445 L 190.734863 137.013672 Q 190.691895 138.243652 191.204834 138.780762 Q 191.717773 139.317871 192.652344 139.317871 Q 193.125000 139.317871 193.640625 139.167480 Q 194.156250 139.017090 194.741699 138.710938 L 194.741699 139.693848 Q 194.177734 139.924805 193.654053 140.040283 Q 193.130371 140.155762 192.641602 140.155762 Q 191.239746 140.155762 190.450195 139.315186 Q 189.660645 138.474609 189.660645 136.997559 Q 189.660645 135.558105 190.434082 134.698730 Q 191.207520 133.839355 192.496582 133.839355 Q 193.645996 133.839355 194.309326 134.618164 Q 194.972656 135.396973 195.015625 136.498047 Z M 194.027344 136.208008 Q 193.962891 135.584961 193.573486 135.131104 Q 193.184082 134.677246 192.453613 134.677246 Q 191.739258 134.677246 191.277344 135.149902 Q 190.815430 135.622559 190.772461 136.213379 Z " fill="black" fill-opacity="1.000000"/>
<path d="M 199.770508 136.976074 L 199.442871 136.976074 Q 198.578125 136.976074 198.140381 137.279541 Q 197.702637 137.583008 197.702637 138.184570 Q 197.702637 138.727051 198.030273 139.027832 Q 198.357910 139.328613 198.937988 139.328613 Q 199.754395 139.328613 200.221680 138.761963 Q 200.688965 138.195312 200.694336 137.196289 L 200.694336 136.976074 Z M 201.687988 136.567871 L 201.687988 140.000000 L 200.694336 140.000000 L 200.694336 139.108398 Q 200.377441 139.645508 199.896729 139.900635 Q 199.416016 140.155762 198.728516 140.155762 Q 197.810059 140.155762 197.262207 139.637451 Q 196.714355 139.119141 196.714355 138.249023 Q 196.714355 137.244629 197.388428 136.723633 Q 198.062500 136.202637 199.367676 136.202637 L 200.694336 136.202637 L 200.694336 136.046875 Q 200.688965 135.327148 200.329102 135.002197 Q 199.969238 134.677246 199.179688 134.677246 Q 198.674805 134.677246 198.159180 134.822266 Q 197.643555 134.967285 197.154785 135.246582 L 197.154785 134.258301 Q 197.702637 134.048828 198.204834 133.944092 Q 198.707031 133.839355 199.179688 133.839355 Q 199.926270 133.839355 200.455322 134.059570 Q 200.984375 134.279785 201.312012 134.720215 Q 201.516113 134.988770 201.602051 135.383545 Q 201.687988 135.778320 201.687988 136.567871 Z " fill="black" fill-opacity="1.000000"/>
<path d="M 207.608398 134.752441 L 207.608398 131.642578 L 208.596680 131.642578 L 208.596680 140.000000 L 207.608398 140.000000 L 207.608398 139.242676 Q 207.361328 139.688477 206.950439 139.922119 Q 206.539551 140.155762 206.002441 140.155762 Q 204.912109 140.155762 204.286377 139.309814 Q 203.660645 138.463867 203.660645 136.976074 Q 203.660645 135.509766 204.289062 134.674561 Q 204.917480 133.839355 206.002441 133.839355 Q 206.544922 133.839355 206.958496 134.072998 Q 207.372070 134.306641 207.608398 134.752441 Z M 204.702637 136.997559 Q 204.702637 138.146973 205.067871 138.732422 Q 205.433105 139.317871 206.147461 139.317871 Q 206.861816 139.317871 207.235107 138.727051 Q 207.608398 138.136230 207.608398 136.997559 Q 207.608398 135.853516 207.235107 135.265381 Q 206.861816 134.677246 206.147461 134.677246 Q 205.433105 134.677246 205.067871 135.262695 Q 204.702637 135.848145 204.702637 136.997559 Z " fill="black" fill-opacity="1.000000"/>
<path d="M 216.015625 136.498047 L 216.015625 136.981445 L 211.734863 136.981445 L 211.734863 137.013672 Q 211.691895 138.243652 212.204834 138.780762 Q 212.717773 139.317871 213.652344 139.317871 Q 214.125000 139.317871 214.640625 139.167480 Q 215.156250 139.017090 215.741699 138.710938 L 215.741699 139.693848 Q 215.177734 139.924805 214.654053 140.040283 Q 214.130371 140.155762 213.641602 140.155762 Q 212.239746 140.155762 211.450195 139.315186 Q 210.660645 138.474609 210.660645 136.997559 Q 210.660645 135.558105 211.434082 134.698730 Q 212.207520 133.839355 213.496582 133.839355 Q 214.645996 133.839355 215.309326 134.618164 Q 215.972656 135.396973 216.015625 136.498047 Z M 215.027344 136.208008 Q 214.962891 135.584961 214.573486 135.131104 Q 214.184082 134.677246 213.453613 134.677246 Q 212.739258 134.677246 212.277344 135.149902 Q 211.815430 135.622559 211.772461 136.213379 Z " fill="black" fill-opacity="1.000000"/>
<path d="M 223.203613 135.225098 Q 222.886719 134.978027 222.559082 134.865234 Q 222.231445 134.752441 221.839355 134.752441 Q 220.915527 134.752441 220.426758 135.332520 Q 219.937988 135.912598 219.937988 137.008301 L 219.937988 140.000000 L 218.944336 140.000000 L 218.944336 133.984375 L 219.937988 133.984375 L 219.937988 135.160645 Q 220.185059 134.521484 220.697998 134.180420 Q 221.210938 133.839355 221.914551 133.839355 Q 222.279785 133.839355 222.596680 133.930664 Q 222.913574 134.021973 223.203613 134.215332 Z " fill="black" fill-opacity="1.000000"/>
<path d="M 235.592285 131.116211 Q 234.877930 132.340820 234.526123 133.557373 Q 234.174316 134.773926 234.174316 136.009277 Q 234.174316 137.239258 234.526123 138.458496 Q 234.877930 139.677734 235.592285 140.913086 L 234.732910 140.913086 Q 233.921875 139.634766 233.524414 138.423584 Q 233.126953 137.212402 233.126953 136.009277 Q 233.126953 134.811523 233.524414 133.597656 Q 233.921875 132.383789 234.732910 131.116211 Z " fill="black" fill-opacity="1.000000"/>
<path d="M 242.860840 135.998535 Q 242.860840 134.231445 242.498291 133.474121 Q 242.135742 132.716797 241.308594 132.716797 Q 240.486816 132.716797 240.124268 133.474121 Q 239.761719 134.231445 239.761719 135.998535 Q 239.761719 137.760254 240.124268 138.517578 Q 240.486816 139.274902 241.308594 139.274902 Q 242.135742 139.274902 242.498291 138.520264 Q 242.860840 137.765625 242.860840 135.998535 Z M 243.994141 135.998535 Q 243.994141 138.093262 243.330811 139.124512 Q 242.667480 140.155762 241.308594 140.155762 Q 239.949707 140.155762 239.289062 139.129883 Q 238.628418 138.104004 238.628418 135.998535 Q 238.628418 133.898438 239.291748 132.867188 Q 239.955078 131.835938 241.308594 131.835938 Q 242.667480 131.835938 243.330811 132.867188 Q 243.994141 133.898438 243.994141 135.998535 Z " fill="black" fill-opacity="1.000000"/>
<path d="M 247.143066 132.872559 L 247.143066 135.885742 L 248.399902 135.885742 Q 249.151855 135.885742 249.573486 135.488281 Q 249.995117 135.090820 249.995117 134.376465 Q 249.995117 133.662109 249.576172 133.267334 Q 249.157227 132.872559 248.399902 132.872559 Z M 246.058105 131.980957 L 248.399902 131.980957 Q 249.742676 131.980957 250.435547 132.590576 Q 251.128418 133.200195 251.128418 134.376465 Q 251.128418 135.563477 250.438232 136.170410 Q 249.748047 136.777344 248.399902 136.777344 L 247.143066 136.777344 L 247.143066 140.000000 L 246.058105 140.000000 Z " fill="black" fill-opacity="1.000000"/>
<path d="M 252.252441 131.980957 L 258.370117 131.980957 L 258.370117 132.894043 L 255.861816 132.894043 L 255.861816 140.000000 L 254.771484 140.000000 L 254.771484 132.894043 L 252.252441 132.894043 Z " fill="black" fill-opacity="1.000000"/>
<path d="M 260.079590 131.980957 L 264.532227 131.980957 L 264.532227 132.894043 L 262.851074 132.894043 L 262.851074 139.086914 L 264.532227 139.086914 L 264.532227 140.000000 L 260.079590 140.000000 L 260.079590 139.086914 L 261.760742 139.086914 L 261.760742 132.894043 L 260.079590 132.894043 Z " fill="black" fill-opacity="1.000000"/>
<path d="M 270.860840 135.998535 Q 270.860840 134.231445 270.498291 133.474121 Q 270.135742 132.716797 269.308594 132.716797 Q 268.486816 132.716797 268.124268 133.474121 Q 267.761719 134.231445 267.761719 135.998535 Q 267.761719 137.760254 268.124268 138.517578 Q 268.486816 139.274902 269.308594 139.274902 Q 270.135742 139.274902 270.498291 138.520264 Q 270.860840 137.765625 270.860840 135.998535 Z M 271.994141 135.998535 Q 271.994141 138.093262 271.330811 139.124512 Q 270.667480 140.155762 269.308594 140.155762 Q 267.949707 140.155762 267.289062 139.129883 Q 266.628418 138.104004 266.628418 135.998535 Q 266.628418 133.898438 267.291748 132.867188 Q 267.955078 131.835938 269.308594 131.835938 Q 270.667480 131.835938 271.330811 132.867188 Q 271.994141 133.898438 271.994141 135.998535 Z " fill="black" fill-opacity="1.000000"/>
<path d="M 273.102051 132.007812 L 274.584473 132.007812 L 277.721191 138.587402 L 277.721191 132.007812 L 278.875977 132.007812 L 278.875977 140.000000 L 277.393555 140.000000 L 274.256836 133.420410 L 274.256836 140.000000 L 273.102051 140.000000 Z " fill="black" fill-opacity="1.000000"/>
<path d="M 283.308594 132.937012 L 282.164551 137.040527 L 284.452637 137.040527 Z M 282.653320 131.980957 L 283.969238 131.980957 L 286.423828 140.000000 L 285.301270 140.000000 L 284.710449 137.910645 L 281.901367 137.910645 L 281.321289 140.000000 L 280.198730 140.000000 Z " fill="black" fill-opacity="1.000000"/>
<path d="M 288.154785 131.980957 L 289.245117 131.980957 L 289.245117 139.086914 L 293.117676 139.086914 L 293.117676 140.000000 L 288.154785 140.000000 Z " fill="black" fill-opacity="1.000000"/>
<path d="M 295.869141 131.116211 L 296.728516 131.116211 Q 297.539551 132.383789 297.937012 133.597656 Q 298.334473 134.811523 298.334473 136.009277 Q 298.334473 137.217773 297.937012 138.431641 Q 297.539551 139.645508 296.728516 140.913086 L 295.869141 140.913086 Q 296.583496 139.666992 296.935303 138.447754 Q 297.287109 137.228516 297.287109 136.009277 Q 297.287109 134.784668 296.935303 133.565430 Q 296.583496 132.346191 295.869141 131.116211 Z " fill="black" fill-opacity="1.000000"/>
<path d="M 401.878906 143.319336 L 401.878906 129.300781 L 402.738281 129.300781 L 402.738281 143.319336 Z " fill="black" fill-opacity="1.000000"/>
<path d="M 6.892578 124.335938 L 6.892578 123.412109 L 13.729980 123.412109 L 13.729980 124.335938 Z " fill="black" fill-opacity="1.000000"/>
<path d="M 13.892578 124.335938 L 13.892578 123.412109 L 20.729980 123.412109 L 20.729980 124.335938 Z " fill="black" fill-opacity="1.000000"/>
<path d="M 20.892578 124.335938 L 20.892578 123.412109 L 27.729980 123.412109 L 27.729980 124.335938 Z " fill="black" fill-opacity="1.000000"/>
<path d="M 27.892578 124.335938 L 27.892578 123.412109 L 34.729980 123.412109 L 34.729980 124.335938 Z " fill="black" fill-opacity="1.000000"/>
<path d="M 34.892578 124.335938 L 34.892578 123.412109 L 41.729980 123.412109 L 41.729980 124.335938 Z " fill="black" fill-opacity="1.000000"/>
<path d="M 41.892578 124.335938 L 41.892578 123.412109 L 48.729980 123.412109 L 48.729980 124.335938 Z " fill="black" fill-opacity="1.000000"/>
<path d="M 48.892578 124.335938 L 48.892578 123.412109 L 55.729980 123.412109 L 55.729980 124.335938 Z " fill="black" fill-opacity="1.000000"/>
<path d="M 55.892578 124.335938 L 55.892578 123.412109 L 62.729980 123.412109 L 62.729980 124.335938 Z " fill="black" fill-opacity="1.000000"/>
<path d="M 62.892578 124.335938 L 62.892578 123.412109 L 69.729980 123.412109 L 69.729980 124.335938 Z " fill="black" fill-opacity="1.000000"/>
<path d="M 69.892578 124.335938 L 69.892578 123.412109 L 76.729980 123.412109 L 76.729980 124.335938 Z " fill="black" fill-opacity="1.000000"/>
<path d="M 76.892578 124.335938 L 76.892578 123.412109 L 83.729980 123.412109 L 83.729980 124.335938 Z " fill="black" fill-opacity="1.000000"/>
<path d="M 83.892578 124.335938 L 83.892578 123.412109 L 90.729980 123.412109 L 90.729980 124.335938 Z " fill="black" fill-opacity="1.000000"/>
<path d="M 90.892578 124.335938 L 90.892578 123.412109 L 97.729980 123.412109 L 97.729980 124.335938 Z " fill="black" fill-opacity="1.000000"/>
<path d="M 97.892578 124.335938 L 97.892578 123.412109 L 104.729980 123.412109 L 104.729980 124.335938 Z " fill="black" fill-opacity="1.000000"/>
<path d="M 104.892578 124.335938 L 104.892578 123.412109 L 111.729980 123.412109 L 111.729980 124.335938 Z " fill="black" fill-opacity="1.000000"/>
<path d="M 111.892578 124.335938 L 111.892578 123.412109 L 118.729980 123.412109 L 118.729980 124.335938 Z " fill="black" fill-opacity="1.000000"/>
<path d="M 118.892578 124.335938 L 118.892578 123.412109 L 125.729980 123.412109 L 125.729980 124.335938 Z " fill="black" fill-opacity="1.000000"/>
<path d="M 125.892578 124.335938 L 125.892578 123.412109 L 132.729980 123.412109 L 132.729980 124.335938 Z " fill="black" fill-opacity="1.000000"/>
<path d="M 132.892578 124.335938 L 132.892578 123.412109 L 139.729980 123.412109 L 139.729980 124.335938 Z " fill="black" fill-opacity="1.000000"/>
<path d="M 139.892578 124.335938 L 139.892578 123.412109 L 146.729980 123.412109 L 146.729980 124.335938 Z " fill="black" fill-opacity="1.000000"/>
<path d="M 146.892578 124.335938 L 146.892578 123.412109 L 153.729980 123.412109 L 153.729980 124.335938 Z " fill="black" fill-opacity="1.000000"/>
<path d="M 153.892578 124.335938 L 153.892578 123.412109 L 160.729980 123.412109 L 160.729980 124.335938 Z " fill="black" fill-opacity="1.000000"/>
<path d="M 160.892578 124.335938 L 160.892578 123.412109 L 167.729980 123.412109 L 167.729980 124.335938 Z " fill="black" fill-opacity="1.000000"/>
<path d="M 167.892578 124.335938 L 167.892578 123.412109 L 174.729980 123.412109 L 174.729980 124.335938 Z " fill="black" fill-opacity="1.000000"/>
<path d="M 174.892578 124.335938 L 174.892578 123.412109 L 181.729980 123.412109 L 181.729980 124.335938 Z " fill="black" fill-opacity="1.000000"/>
<path d="M 181.892578 124.335938 L 181.892578 123.412109 L 188.729980 123.412109 L 188.729980 124.335938 Z " fill="black" fill-opacity="1.000000"/>
<path d="M 188.892578 124.335938 L 188.892578 123.412109 L 195.729980 123.412109 L 195.729980 124.335938 Z " fill="black" fill-opacity="1.000000"/>
<path d="M 195.892578 124.335938 L 195.892578 123.412109 L 202.729980 123.412109 L 202.729980 124.335938 Z " fill="black" fill-opacity="1.000000"/>
<path d="M 202.892578 124.335938 L 202.892578 123.412109 L 209.729980 123.412109 L 209.729980 124.335938 Z " fill="black" fill-opacity="1.000000"/>
<path d="M 209.892578 124.335938 L 209.892578 123.412109 L 216.729980 123.412109 L 216.729980 124.335938 Z " fill="black" fill-opacity="1.000000"/>
<path d="M 216.892578 124.335938 L 216.892578 123.412109 L 223.729980 123.412109 L 223.729980 124.335938 Z " fill="black" fill-opacity="1.000000"/>
<path d="M 223.892578 124.335938 L 223.892578 123.412109 L 230.729980 123.412109 L 230.729980 124.335938 Z " fill="black" fill-opacity="1.000000"/>
<path d="M 230.892578 124.335938 L 230.892578 123.412109 L 237.729980 123.412109 L 237.729980 124.335938 Z " fill="black" fill-opacity="1.000000"/>
<path d="M 237.892578 124.335938 L 237.892578 123.412109 L 244.729980 123.412109 L 244.729980 124.335938 Z " fill="black" fill-opacity="1.000000"/>
<path d="M 244.892578 124.335938 L 244.892578 123.412109 L 251.729980 123.412109 L 251.729980 124.335938 Z " fill="black" fill-opacity="1.000000"/>
<path d="M 251.892578 124.335938 L 251.892578 123.412109 L 258.729980 123.412109 L 258.729980 124.335938 Z " fill="black" fill-opacity="1.000000"/>
<path d="M 258.892578 124.335938 L 258.892578 123.412109 L 265.729980 123.412109 L 265.729980 124.335938 Z " fill="black" fill-opacity="1.000000"/>
<path d="M 265.892578 124.335938 L 265.892578 123.412109 L 272.729980 123.412109 L 272.729980 124.335938 Z " fill="black" fill-opacity="1.000000"/>
<path d="M 272.892578 124.335938 L 272.892578 123.412109 L 279.729980 123.412109 L 279.729980 124.335938 Z " fill="black" fill-opacity="1.000000"/>
<path d="M 279.892578 124.335938 L 279.892578 123.412109 L 286.729980 123.412109 L 286.729980 124.335938 Z " fill="black" fill-opacity="1.000000"/>
<path d="M 286.892578 124.335938 L 286.892578 123.412109 L 293.729980 123.412109 L 293.729980 124.335938 Z " fill="black" fill-opacity="1.000000"/>
<path d="M 293.892578 124.335938 L 293.892578 123.412109 L 300.729980 123.412109 L 300.729980 124.335938 Z " fill="black" fill-opacity="1.000000"/>
<path d="M 300.892578 124.335938 L 300.892578 123.412109 L 307.729980 123.412109 L 307.729980 124.335938 Z " fill="black" fill-opacity="1.000000"/>
<path d="M 307.892578 124.335938 L 307.892578 123.412109 L 314.729980 123.412109 L 314.729980 124.335938 Z " fill="black" fill-opacity="1.000000"/>
<path d="M 314.892578 124.335938 L 314.892578 123.412109 L 321.729980 123.412109 L 321.729980 124.335938 Z " fill="black" fill-opacity="1.000000"/>
<path d="M 321.892578 124.335938 L 321.892578 123.412109 L 328.729980 123.412109 L 328.729980 124.335938 Z " fill="black" fill-opacity="1.000000"/>
<path d="M 328.892578 124.335938 L 328.892578 123.412109 L 335.729980 123.412109 L 335.729980 124.335938 Z " fill="black" fill-opacity="1.000000"/>
<path d="M 335.892578 124.335938 L 335.892578 123.412109 L 342.729980 123.412109 L 342.729980 124.335938 Z " fill="black" fill-opacity="1.000000"/>
<path d="M 342.892578 124.335938 L 342.892578 123.412109 L 349.729980 123.412109 L 349.729980 124.335938 Z " fill="black" fill-opacity="1.000000"/>
<path d="M 349.892578 124.335938 L 349.892578 123.412109 L 356.729980 123.412109 L 356.729980 124.335938 Z " fill="black" fill-opacity="1.000000"/>
<path d="M 356.892578 124.335938 L 356.892578 123.412109 L 363.729980 123.412109 L 363.729980 124.335938 Z " fill="black" fill-opacity="1.000000"/>
<path d="M 363.892578 124.335938 L 363.892578 123.412109 L 370.729980 123.412109 L 370.729980 124.335938 Z " fill="black" fill-opacity="1.000000"/>
<path d="M 370.892578 124.335938 L 370.892578 123.412109 L 377.729980 123.412109 L 377.729980 124.335938 Z " fill="black" fill-opacity="1.000000"/>
<path d="M 377.892578 124.335938 L 377.892578 123.412109 L 384.729980 123.412109 L 384.729980 124.335938 Z " fill="black" fill-opacity="1.000000"/>
<path d="M 384.892578 124.335938 L 384.892578 123.412109 L 391.729980 123.412109 L 391.729980 124.335938 Z " fill="black" fill-opacity="1.000000"/>
<path d="M 391.892578 124.335938 L 391.892578 123.412109 L 398.729980 123.412109 L 398.729980 124.335938 Z " fill="black" fill-opacity="1.000000"/>
<path d="M 401.878906 130.319336 L 401.878906 124.335938 L 398.892578 124.335938 L 398.892578 123.412109 L 401.878906 123.412109 L 401.878906 116.300781 L 402.738281 116.300781 L 402.738281 130.319336 Z " fill="black" fill-opacity="1.000000"/>
<path d="M 163.143066 93.872559 L 163.143066 96.885742 L 164.399902 96.885742 Q 165.151855 96.885742 165.573486 96.488281 Q 165.995117 96.090820 165.995117 95.376465 Q 165.995117 94.662109 165.576172 94.267334 Q 165.157227 93.872559 164.399902 93.872559 Z M 162.058105 92.980957 L 164.399902 92.980957 Q 165.742676 92.980957 166.435547 93.590576 Q 167.128418 94.200195 167.128418 95.376465 Q 167.128418 96.563477 166.438232 97.170410 Q 165.748047 97.777344 164.399902 97.777344 L 163.143066 97.777344 L 163.143066 101.000000 L 162.058105 101.000000 Z " fill="black" fill-opacity="1.000000"/>
<path d="M 401.878906 117.319336 L 401.878906 103.300781 L 402.738281 103.300781 L 402.738281 117.319336 Z " fill="black" fill-opacity="1.000000"/>
<path d="M 171.770508 97.976074 L 171.442871 97.976074 Q 170.578125 97.976074 170.140381 98.279541 Q 169.702637 98.583008 169.702637 99.184570 Q 169.702637 99.727051 170.030273 100.027832 Q 170.357910 100.328613 170.937988 100.328613 Q 171.754395 100.328613 172.221680 99.761963 Q 172.688965 99.195312 172.694336 98.196289 L 172.694336 97.976074 Z M 173.687988 97.567871 L 173.687988 101.000000 L 172.694336 101.000000 L 172.694336 100.108398 Q 172.377441 100.645508 171.896729 100.900635 Q 171.416016 101.155762 170.728516 101.155762 Q 169.810059 101.155762 169.262207 100.637451 Q 168.714355 100.119141 168.714355 99.249023 Q 168.714355 98.244629 169.388428 97.723633 Q 170.062500 97.202637 171.367676 97.202637 L 172.694336 97.202637 L 172.694336 97.046875 Q 172.688965 96.327148 172.329102 96.002197 Q 171.969238 95.677246 171.179688 95.677246 Q 170.674805 95.677246 170.159180 95.822266 Q 169.643555 95.967285 169.154785 96.246582 L 169.154785 95.258301 Q 169.702637 95.048828 170.204834 94.944092 Q 170.707031 94.839355 171.179688 94.839355 Q 171.926270 94.839355 172.455322 95.059570 Q 172.984375 95.279785 173.312012 95.720215 Q 173.516113 95.988770 173.602051 96.383545 Q 173.687988 96.778320 173.687988 97.567871 Z " fill="black" fill-opacity="1.000000"/>
<path d="M 178.297852 93.276367 L 178.297852 94.984375 L 180.542969 94.984375 L 180.542969 95.752441 L 178.297852 95.752441 L 178.297852 99.018066 Q 178.297852 99.684082 178.550293 99.947266 Q 178.802734 100.210449 179.431152 100.210449 L 180.542969 100.210449 L 180.542969 101.000000 L 179.334473 101.000000 Q 178.222656 101.000000 177.766113 100.554199 Q 177.309570 100.108398 177.309570 99.018066 L 177.309570 95.752441 L 175.703613 95.752441 L 175.703613 94.984375 L 177.309570 94.984375 L 177.309570 93.276367 Z " fill="black" fill-opacity="1.000000"/>
<path d="M 187.645020 97.272461 L 187.645020 101.000000 L 186.651367 101.000000 L 186.651367 97.272461 Q 186.651367 96.461426 186.366699 96.080078 Q 186.082031 95.698730 185.475098 95.698730 Q 184.782227 95.698730 184.408936 96.190186 Q 184.035645 96.681641 184.035645 97.600098 L 184.035645 101.000000 L 183.047363 101.000000 L 183.047363 92.642578 L 184.035645 92.642578 L 184.035645 95.886719 Q 184.298828 95.371094 184.750000 95.105225 Q 185.201172 94.839355 185.818848 94.839355 Q 186.737305 94.839355 187.191162 95.443604 Q 187.645020 96.047852 187.645020 97.272461 Z " fill="black" fill-opacity="1.000000"/>
<path d="M 201.645020 97.272461 L 201.645020 101.000000 L 200.651367 101.000000 L 200.651367 97.272461 Q 200.651367 96.461426 200.366699 96.080078 Q 200.082031 95.698730 199.475098 95.698730 Q 198.782227 95.698730 198.408936 96.190186 Q 198.035645 96.681641 198.035645 97.600098 L 198.035645 101.000000 L 197.047363 101.000000 L 197.047363 92.642578 L 198.035645 92.642578 L 198.035645 95.886719 Q 198.298828 95.371094 198.750000 95.105225 Q 199.201172 94.839355 199.818848 94.839355 Q 200.737305 94.839355 201.191162 95.443604 Q 201.645020 96.047852 201.645020 97.272461 Z " fill="black" fill-opacity="1.000000"/>
<path d="M 209.015625 97.498047 L 209.015625 97.981445 L 204.734863 97.981445 L 204.734863 98.013672 Q 204.691895 99.243652 205.204834 99.780762 Q 205.717773 100.317871 206.652344 100.317871 Q 207.125000 100.317871 207.640625 100.167480 Q 208.156250 100.017090 208.741699 99.710938 L 208.741699 100.693848 Q 208.177734 100.924805 207.654053 101.040283 Q 207.130371 101.155762 206.641602 101.155762 Q 205.239746 101.155762 204.450195 100.315186 Q 203.660645 99.474609 203.660645 97.997559 Q 203.660645 96.558105 204.434082 95.698730 Q 205.207520 94.839355 206.496582 94.839355 Q 207.645996 94.839355 208.309326 95.618164 Q 208.972656 96.396973 209.015625 97.498047 Z M 208.027344 97.208008 Q 207.962891 96.584961 207.573486 96.131104 Q 207.184082 95.677246 206.453613 95.677246 Q 205.739258 95.677246 205.277344 96.149902 Q 204.815430 96.622559 204.772461 97.213379 Z " fill="black" fill-opacity="1.000000"/>
<path d="M 213.770508 97.976074 L 213.442871 97.976074 Q 212.578125 97.976074 212.140381 98.279541 Q 211.702637 98.583008 211.702637 99.184570 Q 211.702637 99.727051 212.030273 100.027832 Q 212.357910 100.328613 212.937988 100.328613 Q 213.754395 100.328613 214.221680 99.761963 Q 214.688965 99.195312 214.694336 98.196289 L 214.694336 97.976074 Z M 215.687988 97.567871 L 215.687988 101.000000 L 214.694336 101.000000 L 214.694336 100.108398 Q 214.377441 100.645508 213.896729 100.900635 Q 213.416016 101.155762 212.728516 101.155762 Q 211.810059 101.155762 211.262207 100.637451 Q 210.714355 100.119141 210.714355 99.249023 Q 210.714355 98.244629 211.388428 97.723633 Q 212.062500 97.202637 213.367676 97.202637 L 214.694336 97.202637 L 214.694336 97.046875 Q 214.688965 96.327148 214.329102 96.002197 Q 213.969238 95.677246 213.179688 95.677246 Q 212.674805 95.677246 212.159180 95.822266 Q 211.643555 95.967285 211.154785 96.246582 L 211.154785 95.258301 Q 211.702637 95.048828 212.204834 94.944092 Q 212.707031 94.839355 213.179688 94.839355 Q 213.926270 94.839355 214.455322 95.059570 Q 214.984375 95.279785 215.312012 95.720215 Q 215.516113 95.988770 215.602051 96.383545 Q 215.687988 96.778320 215.687988 97.567871 Z " fill="black" fill-opacity="1.000000"/>
<path d="M 221.608398 95.752441 L 221.608398 92.642578 L 222.596680 92.642578 L 222.596680 101.000000 L 221.608398 101.000000 L 221.608398 100.242676 Q 221.361328 100.688477 220.950439 100.922119 Q 220.539551 101.155762 220.002441 101.155762 Q 218.912109 101.155762 218.286377 100.309814 Q 217.660645 99.463867 217.660645 97.976074 Q 217.660645 96.509766 218.289062 95.674561 Q 218.917480 94.839355 220.002441 94.839355 Q 220.544922 94.839355 220.958496 95.072998 Q 221.372070 95.306641 221.608398 95.752441 Z M 218.702637 97.997559 Q 218.702637 99.146973 219.067871 99.732422 Q 219.433105 100.317871 220.147461 100.317871 Q 220.861816 100.317871 221.235107 99.727051 Q 221.608398 99.136230 221.608398 97.997559 Q 221.608398 96.853516 221.235107 96.265381 Q 220.861816 95.677246 220.147461 95.677246 Q 219.433105 95.677246 219.067871 96.262695 Q 218.702637 96.848145 218.702637 97.997559 Z " fill="black" fill-opacity="1.000000"/>
<path d="M 230.015625 97.498047 L 230.015625 97.981445 L 225.734863 97.981445 L 225.734863 98.013672 Q 225.691895 99.243652 226.204834 99.780762 Q 226.717773 100.317871 227.652344 100.317871 Q 228.125000 100.317871 228.640625 100.167480 Q 229.156250 100.017090 229.741699 99.710938 L 229.741699 100.693848 Q 229.177734 100.924805 228.654053 101.040283 Q 228.130371 101.155762 227.641602 101.155762 Q 226.239746 101.155762 225.450195 100.315186 Q 224.660645 99.474609 224.660645 97.997559 Q 224.660645 96.558105 225.434082 95.698730 Q 226.207520 94.839355 227.496582 94.839355 Q 228.645996 94.839355 229.309326 95.618164 Q 229.972656 96.396973 230.015625 97.498047 Z M 229.027344 97.208008 Q 228.962891 96.584961 228.573486 96.131104 Q 228.184082 95.677246 227.453613 95.677246 Q 226.739258 95.677246 226.277344 96.149902 Q 225.815430 96.622559 225.772461 97.213379 Z " fill="black" fill-opacity="1.000000"/>
<path d="M 237.203613 96.225098 Q 236.886719 95.978027 236.559082 95.865234 Q 236.231445 95.752441 235.839355 95.752441 Q 234.915527 95.752441 234.426758 96.332520 Q 233.937988 96.912598 233.937988 98.008301 L 233.937988 101.000000 L 232.944336 101.000000 L 232.944336 94.984375 L 233.937988 94.984375 L 233.937988 96.160645 Q 234.185059 95.521484 234.697998 95.180420 Q 235.210938 94.839355 235.914551 94.839355 Q 236.279785 94.839355 236.596680 94.930664 Q 236.913574 95.021973 237.203613 95.215332 Z " fill="black" fill-opacity="1.000000"/>
<path d="M 401.878906 104.319336 L 401.878906 90.300781 L 402.738281 90.300781 L 402.738281 104.319336 Z " fill="black" fill-opacity="1.000000"/>
<path d="M 6.892578 85.335938 L 6.892578 84.412109 L 13.729980 84.412109 L 13.729980 85.335938 Z " fill="black" fill-opacity="1.000000"/>
<path d="M 13.892578 85.335938 L 13.892578 84.412109 L 20.729980 84.412109 L 20.729980 85.335938 Z " fill="black" fill-opacity="1.000000"/>
<path d="M 20.892578 85.335938 L 20.892578 84.412109 L 27.729980 84.412109 L 27.729980 85.335938 Z " fill="black" fill-opacity="1.000000"/>
<path d="M 27.892578 85.335938 L 27.892578 84.412109 L 34.729980 84.412109 L 34.729980 85.335938 Z " fill="black" fill-opacity="1.000000"/>
<path d="M 34.892578 85.335938 L 34.892578 84.412109 L 41.729980 84.412109 L 41.729980 85.335938 Z " fill="black" fill-opacity="1.000000"/>
<path d="M 41.892578 85.335938 L 41.892578 84.412109 L 48.729980 84.412109 L 48.729980 85.335938 Z " fill="black" fill-opacity="1.000000"/>
<path d="M 48.892578 85.335938 L 48.892578 84.412109 L 55.729980 84.412109 L 55.729980 85.335938 Z " fill="black" fill-opacity="1.000000"/>
<path d="M 55.892578 85.335938 L 55.892578 84.412109 L 62.729980 84.412109 L 62.729980 85.335938 Z " fill="black" fill-opacity="1.000000"/>
<path d="M 62.892578 85.335938 L 62.892578 84.412109 L 69.729980 84.412109 L 69.729980 85.335938 Z " fill="black" fill-opacity="1.000000"/>
<path d="M 69.892578 85.335938 L 69.892578 84.412109 L 76.729980 84.412109 L 76.729980 85.335938 Z " fill="black" fill-opacity="1.000000"/>
<path d="M 76.892578 85.335938 L 76.892578 84.412109 L 83.729980 84.412109 L 83.729980 85.335938 Z " fill="black" fill-opacity="1.000000"/>
<path d="M 83.892578 85.335938 L 83.892578 84.412109 L 90.729980 84.412109 L 90.729980 85.335938 Z " fill="black" fill-opacity="1.000000"/>
<path d="M 90.892578 85.335938 L 90.892578 84.412109 L 97.729980 84.412109 L 97.729980 85.335938 Z " fill="black" fill-opacity="1.000000"/>
<path d="M 97.892578 85.335938 L 97.892578 84.412109 L 104.729980 84.412109 L 104.729980 85.335938 Z " fill="black" fill-opacity="1.000000"/>
<path d="M 104.892578 85.335938 L 104.892578 84.412109 L 111.729980 84.412109 L 111.729980 85.335938 Z " fill="black" fill-opacity="1.000000"/>
<path d="M 111.892578 85.335938 L 111.892578 84.412109 L 118.729980 84.412109 L 118.729980 85.335938 Z " fill="black" fill-opacity="1.000000"/>
<path d="M 118.892578 85.335938 L 118.892578 84.412109 L 125.729980 84.412109 L 125.729980 85.335938 Z " fill="black" fill-opacity="1.000000"/>
<path d="M 125.892578 85.335938 L 125.892578 84.412109 L 132.729980 84.412109 L 132.729980 85.335938 Z " fill="black" fill-opacity="1.000000"/>
<path d="M 132.892578 85.335938 L 132.892578 84.412109 L 139.729980 84.412109 L 139.729980 85.335938 Z " fill="black" fill-opacity="1.000000"/>
<path d="M 139.892578 85.335938 L 139.892578 84.412109 L 146.729980 84.412109 L 146.729980 85.335938 Z " fill="black" fill-opacity="1.000000"/>
<path d="M 146.892578 85.335938 L 146.892578 84.412109 L 153.729980 84.412109 L 153.729980 85.335938 Z " fill="black" fill-opacity="1.000000"/>
<path d="M 153.892578 85.335938 L 153.892578 84.412109 L 160.729980 84.412109 L 160.729980 85.335938 Z " fill="black" fill-opacity="1.000000"/>
<path d="M 160.892578 85.335938 L 160.892578 84.412109 L 167.729980 84.412109 L 167.729980 85.335938 Z " fill="black" fill-opacity="1.000000"/>
<path d="M 167.892578 85.335938 L 167.892578 84.412109 L 174.729980 84.412109 L 174.729980 85.335938 Z " fill="black" fill-opacity="1.000000"/>
<path d="M 174.892578 85.335938 L 174.892578 84.412109 L 181.729980 84.412109 L 181.729980 85.335938 Z " fill="black" fill-opacity="1.000000"/>
<path d="M 181.892578 85.335938 L 181.892578 84.412109 L 188.729980 84.412109 L 188.729980 85.335938 Z " fill="black" fill-opacity="1.000000"/>
<path d="M 188.892578 85.335938 L 188.892578 84.412109 L 195.729980 84.412109 L 195.729980 85.335938 Z " fill="black" fill-opacity="1.000000"/>
<path d="M 195.892578 85.335938 L 195.892578 84.412109 L 202.729980 84.412109 L 202.729980 85.335938 Z " fill="black" fill-opacity="1.000000"/>
<path d="M 202.892578 85.335938 L 202.892578 84.412109 L 209.729980 84.412109 L 209.729980 85.335938 Z " fill="black" fill-opacity="1.000000"/>
<path d="M 209.892578 85.335938 L 209.892578 84.412109 L 216.729980 84.412109 L 216.729980 85.335938 Z " fill="black" fill-opacity="1.000000"/>
<path d="M 216.892578 85.335938 L 216.892578 84.412109 L 223.729980 84.412109 L 223.729980 85.335938 Z " fill="black" fill-opacity="1.000000"/>
<path d="M 223.892578 85.335938 L 223.892578 84.412109 L 230.729980 84.412109 L 230.729980 85.335938 Z " fill="black" fill-opacity="1.000000"/>
<path d="M 230.892578 85.335938 L 230.892578 84.412109 L 237.729980 84.412109 L 237.729980 85.335938 Z " fill="black" fill-opacity="1.000000"/>
<path d="M 237.892578 85.335938 L 237.892578 84.412109 L 244.729980 84.412109 L 244.729980 85.335938 Z " fill="black" fill-opacity="1.000000"/>
<path d="M 244.892578 85.335938 L 244.892578 84.412109 L 251.729980 84.412109 L 251.729980 85.335938 Z " fill="black" fill-opacity="1.000000"/>
<path d="M 251.892578 85.335938 L 251.892578 84.412109 L 258.729980 84.412109 L 258.729980 85.335938 Z " fill="black" fill-opacity="1.000000"/>
<path d="M 258.892578 85.335938 L 258.892578 84.412109 L 265.729980 84.412109 L 265.729980 85.335938 Z " fill="black" fill-opacity="1.000000"/>
<path d="M 265.892578 85.335938 L 265.892578 84.412109 L 272.729980 84.412109 L 272.729980 85.335938 Z " fill="black" fill-opacity="1.000000"/>
<path d="M 272.892578 85.335938 L 272.892578 84.412109 L 279.729980 84.412109 L 279.729980 85.335938 Z " fill="black" fill-opacity="1.000000"/>
<path d="M 279.892578 85.335938 L 279.892578 84.412109 L 286.729980 84.412109 L 286.729980 85.335938 Z " fill="black" fill-opacity="1.000000"/>
<path d="M 286.892578 85.335938 L 286.892578 84.412109 L 293.729980 84.412109 L 293.729980 85.335938 Z " fill="black" fill-opacity="1.000000"/>
<path d="M 293.892578 85.335938 L 293.892578 84.412109 L 300.729980 84.412109 L 300.729980 85.335938 Z " fill="black" fill-opacity="1.000000"/>
<path d="M 300.892578 85.335938 L 300.892578 84.412109 L 307.729980 84.412109 L 307.729980 85.335938 Z " fill="black" fill-opacity="1.000000"/>
<path d="M 307.892578 85.335938 L 307.892578 84.412109 L 314.729980 84.412109 L 314.729980 85.335938 Z " fill="black" fill-opacity="1.000000"/>
<path d="M 314.892578 85.335938 L 314.892578 84.412109 L 321.729980 84.412109 L 321.729980 85.335938 Z " fill="black" fill-opacity="1.000000"/>
<path d="M 321.892578 85.335938 L 321.892578 84.412109 L 328.729980 84.412109 L 328.729980 85.335938 Z " fill="black" fill-opacity="1.000000"/>
<path d="M 328.892578 85.335938 L 328.892578 84.412109 L 335.729980 84.412109 L 335.729980 85.335938 Z " fill="black" fill-opacity="1.000000"/>
<path d="M 335.892578 85.335938 L 335.892578 84.412109 L 342.729980 84.412109 L 342.729980 85.335938 Z " fill="black" fill-opacity="1.000000"/>
<path d="M 342.892578 85.335938 L 342.892578 84.412109 L 349.729980 84.412109 L 349.729980 85.335938 Z " fill="black" fill-opacity="1.000000"/>
<path d="M 349.892578 85.335938 L 349.892578 84.412109 L 356.729980 84.412109 L 356.729980 85.335938 Z " fill="black" fill-opacity="1.000000"/>
<path d="M 356.892578 85.335938 L 356.892578 84.412109 L 363.729980 84.412109 L 363.729980 85.335938 Z " fill="black" fill-opacity="1.000000"/>
<path d="M 363.892578 85.335938 L 363.892578 84.412109 L 370.729980 84.412109 L 370.729980 85.335938 Z " fill="black" fill-opacity="1.000000"/>
<path d="M 370.892578 85.335938 L 370.892578 84.412109 L 377.729980 84.412109 L 377.729980 85.335938 Z " fill="black" fill-opacity="1.000000"/>
<path d="M 377.892578 85.335938 L 377.892578 84.412109 L 384.729980 84.412109 L 384.729980 85.335938 Z " fill="black" fill-opacity="1.000000"/>
<path d="M 384.892578 85.335938 L 384.892578 84.412109 L 391.729980 84.412109 L 391.729980 85.335938 Z " fill="black" fill-opacity="1.000000"/>
<path d="M 391.892578 85.335938 L 391.892578 84.412109 L 398.729980 84.412109 L 398.729980 85.335938 Z " fill="black" fill-opacity="1.000000"/>
<path d="M 401.878906 91.319336 L 401.878906 85.335938 L 398.892578 85.335938 L 398.892578 84.412109 L 401.878906 84.412109 L 401.878906 77.300781 L 402.738281 77.300781 L 402.738281 91.319336 Z " fill="black" fill-opacity="1.000000"/>
<path d="M 157.308594 54.937012 L 156.164551 59.040527 L 158.452637 59.040527 Z M 156.653320 53.980957 L 157.969238 53.980957 L 160.423828 62.000000 L 159.301270 62.000000 L 158.710449 59.910645 L 155.901367 59.910645 L 155.321289 62.000000 L 154.198730 62.000000 Z " fill="black" fill-opacity="1.000000"/>
<path d="M 401.878906 78.319336 L 401.878906 64.300781 L 402.738281 64.300781 L 402.738281 78.319336 Z " fill="black" fill-opacity="1.000000"/>
<path d="M 165.608398 56.752441 L 165.608398 53.642578 L 166.596680 53.642578 L 166.596680 62.000000 L 165.608398 62.000000 L 165.608398 61.242676 Q 165.361328 61.688477 164.950439 61.922119 Q 164.539551 62.155762 164.002441 62.155762 Q 162.912109 62.155762 162.286377 61.309814 Q 161.660645 60.463867 161.660645 58.976074 Q 161.660645 57.509766 162.289062 56.674561 Q 162.917480 55.839355 164.002441 55.839355 Q 164.544922 55.839355 164.958496 56.072998 Q 165.372070 56.306641 165.608398 56.752441 Z M 162.702637 58.997559 Q 162.702637 60.146973 163.067871 60.732422 Q 163.433105 61.317871 164.147461 61.317871 Q 164.861816 61.317871 165.235107 60.727051 Q 165.608398 60.136230 165.608398 58.997559 Q 165.608398 57.853516 165.235107 57.265381 Q 164.861816 56.677246 164.147461 56.677246 Q 163.433105 56.677246 163.067871 57.262695 Q 162.702637 57.848145 162.702637 58.997559 Z " fill="black" fill-opacity="1.000000"/>
<path d="M 172.608398 56.752441 L 172.608398 53.642578 L 173.596680 53.642578 L 173.596680 62.000000 L 172.608398 62.000000 L 172.608398 61.242676 Q 172.361328 61.688477 171.950439 61.922119 Q 171.539551 62.155762 171.002441 62.155762 Q 169.912109 62.155762 169.286377 61.309814 Q 168.660645 60.463867 168.660645 58.976074 Q 168.660645 57.509766 169.289062 56.674561 Q 169.917480 55.839355 171.002441 55.839355 Q 171.544922 55.839355 171.958496 56.072998 Q 172.372070 56.306641 172.608398 56.752441 Z M 169.702637 58.997559 Q 169.702637 60.146973 170.067871 60.732422 Q 170.433105 61.317871 171.147461 61.317871 Q 171.861816 61.317871 172.235107 60.727051 Q 172.608398 60.136230 172.608398 58.997559 Q 172.608398 57.853516 172.235107 57.265381 Q 171.861816 56.677246 171.147461 56.677246 Q 170.433105 56.677246 170.067871 57.262695 Q 169.702637 57.848145 169.702637 58.997559 Z " fill="black" fill-opacity="1.000000"/>
<path d="M 181.203613 57.225098 Q 180.886719 56.978027 180.559082 56.865234 Q 180.231445 56.752441 179.839355 56.752441 Q 178.915527 56.752441 178.426758 57.332520 Q 177.937988 57.912598 177.937988 59.008301 L 177.937988 62.000000 L 176.944336 62.000000 L 176.944336 55.984375 L 177.937988 55.984375 L 177.937988 57.160645 Q 178.185059 56.521484 178.697998 56.180420 Q 179.210938 55.839355 179.914551 55.839355 Q 180.279785 55.839355 180.596680 55.930664 Q 180.913574 56.021973 181.203613 56.215332 Z " fill="black" fill-opacity="1.000000"/>
<path d="M 188.015625 58.498047 L 188.015625 58.981445 L 183.734863 58.981445 L 183.734863 59.013672 Q 183.691895 60.243652 184.204834 60.780762 Q 184.717773 61.317871 185.652344 61.317871 Q 186.125000 61.317871 186.640625 61.167480 Q 187.156250 61.017090 187.741699 60.710938 L 187.741699 61.693848 Q 187.177734 61.924805 186.654053 62.040283 Q 186.130371 62.155762 185.641602 62.155762 Q 184.239746 62.155762 183.450195 61.315186 Q 182.660645 60.474609 182.660645 58.997559 Q 182.660645 57.558105 183.434082 56.698730 Q 184.207520 55.839355 185.496582 55.839355 Q 186.645996 55.839355 187.309326 56.618164 Q 187.972656 57.396973 188.015625 58.498047 Z M 187.027344 58.208008 Q 186.962891 57.584961 186.573486 57.131104 Q 186.184082 56.677246 185.453613 56.677246 Q 184.739258 56.677246 184.277344 57.149902 Q 183.815430 57.622559 183.772461 58.213379 Z " fill="black" fill-opacity="1.000000"/>
<path d="M 194.226074 56.193848 L 194.226074 57.160645 Q 193.801758 56.913574 193.372070 56.790039 Q 192.942383 56.666504 192.496582 56.666504 Q 191.825195 56.666504 191.494873 56.884033 Q 191.164551 57.101562 191.164551 57.547363 Q 191.164551 57.950195 191.411621 58.148926 Q 191.658691 58.347656 192.641602 58.535645 L 193.039062 58.610840 Q 193.774902 58.750488 194.153564 59.169434 Q 194.532227 59.588379 194.532227 60.259766 Q 194.532227 61.151367 193.898438 61.653564 Q 193.264648 62.155762 192.136719 62.155762 Q 191.690918 62.155762 191.202148 62.061768 Q 190.713379 61.967773 190.144043 61.779785 L 190.144043 60.759277 Q 190.697266 61.043945 191.202148 61.186279 Q 191.707031 61.328613 192.158203 61.328613 Q 192.813477 61.328613 193.173340 61.062744 Q 193.533203 60.796875 193.533203 60.318848 Q 193.533203 59.631348 192.217285 59.368164 L 192.174316 59.357422 L 191.803711 59.282227 Q 190.949707 59.115723 190.557617 58.720947 Q 190.165527 58.326172 190.165527 57.644043 Q 190.165527 56.779297 190.750977 56.309326 Q 191.336426 55.839355 192.421387 55.839355 Q 192.904785 55.839355 193.350586 55.927979 Q 193.796387 56.016602 194.226074 56.193848 Z " fill="black" fill-opacity="1.000000"/>
<path d="M 201.226074 56.193848 L 201.226074 57.160645 Q 200.801758 56.913574 200.372070 56.790039 Q 199.942383 56.666504 199.496582 56.666504 Q 198.825195 56.666504 198.494873 56.884033 Q 198.164551 57.101562 198.164551 57.547363 Q 198.164551 57.950195 198.411621 58.148926 Q 198.658691 58.347656 199.641602 58.535645 L 200.039062 58.610840 Q 200.774902 58.750488 201.153564 59.169434 Q 201.532227 59.588379 201.532227 60.259766 Q 201.532227 61.151367 200.898438 61.653564 Q 200.264648 62.155762 199.136719 62.155762 Q 198.690918 62.155762 198.202148 62.061768 Q 197.713379 61.967773 197.144043 61.779785 L 197.144043 60.759277 Q 197.697266 61.043945 198.202148 61.186279 Q 198.707031 61.328613 199.158203 61.328613 Q 199.813477 61.328613 200.173340 61.062744 Q 200.533203 60.796875 200.533203 60.318848 Q 200.533203 59.631348 199.217285 59.368164 L 199.174316 59.357422 L 198.803711 59.282227 Q 197.949707 59.115723 197.557617 58.720947 Q 197.165527 58.326172 197.165527 57.644043 Q 197.165527 56.779297 197.750977 56.309326 Q 198.336426 55.839355 199.421387 55.839355 Q 199.904785 55.839355 200.350586 55.927979 Q 200.796387 56.016602 201.226074 56.193848 Z " fill="black" fill-opacity="1.000000"/>
<path d="M 215.645020 58.272461 L 215.645020 62.000000 L 214.651367 62.000000 L 214.651367 58.272461 Q 214.651367 57.461426 214.366699 57.080078 Q 214.082031 56.698730 213.475098 56.698730 Q 212.782227 56.698730 212.408936 57.190186 Q 212.035645 57.681641 212.035645 58.600098 L 212.035645 62.000000 L 211.047363 62.000000 L 211.047363 53.642578 L 212.035645 53.642578 L 212.035645 56.886719 Q 212.298828 56.371094 212.750000 56.105225 Q 213.201172 55.839355 213.818848 55.839355 Q 214.737305 55.839355 215.191162 56.443604 Q 215.645020 57.047852 215.645020 58.272461 Z " fill="black" fill-opacity="1.000000"/>
<path d="M 223.015625 58.498047 L 223.015625 58.981445 L 218.734863 58.981445 L 218.734863 59.013672 Q 218.691895 60.243652 219.204834 60.780762 Q 219.717773 61.317871 220.652344 61.317871 Q 221.125000 61.317871 221.640625 61.167480 Q 222.156250 61.017090 222.741699 60.710938 L 222.741699 61.693848 Q 222.177734 61.924805 221.654053 62.040283 Q 221.130371 62.155762 220.641602 62.155762 Q 219.239746 62.155762 218.450195 61.315186 Q 217.660645 60.474609 217.660645 58.997559 Q 217.660645 57.558105 218.434082 56.698730 Q 219.207520 55.839355 220.496582 55.839355 Q 221.645996 55.839355 222.309326 56.618164 Q 222.972656 57.396973 223.015625 58.498047 Z M 222.027344 58.208008 Q 221.962891 57.584961 221.573486 57.131104 Q 221.184082 56.677246 220.453613 56.677246 Q 219.739258 56.677246 219.277344 57.149902 Q 218.815430 57.622559 218.772461 58.213379 Z " fill="black" fill-opacity="1.000000"/>
<path d="M 227.770508 58.976074 L 227.442871 58.976074 Q 226.578125 58.976074 226.140381 59.279541 Q 225.702637 59.583008 225.702637 60.184570 Q 225.702637 60.727051 226.030273 61.027832 Q 226.357910 61.328613 226.937988 61.328613 Q 227.754395 61.328613 228.221680 60.761963 Q 228.688965 60.195312 228.694336 59.196289 L 228.694336 58.976074 Z M 229.687988 58.567871 L 229.687988 62.000000 L 228.694336 62.000000 L 228.694336 61.108398 Q 228.377441 61.645508 227.896729 61.900635 Q 227.416016 62.155762 226.728516 62.155762 Q 225.810059 62.155762 225.262207 61.637451 Q 224.714355 61.119141 224.714355 60.249023 Q 224.714355 59.244629 225.388428 58.723633 Q 226.062500 58.202637 227.367676 58.202637 L 228.694336 58.202637 L 228.694336 58.046875 Q 228.688965 57.327148 228.329102 57.002197 Q 227.969238 56.677246 227.179688 56.677246 Q 226.674805 56.677246 226.159180 56.822266 Q 225.643555 56.967285 225.154785 57.246582 L 225.154785 56.258301 Q 225.702637 56.048828 226.204834 55.944092 Q 226.707031 55.839355 227.179688 55.839355 Q 227.926270 55.839355 228.455322 56.059570 Q 228.984375 56.279785 229.312012 56.720215 Q 229.516113 56.988770 229.602051 57.383545 Q 229.687988 57.778320 229.687988 58.567871 Z " fill="black" fill-opacity="1.000000"/>
<path d="M 235.608398 56.752441 L 235.608398 53.642578 L 236.596680 53.642578 L 236.596680 62.000000 L 235.608398 62.000000 L 235.608398 61.242676 Q 235.361328 61.688477 234.950439 61.922119 Q 234.539551 62.155762 234.002441 62.155762 Q 232.912109 62.155762 232.286377 61.309814 Q 231.660645 60.463867 231.660645 58.976074 Q 231.660645 57.509766 232.289062 56.674561 Q 232.917480 55.839355 234.002441 55.839355 Q 234.544922 55.839355 234.958496 56.072998 Q 235.372070 56.306641 235.608398 56.752441 Z M 232.702637 58.997559 Q 232.702637 60.146973 233.067871 60.732422 Q 233.433105 61.317871 234.147461 61.317871 Q 234.861816 61.317871 235.235107 60.727051 Q 235.608398 60.136230 235.608398 58.997559 Q 235.608398 57.853516 235.235107 57.265381 Q 234.861816 56.677246 234.147461 56.677246 Q 233.433105 56.677246 233.067871 57.262695 Q 232.702637 57.848145 232.702637 58.997559 Z " fill="black" fill-opacity="1.000000"/>
<path d="M 244.015625 58.498047 L 244.015625 58.981445 L 239.734863 58.981445 L 239.734863 59.013672 Q 239.691895 60.243652 240.204834 60.780762 Q 240.717773 61.317871 241.652344 61.317871 Q 242.125000 61.317871 242.640625 61.167480 Q 243.156250 61.017090 243.741699 60.710938 L 243.741699 61.693848 Q 243.177734 61.924805 242.654053 62.040283 Q 242.130371 62.155762 241.641602 62.155762 Q 240.239746 62.155762 239.450195 61.315186 Q 238.660645 60.474609 238.660645 58.997559 Q 238.660645 57.558105 239.434082 56.698730 Q 240.207520 55.839355 241.496582 55.839355 Q 242.645996 55.839355 243.309326 56.618164 Q 243.972656 57.396973 244.015625 58.498047 Z M 243.027344 58.208008 Q 242.962891 57.584961 242.573486 57.131104 Q 242.184082 56.677246 241.453613 56.677246 Q 240.739258 56.677246 240.277344 57.149902 Q 239.815430 57.622559 239.772461 58.213379 Z " fill="black" fill-opacity="1.000000"/>
<path d="M 251.203613 57.225098 Q 250.886719 56.978027 250.559082 56.865234 Q 250.231445 56.752441 249.839355 56.752441 Q 248.915527 56.752441 248.426758 57.332520 Q 247.937988 57.912598 247.937988 59.008301 L 247.937988 62.000000 L 246.944336 62.000000 L 246.944336 55.984375 L 247.937988 55.984375 L 247.937988 57.160645 Q 248.185059 56.521484 248.697998 56.180420 Q 249.210938 55.839355 249.914551 55.839355 Q 250.279785 55.839355 250.596680 55.930664 Q 250.913574 56.021973 251.203613 56.215332 Z " fill="black" fill-opacity="1.000000"/>
<path d="M 401.878906 65.319336 L 401.878906 51.300781 L 402.738281 51.300781 L 402.738281 65.319336 Z " fill="black" fill-opacity="1.000000"/>
<path d="M 6.892578 46.335938 L 6.892578 45.412109 L 13.729980 45.412109 L 13.729980 46.335938 Z " fill="black" fill-opacity="1.000000"/>
<path d="M 13.892578 46.335938 L 13.892578 45.412109 L 20.729980 45.412109 L 20.729980 46.335938 Z " fill="black" fill-opacity="1.000000"/>
<path d="M 20.892578 46.335938 L 20.892578 45.412109 L 27.729980 45.412109 L 27.729980 46.335938 Z " fill="black" fill-opacity="1.000000"/>
<path d="M 27.892578 46.335938 L 27.892578 45.412109 L 34.729980 45.412109 L 34.729980 46.335938 Z " fill="black" fill-opacity="1.000000"/>
<path d="M 34.892578 46.335938 L 34.892578 45.412109 L 41.729980 45.412109 L 41.729980 46.335938 Z " fill="black" fill-opacity="1.000000"/>
<path d="M 41.892578 46.335938 L 41.892578 45.412109 L 48.729980 45.412109 L 48.729980 46.335938 Z " fill="black" fill-opacity="1.000000"/>
<path d="M 48.892578 46.335938 L 48.892578 45.412109 L 55.729980 45.412109 L 55.729980 46.335938 Z " fill="black" fill-opacity="1.000000"/>
<path d="M 55.892578 46.335938 L 55.892578 45.412109 L 62.729980 45.412109 L 62.729980 46.335938 Z " fill="black" fill-opacity="1.000000"/>
<path d="M 62.892578 46.335938 L 62.892578 45.412109 L 69.729980 45.412109 L 69.729980 46.335938 Z " fill="black" fill-opacity="1.000000"/>
<path d="M 69.892578 46.335938 L 69.892578 45.412109 L 76.729980 45.412109 L 76.729980 46.335938 Z " fill="black" fill-opacity="1.000000"/>
<path d="M 76.892578 46.335938 L 76.892578 45.412109 L 83.729980 45.412109 L 83.729980 46.335938 Z " fill="black" fill-opacity="1.000000"/>
<path d="M 83.892578 46.335938 L 83.892578 45.412109 L 90.729980 45.412109 L 90.729980 46.335938 Z " fill="black" fill-opacity="1.000000"/>
<path d="M 90.892578 46.335938 L 90.892578 45.412109 L 97.729980 45.412109 L 97.729980 46.335938 Z " fill="black" fill-opacity="1.000000"/>
<path d="M 97.892578 46.335938 L 97.892578 45.412109 L 104.729980 45.412109 L 104.729980 46.335938 Z " fill="black" fill-opacity="1.000000"/>
<path d="M 104.892578 46.335938 L 104.892578 45.412109 L 111.729980 45.412109 L 111.729980 46.335938 Z " fill="black" fill-opacity="1.000000"/>
<path d="M 111.892578 46.335938 L 111.892578 45.412109 L 118.729980 45.412109 L 118.729980 46.335938 Z " fill="black" fill-opacity="1.000000"/>
<path d="M 118.892578 46.335938 L 118.892578 45.412109 L 125.729980 45.412109 L 125.729980 46.335938 Z " fill="black" fill-opacity="1.000000"/>
<path d="M 125.892578 46.335938 L 125.892578 45.412109 L 132.729980 45.412109 L 132.729980 46.335938 Z " fill="black" fill-opacity="1.000000"/>
<path d="M 132.892578 46.335938 L 132.892578 45.412109 L 139.729980 45.412109 L 139.729980 46.335938 Z " fill="black" fill-opacity="1.000000"/>
<path d="M 139.892578 46.335938 L 139.892578 45.412109 L 146.729980 45.412109 L 146.729980 46.335938 Z " fill="black" fill-opacity="1.000000"/>
<path d="M 146.892578 46.335938 L 146.892578 45.412109 L 153.729980 45.412109 L 153.729980 46.335938 Z " fill="black" fill-opacity="1.000000"/>
<path d="M 153.892578 46.335938 L 153.892578 45.412109 L 160.729980 45.412109 L 160.729980 46.335938 Z " fill="black" fill-opacity="1.000000"/>
<path d="M 160.892578 46.335938 L 160.892578 45.412109 L 167.729980 45.412109 L 167.729980 46.335938 Z " fill="black" fill-opacity="1.000000"/>
<path d="M 167.892578 46.335938 L 167.892578 45.412109 L 174.729980 45.412109 L 174.729980 46.335938 Z " fill="black" fill-opacity="1.000000"/>
<path d="M 174.892578 46.335938 L 174.892578 45.412109 L 181.729980 45.412109 L 181.729980 46.335938 Z " fill="black" fill-opacity="1.000000"/>
<path d="M 181.892578 46.335938 L 181.892578 45.412109 L 188.729980 45.412109 L 188.729980 46.335938 Z " fill="black" fill-opacity="1.000000"/>
<path d="M 188.892578 46.335938 L 188.892578 45.412109 L 195.729980 45.412109 L 195.729980 46.335938 Z " fill="black" fill-opacity="1.000000"/>
<path d="M 195.892578 46.335938 L 195.892578 45.412109 L 202.729980 45.412109 L 202.729980 46.335938 Z " fill="black" fill-opacity="1.000000"/>
<path d="M 202.892578 46.335938 L 202.892578 45.412109 L 209.729980 45.412109 L 209.729980 46.335938 Z " fill="black" fill-opacity="1.000000"/>
<path d="M 209.892578 46.335938 L 209.892578 45.412109 L 216.729980 45.412109 L 216.729980 46.335938 Z " fill="black" fill-opacity="1.000000"/>
<path d="M 216.892578 46.335938 L 216.892578 45.412109 L 223.729980 45.412109 L 223.729980 46.335938 Z " fill="black" fill-opacity="1.000000"/>
<path d="M 223.892578 46.335938 L 223.892578 45.412109 L 230.729980 45.412109 L 230.729980 46.335938 Z " fill="black" fill-opacity="1.000000"/>
<path d="M 230.892578 46.335938 L 230.892578 45.412109 L 237.729980 45.412109 L 237.729980 46.335938 Z " fill="black" fill-opacity="1.000000"/>
<path d="M 237.892578 46.335938 L 237.892578 45.412109 L 244.729980 45.412109 L 244.729980 46.335938 Z " fill="black" fill-opacity="1.000000"/>
<path d="M 244.892578 46.335938 L 244.892578 45.412109 L 251.729980 45.412109 L 251.729980 46.335938 Z " fill="black" fill-opacity="1.000000"/>
<path d="M 251.892578 46.335938 L 251.892578 45.412109 L 258.729980 45.412109 L 258.729980 46.335938 Z " fill="black" fill-opacity="1.000000"/>
<path d="M 258.892578 46.335938 L 258.892578 45.412109 L 265.729980 45.412109 L 265.729980 46.335938 Z " fill="black" fill-opacity="1.000000"/>
<path d="M 265.892578 46.335938 L 265.892578 45.412109 L 272.729980 45.412109 L 272.729980 46.335938 Z " fill="black" fill-opacity="1.000000"/>
<path d="M 272.892578 46.335938 L 272.892578 45.412109 L 279.729980 45.412109 L 279.729980 46.335938 Z " fill="black" fill-opacity="1.000000"/>
<path d="M 279.892578 46.335938 L 279.892578 45.412109 L 286.729980 45.412109 L 286.729980 46.335938 Z " fill="black" fill-opacity="1.000000"/>
<path d="M 286.892578 46.335938 L 286.892578 45.412109 L 293.729980 45.412109 L 293.729980 46.335938 Z " fill="black" fill-opacity="1.000000"/>
<path d="M 293.892578 46.335938 L 293.892578 45.412109 L 300.729980 45.412109 L 300.729980 46.335938 Z " fill="black" fill-opacity="1.000000"/>
<path d="M 300.892578 46.335938 L 300.892578 45.412109 L 307.729980 45.412109 L 307.729980 46.335938 Z " fill="black" fill-opacity="1.000000"/>
<path d="M 307.892578 46.335938 L 307.892578 45.412109 L 314.729980 45.412109 L 314.729980 46.335938 Z " fill="black" fill-opacity="1.000000"/>
<path d="M 314.892578 46.335938 L 314.892578 45.412109 L 321.729980 45.412109 L 321.729980 46.335938 Z " fill="black" fill-opacity="1.000000"/>
<path d="M 321.892578 46.335938 L 321.892578 45.412109 L 328.729980 45.412109 L 328.729980 46.335938 Z " fill="black" fill-opacity="1.000000"/>
<path d="M 328.892578 46.335938 L 328.892578 45.412109 L 335.729980 45.412109 L 335.729980 46.335938 Z " fill="black" fill-opacity="1.000000"/>
<path d="M 335.892578 46.335938 L 335.892578 45.412109 L 342.729980 45.412109 L 342.729980 46.335938 Z " fill="black" fill-opacity="1.000000"/>
<path d="M 342.892578 46.335938 L 342.892578 45.412109 L 349.729980 45.412109 L 349.729980 46.335938 Z " fill="black" fill-opacity="1.000000"/>
<path d="M 349.892578 46.335938 L 349.892578 45.412109 L 356.729980 45.412109 L 356.729980 46.335938 Z " fill="black" fill-opacity="1.000000"/>
<path d="M 356.892578 46.335938 L 356.892578 45.412109 L 363.729980 45.412109 L 363.729980 46.335938 Z " fill="black" fill-opacity="1.000000"/>
<path d="M 363.892578 46.335938 L 363.892578 45.412109 L 370.729980 45.412109 L 370.729980 46.335938 Z " fill="black" fill-opacity="1.000000"/>
<path d="M 370.892578 46.335938 L 370.892578 45.412109 L 377.729980 45.412109 L 377.729980 46.335938 Z " fill="black" fill-opacity="1.000000"/>
<path d="M 377.892578 46.335938 L 377.892578 45.412109 L 384.729980 45.412109 L 384.729980 46.335938 Z " fill="black" fill-opacity="1.000000"/>
<path d="M 384.892578 46.335938 L 384.892578 45.412109 L 391.729980 45.412109 L 391.729980 46.335938 Z " fill="black" fill-opacity="1.000000"/>
<path d="M 391.892578 46.335938 L 391.892578 45.412109 L 398.729980 45.412109 L 398.729980 46.335938 Z " fill="black" fill-opacity="1.000000"/>
<path d="M 401.878906 52.319336 L 401.878906 46.335938 L 398.892578 46.335938 L 398.892578 45.412109 L 401.878906 45.412109 L 401.878906 38.300781 L 402.738281 38.300781 L 402.738281 52.319336 Z " fill="black" fill-opacity="1.000000"/>
<path d="M 159.763184 22.715332 Q 159.349609 22.935547 158.914551 23.045654 Q 158.479492 23.155762 157.990723 23.155762 Q 156.449219 23.155762 155.597900 22.065430 Q 154.746582 20.975098 154.746582 18.998535 Q 154.746582 17.032715 155.603271 15.934326 Q 156.459961 14.835938 157.990723 14.835938 Q 158.479492 14.835938 158.914551 14.946045 Q 159.349609 15.056152 159.763184 15.276367 L 159.763184 16.388184 Q 159.365723 16.060547 158.909180 15.888672 Q 158.452637 15.716797 157.990723 15.716797 Q 156.932617 15.716797 156.406250 16.533203 Q 155.879883 17.349609 155.879883 18.998535 Q 155.879883 20.642090 156.406250 21.458496 Q 156.932617 22.274902 157.990723 22.274902 Q 158.463379 22.274902 158.917236 22.103027 Q 159.371094 21.931152 159.763184 21.603516 Z " fill="black" fill-opacity="1.000000"/>
<path d="M 401.878906 39.319336 L 401.878906 25.300781 L 402.738281 25.300781 L 402.738281 39.319336 Z " fill="black" fill-opacity="1.000000"/>
<path d="M 164.308594 17.677246 Q 163.556641 17.677246 163.169922 18.262695 Q 162.783203 18.848145 162.783203 19.997559 Q 162.783203 21.141602 163.169922 21.729736 Q 163.556641 22.317871 164.308594 22.317871 Q 165.065918 22.317871 165.452637 21.729736 Q 165.839355 21.141602 165.839355 19.997559 Q 165.839355 18.848145 165.452637 18.262695 Q 165.065918 17.677246 164.308594 17.677246 Z M 164.308594 16.839355 Q 165.560059 16.839355 166.223389 17.650391 Q 166.886719 18.461426 166.886719 19.997559 Q 166.886719 21.539062 166.226074 22.347412 Q 165.565430 23.155762 164.308594 23.155762 Q 163.057129 23.155762 162.396484 22.347412 Q 161.735840 21.539062 161.735840 19.997559 Q 161.735840 18.461426 162.396484 17.650391 Q 163.057129 16.839355 164.308594 16.839355 Z " fill="black" fill-opacity="1.000000"/>
<path d="M 171.630859 17.596680 Q 171.813477 17.209961 172.095459 17.024658 Q 172.377441 16.839355 172.774902 16.839355 Q 173.500000 16.839355 173.798096 17.400635 Q 174.096191 17.961914 174.096191 19.514160 L 174.096191 23.000000 L 173.193848 23.000000 L 173.193848 19.557129 Q 173.193848 18.284180 173.051514 17.975342 Q 172.909180 17.666504 172.533203 17.666504 Q 172.103516 17.666504 171.945068 17.996826 Q 171.786621 18.327148 171.786621 19.557129 L 171.786621 23.000000 L 170.884277 23.000000 L 170.884277 19.557129 Q 170.884277 18.268066 170.731201 17.967285 Q 170.578125 17.666504 170.180664 17.666504 Q 169.788574 17.666504 169.635498 17.996826 Q 169.482422 18.327148 169.482422 19.557129 L 169.482422 23.000000 L 168.585449 23.000000 L 168.585449 16.984375 L 169.482422 16.984375 L 169.482422 17.500000 Q 169.659668 17.177734 169.925537 17.008545 Q 170.191406 16.839355 170.529785 16.839355 Q 170.937988 16.839355 171.209229 17.027344 Q 171.480469 17.215332 171.630859 17.596680 Z " fill="black" fill-opacity="1.000000"/>
<path d="M 178.630859 17.596680 Q 178.813477 17.209961 179.095459 17.024658 Q 179.377441 16.839355 179.774902 16.839355 Q 180.500000 16.839355 180.798096 17.400635 Q 181.096191 17.961914 181.096191 19.514160 L 181.096191 23.000000 L 180.193848 23.000000 L 180.193848 19.557129 Q 180.193848 18.284180 180.051514 17.975342 Q 179.909180 17.666504 179.533203 17.666504 Q 179.103516 17.666504 178.945068 17.996826 Q 178.786621 18.327148 178.786621 19.557129 L 178.786621 23.000000 L 177.884277 23.000000 L 177.884277 19.557129 Q 177.884277 18.268066 177.731201 17.967285 Q 177.578125 17.666504 177.180664 17.666504 Q 176.788574 17.666504 176.635498 17.996826 Q 176.482422 18.327148 176.482422 19.557129 L 176.482422 23.000000 L 175.585449 23.000000 L 175.585449 16.984375 L 176.482422 16.984375 L 176.482422 17.500000 Q 176.659668 17.177734 176.925537 17.008545 Q 177.191406 16.839355 177.529785 16.839355 Q 177.937988 16.839355 178.209229 17.027344 Q 178.480469 17.215332 178.630859 17.596680 Z " fill="black" fill-opacity="1.000000"/>
<path d="M 185.308594 17.677246 Q 184.556641 17.677246 184.169922 18.262695 Q 183.783203 18.848145 183.783203 19.997559 Q 183.783203 21.141602 184.169922 21.729736 Q 184.556641 22.317871 185.308594 22.317871 Q 186.065918 22.317871 186.452637 21.729736 Q 186.839355 21.141602 186.839355 19.997559 Q 186.839355 18.848145 186.452637 18.262695 Q 186.065918 17.677246 185.308594 17.677246 Z M 185.308594 16.839355 Q 186.560059 16.839355 187.223389 17.650391 Q 187.886719 18.461426 187.886719 19.997559 Q 187.886719 21.539062 187.226074 22.347412 Q 186.565430 23.155762 185.308594 23.155762 Q 184.057129 23.155762 183.396484 22.347412 Q 182.735840 21.539062 182.735840 19.997559 Q 182.735840 18.461426 183.396484 17.650391 Q 184.057129 16.839355 185.308594 16.839355 Z " fill="black" fill-opacity="1.000000"/>
<path d="M 194.645020 19.272461 L 194.645020 23.000000 L 193.651367 23.000000 L 193.651367 19.272461 Q 193.651367 18.461426 193.366699 18.080078 Q 193.082031 17.698730 192.475098 17.698730 Q 191.782227 17.698730 191.408936 18.190186 Q 191.035645 18.681641 191.035645 19.600098 L 191.035645 23.000000 L 190.047363 23.000000 L 190.047363 16.984375 L 191.035645 16.984375 L 191.035645 17.886719 Q 191.298828 17.371094 191.750000 17.105225 Q 192.201172 16.839355 192.818848 16.839355 Q 193.737305 16.839355 194.191162 17.443604 Q 194.645020 18.047852 194.645020 19.272461 Z " fill="black" fill-opacity="1.000000"/>
<path d="M 208.645020 19.272461 L 208.645020 23.000000 L 207.651367 23.000000 L 207.651367 19.272461 Q 207.651367 18.461426 207.366699 18.080078 Q 207.082031 17.698730 206.475098 17.698730 Q 205.782227 17.698730 205.408936 18.190186 Q 205.035645 18.681641 205.035645 19.600098 L 205.035645 23.000000 L 204.047363 23.000000 L 204.047363 14.642578 L 205.035645 14.642578 L 205.035645 17.886719 Q 205.298828 17.371094 205.750000 17.105225 Q 206.201172 16.839355 206.818848 16.839355 Q 207.737305 16.839355 208.191162 17.443604 Q 208.645020 18.047852 208.645020 19.272461 Z " fill="black" fill-opacity="1.000000"/>
<path d="M 216.015625 19.498047 L 216.015625 19.981445 L 211.734863 19.981445 L 211.734863 20.013672 Q 211.691895 21.243652 212.204834 21.780762 Q 212.717773 22.317871 213.652344 22.317871 Q 214.125000 22.317871 214.640625 22.167480 Q 215.156250 22.017090 215.741699 21.710938 L 215.741699 22.693848 Q 215.177734 22.924805 214.654053 23.040283 Q 214.130371 23.155762 213.641602 23.155762 Q 212.239746 23.155762 211.450195 22.315186 Q 210.660645 21.474609 210.660645 19.997559 Q 210.660645 18.558105 211.434082 17.698730 Q 212.207520 16.839355 213.496582 16.839355 Q 214.645996 16.839355 215.309326 17.618164 Q 215.972656 18.396973 216.015625 19.498047 Z M 215.027344 19.208008 Q 214.962891 18.584961 214.573486 18.131104 Q 214.184082 17.677246 213.453613 17.677246 Q 212.739258 17.677246 212.277344 18.149902 Q 211.815430 18.622559 211.772461 19.213379 Z " fill="black" fill-opacity="1.000000"/>
<path d="M 220.770508 19.976074 L 220.442871 19.976074 Q 219.578125 19.976074 219.140381 20.279541 Q 218.702637 20.583008 218.702637 21.184570 Q 218.702637 21.727051 219.030273 22.027832 Q 219.357910 22.328613 219.937988 22.328613 Q 220.754395 22.328613 221.221680 21.761963 Q 221.688965 21.195312 221.694336 20.196289 L 221.694336 19.976074 Z M 222.687988 19.567871 L 222.687988 23.000000 L 221.694336 23.000000 L 221.694336 22.108398 Q 221.377441 22.645508 220.896729 22.900635 Q 220.416016 23.155762 219.728516 23.155762 Q 218.810059 23.155762 218.262207 22.637451 Q 217.714355 22.119141 217.714355 21.249023 Q 217.714355 20.244629 218.388428 19.723633 Q 219.062500 19.202637 220.367676 19.202637 L 221.694336 19.202637 L 221.694336 19.046875 Q 221.688965 18.327148 221.329102 18.002197 Q 220.969238 17.677246 220.179688 17.677246 Q 219.674805 17.677246 219.159180 17.822266 Q 218.643555 17.967285 218.154785 18.246582 L 218.154785 17.258301 Q 218.702637 17.048828 219.204834 16.944092 Q 219.707031 16.839355 220.179688 16.839355 Q 220.926270 16.839355 221.455322 17.059570 Q 221.984375 17.279785 222.312012 17.720215 Q 222.516113 17.988770 222.602051 18.383545 Q 222.687988 18.778320 222.687988 19.567871 Z " fill="black" fill-opacity="1.000000"/>
<path d="M 228.608398 17.752441 L 228.608398 14.642578 L 229.596680 14.642578 L 229.596680 23.000000 L 228.608398 23.000000 L 228.608398 22.242676 Q 228.361328 22.688477 227.950439 22.922119 Q 227.539551 23.155762 227.002441 23.155762 Q 225.912109 23.155762 225.286377 22.309814 Q 224.660645 21.463867 224.660645 19.976074 Q 224.660645 18.509766 225.289062 17.674561 Q 225.917480 16.839355 227.002441 16.839355 Q 227.544922 16.839355 227.958496 17.072998 Q 228.372070 17.306641 228.608398 17.752441 Z M 225.702637 19.997559 Q 225.702637 21.146973 226.067871 21.732422 Q 226.433105 22.317871 227.147461 22.317871 Q 227.861816 22.317871 228.235107 21.727051 Q 228.608398 21.136230 228.608398 19.997559 Q 228.608398 18.853516 228.235107 18.265381 Q 227.861816 17.677246 227.147461 17.677246 Q 226.433105 17.677246 226.067871 18.262695 Q 225.702637 18.848145 225.702637 19.997559 Z " fill="black" fill-opacity="1.000000"/>
<path d="M 237.015625 19.498047 L 237.015625 19.981445 L 232.734863 19.981445 L 232.734863 20.013672 Q 232.691895 21.243652 233.204834 21.780762 Q 233.717773 22.317871 234.652344 22.317871 Q 235.125000 22.317871 235.640625 22.167480 Q 236.156250 22.017090 236.741699 21.710938 L 236.741699 22.693848 Q 236.177734 22.924805 235.654053 23.040283 Q 235.130371 23.155762 234.641602 23.155762 Q 233.239746 23.155762 232.450195 22.315186 Q 231.660645 21.474609 231.660645 19.997559 Q 231.660645 18.558105 232.434082 17.698730 Q 233.207520 16.839355 234.496582 16.839355 Q 235.645996 16.839355 236.309326 17.618164 Q 236.972656 18.396973 237.015625 19.498047 Z M 236.027344 19.208008 Q 235.962891 18.584961 235.573486 18.131104 Q 235.184082 17.677246 234.453613 17.677246 Q 233.739258 17.677246 233.277344 18.149902 Q 232.815430 18.622559 232.772461 19.213379 Z " fill="black" fill-opacity="1.000000"/>
<path d="M 244.203613 18.225098 Q 243.886719 17.978027 243.559082 17.865234 Q 243.231445 17.752441 242.839355 17.752441 Q 241.915527 17.752441 241.426758 18.332520 Q 240.937988 18.912598 240.937988 20.008301 L 240.937988 23.000000 L 239.944336 23.000000 L 239.944336 16.984375 L 240.937988 16.984375 L 240.937988 18.160645 Q 241.185059 17.521484 241.697998 17.180420 Q 242.210938 16.839355 242.914551 16.839355 Q 243.279785 16.839355 243.596680 16.930664 Q 243.913574 17.021973 244.203613 17.215332 Z " fill="black" fill-opacity="1.000000"/>
<path d="M 401.878906 26.319336 L 401.878906 12.300781 L 402.738281 12.300781 L 402.738281 26.319336 Z " fill="black" fill-opacity="1.000000"/>
<path d="M 6.892578 7.335938 L 6.892578 6.412109 L 13.729980 6.412109 L 13.729980 7.335938 Z " fill="black" fill-opacity="1.000000"/>
<path d="M 13.892578 7.335938 L 13.892578 6.412109 L 20.729980 6.412109 L 20.729980 7.335938 Z " fill="black" fill-opacity="1.000000"/>
<path d="M 20.892578 7.335938 L 20.892578 6.412109 L 27.729980 6.412109 L 27.729980 7.335938 Z " fill="black" fill-opacity="1.000000"/>
<path d="M 27.892578 7.335938 L 27.892578 6.412109 L 34.729980 6.412109 L 34.729980 7.335938 Z " fill="black" fill-opacity="1.000000"/>
<path d="M 34.892578 7.335938 L 34.892578 6.412109 L 41.729980 6.412109 L 41.729980 7.335938 Z " fill="black" fill-opacity="1.000000"/>
<path d="M 41.892578 7.335938 L 41.892578 6.412109 L 48.729980 6.412109 L 48.729980 7.335938 Z " fill="black" fill-opacity="1.000000"/>
<path d="M 48.892578 7.335938 L 48.892578 6.412109 L 55.729980 6.412109 L 55.729980 7.335938 Z " fill="black" fill-opacity="1.000000"/>
<path d="M 55.892578 7.335938 L 55.892578 6.412109 L 62.729980 6.412109 L 62.729980 7.335938 Z " fill="black" fill-opacity="1.000000"/>
<path d="M 62.892578 7.335938 L 62.892578 6.412109 L 69.729980 6.412109 L 69.729980 7.335938 Z " fill="black" fill-opacity="1.000000"/>
<path d="M 69.892578 7.335938 L 69.892578 6.412109 L 76.729980 6.412109 L 76.729980 7.335938 Z " fill="black" fill-opacity="1.000000"/>
<path d="M 76.892578 7.335938 L 76.892578 6.412109 L 83.729980 6.412109 L 83.729980 7.335938 Z " fill="black" fill-opacity="1.000000"/>
<path d="M 83.892578 7.335938 L 83.892578 6.412109 L 90.729980 6.412109 L 90.729980 7.335938 Z " fill="black" fill-opacity="1.000000"/>
<path d="M 90.892578 7.335938 L 90.892578 6.412109 L 97.729980 6.412109 L 97.729980 7.335938 Z " fill="black" fill-opacity="1.000000"/>
<path d="M 97.892578 7.335938 L 97.892578 6.412109 L 104.729980 6.412109 L 104.729980 7.335938 Z " fill="black" fill-opacity="1.000000"/>
<path d="M 104.892578 7.335938 L 104.892578 6.412109 L 111.729980 6.412109 L 111.729980 7.335938 Z " fill="black" fill-opacity="1.000000"/>
<path d="M 111.892578 7.335938 L 111.892578 6.412109 L 118.729980 6.412109 L 118.729980 7.335938 Z " fill="black" fill-opacity="1.000000"/>
<path d="M 118.892578 7.335938 L 118.892578 6.412109 L 125.729980 6.412109 L 125.729980 7.335938 Z " fill="black" fill-opacity="1.000000"/>
<path d="M 125.892578 7.335938 L 125.892578 6.412109 L 132.729980 6.412109 L 132.729980 7.335938 Z " fill="black" fill-opacity="1.000000"/>
<path d="M 132.892578 7.335938 L 132.892578 6.412109 L 139.729980 6.412109 L 139.729980 7.335938 Z " fill="black" fill-opacity="1.000000"/>
<path d="M 139.892578 7.335938 L 139.892578 6.412109 L 146.729980 6.412109 L 146.729980 7.335938 Z " fill="black" fill-opacity="1.000000"/>
<path d="M 146.892578 7.335938 L 146.892578 6.412109 L 153.729980 6.412109 L 153.729980 7.335938 Z " fill="black" fill-opacity="1.000000"/>
<path d="M 153.892578 7.335938 L 153.892578 6.412109 L 160.729980 6.412109 L 160.729980 7.335938 Z " fill="black" fill-opacity="1.000000"/>
<path d="M 160.892578 7.335938 L 160.892578 6.412109 L 167.729980 6.412109 L 167.729980 7.335938 Z " fill="black" fill-opacity="1.000000"/>
<path d="M 167.892578 7.335938 L 167.892578 6.412109 L 174.729980 6.412109 L 174.729980 7.335938 Z " fill="black" fill-opacity="1.000000"/>
<path d="M 174.892578 7.335938 L 174.892578 6.412109 L 181.729980 6.412109 L 181.729980 7.335938 Z " fill="black" fill-opacity="1.000000"/>
<path d="M 181.892578 7.335938 L 181.892578 6.412109 L 188.729980 6.412109 L 188.729980 7.335938 Z " fill="black" fill-opacity="1.000000"/>
<path d="M 188.892578 7.335938 L 188.892578 6.412109 L 195.729980 6.412109 L 195.729980 7.335938 Z " fill="black" fill-opacity="1.000000"/>
<path d="M 195.892578 7.335938 L 195.892578 6.412109 L 202.729980 6.412109 L 202.729980 7.335938 Z " fill="black" fill-opacity="1.000000"/>
<path d="M 202.892578 7.335938 L 202.892578 6.412109 L 209.729980 6.412109 L 209.729980 7.335938 Z " fill="black" fill-opacity="1.000000"/>
<path d="M 209.892578 7.335938 L 209.892578 6.412109 L 216.729980 6.412109 L 216.729980 7.335938 Z " fill="black" fill-opacity="1.000000"/>
<path d="M 216.892578 7.335938 L 216.892578 6.412109 L 223.729980 6.412109 L 223.729980 7.335938 Z " fill="black" fill-opacity="1.000000"/>
<path d="M 223.892578 7.335938 L 223.892578 6.412109 L 230.729980 6.412109 L 230.729980 7.335938 Z " fill="black" fill-opacity="1.000000"/>
<path d="M 230.892578 7.335938 L 230.892578 6.412109 L 237.729980 6.412109 L 237.729980 7.335938 Z " fill="black" fill-opacity="1.000000"/>
<path d="M 237.892578 7.335938 L 237.892578 6.412109 L 244.729980 6.412109 L 244.729980 7.335938 Z " fill="black" fill-opacity="1.000000"/>
<path d="M 244.892578 7.335938 L 244.892578 6.412109 L 251.729980 6.412109 L 251.729980 7.335938 Z " fill="black" fill-opacity="1.000000"/>
<path d="M 251.892578 7.335938 L 251.892578 6.412109 L 258.729980 6.412109 L 258.729980 7.335938 Z " fill="black" fill-opacity="1.000000"/>
<path d="M 258.892578 7.335938 L 258.892578 6.412109 L 265.729980 6.412109 L 265.729980 7.335938 Z " fill="black" fill-opacity="1.000000"/>
<path d="M 265.892578 7.335938 L 265.892578 6.412109 L 272.729980 6.412109 L 272.729980 7.335938 Z " fill="black" fill-opacity="1.000000"/>
<path d="M 272.892578 7.335938 L 272.892578 6.412109 L 279.729980 6.412109 L 279.729980 7.335938 Z " fill="black" fill-opacity="1.000000"/>
<path d="M 279.892578 7.335938 L 279.892578 6.412109 L 286.729980 6.412109 L 286.729980 7.335938 Z " fill="black" fill-opacity="1.000000"/>
<path d="M 286.892578 7.335938 L 286.892578 6.412109 L 293.729980 6.412109 L 293.729980 7.335938 Z " fill="black" fill-opacity="1.000000"/>
<path d="M 293.892578 7.335938 L 293.892578 6.412109 L 300.729980 6.412109 L 300.729980 7.335938 Z " fill="black" fill-opacity="1.000000"/>
<path d="M 300.892578 7.335938 L 300.892578 6.412109 L 307.729980 6.412109 L 307.729980 7.335938 Z " fill="black" fill-opacity="1.000000"/>
<path d="M 307.892578 7.335938 L 307.892578 6.412109 L 314.729980 6.412109 L 314.729980 7.335938 Z " fill="black" fill-opacity="1.000000"/>
<path d="M 314.892578 7.335938 L 314.892578 6.412109 L 321.729980 6.412109 L 321.729980 7.335938 Z " fill="black" fill-opacity="1.000000"/>
<path d="M 321.892578 7.335938 L 321.892578 6.412109 L 328.729980 6.412109 L 328.729980 7.335938 Z " fill="black" fill-opacity="1.000000"/>
<path d="M 328.892578 7.335938 L 328.892578 6.412109 L 335.729980 6.412109 L 335.729980 7.335938 Z " fill="black" fill-opacity="1.000000"/>
<path d="M 335.892578 7.335938 L 335.892578 6.412109 L 342.729980 6.412109 L 342.729980 7.335938 Z " fill="black" fill-opacity="1.000000"/>
<path d="M 342.892578 7.335938 L 342.892578 6.412109 L 349.729980 6.412109 L 349.729980 7.335938 Z " fill="black" fill-opacity="1.000000"/>
<path d="M 349.892578 7.335938 L 349.892578 6.412109 L 356.729980 6.412109 L 356.729980 7.335938 Z " fill="black" fill-opacity="1.000000"/>
<path d="M 356.892578 7.335938 L 356.892578 6.412109 L 363.729980 6.412109 L 363.729980 7.335938 Z " fill="black" fill-opacity="1.000000"/>
<path d="M 363.892578 7.335938 L 363.892578 6.412109 L 370.729980 6.412109 L 370.729980 7.335938 Z " fill="black" fill-opacity="1.000000"/>
<path d="M 370.892578 7.335938 L 370.892578 6.412109 L 377.729980 6.412109 L 377.729980 7.335938 Z " fill="black" fill-opacity="1.000000"/>
<path d="M 377.892578 7.335938 L 377.892578 6.412109 L 384.729980 6.412109 L 384.729980 7.335938 Z " fill="black" fill-opacity="1.000000"/>
<path d="M 384.892578 7.335938 L 384.892578 6.412109 L 391.729980 6.412109 L 391.729980 7.335938 Z " fill="black" fill-opacity="1.000000"/>
<path d="M 391.892578 7.335938 L 391.892578 6.412109 L 398.729980 6.412109 L 398.729980 7.335938 Z " fill="black" fill-opacity="1.000000"/>
<path d="M 401.878906 13.319336 L 401.878906 7.335938 L 398.892578 7.335938 L 398.892578 6.412109 L 402.738281 6.412109 L 402.738281 13.319336 Z " fill="black" fill-opacity="1.000000"/>
</svg>
