<?xml version='1.0' encoding='utf-8'?>
<svg xmlns="http://www.w3.org/2000/svg" version="1.1" width="330" height="235" viewBox="0 0 330.0 235.0">
<path d="M 2.878906 13.319336 L 2.878906 6.412109 L 6.729980 6.412109 L 6.729980 7.335938 L 3.738281 7.335938 L 3.738281 13.319336 Z " fill="black" fill-opacity="1.000000"/>
<path d="M 2.878906 26.319336 L 2.878906 12.300781 L 3.738281 12.300781 L 3.738281 26.319336 Z " fill="black" fill-opacity="1.000000"/>
<path d="M 2.878906 39.319336 L 2.878906 25.300781 L 3.738281 25.300781 L 3.738281 39.319336 Z " fill="black" fill-opacity="1.000000"/>
<path d="M 2.878906 52.319336 L 2.878906 38.300781 L 3.738281 38.300781 L 3.738281 52.319336 Z " fill="black" fill-opacity="1.000000"/>
<path d="M 2.878906 65.319336 L 2.878906 51.300781 L 3.738281 51.300781 L 3.738281 65.319336 Z " fill="black" fill-opacity="1.000000"/>
<path d="M 2.878906 78.319336 L 2.878906 64.300781 L 3.738281 64.300781 L 3.738281 78.319336 Z " fill="black" fill-opacity="1.000000"/>
<path d="M 2.878906 91.319336 L 2.878906 77.300781 L 3.738281 77.300781 L 3.738281 91.319336 Z " fill="black" fill-opacity="1.000000"/>
<path d="M 2.878906 104.319336 L 2.878906 90.300781 L 3.738281 90.300781 L 3.738281 97.412109 L 6.729980 97.412109 L 6.729980 98.335938 L 3.738281 98.335938 L 3.738281 104.319336 Z " fill="black" fill-opacity="1.000000"/>
<path d="M 2.878906 117.319336 L 2.878906 103.300781 L 3.738281 103.300781 L 3.738281 117.319336 Z " fill="black" fill-opacity="1.000000"/>
<path d="M 2.878906 130.319336 L 2.878906 116.300781 L 3.738281 116.300781 L 3.738281 130.319336 Z " fill="black" fill-opacity="1.000000"/>
<path d="M 2.878906 143.319336 L 2.878906 129.300781 L 3.738281 129.300781 L 3.738281 143.319336 Z " fill="black" fill-opacity="1.000000"/>
<path d="M 2.878906 156.319336 L 2.878906 142.300781 L 3.738281 142.300781 L 3.738281 149.412109 L 6.729980 149.412109 L 6.729980 150.335938 L 3.738281 150.335938 L 3.738281 156.319336 Z " fill="black" fill-opacity="1.000000"/>
<path d="M 2.878906 169.319336 L 2.878906 155.300781 L 3.738281 155.300781 L 3.738281 169.319336 Z " fill="black" fill-opacity="1.000000"/>
<path d="M 2.878906 182.319336 L 2.878906 168.300781 L 3.738281 168.300781 L 3.738281 175.412109 L 6.729980 175.412109 L 6.729980 176.335938 L 3.738281 176.335938 L 3.738281 182.319336 Z " fill="black" fill-opacity="1.000000"/>
<path d="M 2.878906 195.319336 L 2.878906 181.300781 L 3.738281 181.300781 L 3.738281 195.319336 Z " fill="black" fill-opacity="1.000000"/>
<path d="M 2.878906 208.319336 L 2.878906 194.300781 L 3.738281 194.300781 L 3.738281 201.412109 L 6.729980 201.412109 L 6.729980 202.335938 L 3.738281 202.335938 L 3.738281 208.319336 Z " fill="black" fill-opacity="1.000000"/>
<path d="M 2.878906 221.319336 L 2.878906 207.300781 L 3.738281 207.300781 L 3.738281 221.319336 Z " fill="black" fill-opacity="1.000000"/>
<path d="M 2.878906 228.335938 L 2.878906 220.300781 L 3.738281 220.300781 L 3.738281 227.412109 L 6.729980 227.412109 L 6.729980 228.335938 Z " fill="black" fill-opacity="1.000000"/>
<path d="M 6.892578 228.335938 L 6.892578 227.412109 L 13.729980 227.412109 L 13.729980 228.335938 Z " fill="black" fill-opacity="1.000000"/>
<path d="M 13.892578 228.335938 L 13.892578 227.412109 L 20.729980 227.412109 L 20.729980 228.335938 Z " fill="black" fill-opacity="1.000000"/>
<path d="M 20.892578 228.335938 L 20.892578 227.412109 L 27.729980 227.412109 L 27.729980 228.335938 Z " fill="black" fill-opacity="1.000000"/>
<path d="M 27.892578 228.335938 L 27.892578 227.412109 L 34.729980 227.412109 L 34.729980 228.335938 Z " fill="black" fill-opacity="1.000000"/>
<path d="M 34.892578 228.335938 L 34.892578 227.412109 L 41.729980 227.412109 L 41.729980 228.335938 Z " fill="black" fill-opacity="1.000000"/>
<path d="M 41.892578 228.335938 L 41.892578 227.412109 L 48.729980 227.412109 L 48.729980 228.335938 Z " fill="black" fill-opacity="1.000000"/>
<path d="M 48.892578 228.335938 L 48.892578 227.412109 L 55.729980 227.412109 L 55.729980 228.335938 Z " fill="black" fill-opacity="1.000000"/>
<path d="M 55.892578 228.335938 L 55.892578 227.412109 L 62.729980 227.412109 L 62.729980 228.335938 Z " fill="black" fill-opacity="1.000000"/>
<path d="M 62.892578 228.335938 L 62.892578 227.412109 L 69.729980 227.412109 L 69.729980 228.335938 Z " fill="black" fill-opacity="1.000000"/>
<path d="M 69.892578 228.335938 L 69.892578 227.412109 L 76.729980 227.412109 L 76.729980 228.335938 Z " fill="black" fill-opacity="1.000000"/>
<path d="M 76.892578 228.335938 L 76.892578 227.412109 L 83.729980 227.412109 L 83.729980 228.335938 Z " fill="black" fill-opacity="1.000000"/>
<path d="M 83.892578 228.335938 L 83.892578 227.412109 L 90.729980 227.412109 L 90.729980 228.335938 Z " fill="black" fill-opacity="1.000000"/>
<path d="M 90.892578 228.335938 L 90.892578 227.412109 L 97.729980 227.412109 L 97.729980 228.335938 Z " fill="black" fill-opacity="1.000000"/>
<path d="M 97.892578 228.335938 L 97.892578 227.412109 L 104.729980 227.412109 L 104.729980 228.335938 Z " fill="black" fill-opacity="1.000000"/>
<path d="M 104.892578 228.335938 L 104.892578 227.412109 L 111.729980 227.412109 L 111.729980 228.335938 Z " fill="black" fill-opacity="1.000000"/>
<path d="M 111.892578 228.335938 L 111.892578 227.412109 L 118.729980 227.412109 L 118.729980 228.335938 Z " fill="black" fill-opacity="1.000000"/>
<path d="M 118.892578 228.335938 L 118.892578 227.412109 L 125.729980 227.412109 L 125.729980 228.335938 Z " fill="black" fill-opacity="1.000000"/>
<path d="M 125.892578 228.335938 L 125.892578 227.412109 L 132.729980 227.412109 L 132.729980 228.335938 Z " fill="black" fill-opacity="1.000000"/>
<path d="M 132.892578 228.335938 L 132.892578 227.412109 L 139.729980 227.412109 L 139.729980 228.335938 Z " fill="black" fill-opacity="1.000000"/>
<path d="M 139.892578 228.335938 L 139.892578 227.412109 L 146.729980 227.412109 L 146.729980 228.335938 Z " fill="black" fill-opacity="1.000000"/>
<path d="M 146.892578 228.335938 L 146.892578 227.412109 L 153.729980 227.412109 L 153.729980 228.335938 Z " fill="black" fill-opacity="1.000000"/>
<path d="M 153.892578 228.335938 L 153.892578 227.412109 L 160.729980 227.412109 L 160.729980 228.335938 Z " fill="black" fill-opacity="1.000000"/>
<path d="M 160.892578 228.335938 L 160.892578 227.412109 L 167.729980 227.412109 L 167.729980 228.335938 Z " fill="black" fill-opacity="1.000000"/>
<path d="M 167.892578 228.335938 L 167.892578 227.412109 L 174.729980 227.412109 L 174.729980 228.335938 Z " fill="black" fill-opacity="1.000000"/>
<path d="M 174.892578 228.335938 L 174.892578 227.412109 L 181.729980 227.412109 L 181.729980 228.335938 Z " fill="black" fill-opacity="1.000000"/>
<path d="M 181.892578 228.335938 L 181.892578 227.412109 L 188.729980 227.412109 L 188.729980 228.335938 Z " fill="black" fill-opacity="1.000000"/>
<path d="M 188.892578 228.335938 L 188.892578 227.412109 L 195.729980 227.412109 L 195.729980 228.335938 Z " fill="black" fill-opacity="1.000000"/>
<path d="M 195.892578 228.335938 L 195.892578 227.412109 L 202.729980 227.412109 L 202.729980 228.335938 Z " fill="black" fill-opacity="1.000000"/>
<path d="M 202.892578 228.335938 L 202.892578 227.412109 L 209.729980 227.412109 L 209.729980 228.335938 Z " fill="black" fill-opacity="1.000000"/>
<path d="M 209.892578 228.335938 L 209.892578 227.412109 L 212.878906 227.412109 L 212.878906 220.300781 L 213.738281 220.300781 L 213.738281 228.335938 Z " fill="black" fill-opacity="1.000000"/>
<path d="M 217.032227 228.142578 L 223.590332 224.866211 L 223.590332 231.418945 Z " fill="black" fill-opacity="1.000000"/>
<path d="M 223.892578 228.335938 L 223.892578 227.412109 L 230.729980 227.412109 L 230.729980 228.335938 Z " fill="black" fill-opacity="1.000000"/>
<path d="M 230.892578 228.335938 L 230.892578 227.412109 L 233.878906 227.412109 L 233.878906 220.300781 L 234.738281 220.300781 L 234.738281 228.335938 Z " fill="black" fill-opacity="1.000000"/>
<path d="M 71.154785 209.980957 L 72.245117 209.980957 L 72.245117 217.086914 L 76.117676 217.086914 L 76.117676 218.000000 L 71.154785 218.000000 Z " fill="black" fill-opacity="1.000000"/>
<path d="M 78.697266 212.005859 L 81.227051 212.005859 L 81.227051 217.231934 L 83.187500 217.231934 L 83.187500 218.000000 L 78.278320 218.000000 L 78.278320 217.231934 L 80.238770 217.231934 L 80.238770 212.773926 L 78.697266 212.773926 Z M 80.238770 209.669434 L 81.227051 209.669434 L 81.227051 210.915527 L 80.238770 210.915527 Z " fill="black" fill-opacity="1.000000"/>
<path d="M 89.645020 214.272461 L 89.645020 218.000000 L 88.651367 218.000000 L 88.651367 214.272461 Q 88.651367 213.461426 88.366699 213.080078 Q 88.082031 212.698730 87.475098 212.698730 Q 86.782227 212.698730 86.408936 213.190186 Q 86.035645 213.681641 86.035645 214.600098 L 86.035645 218.000000 L 85.047363 218.000000 L 85.047363 211.984375 L 86.035645 211.984375 L 86.035645 212.886719 Q 86.298828 212.371094 86.750000 212.105225 Q 87.201172 211.839355 87.818848 211.839355 Q 88.737305 211.839355 89.191162 212.443604 Q 89.645020 213.047852 89.645020 214.272461 Z " fill="black" fill-opacity="1.000000"/>
<path d="M 92.267578 209.642578 L 93.288086 209.642578 L 93.288086 214.481934 L 95.882324 211.984375 L 97.085449 211.984375 L 94.716797 214.250977 L 97.456055 218.000000 L 96.247559 218.000000 L 94.023926 214.895508 L 93.288086 215.588379 L 93.288086 218.000000 L 92.267578 218.000000 Z " fill="black" fill-opacity="1.000000"/>
<path d="M 106.154785 209.980957 L 107.245117 209.980957 L 107.245117 217.086914 L 111.117676 217.086914 L 111.117676 218.000000 L 106.154785 218.000000 Z " fill="black" fill-opacity="1.000000"/>
<path d="M 115.770508 214.976074 L 115.442871 214.976074 Q 114.578125 214.976074 114.140381 215.279541 Q 113.702637 215.583008 113.702637 216.184570 Q 113.702637 216.727051 114.030273 217.027832 Q 114.357910 217.328613 114.937988 217.328613 Q 115.754395 217.328613 116.221680 216.761963 Q 116.688965 216.195312 116.694336 215.196289 L 116.694336 214.976074 Z M 117.687988 214.567871 L 117.687988 218.000000 L 116.694336 218.000000 L 116.694336 217.108398 Q 116.377441 217.645508 115.896729 217.900635 Q 115.416016 218.155762 114.728516 218.155762 Q 113.810059 218.155762 113.262207 217.637451 Q 112.714355 217.119141 112.714355 216.249023 Q 112.714355 215.244629 113.388428 214.723633 Q 114.062500 214.202637 115.367676 214.202637 L 116.694336 214.202637 L 116.694336 214.046875 Q 116.688965 213.327148 116.329102 213.002197 Q 115.969238 212.677246 115.179688 212.677246 Q 114.674805 212.677246 114.159180 212.822266 Q 113.643555 212.967285 113.154785 213.246582 L 113.154785 212.258301 Q 113.702637 212.048828 114.204834 211.944092 Q 114.707031 211.839355 115.179688 211.839355 Q 115.926270 211.839355 116.455322 212.059570 Q 116.984375 212.279785 117.312012 212.720215 Q 117.516113 212.988770 117.602051 213.383545 Q 117.687988 213.778320 117.687988 214.567871 Z " fill="black" fill-opacity="1.000000"/>
<path d="M 123.608398 216.066406 Q 123.361328 216.694824 122.979980 217.720703 Q 122.448242 219.138672 122.265625 219.450195 Q 122.018555 219.869141 121.647949 220.078613 Q 121.277344 220.288086 120.783203 220.288086 L 119.988281 220.288086 L 119.988281 219.460938 L 120.573730 219.460938 Q 121.008789 219.460938 121.255859 219.208496 Q 121.502930 218.956055 121.884277 217.903320 L 119.558594 211.984375 L 120.605957 211.984375 L 122.389160 216.689453 L 124.145508 211.984375 L 125.192871 211.984375 Z " fill="black" fill-opacity="1.000000"/>
<path d="M 132.015625 214.498047 L 132.015625 214.981445 L 127.734863 214.981445 L 127.734863 215.013672 Q 127.691895 216.243652 128.204834 216.780762 Q 128.717773 217.317871 129.652344 217.317871 Q 130.125000 217.317871 130.640625 217.167480 Q 131.156250 217.017090 131.741699 216.710938 L 131.741699 217.693848 Q 131.177734 217.924805 130.654053 218.040283 Q 130.130371 218.155762 129.641602 218.155762 Q 128.239746 218.155762 127.450195 217.315186 Q 126.660645 216.474609 126.660645 214.997559 Q 126.660645 213.558105 127.434082 212.698730 Q 128.207520 211.839355 129.496582 211.839355 Q 130.645996 211.839355 131.309326 212.618164 Q 131.972656 213.396973 132.015625 214.498047 Z M 131.027344 214.208008 Q 130.962891 213.584961 130.573486 213.131104 Q 130.184082 212.677246 129.453613 212.677246 Q 128.739258 212.677246 128.277344 213.149902 Q 127.815430 213.622559 127.772461 214.213379 Z " fill="black" fill-opacity="1.000000"/>
<path d="M 139.203613 213.225098 Q 138.886719 212.978027 138.559082 212.865234 Q 138.231445 212.752441 137.839355 212.752441 Q 136.915527 212.752441 136.426758 213.332520 Q 135.937988 213.912598 135.937988 215.008301 L 135.937988 218.000000 L 134.944336 218.000000 L 134.944336 211.984375 L 135.937988 211.984375 L 135.937988 213.160645 Q 136.185059 212.521484 136.697998 212.180420 Q 137.210938 211.839355 137.914551 211.839355 Q 138.279785 211.839355 138.596680 211.930664 Q 138.913574 212.021973 139.203613 212.215332 Z " fill="black" fill-opacity="1.000000"/>
<path d="M 212.878906 221.319336 L 212.878906 207.300781 L 213.738281 207.300781 L 213.738281 221.319336 Z " fill="black" fill-opacity="1.000000"/>
<path d="M 233.878906 221.319336 L 233.878906 207.300781 L 234.738281 207.300781 L 234.738281 221.319336 Z " fill="black" fill-opacity="1.000000"/>
<path d="M 6.892578 202.335938 L 6.892578 201.412109 L 13.729980 201.412109 L 13.729980 202.335938 Z " fill="black" fill-opacity="1.000000"/>
<path d="M 13.892578 202.335938 L 13.892578 201.412109 L 20.729980 201.412109 L 20.729980 202.335938 Z " fill="black" fill-opacity="1.000000"/>
<path d="M 20.892578 202.335938 L 20.892578 201.412109 L 27.729980 201.412109 L 27.729980 202.335938 Z " fill="black" fill-opacity="1.000000"/>
<path d="M 27.892578 202.335938 L 27.892578 201.412109 L 34.729980 201.412109 L 34.729980 202.335938 Z " fill="black" fill-opacity="1.000000"/>
<path d="M 34.892578 202.335938 L 34.892578 201.412109 L 41.729980 201.412109 L 41.729980 202.335938 Z " fill="black" fill-opacity="1.000000"/>
<path d="M 41.892578 202.335938 L 41.892578 201.412109 L 48.729980 201.412109 L 48.729980 202.335938 Z " fill="black" fill-opacity="1.000000"/>
<path d="M 48.892578 202.335938 L 48.892578 201.412109 L 55.729980 201.412109 L 55.729980 202.335938 Z " fill="black" fill-opacity="1.000000"/>
<path d="M 55.892578 202.335938 L 55.892578 201.412109 L 62.729980 201.412109 L 62.729980 202.335938 Z " fill="black" fill-opacity="1.000000"/>
<path d="M 62.892578 202.335938 L 62.892578 201.412109 L 69.729980 201.412109 L 69.729980 202.335938 Z " fill="black" fill-opacity="1.000000"/>
<path d="M 69.892578 202.335938 L 69.892578 201.412109 L 76.729980 201.412109 L 76.729980 202.335938 Z " fill="black" fill-opacity="1.000000"/>
<path d="M 76.892578 202.335938 L 76.892578 201.412109 L 83.729980 201.412109 L 83.729980 202.335938 Z " fill="black" fill-opacity="1.000000"/>
<path d="M 83.892578 202.335938 L 83.892578 201.412109 L 90.729980 201.412109 L 90.729980 202.335938 Z " fill="black" fill-opacity="1.000000"/>
<path d="M 90.892578 202.335938 L 90.892578 201.412109 L 97.729980 201.412109 L 97.729980 202.335938 Z " fill="black" fill-opacity="1.000000"/>
<path d="M 97.892578 202.335938 L 97.892578 201.412109 L 104.729980 201.412109 L 104.729980 202.335938 Z " fill="black" fill-opacity="1.000000"/>
<path d="M 104.892578 202.335938 L 104.892578 201.412109 L 111.729980 201.412109 L 111.729980 202.335938 Z " fill="black" fill-opacity="1.000000"/>
<path d="M 111.892578 202.335938 L 111.892578 201.412109 L 118.729980 201.412109 L 118.729980 202.335938 Z " fill="black" fill-opacity="1.000000"/>
<path d="M 118.892578 202.335938 L 118.892578 201.412109 L 125.729980 201.412109 L 125.729980 202.335938 Z " fill="black" fill-opacity="1.000000"/>
<path d="M 125.892578 202.335938 L 125.892578 201.412109 L 132.729980 201.412109 L 132.729980 202.335938 Z " fill="black" fill-opacity="1.000000"/>
<path d="M 132.892578 202.335938 L 132.892578 201.412109 L 139.729980 201.412109 L 139.729980 202.335938 Z " fill="black" fill-opacity="1.000000"/>
<path d="M 139.892578 202.335938 L 139.892578 201.412109 L 146.729980 201.412109 L 146.729980 202.335938 Z " fill="black" fill-opacity="1.000000"/>
<path d="M 146.892578 202.335938 L 146.892578 201.412109 L 153.729980 201.412109 L 153.729980 202.335938 Z " fill="black" fill-opacity="1.000000"/>
<path d="M 153.892578 202.335938 L 153.892578 201.412109 L 160.729980 201.412109 L 160.729980 202.335938 Z " fill="black" fill-opacity="1.000000"/>
<path d="M 160.892578 202.335938 L 160.892578 201.412109 L 167.729980 201.412109 L 167.729980 202.335938 Z " fill="black" fill-opacity="1.000000"/>
<path d="M 167.892578 202.335938 L 167.892578 201.412109 L 174.729980 201.412109 L 174.729980 202.335938 Z " fill="black" fill-opacity="1.000000"/>
<path d="M 174.892578 202.335938 L 174.892578 201.412109 L 181.729980 201.412109 L 181.729980 202.335938 Z " fill="black" fill-opacity="1.000000"/>
<path d="M 181.892578 202.335938 L 181.892578 201.412109 L 188.729980 201.412109 L 188.729980 202.335938 Z " fill="black" fill-opacity="1.000000"/>
<path d="M 188.892578 202.335938 L 188.892578 201.412109 L 195.729980 201.412109 L 195.729980 202.335938 Z " fill="black" fill-opacity="1.000000"/>
<path d="M 195.892578 202.335938 L 195.892578 201.412109 L 202.729980 201.412109 L 202.729980 202.335938 Z " fill="black" fill-opacity="1.000000"/>
<path d="M 202.892578 202.335938 L 202.892578 201.412109 L 209.729980 201.412109 L 209.729980 202.335938 Z " fill="black" fill-opacity="1.000000"/>
<path d="M 212.878906 208.319336 L 212.878906 202.335938 L 209.892578 202.335938 L 209.892578 201.412109 L 212.878906 201.412109 L 212.878906 194.300781 L 213.738281 194.300781 L 213.738281 208.319336 Z " fill="black" fill-opacity="1.000000"/>
<path d="M 233.878906 208.319336 L 233.878906 194.300781 L 234.738281 194.300781 L 234.738281 208.319336 Z " fill="black" fill-opacity="1.000000"/>
<path d="M 99.079590 183.980957 L 103.532227 183.980957 L 103.532227 184.894043 L 101.851074 184.894043 L 101.851074 191.086914 L 103.532227 191.086914 L 103.532227 192.000000 L 99.079590 192.000000 L 99.079590 191.086914 L 100.760742 191.086914 L 100.760742 184.894043 L 99.079590 184.894043 Z " fill="black" fill-opacity="1.000000"/>
<path d="M 107.143066 184.872559 L 107.143066 187.885742 L 108.399902 187.885742 Q 109.151855 187.885742 109.573486 187.488281 Q 109.995117 187.090820 109.995117 186.376465 Q 109.995117 185.662109 109.576172 185.267334 Q 109.157227 184.872559 108.399902 184.872559 Z M 106.058105 183.980957 L 108.399902 183.980957 Q 109.742676 183.980957 110.435547 184.590576 Q 111.128418 185.200195 111.128418 186.376465 Q 111.128418 187.563477 110.438232 188.170410 Q 109.748047 188.777344 108.399902 188.777344 L 107.143066 188.777344 L 107.143066 192.000000 L 106.058105 192.000000 Z " fill="black" fill-opacity="1.000000"/>
<path d="M 212.878906 195.319336 L 212.878906 181.300781 L 213.738281 181.300781 L 213.738281 195.319336 Z " fill="black" fill-opacity="1.000000"/>
<path d="M 233.878906 195.319336 L 233.878906 181.300781 L 234.738281 181.300781 L 234.738281 195.319336 Z " fill="black" fill-opacity="1.000000"/>
<path d="M 254.014160 191.242676 L 254.014160 194.288086 L 253.020508 194.288086 L 253.020508 185.984375 L 254.014160 185.984375 L 254.014160 186.752441 Q 254.261230 186.306641 254.672119 186.072998 Q 255.083008 185.839355 255.620117 185.839355 Q 256.710449 185.839355 257.330811 186.682617 Q 257.951172 187.525879 257.951172 189.019043 Q 257.951172 190.485352 257.328125 191.320557 Q 256.705078 192.155762 255.620117 192.155762 Q 255.072266 192.155762 254.661377 191.922119 Q 254.250488 191.688477 254.014160 191.242676 Z M 256.914551 188.997559 Q 256.914551 187.848145 256.552002 187.262695 Q 256.189453 186.677246 255.475098 186.677246 Q 254.755371 186.677246 254.384766 187.265381 Q 254.014160 187.853516 254.014160 188.997559 Q 254.014160 190.136230 254.384766 190.727051 Q 254.755371 191.317871 255.475098 191.317871 Q 256.189453 191.317871 256.552002 190.732422 Q 256.914551 190.146973 256.914551 188.997559 Z " fill="black" fill-opacity="1.000000"/>
<path d="M 265.203613 187.225098 Q 264.886719 186.978027 264.559082 186.865234 Q 264.231445 186.752441 263.839355 186.752441 Q 262.915527 186.752441 262.426758 187.332520 Q 261.937988 187.912598 261.937988 189.008301 L 261.937988 192.000000 L 260.944336 192.000000 L 260.944336 185.984375 L 261.937988 185.984375 L 261.937988 187.160645 Q 262.185059 186.521484 262.697998 186.180420 Q 263.210938 185.839355 263.914551 185.839355 Q 264.279785 185.839355 264.596680 185.930664 Q 264.913574 186.021973 265.203613 186.215332 Z " fill="black" fill-opacity="1.000000"/>
<path d="M 269.308594 186.677246 Q 268.556641 186.677246 268.169922 187.262695 Q 267.783203 187.848145 267.783203 188.997559 Q 267.783203 190.141602 268.169922 190.729736 Q 268.556641 191.317871 269.308594 191.317871 Q 270.065918 191.317871 270.452637 190.729736 Q 270.839355 190.141602 270.839355 188.997559 Q 270.839355 187.848145 270.452637 187.262695 Q 270.065918 186.677246 269.308594 186.677246 Z M 269.308594 185.839355 Q 270.560059 185.839355 271.223389 186.650391 Q 271.886719 187.461426 271.886719 188.997559 Q 271.886719 190.539062 271.226074 191.347412 Q 270.565430 192.155762 269.308594 192.155762 Q 268.057129 192.155762 267.396484 191.347412 Q 266.735840 190.539062 266.735840 188.997559 Q 266.735840 187.461426 267.396484 186.650391 Q 268.057129 185.839355 269.308594 185.839355 Z " fill="black" fill-opacity="1.000000"/>
<path d="M 276.297852 184.276367 L 276.297852 185.984375 L 278.542969 185.984375 L 278.542969 186.752441 L 276.297852 186.752441 L 276.297852 190.018066 Q 276.297852 190.684082 276.550293 190.947266 Q 276.802734 191.210449 277.431152 191.210449 L 278.542969 191.210449 L 278.542969 192.000000 L 277.334473 192.000000 Q 276.222656 192.000000 275.766113 191.554199 Q 275.309570 191.108398 275.309570 190.018066 L 275.309570 186.752441 L 273.703613 186.752441 L 273.703613 185.984375 L 275.309570 185.984375 L 275.309570 184.276367 Z " fill="black" fill-opacity="1.000000"/>
<path d="M 283.308594 186.677246 Q 282.556641 186.677246 282.169922 187.262695 Q 281.783203 187.848145 281.783203 188.997559 Q 281.783203 190.141602 282.169922 190.729736 Q 282.556641 191.317871 283.308594 191.317871 Q 284.065918 191.317871 284.452637 190.729736 Q 284.839355 190.141602 284.839355 188.997559 Q 284.839355 187.848145 284.452637 187.262695 Q 284.065918 186.677246 283.308594 186.677246 Z M 283.308594 185.839355 Q 284.560059 185.839355 285.223389 186.650391 Q 285.886719 187.461426 285.886719 188.997559 Q 285.886719 190.539062 285.226074 191.347412 Q 284.565430 192.155762 283.308594 192.155762 Q 282.057129 192.155762 281.396484 191.347412 Q 280.735840 190.539062 280.735840 188.997559 Q 280.735840 187.461426 281.396484 186.650391 Q 282.057129 185.839355 283.308594 185.839355 Z " fill="black" fill-opacity="1.000000"/>
<path d="M 292.698730 191.693848 Q 292.301270 191.924805 291.879639 192.040283 Q 291.458008 192.155762 291.017578 192.155762 Q 289.621094 192.155762 288.834229 191.317871 Q 288.047363 190.479980 288.047363 188.997559 Q 288.047363 187.515137 288.834229 186.677246 Q 289.621094 185.839355 291.017578 185.839355 Q 291.452637 185.839355 291.866211 185.952148 Q 292.279785 186.064941 292.698730 186.301270 L 292.698730 187.337891 Q 292.306641 186.988770 291.911865 186.833008 Q 291.517090 186.677246 291.017578 186.677246 Q 290.088379 186.677246 289.588867 187.278809 Q 289.089355 187.880371 289.089355 188.997559 Q 289.089355 190.109375 289.591553 190.713623 Q 290.093750 191.317871 291.017578 191.317871 Q 291.533203 191.317871 291.941406 191.159424 Q 292.349609 191.000977 292.698730 190.667969 Z " fill="black" fill-opacity="1.000000"/>
<path d="M 297.308594 186.677246 Q 296.556641 186.677246 296.169922 187.262695 Q 295.783203 187.848145 295.783203 188.997559 Q 295.783203 190.141602 296.169922 190.729736 Q 296.556641 191.317871 297.308594 191.317871 Q 298.065918 191.317871 298.452637 190.729736 Q 298.839355 190.141602 298.839355 188.997559 Q 298.839355 187.848145 298.452637 187.262695 Q 298.065918 186.677246 297.308594 186.677246 Z M 297.308594 185.839355 Q 298.560059 185.839355 299.223389 186.650391 Q 299.886719 187.461426 299.886719 188.997559 Q 299.886719 190.539062 299.226074 191.347412 Q 298.565430 192.155762 297.308594 192.155762 Q 296.057129 192.155762 295.396484 191.347412 Q 294.735840 190.539062 294.735840 188.997559 Q 294.735840 187.461426 295.396484 186.650391 Q 296.057129 185.839355 297.308594 185.839355 Z " fill="black" fill-opacity="1.000000"/>
<path d="M 304.861816 189.824707 Q 304.861816 190.490723 305.106201 190.829102 Q 305.350586 191.167480 305.828613 191.167480 L 306.983398 191.167480 L 306.983398 192.000000 L 305.731934 192.000000 Q 304.845703 192.000000 304.359619 191.433350 Q 303.873535 190.866699 303.873535 189.824707 L 303.873535 184.383789 L 302.289062 184.383789 L 302.289062 183.610352 L 304.861816 183.610352 Z " fill="black" fill-opacity="1.000000"/>
<path d="M 6.892578 176.335938 L 6.892578 175.412109 L 13.729980 175.412109 L 13.729980 176.335938 Z " fill="black" fill-opacity="1.000000"/>
<path d="M 13.892578 176.335938 L 13.892578 175.412109 L 20.729980 175.412109 L 20.729980 176.335938 Z " fill="black" fill-opacity="1.000000"/>
<path d="M 20.892578 176.335938 L 20.892578 175.412109 L 27.729980 175.412109 L 27.729980 176.335938 Z " fill="black" fill-opacity="1.000000"/>
<path d="M 27.892578 176.335938 L 27.892578 175.412109 L 34.729980 175.412109 L 34.729980 176.335938 Z " fill="black" fill-opacity="1.000000"/>
<path d="M 34.892578 176.335938 L 34.892578 175.412109 L 41.729980 175.412109 L 41.729980 176.335938 Z " fill="black" fill-opacity="1.000000"/>
<path d="M 41.892578 176.335938 L 41.892578 175.412109 L 48.729980 175.412109 L 48.729980 176.335938 Z " fill="black" fill-opacity="1.000000"/>
<path d="M 48.892578 176.335938 L 48.892578 175.412109 L 55.729980 175.412109 L 55.729980 176.335938 Z " fill="black" fill-opacity="1.000000"/>
<path d="M 55.892578 176.335938 L 55.892578 175.412109 L 62.729980 175.412109 L 62.729980 176.335938 Z " fill="black" fill-opacity="1.000000"/>
<path d="M 62.892578 176.335938 L 62.892578 175.412109 L 69.729980 175.412109 L 69.729980 176.335938 Z " fill="black" fill-opacity="1.000000"/>
<path d="M 69.892578 176.335938 L 69.892578 175.412109 L 76.729980 175.412109 L 76.729980 176.335938 Z " fill="black" fill-opacity="1.000000"/>
<path d="M 76.892578 176.335938 L 76.892578 175.412109 L 83.729980 175.412109 L 83.729980 176.335938 Z " fill="black" fill-opacity="1.000000"/>
<path d="M 83.892578 176.335938 L 83.892578 175.412109 L 90.729980 175.412109 L 90.729980 176.335938 Z " fill="black" fill-opacity="1.000000"/>
<path d="M 90.892578 176.335938 L 90.892578 175.412109 L 97.729980 175.412109 L 97.729980 176.335938 Z " fill="black" fill-opacity="1.000000"/>
<path d="M 97.892578 176.335938 L 97.892578 175.412109 L 104.729980 175.412109 L 104.729980 176.335938 Z " fill="black" fill-opacity="1.000000"/>
<path d="M 104.892578 176.335938 L 104.892578 175.412109 L 111.729980 175.412109 L 111.729980 176.335938 Z " fill="black" fill-opacity="1.000000"/>
<path d="M 111.892578 176.335938 L 111.892578 175.412109 L 118.729980 175.412109 L 118.729980 176.335938 Z " fill="black" fill-opacity="1.000000"/>
<path d="M 118.892578 176.335938 L 118.892578 175.412109 L 125.729980 175.412109 L 125.729980 176.335938 Z " fill="black" fill-opacity="1.000000"/>
<path d="M 125.892578 176.335938 L 125.892578 175.412109 L 132.729980 175.412109 L 132.729980 176.335938 Z " fill="black" fill-opacity="1.000000"/>
<path d="M 132.892578 176.335938 L 132.892578 175.412109 L 139.729980 175.412109 L 139.729980 176.335938 Z " fill="black" fill-opacity="1.000000"/>
<path d="M 139.892578 176.335938 L 139.892578 175.412109 L 146.729980 175.412109 L 146.729980 176.335938 Z " fill="black" fill-opacity="1.000000"/>
<path d="M 146.892578 176.335938 L 146.892578 175.412109 L 153.729980 175.412109 L 153.729980 176.335938 Z " fill="black" fill-opacity="1.000000"/>
<path d="M 153.892578 176.335938 L 153.892578 175.412109 L 160.729980 175.412109 L 160.729980 176.335938 Z " fill="black" fill-opacity="1.000000"/>
<path d="M 160.892578 176.335938 L 160.892578 175.412109 L 167.729980 175.412109 L 167.729980 176.335938 Z " fill="black" fill-opacity="1.000000"/>
<path d="M 167.892578 176.335938 L 167.892578 175.412109 L 174.729980 175.412109 L 174.729980 176.335938 Z " fill="black" fill-opacity="1.000000"/>
<path d="M 174.892578 176.335938 L 174.892578 175.412109 L 181.729980 175.412109 L 181.729980 176.335938 Z " fill="black" fill-opacity="1.000000"/>
<path d="M 181.892578 176.335938 L 181.892578 175.412109 L 188.729980 175.412109 L 188.729980 176.335938 Z " fill="black" fill-opacity="1.000000"/>
<path d="M 188.892578 176.335938 L 188.892578 175.412109 L 195.729980 175.412109 L 195.729980 176.335938 Z " fill="black" fill-opacity="1.000000"/>
<path d="M 195.892578 176.335938 L 195.892578 175.412109 L 202.729980 175.412109 L 202.729980 176.335938 Z " fill="black" fill-opacity="1.000000"/>
<path d="M 202.892578 176.335938 L 202.892578 175.412109 L 209.729980 175.412109 L 209.729980 176.335938 Z " fill="black" fill-opacity="1.000000"/>
<path d="M 212.878906 182.319336 L 212.878906 176.335938 L 209.892578 176.335938 L 209.892578 175.412109 L 212.878906 175.412109 L 212.878906 168.300781 L 213.738281 168.300781 L 213.738281 182.319336 Z " fill="black" fill-opacity="1.000000"/>
<path d="M 233.878906 182.319336 L 233.878906 168.300781 L 234.738281 168.300781 L 234.738281 182.319336 Z " fill="black" fill-opacity="1.000000"/>
<path d="M 246.079590 170.980957 L 250.532227 170.980957 L 250.532227 171.894043 L 248.851074 171.894043 L 248.851074 178.086914 L 250.532227 178.086914 L 250.532227 179.000000 L 246.079590 179.000000 L 246.079590 178.086914 L 247.760742 178.086914 L 247.760742 171.894043 L 246.079590 171.894043 Z " fill="black" fill-opacity="1.000000"/>
<path d="M 257.645020 175.272461 L 257.645020 179.000000 L 256.651367 179.000000 L 256.651367 175.272461 Q 256.651367 174.461426 256.366699 174.080078 Q 256.082031 173.698730 255.475098 173.698730 Q 254.782227 173.698730 254.408936 174.190186 Q 254.035645 174.681641 254.035645 175.600098 L 254.035645 179.000000 L 253.047363 179.000000 L 253.047363 172.984375 L 254.035645 172.984375 L 254.035645 173.886719 Q 254.298828 173.371094 254.750000 173.105225 Q 255.201172 172.839355 255.818848 172.839355 Q 256.737305 172.839355 257.191162 173.443604 Q 257.645020 174.047852 257.645020 175.272461 Z " fill="black" fill-opacity="1.000000"/>
<path d="M 262.297852 171.276367 L 262.297852 172.984375 L 264.542969 172.984375 L 264.542969 173.752441 L 262.297852 173.752441 L 262.297852 177.018066 Q 262.297852 177.684082 262.550293 177.947266 Q 262.802734 178.210449 263.431152 178.210449 L 264.542969 178.210449 L 264.542969 179.000000 L 263.334473 179.000000 Q 262.222656 179.000000 261.766113 178.554199 Q 261.309570 178.108398 261.309570 177.018066 L 261.309570 173.752441 L 259.703613 173.752441 L 259.703613 172.984375 L 261.309570 172.984375 L 261.309570 171.276367 Z " fill="black" fill-opacity="1.000000"/>
<path d="M 272.203613 174.225098 Q 271.886719 173.978027 271.559082 173.865234 Q 271.231445 173.752441 270.839355 173.752441 Q 269.915527 173.752441 269.426758 174.332520 Q 268.937988 174.912598 268.937988 176.008301 L 268.937988 179.000000 L 267.944336 179.000000 L 267.944336 172.984375 L 268.937988 172.984375 L 268.937988 174.160645 Q 269.185059 173.521484 269.697998 173.180420 Q 270.210938 172.839355 270.914551 172.839355 Q 271.279785 172.839355 271.596680 172.930664 Q 271.913574 173.021973 272.203613 173.215332 Z " fill="black" fill-opacity="1.000000"/>
<path d="M 276.770508 175.976074 L 276.442871 175.976074 Q 275.578125 175.976074 275.140381 176.279541 Q 274.702637 176.583008 274.702637 177.184570 Q 274.702637 177.727051 275.030273 178.027832 Q 275.357910 178.328613 275.937988 178.328613 Q 276.754395 178.328613 277.221680 177.761963 Q 277.688965 177.195312 277.694336 176.196289 L 277.694336 175.976074 Z M 278.687988 175.567871 L 278.687988 179.000000 L 277.694336 179.000000 L 277.694336 178.108398 Q 277.377441 178.645508 276.896729 178.900635 Q 276.416016 179.155762 275.728516 179.155762 Q 274.810059 179.155762 274.262207 178.637451 Q 273.714355 178.119141 273.714355 177.249023 Q 273.714355 176.244629 274.388428 175.723633 Q 275.062500 175.202637 276.367676 175.202637 L 277.694336 175.202637 L 277.694336 175.046875 Q 277.688965 174.327148 277.329102 174.002197 Q 276.969238 173.677246 276.179688 173.677246 Q 275.674805 173.677246 275.159180 173.822266 Q 274.643555 173.967285 274.154785 174.246582 L 274.154785 173.258301 Q 274.702637 173.048828 275.204834 172.944092 Q 275.707031 172.839355 276.179688 172.839355 Q 276.926270 172.839355 277.455322 173.059570 Q 277.984375 173.279785 278.312012 173.720215 Q 278.516113 173.988770 278.602051 174.383545 Q 278.687988 174.778320 278.687988 175.567871 Z " fill="black" fill-opacity="1.000000"/>
<path d="M 280.547852 175.111328 L 286.241211 175.111328 L 286.241211 176.019043 L 280.547852 176.019043 Z " fill="black" fill-opacity="1.000000"/>
<path d="M 291.608398 173.752441 L 291.608398 170.642578 L 292.596680 170.642578 L 292.596680 179.000000 L 291.608398 179.000000 L 291.608398 178.242676 Q 291.361328 178.688477 290.950439 178.922119 Q 290.539551 179.155762 290.002441 179.155762 Q 288.912109 179.155762 288.286377 178.309814 Q 287.660645 177.463867 287.660645 175.976074 Q 287.660645 174.509766 288.289062 173.674561 Q 288.917480 172.839355 290.002441 172.839355 Q 290.544922 172.839355 290.958496 173.072998 Q 291.372070 173.306641 291.608398 173.752441 Z M 288.702637 175.997559 Q 288.702637 177.146973 289.067871 177.732422 Q 289.433105 178.317871 290.147461 178.317871 Q 290.861816 178.317871 291.235107 177.727051 Q 291.608398 177.136230 291.608398 175.997559 Q 291.608398 174.853516 291.235107 174.265381 Q 290.861816 173.677246 290.147461 173.677246 Q 289.433105 173.677246 289.067871 174.262695 Q 288.702637 174.848145 288.702637 175.997559 Z " fill="black" fill-opacity="1.000000"/>
<path d="M 297.308594 173.677246 Q 296.556641 173.677246 296.169922 174.262695 Q 295.783203 174.848145 295.783203 175.997559 Q 295.783203 177.141602 296.169922 177.729736 Q 296.556641 178.317871 297.308594 178.317871 Q 298.065918 178.317871 298.452637 177.729736 Q 298.839355 177.141602 298.839355 175.997559 Q 298.839355 174.848145 298.452637 174.262695 Q 298.065918 173.677246 297.308594 173.677246 Z M 297.308594 172.839355 Q 298.560059 172.839355 299.223389 173.650391 Q 299.886719 174.461426 299.886719 175.997559 Q 299.886719 177.539062 299.226074 178.347412 Q 298.565430 179.155762 297.308594 179.155762 Q 296.057129 179.155762 295.396484 178.347412 Q 294.735840 177.539062 294.735840 175.997559 Q 294.735840 174.461426 295.396484 173.650391 Q 296.057129 172.839355 297.308594 172.839355 Z " fill="black" fill-opacity="1.000000"/>
<path d="M 304.630859 173.596680 Q 304.813477 173.209961 305.095459 173.024658 Q 305.377441 172.839355 305.774902 172.839355 Q 306.500000 172.839355 306.798096 173.400635 Q 307.096191 173.961914 307.096191 175.514160 L 307.096191 179.000000 L 306.193848 179.000000 L 306.193848 175.557129 Q 306.193848 174.284180 306.051514 173.975342 Q 305.909180 173.666504 305.533203 173.666504 Q 305.103516 173.666504 304.945068 173.996826 Q 304.786621 174.327148 304.786621 175.557129 L 304.786621 179.000000 L 303.884277 179.000000 L 303.884277 175.557129 Q 303.884277 174.268066 303.731201 173.967285 Q 303.578125 173.666504 303.180664 173.666504 Q 302.788574 173.666504 302.635498 173.996826 Q 302.482422 174.327148 302.482422 175.557129 L 302.482422 179.000000 L 301.585449 179.000000 L 301.585449 172.984375 L 302.482422 172.984375 L 302.482422 173.500000 Q 302.659668 173.177734 302.925537 173.008545 Q 303.191406 172.839355 303.529785 172.839355 Q 303.937988 172.839355 304.209229 173.027344 Q 304.480469 173.215332 304.630859 173.596680 Z " fill="black" fill-opacity="1.000000"/>
<path d="M 311.770508 175.976074 L 311.442871 175.976074 Q 310.578125 175.976074 310.140381 176.279541 Q 309.702637 176.583008 309.702637 177.184570 Q 309.702637 177.727051 310.030273 178.027832 Q 310.357910 178.328613 310.937988 178.328613 Q 311.754395 178.328613 312.221680 177.761963 Q 312.688965 177.195312 312.694336 176.196289 L 312.694336 175.976074 Z M 313.687988 175.567871 L 313.687988 179.000000 L 312.694336 179.000000 L 312.694336 178.108398 Q 312.377441 178.645508 311.896729 178.900635 Q 311.416016 179.155762 310.728516 179.155762 Q 309.810059 179.155762 309.262207 178.637451 Q 308.714355 178.119141 308.714355 177.249023 Q 308.714355 176.244629 309.388428 175.723633 Q 310.062500 175.202637 311.367676 175.202637 L 312.694336 175.202637 L 312.694336 175.046875 Q 312.688965 174.327148 312.329102 174.002197 Q 311.969238 173.677246 311.179688 173.677246 Q 310.674805 173.677246 310.159180 173.822266 Q 309.643555 173.967285 309.154785 174.246582 L 309.154785 173.258301 Q 309.702637 173.048828 310.204834 172.944092 Q 310.707031 172.839355 311.179688 172.839355 Q 311.926270 172.839355 312.455322 173.059570 Q 312.984375 173.279785 313.312012 173.720215 Q 313.516113 173.988770 313.602051 174.383545 Q 313.687988 174.778320 313.687988 175.567871 Z " fill="black" fill-opacity="1.000000"/>
<path d="M 316.697266 173.005859 L 319.227051 173.005859 L 319.227051 178.231934 L 321.187500 178.231934 L 321.187500 179.000000 L 316.278320 179.000000 L 316.278320 178.231934 L 318.238770 178.231934 L 318.238770 173.773926 L 316.697266 173.773926 Z M 318.238770 170.669434 L 319.227051 170.669434 L 319.227051 171.915527 L 318.238770 171.915527 Z " fill="black" fill-opacity="1.000000"/>
<path d="M 327.645020 175.272461 L 327.645020 179.000000 L 326.651367 179.000000 L 326.651367 175.272461 Q 326.651367 174.461426 326.366699 174.080078 Q 326.082031 173.698730 325.475098 173.698730 Q 324.782227 173.698730 324.408936 174.190186 Q 324.035645 174.681641 324.035645 175.600098 L 324.035645 179.000000 L 323.047363 179.000000 L 323.047363 172.984375 L 324.035645 172.984375 L 324.035645 173.886719 Q 324.298828 173.371094 324.750000 173.105225 Q 325.201172 172.839355 325.818848 172.839355 Q 326.737305 172.839355 327.191162 173.443604 Q 327.645020 174.047852 327.645020 175.272461 Z " fill="black" fill-opacity="1.000000"/>
<path d="M 98.789551 162.922363 L 98.789551 157.980957 L 99.879883 157.980957 L 99.879883 163.416504 Q 99.879883 164.001953 99.912109 164.251709 Q 99.944336 164.501465 100.024902 164.635742 Q 100.196777 164.952637 100.521729 165.113770 Q 100.846680 165.274902 101.308594 165.274902 Q 101.775879 165.274902 102.098145 165.113770 Q 102.420410 164.952637 102.597656 164.635742 Q 102.678223 164.501465 102.710449 164.254395 Q 102.742676 164.007324 102.742676 163.427246 L 102.742676 157.980957 L 103.827637 157.980957 L 103.827637 162.922363 Q 103.827637 164.152344 103.674561 164.670654 Q 103.521484 165.188965 103.145508 165.527344 Q 102.791016 165.844238 102.334473 166.000000 Q 101.877930 166.155762 101.308594 166.155762 Q 100.744629 166.155762 100.288086 166.000000 Q 99.831543 165.844238 99.471680 165.527344 Q 99.101074 165.194336 98.945312 164.665283 Q 98.789551 164.136230 98.789551 162.922363 Z " fill="black" fill-opacity="1.000000"/>
<path d="M 107.341797 165.108398 Q 108.711426 165.108398 109.253906 164.434326 Q 109.796387 163.760254 109.796387 161.998535 Q 109.796387 160.220703 109.256592 159.546631 Q 108.716797 158.872559 107.341797 158.872559 L 106.826172 158.872559 L 106.826172 165.108398 Z M 107.363281 157.980957 Q 109.200195 157.980957 110.070312 158.958496 Q 110.940430 159.936035 110.940430 161.998535 Q 110.940430 164.050293 110.070312 165.025146 Q 109.200195 166.000000 107.363281 166.000000 L 105.735840 166.000000 L 105.735840 157.980957 Z " fill="black" fill-opacity="1.000000"/>
<path d="M 114.143066 158.872559 L 114.143066 161.885742 L 115.399902 161.885742 Q 116.151855 161.885742 116.573486 161.488281 Q 116.995117 161.090820 116.995117 160.376465 Q 116.995117 159.662109 116.576172 159.267334 Q 116.157227 158.872559 115.399902 158.872559 Z M 113.058105 157.980957 L 115.399902 157.980957 Q 116.742676 157.980957 117.435547 158.590576 Q 118.128418 159.200195 118.128418 160.376465 Q 118.128418 161.563477 117.438232 162.170410 Q 116.748047 162.777344 115.399902 162.777344 L 114.143066 162.777344 L 114.143066 166.000000 L 113.058105 166.000000 Z " fill="black" fill-opacity="1.000000"/>
<path d="M 212.878906 169.319336 L 212.878906 155.300781 L 213.738281 155.300781 L 213.738281 169.319336 Z " fill="black" fill-opacity="1.000000"/>
<path d="M 233.878906 169.319336 L 233.878906 155.300781 L 234.738281 155.300781 L 234.738281 169.319336 Z " fill="black" fill-opacity="1.000000"/>
<path d="M 6.892578 150.335938 L 6.892578 149.412109 L 13.729980 149.412109 L 13.729980 150.335938 Z " fill="black" fill-opacity="1.000000"/>
<path d="M 13.892578 150.335938 L 13.892578 149.412109 L 20.729980 149.412109 L 20.729980 150.335938 Z " fill="black" fill-opacity="1.000000"/>
<path d="M 20.892578 150.335938 L 20.892578 149.412109 L 27.729980 149.412109 L 27.729980 150.335938 Z " fill="black" fill-opacity="1.000000"/>
<path d="M 27.892578 150.335938 L 27.892578 149.412109 L 34.729980 149.412109 L 34.729980 150.335938 Z " fill="black" fill-opacity="1.000000"/>
<path d="M 34.892578 150.335938 L 34.892578 149.412109 L 41.729980 149.412109 L 41.729980 150.335938 Z " fill="black" fill-opacity="1.000000"/>
<path d="M 41.892578 150.335938 L 41.892578 149.412109 L 48.729980 149.412109 L 48.729980 150.335938 Z " fill="black" fill-opacity="1.000000"/>
<path d="M 48.892578 150.335938 L 48.892578 149.412109 L 55.729980 149.412109 L 55.729980 150.335938 Z " fill="black" fill-opacity="1.000000"/>
<path d="M 55.892578 150.335938 L 55.892578 149.412109 L 62.729980 149.412109 L 62.729980 150.335938 Z " fill="black" fill-opacity="1.000000"/>
<path d="M 62.892578 150.335938 L 62.892578 149.412109 L 69.729980 149.412109 L 69.729980 150.335938 Z " fill="black" fill-opacity="1.000000"/>
<path d="M 69.892578 150.335938 L 69.892578 149.412109 L 76.729980 149.412109 L 76.729980 150.335938 Z " fill="black" fill-opacity="1.000000"/>
<path d="M 76.892578 150.335938 L 76.892578 149.412109 L 83.729980 149.412109 L 83.729980 150.335938 Z " fill="black" fill-opacity="1.000000"/>
<path d="M 83.892578 150.335938 L 83.892578 149.412109 L 90.729980 149.412109 L 90.729980 150.335938 Z " fill="black" fill-opacity="1.000000"/>
<path d="M 90.892578 150.335938 L 90.892578 149.412109 L 97.729980 149.412109 L 97.729980 150.335938 Z " fill="black" fill-opacity="1.000000"/>
<path d="M 97.892578 150.335938 L 97.892578 149.412109 L 104.729980 149.412109 L 104.729980 150.335938 Z " fill="black" fill-opacity="1.000000"/>
<path d="M 104.892578 150.335938 L 104.892578 149.412109 L 111.729980 149.412109 L 111.729980 150.335938 Z " fill="black" fill-opacity="1.000000"/>
<path d="M 111.892578 150.335938 L 111.892578 149.412109 L 118.729980 149.412109 L 118.729980 150.335938 Z " fill="black" fill-opacity="1.000000"/>
<path d="M 118.892578 150.335938 L 118.892578 149.412109 L 125.729980 149.412109 L 125.729980 150.335938 Z " fill="black" fill-opacity="1.000000"/>
<path d="M 125.892578 150.335938 L 125.892578 149.412109 L 132.729980 149.412109 L 132.729980 150.335938 Z " fill="black" fill-opacity="1.000000"/>
<path d="M 132.892578 150.335938 L 132.892578 149.412109 L 139.729980 149.412109 L 139.729980 150.335938 Z " fill="black" fill-opacity="1.000000"/>
<path d="M 139.892578 150.335938 L 139.892578 149.412109 L 146.729980 149.412109 L 146.729980 150.335938 Z " fill="black" fill-opacity="1.000000"/>
<path d="M 146.892578 150.335938 L 146.892578 149.412109 L 153.729980 149.412109 L 153.729980 150.335938 Z " fill="black" fill-opacity="1.000000"/>
<path d="M 153.892578 150.335938 L 153.892578 149.412109 L 160.729980 149.412109 L 160.729980 150.335938 Z " fill="black" fill-opacity="1.000000"/>
<path d="M 160.892578 150.335938 L 160.892578 149.412109 L 167.729980 149.412109 L 167.729980 150.335938 Z " fill="black" fill-opacity="1.000000"/>
<path d="M 167.892578 150.335938 L 167.892578 149.412109 L 174.729980 149.412109 L 174.729980 150.335938 Z " fill="black" fill-opacity="1.000000"/>
<path d="M 174.892578 150.335938 L 174.892578 149.412109 L 181.729980 149.412109 L 181.729980 150.335938 Z " fill="black" fill-opacity="1.000000"/>
<path d="M 181.892578 150.335938 L 181.892578 149.412109 L 188.729980 149.412109 L 188.729980 150.335938 Z " fill="black" fill-opacity="1.000000"/>
<path d="M 188.892578 150.335938 L 188.892578 149.412109 L 195.729980 149.412109 L 195.729980 150.335938 Z " fill="black" fill-opacity="1.000000"/>
<path d="M 195.892578 150.335938 L 195.892578 149.412109 L 202.729980 149.412109 L 202.729980 150.335938 Z " fill="black" fill-opacity="1.000000"/>
<path d="M 202.892578 150.335938 L 202.892578 149.412109 L 209.729980 149.412109 L 209.729980 150.335938 Z " fill="black" fill-opacity="1.000000"/>
<path d="M 212.878906 156.319336 L 212.878906 150.335938 L 209.892578 150.335938 L 209.892578 149.412109 L 212.878906 149.412109 L 212.878906 142.300781 L 213.738281 142.300781 L 213.738281 156.319336 Z " fill="black" fill-opacity="1.000000"/>
<path d="M 217.032227 150.142578 L 223.590332 146.866211 L 223.590332 153.418945 Z " fill="black" fill-opacity="1.000000"/>
<path d="M 223.892578 150.335938 L 223.892578 149.412109 L 230.729980 149.412109 L 230.729980 150.335938 Z " fill="black" fill-opacity="1.000000"/>
<path d="M 233.878906 156.319336 L 233.878906 150.335938 L 230.892578 150.335938 L 230.892578 149.412109 L 234.738281 149.412109 L 234.738281 156.319336 Z " fill="black" fill-opacity="1.000000"/>
<path d="M 96.435547 119.254883 L 96.435547 120.355957 Q 95.941406 120.039062 95.444580 119.877930 Q 94.947754 119.716797 94.442871 119.716797 Q 93.674805 119.716797 93.229004 120.073975 Q 92.783203 120.431152 92.783203 121.038086 Q 92.783203 121.569824 93.075928 121.849121 Q 93.368652 122.128418 94.168945 122.316406 L 94.738281 122.445312 Q 95.866211 122.708496 96.381836 123.272461 Q 96.897461 123.836426 96.897461 124.808594 Q 96.897461 125.952637 96.188477 126.554199 Q 95.479492 127.155762 94.125977 127.155762 Q 93.562012 127.155762 92.992676 127.034912 Q 92.423340 126.914062 91.848633 126.672363 L 91.848633 125.517578 Q 92.466309 125.909668 93.016846 126.092285 Q 93.567383 126.274902 94.125977 126.274902 Q 94.947754 126.274902 95.404297 125.906982 Q 95.860840 125.539062 95.860840 124.878418 Q 95.860840 124.276855 95.546631 123.959961 Q 95.232422 123.643066 94.453613 123.471191 L 93.873535 123.336914 Q 92.756348 123.084473 92.251465 122.574219 Q 91.746582 122.063965 91.746582 121.204590 Q 91.746582 120.130371 92.468994 119.483154 Q 93.191406 118.835938 94.389160 118.835938 Q 94.851074 118.835938 95.361328 118.940674 Q 95.871582 119.045410 96.435547 119.254883 Z " fill="black" fill-opacity="1.000000"/>
<path d="M 212.878906 143.319336 L 212.878906 129.300781 L 213.738281 129.300781 L 213.738281 143.319336 Z " fill="black" fill-opacity="1.000000"/>
<path d="M 103.763184 126.715332 Q 103.349609 126.935547 102.914551 127.045654 Q 102.479492 127.155762 101.990723 127.155762 Q 100.449219 127.155762 99.597900 126.065430 Q 98.746582 124.975098 98.746582 122.998535 Q 98.746582 121.032715 99.603271 119.934326 Q 100.459961 118.835938 101.990723 118.835938 Q 102.479492 118.835938 102.914551 118.946045 Q 103.349609 119.056152 103.763184 119.276367 L 103.763184 120.388184 Q 103.365723 120.060547 102.909180 119.888672 Q 102.452637 119.716797 101.990723 119.716797 Q 100.932617 119.716797 100.406250 120.533203 Q 99.879883 121.349609 99.879883 122.998535 Q 99.879883 124.642090 100.406250 125.458496 Q 100.932617 126.274902 101.990723 126.274902 Q 102.463379 126.274902 102.917236 126.103027 Q 103.371094 125.931152 103.763184 125.603516 Z " fill="black" fill-opacity="1.000000"/>
<path d="M 106.079590 118.980957 L 110.532227 118.980957 L 110.532227 119.894043 L 108.851074 119.894043 L 108.851074 126.086914 L 110.532227 126.086914 L 110.532227 127.000000 L 106.079590 127.000000 L 106.079590 126.086914 L 107.760742 126.086914 L 107.760742 119.894043 L 106.079590 119.894043 Z " fill="black" fill-opacity="1.000000"/>
<path d="M 116.860840 122.998535 Q 116.860840 121.231445 116.498291 120.474121 Q 116.135742 119.716797 115.308594 119.716797 Q 114.486816 119.716797 114.124268 120.474121 Q 113.761719 121.231445 113.761719 122.998535 Q 113.761719 124.760254 114.124268 125.517578 Q 114.486816 126.274902 115.308594 126.274902 Q 116.135742 126.274902 116.498291 125.520264 Q 116.860840 124.765625 116.860840 122.998535 Z M 117.994141 122.998535 Q 117.994141 125.093262 117.330811 126.124512 Q 116.667480 127.155762 115.308594 127.155762 Q 113.949707 127.155762 113.289062 126.129883 Q 112.628418 125.104004 112.628418 122.998535 Q 112.628418 120.898438 113.291748 119.867188 Q 113.955078 118.835938 115.308594 118.835938 Q 116.667480 118.835938 117.330811 119.867188 Q 117.994141 120.898438 117.994141 122.998535 Z " fill="black" fill-opacity="1.000000"/>
<path d="M 119.102051 119.007812 L 120.584473 119.007812 L 123.721191 125.587402 L 123.721191 119.007812 L 124.875977 119.007812 L 124.875977 127.000000 L 123.393555 127.000000 L 120.256836 120.420410 L 120.256836 127.000000 L 119.102051 127.000000 Z " fill="black" fill-opacity="1.000000"/>
<path d="M 212.878906 130.319336 L 212.878906 116.300781 L 213.738281 116.300781 L 213.738281 130.319336 Z " fill="black" fill-opacity="1.000000"/>
<path d="M 212.878906 117.319336 L 212.878906 103.300781 L 213.738281 103.300781 L 213.738281 117.319336 Z " fill="black" fill-opacity="1.000000"/>
<path d="M 6.892578 98.335938 L 6.892578 97.412109 L 13.729980 97.412109 L 13.729980 98.335938 Z " fill="black" fill-opacity="1.000000"/>
<path d="M 13.892578 98.335938 L 13.892578 97.412109 L 20.729980 97.412109 L 20.729980 98.335938 Z " fill="black" fill-opacity="1.000000"/>
<path d="M 20.892578 98.335938 L 20.892578 97.412109 L 27.729980 97.412109 L 27.729980 98.335938 Z " fill="black" fill-opacity="1.000000"/>
<path d="M 27.892578 98.335938 L 27.892578 97.412109 L 34.729980 97.412109 L 34.729980 98.335938 Z " fill="black" fill-opacity="1.000000"/>
<path d="M 34.892578 98.335938 L 34.892578 97.412109 L 41.729980 97.412109 L 41.729980 98.335938 Z " fill="black" fill-opacity="1.000000"/>
<path d="M 41.892578 98.335938 L 41.892578 97.412109 L 48.729980 97.412109 L 48.729980 98.335938 Z " fill="black" fill-opacity="1.000000"/>
<path d="M 48.892578 98.335938 L 48.892578 97.412109 L 55.729980 97.412109 L 55.729980 98.335938 Z " fill="black" fill-opacity="1.000000"/>
<path d="M 55.892578 98.335938 L 55.892578 97.412109 L 62.729980 97.412109 L 62.729980 98.335938 Z " fill="black" fill-opacity="1.000000"/>
<path d="M 62.892578 98.335938 L 62.892578 97.412109 L 69.729980 97.412109 L 69.729980 98.335938 Z " fill="black" fill-opacity="1.000000"/>
<path d="M 69.892578 98.335938 L 69.892578 97.412109 L 76.729980 97.412109 L 76.729980 98.335938 Z " fill="black" fill-opacity="1.000000"/>
<path d="M 76.892578 98.335938 L 76.892578 97.412109 L 83.729980 97.412109 L 83.729980 98.335938 Z " fill="black" fill-opacity="1.000000"/>
<path d="M 83.892578 98.335938 L 83.892578 97.412109 L 90.729980 97.412109 L 90.729980 98.335938 Z " fill="black" fill-opacity="1.000000"/>
<path d="M 90.892578 98.335938 L 90.892578 97.412109 L 97.729980 97.412109 L 97.729980 98.335938 Z " fill="black" fill-opacity="1.000000"/>
<path d="M 97.892578 98.335938 L 97.892578 97.412109 L 104.729980 97.412109 L 104.729980 98.335938 Z " fill="black" fill-opacity="1.000000"/>
<path d="M 104.892578 98.335938 L 104.892578 97.412109 L 111.729980 97.412109 L 111.729980 98.335938 Z " fill="black" fill-opacity="1.000000"/>
<path d="M 111.892578 98.335938 L 111.892578 97.412109 L 118.729980 97.412109 L 118.729980 98.335938 Z " fill="black" fill-opacity="1.000000"/>
<path d="M 118.892578 98.335938 L 118.892578 97.412109 L 125.729980 97.412109 L 125.729980 98.335938 Z " fill="black" fill-opacity="1.000000"/>
<path d="M 125.892578 98.335938 L 125.892578 97.412109 L 132.729980 97.412109 L 132.729980 98.335938 Z " fill="black" fill-opacity="1.000000"/>
<path d="M 132.892578 98.335938 L 132.892578 97.412109 L 139.729980 97.412109 L 139.729980 98.335938 Z " fill="black" fill-opacity="1.000000"/>
<path d="M 139.892578 98.335938 L 139.892578 97.412109 L 146.729980 97.412109 L 146.729980 98.335938 Z " fill="black" fill-opacity="1.000000"/>
<path d="M 146.892578 98.335938 L 146.892578 97.412109 L 153.729980 97.412109 L 153.729980 98.335938 Z " fill="black" fill-opacity="1.000000"/>
<path d="M 153.892578 98.335938 L 153.892578 97.412109 L 160.729980 97.412109 L 160.729980 98.335938 Z " fill="black" fill-opacity="1.000000"/>
<path d="M 160.892578 98.335938 L 160.892578 97.412109 L 167.729980 97.412109 L 167.729980 98.335938 Z " fill="black" fill-opacity="1.000000"/>
<path d="M 167.892578 98.335938 L 167.892578 97.412109 L 174.729980 97.412109 L 174.729980 98.335938 Z " fill="black" fill-opacity="1.000000"/>
<path d="M 174.892578 98.335938 L 174.892578 97.412109 L 181.729980 97.412109 L 181.729980 98.335938 Z " fill="black" fill-opacity="1.000000"/>
<path d="M 181.892578 98.335938 L 181.892578 97.412109 L 188.729980 97.412109 L 188.729980 98.335938 Z " fill="black" fill-opacity="1.000000"/>
<path d="M 188.892578 98.335938 L 188.892578 97.412109 L 195.729980 97.412109 L 195.729980 98.335938 Z " fill="black" fill-opacity="1.000000"/>
<path d="M 195.892578 98.335938 L 195.892578 97.412109 L 202.729980 97.412109 L 202.729980 98.335938 Z " fill="black" fill-opacity="1.000000"/>
<path d="M 202.892578 98.335938 L 202.892578 97.412109 L 209.729980 97.412109 L 209.729980 98.335938 Z " fill="black" fill-opacity="1.000000"/>
<path d="M 212.878906 104.319336 L 212.878906 98.335938 L 209.892578 98.335938 L 209.892578 97.412109 L 212.878906 97.412109 L 212.878906 90.300781 L 213.738281 90.300781 L 213.738281 104.319336 Z " fill="black" fill-opacity="1.000000"/>
<path d="M 65.143066 41.872559 L 65.143066 44.885742 L 66.399902 44.885742 Q 67.151855 44.885742 67.573486 44.488281 Q 67.995117 44.090820 67.995117 43.376465 Q 67.995117 42.662109 67.576172 42.267334 Q 67.157227 41.872559 66.399902 41.872559 Z M 64.058105 40.980957 L 66.399902 40.980957 Q 67.742676 40.980957 68.435547 41.590576 Q 69.128418 42.200195 69.128418 43.376465 Q 69.128418 44.563477 68.438232 45.170410 Q 67.748047 45.777344 66.399902 45.777344 L 65.143066 45.777344 L 65.143066 49.000000 L 64.058105 49.000000 Z " fill="black" fill-opacity="1.000000"/>
<path d="M 212.878906 65.319336 L 212.878906 51.300781 L 213.738281 51.300781 L 213.738281 65.319336 Z " fill="black" fill-opacity="1.000000"/>
<path d="M 212.878906 78.319336 L 212.878906 64.300781 L 213.738281 64.300781 L 213.738281 78.319336 Z " fill="black" fill-opacity="1.000000"/>
<path d="M 212.878906 91.319336 L 212.878906 77.300781 L 213.738281 77.300781 L 213.738281 91.319336 Z " fill="black" fill-opacity="1.000000"/>
<path d="M 73.770508 45.976074 L 73.442871 45.976074 Q 72.578125 45.976074 72.140381 46.279541 Q 71.702637 46.583008 71.702637 47.184570 Q 71.702637 47.727051 72.030273 48.027832 Q 72.357910 48.328613 72.937988 48.328613 Q 73.754395 48.328613 74.221680 47.761963 Q 74.688965 47.195312 74.694336 46.196289 L 74.694336 45.976074 Z M 75.687988 45.567871 L 75.687988 49.000000 L 74.694336 49.000000 L 74.694336 48.108398 Q 74.377441 48.645508 73.896729 48.900635 Q 73.416016 49.155762 72.728516 49.155762 Q 71.810059 49.155762 71.262207 48.637451 Q 70.714355 48.119141 70.714355 47.249023 Q 70.714355 46.244629 71.388428 45.723633 Q 72.062500 45.202637 73.367676 45.202637 L 74.694336 45.202637 L 74.694336 45.046875 Q 74.688965 44.327148 74.329102 44.002197 Q 73.969238 43.677246 73.179688 43.677246 Q 72.674805 43.677246 72.159180 43.822266 Q 71.643555 43.967285 71.154785 44.246582 L 71.154785 43.258301 Q 71.702637 43.048828 72.204834 42.944092 Q 72.707031 42.839355 73.179688 42.839355 Q 73.926270 42.839355 74.455322 43.059570 Q 74.984375 43.279785 75.312012 43.720215 Q 75.516113 43.988770 75.602051 44.383545 Q 75.687988 44.778320 75.687988 45.567871 Z " fill="black" fill-opacity="1.000000"/>
<path d="M 81.608398 47.066406 Q 81.361328 47.694824 80.979980 48.720703 Q 80.448242 50.138672 80.265625 50.450195 Q 80.018555 50.869141 79.647949 51.078613 Q 79.277344 51.288086 78.783203 51.288086 L 77.988281 51.288086 L 77.988281 50.460938 L 78.573730 50.460938 Q 79.008789 50.460938 79.255859 50.208496 Q 79.502930 49.956055 79.884277 48.903320 L 77.558594 42.984375 L 78.605957 42.984375 L 80.389160 47.689453 L 82.145508 42.984375 L 83.192871 42.984375 Z " fill="black" fill-opacity="1.000000"/>
<path d="M 87.861816 46.824707 Q 87.861816 47.490723 88.106201 47.829102 Q 88.350586 48.167480 88.828613 48.167480 L 89.983398 48.167480 L 89.983398 49.000000 L 88.731934 49.000000 Q 87.845703 49.000000 87.359619 48.433350 Q 86.873535 47.866699 86.873535 46.824707 L 86.873535 41.383789 L 85.289062 41.383789 L 85.289062 40.610352 L 87.861816 40.610352 Z " fill="black" fill-opacity="1.000000"/>
<path d="M 94.308594 43.677246 Q 93.556641 43.677246 93.169922 44.262695 Q 92.783203 44.848145 92.783203 45.997559 Q 92.783203 47.141602 93.169922 47.729736 Q 93.556641 48.317871 94.308594 48.317871 Q 95.065918 48.317871 95.452637 47.729736 Q 95.839355 47.141602 95.839355 45.997559 Q 95.839355 44.848145 95.452637 44.262695 Q 95.065918 43.677246 94.308594 43.677246 Z M 94.308594 42.839355 Q 95.560059 42.839355 96.223389 43.650391 Q 96.886719 44.461426 96.886719 45.997559 Q 96.886719 47.539062 96.226074 48.347412 Q 95.565430 49.155762 94.308594 49.155762 Q 93.057129 49.155762 92.396484 48.347412 Q 91.735840 47.539062 91.735840 45.997559 Q 91.735840 44.461426 92.396484 43.650391 Q 93.057129 42.839355 94.308594 42.839355 Z " fill="black" fill-opacity="1.000000"/>
<path d="M 101.770508 45.976074 L 101.442871 45.976074 Q 100.578125 45.976074 100.140381 46.279541 Q 99.702637 46.583008 99.702637 47.184570 Q 99.702637 47.727051 100.030273 48.027832 Q 100.357910 48.328613 100.937988 48.328613 Q 101.754395 48.328613 102.221680 47.761963 Q 102.688965 47.195312 102.694336 46.196289 L 102.694336 45.976074 Z M 103.687988 45.567871 L 103.687988 49.000000 L 102.694336 49.000000 L 102.694336 48.108398 Q 102.377441 48.645508 101.896729 48.900635 Q 101.416016 49.155762 100.728516 49.155762 Q 99.810059 49.155762 99.262207 48.637451 Q 98.714355 48.119141 98.714355 47.249023 Q 98.714355 46.244629 99.388428 45.723633 Q 100.062500 45.202637 101.367676 45.202637 L 102.694336 45.202637 L 102.694336 45.046875 Q 102.688965 44.327148 102.329102 44.002197 Q 101.969238 43.677246 101.179688 43.677246 Q 100.674805 43.677246 100.159180 43.822266 Q 99.643555 43.967285 99.154785 44.246582 L 99.154785 43.258301 Q 99.702637 43.048828 100.204834 42.944092 Q 100.707031 42.839355 101.179688 42.839355 Q 101.926270 42.839355 102.455322 43.059570 Q 102.984375 43.279785 103.312012 43.720215 Q 103.516113 43.988770 103.602051 44.383545 Q 103.687988 44.778320 103.687988 45.567871 Z " fill="black" fill-opacity="1.000000"/>
<path d="M 109.608398 43.752441 L 109.608398 40.642578 L 110.596680 40.642578 L 110.596680 49.000000 L 109.608398 49.000000 L 109.608398 48.242676 Q 109.361328 48.688477 108.950439 48.922119 Q 108.539551 49.155762 108.002441 49.155762 Q 106.912109 49.155762 106.286377 48.309814 Q 105.660645 47.463867 105.660645 45.976074 Q 105.660645 44.509766 106.289062 43.674561 Q 106.917480 42.839355 108.002441 42.839355 Q 108.544922 42.839355 108.958496 43.072998 Q 109.372070 43.306641 109.608398 43.752441 Z M 106.702637 45.997559 Q 106.702637 47.146973 107.067871 47.732422 Q 107.433105 48.317871 108.147461 48.317871 Q 108.861816 48.317871 109.235107 47.727051 Q 109.608398 47.136230 109.608398 45.997559 Q 109.608398 44.853516 109.235107 44.265381 Q 108.861816 43.677246 108.147461 43.677246 Q 107.433105 43.677246 107.067871 44.262695 Q 106.702637 44.848145 106.702637 45.997559 Z " fill="black" fill-opacity="1.000000"/>
<path d="M 123.592285 40.116211 Q 122.877930 41.340820 122.526123 42.557373 Q 122.174316 43.773926 122.174316 45.009277 Q 122.174316 46.239258 122.526123 47.458496 Q 122.877930 48.677734 123.592285 49.913086 L 122.732910 49.913086 Q 121.921875 48.634766 121.524414 47.423584 Q 121.126953 46.212402 121.126953 45.009277 Q 121.126953 43.811523 121.524414 42.597656 Q 121.921875 41.383789 122.732910 40.116211 Z " fill="black" fill-opacity="1.000000"/>
<path d="M 127.154785 40.980957 L 128.245117 40.980957 L 128.245117 48.086914 L 132.117676 48.086914 L 132.117676 49.000000 L 127.154785 49.000000 Z " fill="black" fill-opacity="1.000000"/>
<path d="M 136.947754 41.969238 L 134.417969 46.207031 L 136.947754 46.207031 Z M 136.770508 40.980957 L 138.027344 40.980957 L 138.027344 46.207031 L 139.096191 46.207031 L 139.096191 47.087891 L 138.027344 47.087891 L 138.027344 49.000000 L 136.947754 49.000000 L 136.947754 47.087891 L 133.547852 47.087891 L 133.547852 46.062012 Z " fill="black" fill-opacity="1.000000"/>
<path d="M 141.869141 40.116211 L 142.728516 40.116211 Q 143.539551 41.383789 143.937012 42.597656 Q 144.334473 43.811523 144.334473 45.009277 Q 144.334473 46.217773 143.937012 47.431641 Q 143.539551 48.645508 142.728516 49.913086 L 141.869141 49.913086 Q 142.583496 48.666992 142.935303 47.447754 Q 143.287109 46.228516 143.287109 45.009277 Q 143.287109 43.784668 142.935303 42.565430 Q 142.583496 41.346191 141.869141 40.116211 Z " fill="black" fill-opacity="1.000000"/>
<path d="M 212.878906 52.319336 L 212.878906 38.300781 L 213.738281 38.300781 L 213.738281 52.319336 Z " fill="black" fill-opacity="1.000000"/>
<path d="M 212.878906 26.319336 L 212.878906 12.300781 L 213.738281 12.300781 L 213.738281 26.319336 Z " fill="black" fill-opacity="1.000000"/>
<path d="M 212.878906 39.319336 L 212.878906 25.300781 L 213.738281 25.300781 L 213.738281 39.319336 Z " fill="black" fill-opacity="1.000000"/>
<path d="M 6.892578 7.335938 L 6.892578 6.412109 L 13.729980 6.412109 L 13.729980 7.335938 Z " fill="black" fill-opacity="1.000000"/>
<path d="M 13.892578 7.335938 L 13.892578 6.412109 L 20.729980 6.412109 L 20.729980 7.335938 Z " fill="black" fill-opacity="1.000000"/>
<path d="M 20.892578 7.335938 L 20.892578 6.412109 L 27.729980 6.412109 L 27.729980 7.335938 Z " fill="black" fill-opacity="1.000000"/>
<path d="M 27.892578 7.335938 L 27.892578 6.412109 L 34.729980 6.412109 L 34.729980 7.335938 Z " fill="black" fill-opacity="1.000000"/>
<path d="M 34.892578 7.335938 L 34.892578 6.412109 L 41.729980 6.412109 L 41.729980 7.335938 Z " fill="black" fill-opacity="1.000000"/>
<path d="M 41.892578 7.335938 L 41.892578 6.412109 L 48.729980 6.412109 L 48.729980 7.335938 Z " fill="black" fill-opacity="1.000000"/>
<path d="M 48.892578 7.335938 L 48.892578 6.412109 L 55.729980 6.412109 L 55.729980 7.335938 Z " fill="black" fill-opacity="1.000000"/>
<path d="M 55.892578 7.335938 L 55.892578 6.412109 L 62.729980 6.412109 L 62.729980 7.335938 Z " fill="black" fill-opacity="1.000000"/>
<path d="M 62.892578 7.335938 L 62.892578 6.412109 L 69.729980 6.412109 L 69.729980 7.335938 Z " fill="black" fill-opacity="1.000000"/>
<path d="M 69.892578 7.335938 L 69.892578 6.412109 L 76.729980 6.412109 L 76.729980 7.335938 Z " fill="black" fill-opacity="1.000000"/>
<path d="M 76.892578 7.335938 L 76.892578 6.412109 L 83.729980 6.412109 L 83.729980 7.335938 Z " fill="black" fill-opacity="1.000000"/>
<path d="M 83.892578 7.335938 L 83.892578 6.412109 L 90.729980 6.412109 L 90.729980 7.335938 Z " fill="black" fill-opacity="1.000000"/>
<path d="M 90.892578 7.335938 L 90.892578 6.412109 L 97.729980 6.412109 L 97.729980 7.335938 Z " fill="black" fill-opacity="1.000000"/>
<path d="M 97.892578 7.335938 L 97.892578 6.412109 L 104.729980 6.412109 L 104.729980 7.335938 Z " fill="black" fill-opacity="1.000000"/>
<path d="M 104.892578 7.335938 L 104.892578 6.412109 L 111.729980 6.412109 L 111.729980 7.335938 Z " fill="black" fill-opacity="1.000000"/>
<path d="M 111.892578 7.335938 L 111.892578 6.412109 L 118.729980 6.412109 L 118.729980 7.335938 Z " fill="black" fill-opacity="1.000000"/>
<path d="M 118.892578 7.335938 L 118.892578 6.412109 L 125.729980 6.412109 L 125.729980 7.335938 Z " fill="black" fill-opacity="1.000000"/>
<path d="M 125.892578 7.335938 L 125.892578 6.412109 L 132.729980 6.412109 L 132.729980 7.335938 Z " fill="black" fill-opacity="1.000000"/>
<path d="M 132.892578 7.335938 L 132.892578 6.412109 L 139.729980 6.412109 L 139.729980 7.335938 Z " fill="black" fill-opacity="1.000000"/>
<path d="M 139.892578 7.335938 L 139.892578 6.412109 L 146.729980 6.412109 L 146.729980 7.335938 Z " fill="black" fill-opacity="1.000000"/>
<path d="M 146.892578 7.335938 L 146.892578 6.412109 L 153.729980 6.412109 L 153.729980 7.335938 Z " fill="black" fill-opacity="1.000000"/>
<path d="M 153.892578 7.335938 L 153.892578 6.412109 L 160.729980 6.412109 L 160.729980 7.335938 Z " fill="black" fill-opacity="1.000000"/>
<path d="M 160.892578 7.335938 L 160.892578 6.412109 L 167.729980 6.412109 L 167.729980 7.335938 Z " fill="black" fill-opacity="1.000000"/>
<path d="M 167.892578 7.335938 L 167.892578 6.412109 L 174.729980 6.412109 L 174.729980 7.335938 Z " fill="black" fill-opacity="1.000000"/>
<path d="M 174.892578 7.335938 L 174.892578 6.412109 L 181.729980 6.412109 L 181.729980 7.335938 Z " fill="black" fill-opacity="1.000000"/>
<path d="M 181.892578 7.335938 L 181.892578 6.412109 L 188.729980 6.412109 L 188.729980 7.335938 Z " fill="black" fill-opacity="1.000000"/>
<path d="M 188.892578 7.335938 L 188.892578 6.412109 L 195.729980 6.412109 L 195.729980 7.335938 Z " fill="black" fill-opacity="1.000000"/>
<path d="M 195.892578 7.335938 L 195.892578 6.412109 L 202.729980 6.412109 L 202.729980 7.335938 Z " fill="black" fill-opacity="1.000000"/>
<path d="M 202.892578 7.335938 L 202.892578 6.412109 L 209.729980 6.412109 L 209.729980 7.335938 Z " fill="black" fill-opacity="1.000000"/>
<path d="M 212.878906 13.319336 L 212.878906 7.335938 L 209.892578 7.335938 L 209.892578 6.412109 L 213.738281 6.412109 L 213.738281 13.319336 Z " fill="black" fill-opacity="1.000000"/>
</svg>
